<?xml version="1.0" encoding="UTF-8"?><svg id="design" xmlns="http://www.w3.org/2000/svg" viewBox="0 0 40 40"><defs><style>.cls-1{fill:#f4f4f4;}.cls-2,.cls-3{fill:#fff;}.cls-3,.cls-4,.cls-5,.cls-6,.cls-7,.cls-8{fill-rule:evenodd;}.cls-4{fill:#198cff;}.cls-5{fill:#f2f2f2;}.cls-6{fill:gray;}.cls-7{fill:#4d4d4d;}.cls-9{isolation:isolate;opacity:.5;}</style></defs><rect class="cls-1" width="40" height="40" rx="4" ry="4"/><g><path class="cls-4" d="M20,12.26c4.28,0,7.74,3.47,7.74,7.74s-3.47,7.74-7.74,7.74-7.74-3.47-7.74-7.74,3.47-7.74,7.74-7.74"/><path class="cls-3" d="M10.32,20c0-5.34,4.33-9.68,9.68-9.68s9.68,4.33,9.68,9.68-4.33,9.68-9.68,9.68-9.68-4.33-9.68-9.68Zm1.94,0c0,4.28,3.47,7.74,7.74,7.74s7.74-3.47,7.74-7.74-3.47-7.74-7.74-7.74-7.74,3.47-7.74,7.74Z"/><path class="cls-9" d="M10,20c0,5.52,4.48,10,10,10s10-4.48,10-10-4.48-10-10-10-10,4.48-10,10Zm.32,0c0-5.34,4.33-9.68,9.68-9.68s9.68,4.33,9.68,9.68-4.33,9.68-9.68,9.68-9.68-4.33-9.68-9.68Zm2.26,0c0,4.1,3.32,7.42,7.42,7.42s7.42-3.32,7.42-7.42-3.32-7.42-7.42-7.42-7.42,3.32-7.42,7.42Zm-.32,0c0-4.28,3.47-7.74,7.74-7.74s7.74,3.47,7.74,7.74-3.47,7.74-7.74,7.74-7.74-3.47-7.74-7.74Z"/><path class="cls-8" d="M23.33,28.09c2.94-1.26,5.01-4.17,5.01-7.57,0-4.54-3.69-8.23-8.25-8.23s-8.25,3.68-8.25,8.23,3.67,8.2,8.21,8.22c-.01,0-.03,0-.04,0-4.78,0-8.65-3.86-8.65-8.63s3.87-8.63,8.65-8.63,8.65,3.86,8.65,8.63c0,3.59-2.2,6.67-5.34,7.97Zm-3.49,.76c5.34,0,9.67-4.32,9.67-9.64,0-.5-.04-.98-.11-1.46,.18,.73,.28,1.5,.28,2.29,0,5.33-4.33,9.64-9.67,9.64-4.84,0-8.85-3.55-9.56-8.18,1.03,4.22,4.84,7.35,9.39,7.35h0Z"/><path class="cls-5" d="M20,14.19c3.21,0,5.81,2.6,5.81,5.81s-2.6,5.81-5.81,5.81-5.81-2.6-5.81-5.81,2.6-5.81,5.81-5.81Z"/><path d="M20,14.19c-3.21,0-5.81,2.6-5.81,5.81s2.6,5.81,5.81,5.81,5.81-2.6,5.81-5.81-2.6-5.81-5.81-5.81Zm0-.32c3.38,0,6.13,2.74,6.13,6.13s-2.74,6.13-6.13,6.13-6.13-2.74-6.13-6.13,2.74-6.13,6.13-6.13Z"/><path class="cls-8" d="M22.58,20c0,1.43-1.16,2.58-2.58,2.58s-2.58-1.16-2.58-2.58,1.16-2.58,2.58-2.58,2.58,1.16,2.58,2.58Z"/><path d="M22.26,20c0-1.25-1.01-2.26-2.26-2.26s-2.26,1.01-2.26,2.26,1.01,2.26,2.26,2.26,2.26-1.01,2.26-2.26Zm.32,0c0,1.43-1.16,2.58-2.58,2.58s-2.58-1.16-2.58-2.58,1.16-2.58,2.58-2.58,2.58,1.16,2.58,2.58Z"/><path class="cls-2" d="M22.58,20c0-1.43-1.16-2.58-2.58-2.58s-2.58,1.16-2.58,2.58,1.16,2.58,2.58,2.58,2.58-1.16,2.58-2.58Zm.32,0c0,1.6-1.3,2.9-2.9,2.9s-2.9-1.3-2.9-2.9,1.3-2.9,2.9-2.9,2.9,1.3,2.9,2.9Z"/><path class="cls-3" d="M18.71,18.83v-2.7h2.58v4.49l-.65,.6,.65,.6v2.7h-2.58v-4.49l.65-.6-.65-.6Z"/><path class="cls-7" d="M18.71,18.5v-2.7h2.58v4.49l-.65,.6,.65,.6v2.7h-2.58v-4.49l.65-.6-.65-.6Z"/><path class="cls-6" d="M19.03,18.78v-2.33h1.94v3.99l-.48,.55v.33l.48,.62v2.26h-1.94v-3.99l.48-.54v-.33l-.48-.55Z"/></g></svg>