<?xml version="1.0" encoding="UTF-8"?><svg id="design" xmlns="http://www.w3.org/2000/svg" viewBox="0 0 40 40"><defs><style>.cls-1{fill:#003059;}.cls-2{fill:#fff;}</style></defs><rect class="cls-1" width="40" height="40" rx="4" ry="4"/><path class="cls-2" d="M15.12,18.17s.82-1.24,1.93-1.24c1.68-.05,3.07,3.12,3.32,3.56,1.88-4.36,5-8.04,7.52-10.5H12.3V28c0,.69-.07,1.34-.2,2,2.03-.35,4.03-.84,5.97-1.53,4.73-1.76,6.58-3.61,6.58-3.61l.12-.12,.07,.15c.3,.74,.74,1.41,1.19,2.08,.64,.82,.99,.89,1.24,.82,.27-.07,.42-.54,.5-1.26,.07-.74,.12-2.35,.12-4.36V11.39c-4.53,5.82-7.92,14.53-7.92,14.53,0,0-2.25-7.77-4.85-7.75Z"/></svg>