<svg id="design" xmlns="http://www.w3.org/2000/svg" viewBox="0 0 40 40"><defs><style>.cls-1{fill:#f4f4f4;}.cls-2{fill:#fff;}.cls-3{fill:#ef3b35;}</style></defs><rect class="cls-1" y="0.01" width="40" height="40" rx="4"/><rect class="cls-2" x="9.66" y="8" width="20.69" height="24"/><polygon points="10.77 22.51 13.49 22.51 15.87 15.05 17.07 18.66 15.34 18.66 14.73 20.88 17.7 20.88 18.22 22.51 20.96 22.51 17.31 11.83 14.4 11.83 10.77 22.51"/><path d="M21,11.83h4.31s3.85-.1,3.85,3.64V16a3.85,3.85,0,0,1-4,3.46h-.88V17s2,.15,2-1.32-.91-1.44-1.38-1.44H23.71v8.23H21Z"/><rect class="cls-3" x="9.66" y="29.21" width="20.69" height="2.79"/><path d="M12.62,27.21V24.5H13L13.62,26V24.5H14v2.71H13.7L13,25.59v1.62Z"/><path d="M14.44,27.21V24.5h1.14v.34h-.65v.78h.51V26h-.51v.89h.65v.35Z"/><path d="M16.16,27.21l-.39-2.71h.42l.22,1.75.28-1.75H17l.29,1.75.22-1.75h.4l-.37,2.71h-.4l-.31-1.82-.29,1.82Z"/><path d="M18.93,27.24a.86.86,0,0,1-.41-.09.68.68,0,0,1-.25-.28,1.5,1.5,0,0,1-.09-.45l.42-.09a1.88,1.88,0,0,0,0,.28.49.49,0,0,0,.1.19.24.24,0,0,0,.17.06.18.18,0,0,0,.17-.07.27.27,0,0,0,.05-.18.43.43,0,0,0-.08-.29.9.9,0,0,0-.21-.23l-.34-.3a1,1,0,0,1-.23-.28.74.74,0,0,1-.09-.38.63.63,0,0,1,.19-.49.69.69,0,0,1,.51-.17,1,1,0,0,1,.32.05.55.55,0,0,1,.2.17.61.61,0,0,1,.11.23,1.26,1.26,0,0,1,0,.28l-.42.08c0-.09,0-.17,0-.23a.27.27,0,0,0-.08-.16.2.2,0,0,0-.16-.06.21.21,0,0,0-.17.08.24.24,0,0,0-.06.17.39.39,0,0,0,.06.23.86.86,0,0,0,.16.18l.34.3a1.32,1.32,0,0,1,.29.33.85.85,0,0,1,.12.46.64.64,0,0,1-.09.34.62.62,0,0,1-.24.24A.78.78,0,0,1,18.93,27.24Z"/><path d="M19.87,27.21V24.5h.65a1.51,1.51,0,0,1,.46.06.54.54,0,0,1,.29.22.78.78,0,0,1,.1.43,1.39,1.39,0,0,1,0,.3.55.55,0,0,1-.1.22.48.48,0,0,1-.2.14l.38,1.34h-.5L20.59,26h-.22v1.25Zm.5-1.56h.15a.5.5,0,0,0,.23,0,.22.22,0,0,0,.12-.13.55.55,0,0,0,0-.24.49.49,0,0,0-.08-.3.32.32,0,0,0-.28-.11h-.18Z"/><path d="M22.47,27.24a.9.9,0,0,1-.46-.1.67.67,0,0,1-.24-.31,1.38,1.38,0,0,1-.08-.48v-1a1.32,1.32,0,0,1,.08-.47.6.6,0,0,1,.24-.3.9.9,0,0,1,.46-.1.85.85,0,0,1,.46.1.57.57,0,0,1,.25.3,1.33,1.33,0,0,1,.07.47v1a1.37,1.37,0,0,1-.07.47.57.57,0,0,1-.25.3A.77.77,0,0,1,22.47,27.24Zm0-.36a.24.24,0,0,0,.18-.06.22.22,0,0,0,.08-.14,1.36,1.36,0,0,0,0-.21V25.23a1.25,1.25,0,0,0,0-.21.22.22,0,0,0-.08-.14.35.35,0,0,0-.36,0,.27.27,0,0,0-.08.14,1.25,1.25,0,0,0,0,.21v1.24a1.36,1.36,0,0,0,0,.21.22.22,0,0,0,.08.14A.24.24,0,0,0,22.47,26.88Z"/><path d="M24.35,27.24a.9.9,0,0,1-.46-.1.67.67,0,0,1-.24-.31,1.39,1.39,0,0,1-.07-.48v-1a1.33,1.33,0,0,1,.07-.47.6.6,0,0,1,.24-.3.9.9,0,0,1,.46-.1.91.91,0,0,1,.47.1.6.6,0,0,1,.24.3,1.32,1.32,0,0,1,.08.47v1a1.36,1.36,0,0,1-.08.47.6.6,0,0,1-.24.3A.82.82,0,0,1,24.35,27.24Zm0-.36a.25.25,0,0,0,.19-.06.26.26,0,0,0,.07-.14.71.71,0,0,0,0-.21V25.23a.68.68,0,0,0,0-.21.26.26,0,0,0-.07-.14.26.26,0,0,0-.19-.05.23.23,0,0,0-.25.19.68.68,0,0,0,0,.21v1.24a1.41,1.41,0,0,0,0,.21.27.27,0,0,0,.08.14A.24.24,0,0,0,24.35,26.88Z"/><path d="M25.49,27.21l.05-2.71h.51l.39,1.87.4-1.87h.49l.05,2.71H27l0-1.89-.39,1.89h-.3l-.39-1.89,0,1.89Z"/></svg>