<?xml version="1.0" encoding="UTF-8"?><svg id="design" xmlns="http://www.w3.org/2000/svg" viewBox="0 0 40 40"><defs><style>.cls-1{fill:#fff;}.cls-2{fill:#f7941d;}</style></defs><rect class="cls-2" width="40" height="40" rx="4" ry="4"/><path class="cls-1" d="M20.31,10.38c-.08-.16-.28-.23-.44-.15-.06,.04-.11,.09-.14,.15L10.03,29.33c-.08,.17,0,.37,.16,.45,.04,.02,.08,.03,.13,.03h5.12c.13,0,.24-.07,.3-.19l3.99-8.27c.08-.16,.27-.23,.43-.15,0,0,0,0,.01,0,.06,.03,.11,.08,.14,.15l3.99,8.26c.06,.11,.17,.18,.3,.18h5.07c.18,0,.33-.15,.33-.33h0s-.02-.1-.04-.14L20.31,10.38Z"/></svg>