<svg id="design" xmlns="http://www.w3.org/2000/svg" viewBox="0 0 40 40"><defs><style>.cls-1{fill:#f4f4f4;}.cls-2{fill:#252f3e;}.cls-3{fill:#f90;}</style></defs><rect class="cls-1" width="40" height="40" rx="4"/><path class="cls-2" d="M15,18.12a2.11,2.11,0,0,0,.09.68,3.54,3.54,0,0,0,.24.55.29.29,0,0,1-.09.41l-.48.32a.44.44,0,0,1-.2.07.33.33,0,0,1-.23-.11,2.93,2.93,0,0,1-.28-.36c-.07-.13-.15-.28-.23-.45a2.84,2.84,0,0,1-2.25,1.05A2.07,2.07,0,0,1,10,19.73a1.93,1.93,0,0,1-.57-1.47,2,2,0,0,1,.7-1.57,2.75,2.75,0,0,1,1.87-.6,5.73,5.73,0,0,1,.81.06c.29,0,.58.1.88.17v-.56a1.68,1.68,0,0,0-.36-1.22,1.74,1.74,0,0,0-1.24-.35,3.42,3.42,0,0,0-.83.1,5,5,0,0,0-.83.26l-.26.1-.13,0c-.1,0-.16-.08-.16-.24v-.37a.45.45,0,0,1,.06-.27.47.47,0,0,1,.21-.16,4.84,4.84,0,0,1,1-.35,4.7,4.7,0,0,1,1.2-.14,2.76,2.76,0,0,1,2,.62A2.53,2.53,0,0,1,15,15.64v2.48Zm-3.1,1.16a2.22,2.22,0,0,0,.78-.14,1.69,1.69,0,0,0,.73-.49,1.22,1.22,0,0,0,.26-.49,2.48,2.48,0,0,0,.08-.66v-.32a5,5,0,0,0-.71-.13A5.81,5.81,0,0,0,12.3,17a1.76,1.76,0,0,0-1.14.31,1.05,1.05,0,0,0-.37.88,1,1,0,0,0,1.09,1.09Zm6.14.83a.44.44,0,0,1-.29-.08.59.59,0,0,1-.16-.3l-1.8-5.91a1.11,1.11,0,0,1-.07-.31.17.17,0,0,1,.18-.19h.75c.15,0,.25,0,.3.08a.62.62,0,0,1,.16.3l1.28,5.06,1.19-5.06a.51.51,0,0,1,.15-.3.5.5,0,0,1,.31-.08h.61a.42.42,0,0,1,.3.08.49.49,0,0,1,.15.3l1.21,5.12,1.32-5.12a.67.67,0,0,1,.15-.3.47.47,0,0,1,.3-.08h.71a.17.17,0,0,1,.19.19.62.62,0,0,1,0,.13,1.86,1.86,0,0,1-.05.19l-1.85,5.91a.59.59,0,0,1-.16.3.54.54,0,0,1-.29.07h-.66a.47.47,0,0,1-.3-.07.56.56,0,0,1-.15-.31L20.31,14.8l-1.18,4.92A.59.59,0,0,1,19,20a.49.49,0,0,1-.3.08Zm9.83.2a5.14,5.14,0,0,1-1.18-.13,4.13,4.13,0,0,1-.88-.31.65.65,0,0,1-.24-.21.57.57,0,0,1,0-.22v-.39c0-.16.06-.24.17-.24a.32.32,0,0,1,.14,0l.19.07a3.93,3.93,0,0,0,.84.27,4.76,4.76,0,0,0,.91.09A2,2,0,0,0,28.88,19a.83.83,0,0,0,.4-.73.72.72,0,0,0-.21-.53,1.87,1.87,0,0,0-.77-.4L27.19,17A2.35,2.35,0,0,1,26,16.24a1.79,1.79,0,0,1-.39-1.11,1.67,1.67,0,0,1,.21-.85,2,2,0,0,1,.55-.63,2.31,2.31,0,0,1,.8-.4,3.32,3.32,0,0,1,1-.13l.51,0,.5.09c.15,0,.3.07.44.12a2,2,0,0,1,.32.14.75.75,0,0,1,.23.19.44.44,0,0,1,.07.25v.36c0,.16-.07.25-.18.25a.7.7,0,0,1-.29-.1,3.67,3.67,0,0,0-1.47-.29,1.94,1.94,0,0,0-1,.21.76.76,0,0,0-.36.68.73.73,0,0,0,.23.54,2.31,2.31,0,0,0,.84.42l1.09.35a2.34,2.34,0,0,1,1.19.73,1.8,1.8,0,0,1,.35,1.07,2,2,0,0,1-.2.89,2,2,0,0,1-.56.67,2.35,2.35,0,0,1-.85.43,3.5,3.5,0,0,1-1.09.16Z"/><path class="cls-3" d="M29.29,24A16.47,16.47,0,0,1,20,26.88,16.86,16.86,0,0,1,8.6,22.54c-.24-.21,0-.51.26-.34a23,23,0,0,0,11.38,3,22.81,22.81,0,0,0,8.69-1.77c.42-.19.78.28.36.58Z"/><path class="cls-3" d="M30.34,22.84c-.32-.42-2.12-.2-2.94-.1-.25,0-.29-.19-.06-.35A4.55,4.55,0,0,1,31.41,22c.28.35-.07,2.71-1.42,3.84-.21.18-.41.09-.31-.14C30,25,30.66,23.24,30.34,22.84Z"/></svg>