<?xml version="1.0" encoding="UTF-8"?><svg id="design" xmlns="http://www.w3.org/2000/svg" viewBox="0 0 40 40"><defs><style>.cls-1{fill:#fff;}.cls-2{fill:#004cff;}</style></defs><rect class="cls-2" width="40" height="40" rx="4" ry="4"/><g><path id="Path" class="cls-1" d="M25.9,18.69c-.28-.24-11.75-8.25-12.27-8.57l-.16-.12v1.97c0,.64,.32,.85,.72,1.17l.08,.04c.56,.4,8.73,6.08,9.82,6.84-1.09,.76-9.38,6.52-9.9,6.84-.64,.4-.68,.68-.68,1.25v1.89s12.19-8.49,12.43-8.69h0c.56-.4,.68-.93,.68-1.25v-.24c0-.4-.24-.8-.72-1.13Z"/><path id="Path-2" class="cls-1" d="M18.73,20.91c.32,0,.64-.12,.97-.36,.4-.28,.76-.52,.76-.52l.12-.08-.12-.08s-5.39-3.74-5.96-4.1c-.24-.2-.56-.24-.76-.12-.2,.12-.36,.32-.36,.64v1.25l.04,.04s3.7,2.58,4.43,3.06c.32,.2,.6,.28,.89,.28Z"/></g></svg>