<?xml version="1.0" encoding="UTF-8"?><svg id="design" xmlns="http://www.w3.org/2000/svg" viewBox="0 0 40 40"><defs><style>.cls-1{fill:#232736;}.cls-2{fill:#fff;}</style></defs><rect class="cls-1" width="40" height="40" rx="4" ry="4"/><g id="g45"><path id="path12" class="cls-2" d="M19.14,27.98l-5.85-12.19c-1.41,1.3-2.31,3.14-2.31,5.22,0,3.89,3.17,7.06,7.06,7.06,.37,0,.72-.03,1.1-.09"/><path id="path14" class="cls-2" d="M16.74,14.06c.43-.09,.86-.12,1.3-.12,3.89,0,7.06,3.17,7.06,7.06,0,2.13-.95,4.06-2.48,5.36l1.73,3.63c2.82-1.99,4.67-5.27,4.67-8.99,.03-6.08-4.9-11.01-10.98-11.01-1.04,0-2.07,.14-3.03,.43l1.73,3.63Z"/></g></svg>