<?xml version="1.0" encoding="UTF-8"?><svg id="design" xmlns="http://www.w3.org/2000/svg" viewBox="0 0 40 40"><defs><style>.cls-1{fill:#fff;fill-rule:evenodd;}.cls-2{fill:#40be46;}</style></defs><rect class="cls-2" width="40" height="40" rx="4" ry="4"/><g><path class="cls-1" d="M30,23.13c0-.53-.33-1.02-.88-1.43,.05,.16,.08,.33,.08,.5,0,1.52-2.12,2.82-5.13,3.36,.34,.04,.69,.06,1.06,.06,2.7,0,4.88-1.11,4.88-2.49Z"/><path class="cls-1" d="M28.27,22.3c0,1.46-3.26,2.64-7.29,2.64s-7.29-1.18-7.29-2.64c0-.46,.32-.89,.89-1.27-.09,.16-.13,.33-.13,.5,0,1.35,2.87,2.44,6.41,2.44s6.41-1.09,6.41-2.44c0-.25-.1-.5-.29-.73,.81,.43,1.29,.94,1.29,1.5Z"/><path class="cls-1" d="M14.49,19.96c-1.47,.36-2.47,1.06-2.47,1.87,0,.5,.38,.96,1.02,1.32-.19-.31-.3-.63-.3-.97,0-.84,.65-1.62,1.74-2.23Z"/><path class="cls-1" d="M28.87,17.59c-.14-.16-.32-.16-.47-.03-.14,.19-.15,.32-.04,.42,.11,.11,.33,.21,.49,.08,.16-.13,.16-.31,.02-.47Z"/><path class="cls-1" d="M27.02,18.2c.46-.64,1.33,.49,.34,.65-.4,.06-1.06,.5-1.35,1.18-.41,1.01-.23,1.76-.93,2.21-1.49,.96-6.06,1.32-8.03,.09-1.54-.97-1.01-2.5-5.43-5.87-.58-.44,.11-.91,.54-.61,.43,.3,.04,.38,.91,1.25,1.76,1.76,1.75,.18,2.02,.78,.59,1.26,1.88,2.53,1.88,2.53,1.29,.84,2.33,1.03,4.23-.27,1.21-.82,.71,1.3,3.68-.23,1.08-.56,1.04-.19,2.14-1.72h0Z"/><path class="cls-1" d="M14.14,16.58c-.07-.11-.3-.15-.45,0-.15,.15-.08,.3,.01,.39,.12,.13,.33,.12,.46,.05,.12-.07,.1-.26-.02-.43Z"/><path class="cls-1" d="M11.08,15.41c.1-.11,.22-.31,0-.69-.15-.28-.66-.4-.84-.29-.18,.11-.4,.52-.1,.71,.39,.24,.64,.59,.93,.28Z"/><path class="cls-1" d="M29.37,14.89c-.14-.2-.42-.16-.71,.04-.28,.21-.23,.6-.14,.69,.16,.16,.6,.05,.71-.06,.26-.29,.27-.47,.14-.67Z"/><path class="cls-1" d="M27.74,16.14c.41-.19,1.04,.43,.12,.9-1.32,.67-1.46,1.5-2.3,2.02-1.4,.89-.97,.04-3.23-.29-.87-.12-1.15,.85-1.83,.57-1.56-.65-2.66-.52-3.67,.3-.37-.16-.75-.79-.9-1.04,.41-.4,.24-1.07,.01-1.44-.23-.37-.51-.26-.82-.6-.31-.34,.12-1.22,.51-.54,1.48,2.55,2.45,1.49,3.66,1.34,1.16-.15,2.19,.49,2.5-1.3,.05-.29,.34-.36,.37,.12,.03,.48,.21,1.66,.85,1.81,.64,.15,1.14-.15,1.29-.32,.15-.17,.23-.14,.29,.27,.07,.42,.23,.99,1.12,.35,1.83-1.31,1.31-1.81,2.02-2.15Z"/><path class="cls-1" d="M22.29,14.94c0-.21-.09-.34-.3-.33-.21,0-.28,.11-.27,.31,.05,.38,.12,.37,.25,.41,.14,.04,.31-.18,.32-.39Z"/><path class="cls-1" d="M14.95,15.3c.09-.11,.1-.26-.02-.43-.07-.11-.42-.18-.57-.03-.15,.15-.01,.38,.1,.42,.21,.07,.31,.27,.49,.04Z"/></g></svg>