<?xml version="1.0" encoding="UTF-8"?><svg id="design" xmlns="http://www.w3.org/2000/svg" viewBox="0 0 40 40"><defs><style>.cls-1{fill:#fff;}.cls-2{fill:#009cc9;}</style></defs><rect class="cls-2" width="40" height="40" rx="4" ry="4"/><path class="cls-1" d="M24.73,26.09l-4-7.27,.82-1.32,5.67,10.09H12.44l-.96-1.5h13.25Zm-10.91-2.43l-.04,.06h8.5s.77,1.39,.77,1.39H11.44l7.54-12.71h1.74l-6.9,11.26Zm4.48-.92l1.83-2.95,1.62,2.95h-3.46Zm-1.16,0h-1.59s6.04-9.86,6.04-9.86l7.29,12.62-.83,1.56-6.42-11.43-.03-.06-4.45,7.17Zm5.02-10.84l-.28-.48h-3.47l-8.41,14.19,1.89,2.96H28.35l1.64-3.07v-.02s-7.83-13.58-7.83-13.58Z"/></svg>