<svg width="40" height="41" viewBox="0 0 40 41" fill="none" xmlns="http://www.w3.org/2000/svg">
<rect y="0.583984" width="40" height="40" rx="4" fill="#00B388"/>
<path d="M24.28 30.1723C23.94 29.3623 23.22 28.7523 22.35 28.5723C21.83 28.4523 20.97 28.3723 20 28.3723C19.03 28.3723 18.17 28.4523 17.65 28.5723C16.78 28.7523 16.07 29.3523 15.73 30.1523C15.61 30.4323 15.33 30.6023 15.03 30.5723C14.96 30.5723 14.89 30.5623 14.84 30.5523C13.44 30.4123 12.34 30.2223 11.7 29.9923C11.27 29.8323 10.97 29.4123 10.97 28.9323C10.97 28.9223 10.97 28.9123 10.97 28.8923C10.97 28.8723 10.97 28.8523 10.97 28.8323C10.97 28.8323 10.97 28.8323 10.97 28.8223C10.97 28.8123 10.97 28.7923 10.97 28.7823C11.08 27.3223 11.96 23.9023 13.28 20.0023C14.79 15.5423 16.37 11.9323 17.08 11.2323C17.19 11.1123 17.32 11.0123 17.47 10.9423C17.53 10.9123 17.6 10.8823 17.68 10.8523C18.15 10.6923 19.01 10.5923 20 10.5923C20.99 10.5923 21.85 10.7023 22.32 10.8523C22.41 10.8823 22.48 10.9123 22.53 10.9423C22.67 11.0223 22.81 11.1223 22.92 11.2323C23.63 11.9323 25.21 15.5423 26.72 20.0023C28.04 23.9023 28.92 27.3223 29.03 28.7823C29.03 28.7923 29.03 28.8023 29.03 28.8223C29.03 28.8223 29.03 28.8223 29.03 28.8323C29.03 28.8523 29.03 28.8723 29.03 28.8923C29.03 28.9023 29.03 28.9123 29.03 28.9323C29.03 29.4223 28.73 29.8323 28.3 29.9923C27.66 30.2223 26.56 30.4123 25.17 30.5523C25.11 30.5523 25.04 30.5623 24.95 30.5723C24.66 30.6023 24.39 30.4323 24.28 30.1723Z" fill="white"/>
</svg>
