<svg id="design" xmlns="http://www.w3.org/2000/svg" viewBox="0 0 40 40"><defs><style>.cls-1{fill:#d4002a;}.cls-2{fill:#fff;}</style></defs><rect class="cls-1" width="40" height="40" rx="4"/><path id="path14" class="cls-2" d="M30.82,17.19V17h.11c.06,0,.12,0,.12.09s-.07.1-.14.1Zm-.11.36h.11v-.27h.09l.14.27h.14L31,17.27a.17.17,0,0,0,.15-.18c0-.14-.12-.19-.24-.19h-.22Zm-.26-.32a.47.47,0,0,1,.48-.48.48.48,0,0,1,.48.48.49.49,0,0,1-.48.48A.48.48,0,0,1,30.45,17.23Zm-.09,0a.56.56,0,0,0,.57.56.57.57,0,1,0-.57-.56Zm-8.31,6.11h1.62V16.66H22.05Zm-.65-6.68H19.62l-1.55,4.83L16.5,16.66H14.69l2.53,6.68h1.61l2.57-6.68Zm-5.73,6.68-2.73-6.68H11.33L8.5,23.34h1.78L10.77,22h2.59l.52,1.31Zm-2.75-2.6H11.24l.85-2.3Zm15.79-2.41a1.77,1.77,0,0,0-1.23-.51c-.42,0-.94.14-.94.67s.4.59,1,.79c.91.3,2.08.67,2.08,2a2.27,2.27,0,0,1-2.56,2.23,3.55,3.55,0,0,1-2.5-1l1-1a2.1,2.1,0,0,0,1.51.65c.49,0,.93-.19.93-.73s-.51-.68-1.39-1-1.71-.7-1.71-1.91c0-1.48,1.34-2.09,2.59-2.09a3.35,3.35,0,0,1,2.19.82l-1,1"/></svg>