<?xml version="1.0" encoding="UTF-8"?><svg id="design" xmlns="http://www.w3.org/2000/svg" viewBox="0 0 40 40"><defs><style>.cls-1{fill:#fff;}.cls-2{fill:#f25c29;}</style></defs><rect class="cls-2" width="40" height="40" rx="4" ry="4"/><g><path class="cls-1" d="M18.28,21.16c.14-1.01-.26-2.39-1.69-2.77-1.22-.33-2.43-.24-3.47,.56-.39,.3-.68,.73-.98,1.12-.1,.13-.19,.2-.35,.19-1.11-.12-1.65-.91-1.14-1.94,.3-.6,.81-1,1.38-1.33,.87-.51,1.83-.74,2.82-.81,1.12-.08,2.24-.02,3.3,.4,1.56,.63,2.42,1.81,2.62,3.47,.06,.49,.06,1,.06,1.5,0,2.15,0,4.3,.01,6.45,0,.32-.13,.44-.4,.51-.78,.19-1.47,0-1.77-.56-.18-.33-.25-.73-.37-1.11-.15,.15-.32,.35-.52,.53-.98,.89-2.14,1.3-3.46,1.33-.92,.02-1.81-.09-2.65-.53-1.32-.7-1.82-2.07-1.64-3.4,.21-1.56,1.29-2.33,2.64-2.82,1.17-.42,2.39-.59,3.63-.67,.66-.04,1.32-.08,1.98-.11Zm-.66,1.65c-.73,.07-1.46,.12-2.19,.22-.71,.1-1.41,.27-2.03,.64-.68,.4-.98,1-.87,1.78,.09,.66,.53,1.05,1.14,1.25,.51,.17,1.03,.18,1.56,.13,1.55-.15,3.15-1.26,3.1-3.28-.02-.72,0-.72-.71-.74Z"/><path class="cls-1" d="M25.67,17.78v.4c0,3.21,0,6.42,0,9.64,0,.56-.18,.72-.73,.7-.27-.01-.45-.13-.49-.41-.02-.14-.04-.29-.04-.44,0-3.16,0-6.33,0-9.49q0-.39-.4-.39c-.5,0-1,0-1.5,0-.44,0-.57-.12-.59-.47-.03-.5,.09-.65,.58-.67,.51-.03,1.02,0,1.53,0q.38,0,.38-.39c0-.85,0-1.7,.21-2.54,.5-1.91,1.97-2.56,3.69-2.35,.56,.07,1.07,.25,1.46,.68,.28,.31,.31,.73,.09,1.02-.12,.16-.22,.2-.4,.04-.67-.6-1.47-.76-2.33-.58-.81,.17-1.2,.79-1.32,1.53-.12,.79-.11,1.6-.15,2.4-.01,.2,.13,.18,.26,.18,.76,0,1.51,0,2.27,0,.43,0,.63,.16,.66,.51,.04,.41-.15,.63-.57,.64-.75,0-1.49,0-2.24,0-.11,0-.21,0-.37,0Z"/></g></svg>