<svg width="24" height="24" viewBox="0 0 24 24" fill="none" xmlns="http://www.w3.org/2000/svg">
<path fill-rule="evenodd" clip-rule="evenodd" d="M12 1H3.75C2.7875 1 1.9625 1.825 1.9625 2.7875C1.9625 3.75 2.7875 4.575 3.75 4.575H11.5875C11.5875 4.575 11.5875 4.575 11.45 4.575C11.5875 4.575 11.725 4.575 12 4.575C16.125 4.575 19.0125 7.7375 19.0125 11.8625C19.0125 16.125 16.125 19.425 12 19.425C7.875 19.425 4.9875 16.125 4.9875 11.8625C4.9875 9.25 6.0875 7.05 8.0125 5.8125C8.0125 5.8125 8.0125 5.8125 7.875 5.8125H5.4C4.575 5.8125 3.8875 5.2625 3.75 4.575C2.1 6.5 1 8.975 1 11.8625C1 18.05 5.5375 23 12 23C18.4625 23 23 18.1875 23 11.8625C22.8625 5.675 18.325 1 12 1Z" fill="#85BF41"/>
<path fill-rule="evenodd" clip-rule="evenodd" d="M5.30914 5.81245H7.78413C7.78413 5.81245 7.78413 5.81245 7.92163 5.81245C8.88413 5.12495 10.1216 4.71245 11.4966 4.57495C11.4966 4.57495 11.4966 4.57495 11.6341 4.57495H3.79663C3.93413 5.26245 4.62164 5.81245 5.30914 5.81245Z" fill="#6E9451"/>
</svg>
