<svg width="24" height="24" viewBox="0 0 24 24" fill="none" xmlns="http://www.w3.org/2000/svg">
<path d="M14.7428 11.5124C14.7404 12.2472 14.4474 12.9512 13.9278 13.4707C13.4082 13.9903 12.7042 14.2833 11.9694 14.2857H10.9028V13.0667H11.9694C12.3817 13.0667 12.777 12.9029 13.0685 12.6114C13.36 12.3199 13.5237 11.9246 13.5237 11.5124C13.5237 11.1001 13.36 10.7048 13.0685 10.4133C12.777 10.1218 12.3817 9.95808 11.9694 9.95808H10.9028V8.73904H11.9694C12.7042 8.74145 13.4082 9.03441 13.9278 9.55399C14.4474 10.0736 14.7404 10.7776 14.7428 11.5124ZM8.83039 8.73904V10.9943H6.91039L6.20944 12.2133H10.0494V8.73904H8.83039ZM22.6666 10.4762C22.6666 11.4865 22.2652 12.4555 21.5508 13.1699C20.8364 13.8843 19.8674 14.2857 18.8571 14.2857V16.3581H15.5656V14.7428C15.1127 15.2569 14.5543 15.6673 13.9285 15.946C13.3026 16.2248 12.624 16.3653 11.939 16.3581H8.83039V14.2857H6.3923L5.17325 16.3581H1.33325L6.97135 6.66666H11.9694C12.6525 6.67243 13.327 6.81883 13.9509 7.09673C14.5749 7.37463 15.1349 7.77806 15.5961 8.28189V6.66666H18.8875C19.8931 6.6731 20.8552 7.0775 21.5634 7.7914C22.2716 8.5053 22.6682 9.4706 22.6666 10.4762ZM11.9694 15.139C12.658 15.1407 13.3329 14.9469 13.9156 14.58C14.4983 14.2131 14.9648 13.6883 15.2609 13.0667H16.8152V15.139H17.6685V13.0667H18.8875C19.2278 13.0671 19.5649 13.0003 19.8793 12.8703C20.1938 12.7402 20.4795 12.5494 20.7202 12.3088C20.9608 12.0682 21.1516 11.7825 21.2816 11.468C21.4117 11.1535 21.4784 10.8165 21.478 10.4762C21.4716 9.78585 21.1924 9.12608 20.7014 8.64079C20.2104 8.1555 19.5474 7.88406 18.8571 7.8857H16.7847V10.9943H15.5656C15.4349 10.1326 15.0008 9.34597 14.3415 8.77604C13.6821 8.20611 12.8409 7.89037 11.9694 7.8857H7.70277L3.46658 15.139H4.4723L5.69135 13.0667H10.0494V15.139H11.9694ZM18.8571 8.73904H17.638V9.95808H18.8571C18.9252 9.95768 18.9928 9.9708 19.0558 9.9967C19.1188 10.0226 19.1761 10.0607 19.2243 10.1089C19.2725 10.1571 19.3106 10.2144 19.3365 10.2774C19.3624 10.3405 19.3756 10.408 19.3752 10.4762C19.3713 10.6124 19.3155 10.7419 19.2192 10.8383C19.1228 10.9346 18.9933 10.9904 18.8571 10.9943H17.638V12.2133H18.8571C19.3178 12.2133 19.7596 12.0303 20.0854 11.7045C20.4112 11.3787 20.5942 10.9369 20.5942 10.4762C20.5894 10.0169 20.4049 9.57785 20.0801 9.2531C19.7554 8.92834 19.3163 8.7438 18.8571 8.73904Z" fill="white"/>
</svg>
