<svg width="18" height="23" viewBox="0 0 18 23" fill="none" xmlns="http://www.w3.org/2000/svg">
<path d="M17.3839 7.90143C17.2563 8.00044 15.0032 9.26997 15.0032 12.0928C15.0032 15.358 17.8701 16.5131 17.9559 16.5417C17.9427 16.6121 17.5005 18.1237 16.4444 19.6638C15.5027 21.0191 14.5192 22.3723 13.023 22.3723C11.5269 22.3723 11.1419 21.5032 9.41468 21.5032C7.73151 21.5032 7.13305 22.4009 5.76452 22.4009C4.39598 22.4009 3.44109 21.1468 2.34318 19.6066C1.07145 17.798 0.0439453 14.9883 0.0439453 12.3217C0.0439453 8.04444 2.82502 5.77602 5.5621 5.77602C7.01644 5.77602 8.22876 6.73091 9.14186 6.73091C10.0109 6.73091 11.3663 5.71881 13.0208 5.71881C13.6479 5.71881 15.9009 5.77602 17.3839 7.90143ZM12.2354 3.90803C12.9196 3.09615 13.4037 1.96964 13.4037 0.843123C13.4037 0.686908 13.3905 0.528492 13.3619 0.400879C12.2486 0.442683 10.924 1.14235 10.1254 2.06865C9.49829 2.78152 8.91303 3.90803 8.91303 5.04994C8.91303 5.22156 8.94164 5.39318 8.95484 5.44818C9.02524 5.46138 9.13966 5.47679 9.25407 5.47679C10.253 5.47679 11.5093 4.80792 12.2354 3.90803Z" fill="black"/>
</svg>
