<svg width="24" height="24" viewBox="0 0 24 24" fill="none" xmlns="http://www.w3.org/2000/svg">
<path fill-rule="evenodd" clip-rule="evenodd" d="M20.0837 5.93572L13.7979 17.5646C13.735 17.6903 13.7979 17.8789 13.9236 17.9418C13.9864 17.9418 13.9864 18.0046 14.0493 18.0046H16.5008C16.6265 18.0046 16.6894 17.9418 16.7522 17.8789L22.9753 6.18715C23.0381 6.06143 22.9753 5.87286 22.8495 5.81H22.7867H20.3352C20.2095 5.81 20.1466 5.87286 20.0837 5.93572Z" fill="white"/>
<path fill-rule="evenodd" clip-rule="evenodd" d="M13.6724 5.93572L7.38648 17.5646C7.32362 17.6903 7.38648 17.8789 7.51219 17.9418C7.57505 17.9418 7.57505 18.0046 7.63791 18.0046H10.0894C10.2151 18.0046 10.278 17.9418 10.3408 17.8789L16.6267 6.25001C16.6896 6.12429 16.6267 5.93572 16.501 5.87286C16.4382 5.81 16.4382 5.81 16.3753 5.81H13.9238C13.8609 5.81 13.7352 5.87286 13.6724 5.93572Z" fill="white"/>
<path fill-rule="evenodd" clip-rule="evenodd" d="M7.32349 5.93572L1.03759 17.5646C0.974736 17.7532 0.974736 17.8789 1.16331 17.9418C1.22617 17.9418 1.22617 18.0046 1.28903 18.0046H3.74053C3.86625 18.0046 3.9291 17.9418 3.99196 17.8789L10.2779 6.25001C10.3407 6.12429 10.2779 5.93572 10.1521 5.87286C10.0264 5.81 10.0264 5.81 9.96356 5.81H7.51206C7.4492 5.81 7.32349 5.87286 7.32349 5.93572Z" fill="white"/>
</svg>
