<svg id="design" xmlns="http://www.w3.org/2000/svg" xmlns:xlink="http://www.w3.org/1999/xlink" viewBox="0 0 40 40"><defs><style>.cls-1{fill:url(#linear-gradient);}.cls-2{fill:#fff;}</style><linearGradient id="linear-gradient" x1="36.12" y1="1.13" x2="5.36" y2="37.16" gradientUnits="userSpaceOnUse"><stop offset="0" stop-color="#0052cc"/><stop offset="0.92" stop-color="#2684ff"/></linearGradient></defs><rect class="cls-1" y="0.01" width="40" height="40" rx="4"/><path id="path13" class="cls-2" d="M15.12,19.07a.68.68,0,0,0-.95-.12.64.64,0,0,0-.21.25L8.07,31a.7.7,0,0,0,.32.94A.68.68,0,0,0,8.7,32h8.2a.7.7,0,0,0,.63-.4C19.3,28,18.23,22.39,15.12,19.07Z"/><path id="path15" class="cls-2" d="M19.44,8.38a15.52,15.52,0,0,0-.9,15.33l4,7.89a.7.7,0,0,0,.63.39h8.19a.73.73,0,0,0,.67-.78.86.86,0,0,0-.06-.23L20.64,8.38a.67.67,0,0,0-1.2,0Z"/></svg>