<?xml version="1.0" encoding="UTF-8"?><svg id="design" xmlns="http://www.w3.org/2000/svg" viewBox="0 0 40 40"><defs><style>.cls-1{fill:#fff;}.cls-2{fill:#5763f8;}</style></defs><rect class="cls-2" width="40" height="40" rx="4" ry="4"/><path class="cls-1" d="M26.32,25s.09-.02,.14,0l2.62,1.29s.06,.07,.04,.11c0,.02-.02,.03-.04,.04l-5.52,2.72c-.15,.08-.33,.08-.48,0l-5.52-2.72s-.06-.07-.04-.11c0-.02,.02-.03,.04-.04l2.62-1.29s.09-.02,.14,0l2.8,1.38c.12,.06,.27,.06,.39,0l2.8-1.38Zm-8.76-3.27s-.06,.07-.04,.11c0,.02,.02,.03,.04,.04l5.56,2.74c.12,.06,.27,.06,.39,0l5.56-2.74s.06-.07,.04-.11c0-.02-.02-.03-.04-.04l-5.69-2.81s-.09-.02-.14,0l-5.69,2.81Zm-1.63-4.29c-1.67-4.08,3.68-6.34,5.86-2.8,.03,.05,.1,.07,.16,.05,2.36-1.1,4.4,.59,3.83,3.02-.02,.08,.02,.17,.1,.21l4.03,1.99s.07,0,.08-.03c0-.01,0-.03,0-.04-.2-1.18-.84-2.24-1.79-2.97-.03-.02-.04-.05-.05-.09-.18-2.68-2.5-4.7-5.18-4.52-.08,0-.17,.01-.25,.02-.03,0-.07,0-.1-.03-3.45-3.13-8.69-.95-9.1,3.75,0,.04-.03,.08-.07,.1-6.58,3.27-2.97,12.31,3.95,8.12-6.17,.82-5.9-6.26-1.48-6.78Z"/></svg>