<svg id="design" xmlns="http://www.w3.org/2000/svg" viewBox="0 0 40 40"><defs><style>.cls-1{fill:#f4f4f4;}.cls-2{fill:#75b82c;}.cls-3{fill:#3d90d5;}</style></defs><rect class="cls-1" width="40" height="40" rx="4"/><path id="path14" class="cls-2" d="M9.37,15.59l3.55,6.77a1.68,1.68,0,0,0,1.34.83h0l7.24,0c.5,0,.7-.37.46-.83h0l-3.55-6.77a1.67,1.67,0,0,0-1.34-.83H9.8c-.47,0-.66.39-.43.84"/><path id="path16" class="cls-2" d="M23.13,23.47l2.15,4a1,1,0,0,0,.8.49h0l4.32-.05c.29,0,.41-.23.27-.5h0l-2.15-4a1,1,0,0,0-.8-.49h0L23.4,23h0c-.29,0-.4.23-.26.5"/><path id="path18" class="cls-3" d="M23.16,8.24l-4.32,5.54a1.5,1.5,0,0,0-.08,1.51h0L22.36,22c.25.46.69.52,1,.14h0l4.32-5.54a1.53,1.53,0,0,0,.09-1.51h0L24.14,8.38A.64.64,0,0,0,23.58,8h0a.58.58,0,0,0-.42.25"/><path id="path20" class="cls-3" d="M22.15,23.54l-2.57,3.3a.9.9,0,0,0-.06.9h0l2.15,4c.15.27.41.31.59.08h0l2.57-3.3a.9.9,0,0,0,.05-.9h0l-2.15-4a.39.39,0,0,0-.33-.24h0a.34.34,0,0,0-.25.15"/></svg>