<svg width="22" height="22" viewBox="0 0 22 22" fill="none" xmlns="http://www.w3.org/2000/svg">
<path fill-rule="evenodd" clip-rule="evenodd" d="M10.3001 22C10.1896 22 10.1001 21.9105 10.1001 21.8V13.1727L3.99961 19.2732C3.92151 19.3513 3.79487 19.3513 3.71677 19.2732L2.72682 18.2832C2.64872 18.2051 2.64872 18.0785 2.72682 18.0004L8.82717 11.9H0.2C0.0895431 11.9 0 11.8105 0 11.7V10.3C0 10.1896 0.0895441 10.1 0.200001 10.1H8.82732L2.72687 3.99957C2.64877 3.92147 2.64877 3.79484 2.72687 3.71673L3.71682 2.72678C3.79493 2.64868 3.92156 2.64868 3.99967 2.72678L10.1001 8.82721V0.2C10.1001 0.0895431 10.1896 0 10.3001 0H11.7001C11.8106 0 11.9001 0.0895442 11.9001 0.200001V8.8271L18.0003 2.72687C18.0784 2.64876 18.2051 2.64876 18.2832 2.72687L19.2731 3.71682C19.3512 3.79492 19.3512 3.92155 19.2731 3.99966L13.1728 10.1H21.8C21.9105 10.1 22 10.1896 22 10.3V11.7C22 11.8105 21.9105 11.9 21.8 11.9H13.1729L19.2732 18.0003C19.3513 18.0784 19.3513 18.205 19.2732 18.2831L18.2832 19.2731C18.2051 19.3512 18.0785 19.3512 18.0004 19.2731L11.9001 13.1728V21.8C11.9001 21.9105 11.8106 22 11.7001 22H10.3001Z" fill="white"/>
</svg>
