<?xml version="1.0" encoding="UTF-8"?><svg id="design" xmlns="http://www.w3.org/2000/svg" viewBox="0 0 40 40"><defs><style>.cls-1{fill:#f74e0a;}.cls-1,.cls-2,.cls-3,.cls-4,.cls-5{fill-rule:evenodd;}.cls-6{fill:#f4f4f4;}.cls-2{fill:#45ae3d;}.cls-3{fill:#6556c4;}.cls-4{fill:#2d96cb;}.cls-5{fill:#ffa216;}</style></defs><rect class="cls-6" width="40" height="40" rx="4" ry="4"/><g><path class="cls-5" d="M25.06,23.23h0c0,.43-.34,.77-.77,.77H13.27c-.43,0-.77-.34-.77-.77h0c0-.43,.34-.77,.77-.77h11.02c.43,0,.77,.34,.77,.77Z"/><path class="cls-3" d="M19.8,13.53h0c0,.43-.34,.77-.77,.77H10.77c-.43,0-.77-.34-.77-.77h0c0-.43,.34-.77,.77-.77h8.25c.43,0,.77,.34,.77,.77Z"/><path class="cls-4" d="M25.06,16.77h0c0,.43-.34,.77-.77,.77H13.27c-.43,0-.77-.34-.77-.77h0c0-.43,.34-.77,.77-.77h11.02c.43,0,.77,.34,.77,.77Z"/><path class="cls-2" d="M30,20h0c0,.43-.34,.77-.77,.77H15.81c-.43,0-.77-.34-.77-.77h0c0-.43,.34-.77,.77-.77h13.41c.43,0,.77,.34,.77,.77Z"/><path class="cls-1" d="M19.8,26.47h0c0,.43-.34,.77-.77,.77H10.77c-.43,0-.77-.34-.77-.77h0c0-.43,.34-.77,.77-.77h8.25c.43,0,.77,.34,.77,.77Z"/></g></svg>