<svg width="24" height="24" viewBox="0 0 24 24" fill="none" xmlns="http://www.w3.org/2000/svg">
<path d="M16.988 13.9289C16.5989 13.3965 16.1815 12.9633 16.1815 11.9727V8.68412C16.1815 7.29035 16.2825 6.01084 15.2439 5.05195C14.4263 4.27435 13.0682 4 12.0296 4C9.99823 4 7.73215 4.74938 7.25693 7.23258C7.20663 7.49634 7.40033 7.63441 7.57592 7.67322L9.64436 7.89463C9.83806 7.8849 9.97793 7.69659 10.0154 7.50693C10.1928 6.65124 10.9173 6.24017 11.7313 6.24017C12.1703 6.24017 12.6689 6.39896 12.9288 6.78843C13.2279 7.22199 13.1878 7.81787 13.1878 8.31848V8.59414C11.9506 8.73088 10.3323 8.82175 9.1736 9.32411C7.83716 9.8966 6.89868 11.0615 6.89868 12.7737C6.89868 14.968 8.29516 16.0649 10.0931 16.0649C11.6105 16.0649 12.4409 15.7107 13.6114 14.5305C13.9997 15.0871 14.1268 15.3552 14.8349 15.9379C14.9937 16.0217 15.1985 16.0137 15.3392 15.8876L15.3397 15.8872L15.3445 15.8925C15.7707 15.5176 16.5446 14.8524 16.981 14.4908C17.1553 14.3492 17.1244 14.1203 16.988 13.9289ZM12.7885 12.9806C12.4497 13.576 11.91 13.9403 11.3104 13.9403C10.4928 13.9403 10.0128 13.3228 10.0128 12.4094C10.0128 10.6111 11.6444 10.2847 13.1874 10.2847V10.7404H13.1878C13.1878 11.563 13.2077 12.2479 12.7885 12.9806Z" fill="white"/>
<path d="M19.5392 17.5174C17.496 19.0243 14.533 19.8261 11.9812 19.8261C8.40622 19.8261 5.18598 18.5052 2.74928 16.306C2.55814 16.1331 2.72874 15.897 2.95837 16.0312C5.58773 17.5607 8.83874 18.4814 12.1964 18.4814C14.4618 18.4814 16.9515 18.0119 19.2423 17.0399C19.5879 16.8939 19.8775 17.2682 19.5392 17.5174Z" fill="white"/>
<path d="M20.3893 16.5467C20.1281 16.2126 18.6612 16.3884 18.0034 16.4679C17.8033 16.4911 17.7725 16.3175 17.9523 16.1901C19.122 15.3688 21.0388 15.6065 21.2618 15.881C21.4864 16.1594 21.2031 18.0801 20.1066 18.9963C19.9379 19.1378 19.7778 19.0633 19.8523 18.8767C20.0989 18.2601 20.6514 16.8814 20.3893 16.5467Z" fill="white"/>
</svg>
