<svg width="40" height="41" viewBox="0 0 40 41" fill="none" xmlns="http://www.w3.org/2000/svg">
<rect y="0.400879" width="40" height="40" rx="4" fill="#F7F8FA"/>
<path d="M28.3839 15.9014C28.2563 16.0004 26.0032 17.27 26.0032 20.0928C26.0032 23.358 28.8701 24.5131 28.9559 24.5417C28.9427 24.6121 28.5005 26.1237 27.4444 27.6638C26.5027 29.0191 25.5192 30.3723 24.023 30.3723C22.5269 30.3723 22.1419 29.5032 20.4147 29.5032C18.7315 29.5032 18.1331 30.4009 16.7645 30.4009C15.396 30.4009 14.4411 29.1468 13.3432 27.6066C12.0714 25.798 11.0439 22.9883 11.0439 20.3217C11.0439 16.0444 13.825 13.776 16.5621 13.776C18.0164 13.776 19.2288 14.7309 20.1419 14.7309C21.0109 14.7309 22.3663 13.7188 24.0208 13.7188C24.6479 13.7188 26.9009 13.776 28.3839 15.9014V15.9014ZM23.2354 11.908C23.9196 11.0961 24.4037 9.96964 24.4037 8.84312C24.4037 8.68691 24.3905 8.52849 24.3619 8.40088C23.2486 8.44268 21.924 9.14235 21.1254 10.0686C20.4983 10.7815 19.913 11.908 19.913 13.0499C19.913 13.2216 19.9416 13.3932 19.9548 13.4482C20.0252 13.4614 20.1397 13.4768 20.2541 13.4768C21.253 13.4768 22.5093 12.8079 23.2354 11.908Z" fill="black"/>
</svg>
