<svg width="18" height="18" viewBox="0 0 18 18" fill="none" xmlns="http://www.w3.org/2000/svg">
<path d="M13.2215 9.41105C11.4021 9.41105 9.92754 10.8857 9.92754 12.7047C9.92754 14.5239 11.4021 15.9988 13.2215 15.9988C15.0405 15.9988 16.5151 14.5239 16.5151 12.7047C16.5151 10.8857 15.0405 9.41105 13.2215 9.41105ZM4.66389 9.41121C2.84486 9.41137 1.37012 10.8857 1.37012 12.7048C1.37012 14.5239 2.84486 15.9986 4.66389 15.9986C6.48306 15.9986 7.95781 14.5239 7.95781 12.7048C7.95781 10.8856 6.48306 9.41121 4.66372 9.41121H4.66389ZM12.2364 5.2938C12.2364 7.11284 10.7618 8.58791 8.94276 8.58791C7.12343 8.58791 5.64884 7.11284 5.64884 5.2938C5.64884 3.47475 7.12343 2 8.94275 2C10.7618 2 12.2362 3.47475 12.2362 5.2938H12.2364Z" fill="url(#paint0_radial_314_2454)"/>
<defs>
<radialGradient id="paint0_radial_314_2454" cx="0" cy="0" r="1" gradientUnits="userSpaceOnUse" gradientTransform="translate(8.94465 9.65938) scale(10.0411 9.28121)">
<stop stop-color="#FFB900"/>
<stop offset="0.6" stop-color="#F95D8F"/>
<stop offset="0.999" stop-color="#F95353"/>
</radialGradient>
</defs>
</svg>
