<svg width="18" height="18" viewBox="0 0 18 18" fill="none" xmlns="http://www.w3.org/2000/svg">
<path d="M6.13684 8.03792C5.92837 7.81522 5.60354 7.82785 5.46186 8.11121L2.04318 14.9487C1.97981 15.0754 1.98656 15.2259 2.06102 15.3464C2.13549 15.4669 2.26705 15.5403 2.40871 15.5402H7.16971C7.32555 15.5439 7.46887 15.4553 7.53532 15.3143C8.56191 13.1917 7.93994 9.96441 6.13684 8.03792Z" fill="url(#paint0_linear_314_2462)"/>
<path d="M8.64534 1.81903C6.73323 4.84854 6.85938 8.20379 8.11885 10.7228L10.4145 15.3142C10.4838 15.4526 10.6253 15.5401 10.7801 15.5401H15.541C15.6827 15.5401 15.8142 15.4668 15.8887 15.3463C15.9632 15.2257 15.9699 15.0753 15.9065 14.9486C15.9065 14.9486 9.50164 2.13697 9.34052 1.81643C9.19647 1.52946 8.83055 1.52556 8.64534 1.81903Z" fill="white"/>
<defs>
<linearGradient id="paint0_linear_314_2462" x1="5.54969" y1="6.80192" x2="0.756654" y2="11.9505" gradientUnits="userSpaceOnUse">
<stop stop-color="#0D4EC0"/>
<stop offset="0.923" stop-color="white"/>
</linearGradient>
</defs>
</svg>
