<svg id="design" xmlns="http://www.w3.org/2000/svg" viewBox="0 0 40 40"><defs><style>.cls-1{fill:#fff;}</style></defs><rect y="0.01" width="40" height="40" rx="4"/><path class="cls-1" d="M8.23,13.3,19.1,8.2a2.06,2.06,0,0,1,1.84,0l10.24,4.81c.25.12.54.21.54.5s-.33.42-.58.54l-9.83,4.6a2.9,2.9,0,0,1-2.63,0L8.23,13.84V13.3Zm0,13,1.92-1a2.46,2.46,0,0,1,2.34,0l6.31,3a2.54,2.54,0,0,0,2.34,0l6.4-3a2.54,2.54,0,0,1,2.34,0c.46.25,1,.46,1.42.67.21.12.51.21.46.5s-.25.38-.46.46l-4.76,2.26-5.39,2.51a2.42,2.42,0,0,1-2.13,0L8.9,27.05a5.73,5.73,0,0,1-.58-.38c-.08-.08-.08-.21-.08-.37Zm0-6.48,1.46-.71a3.21,3.21,0,0,1,3.35,0c2,1,4,1.83,5.93,2.8a2.41,2.41,0,0,0,2.13,0l6.31-3A2.71,2.71,0,0,1,30,19c.46.25,1,.46,1.46.71s.38.5,0,.75a1.53,1.53,0,0,1-.37.17L21,25.29a2.14,2.14,0,0,1-2,0L9,20.61c-.25-.12-.46-.29-.71-.42v-.37Z"/></svg>