<svg id="design" xmlns="http://www.w3.org/2000/svg" viewBox="0 0 40 40"><defs><style>.cls-1{fill:#ef7e19;}.cls-2{fill:#f6b881;}.cls-3{fill:#fff;}</style></defs><rect class="cls-1" y="0.01" width="40" height="40" rx="4"/><path class="cls-2" d="M18.53,14.38V8.21l6.33,4.66a6.71,6.71,0,0,1,2.57,4,6.65,6.65,0,0,0-4.64-2.44Z"/><path id="Shape" class="cls-3" d="M22.69,26.39a1.4,1.4,0,0,1-1.41,1.31h-4V19.94h4a1.4,1.4,0,0,1,1.41,1.32ZM17.26,15.7V8h-4.7V32h9.86a5,5,0,0,0,5-5V20.72a5,5,0,0,0-5-5H17.26Z"/></svg>