<svg id="design" xmlns="http://www.w3.org/2000/svg" viewBox="0 0 40 40"><defs><style>.cls-1{fill:#3b79cc;}.cls-2{fill:#fff;}</style></defs><rect class="cls-1" y="0.01" width="40" height="40" rx="4"/><path class="cls-2" d="M22.45,24.48a7.07,7.07,0,0,0-7.21-6.94H15a7.13,7.13,0,0,0-7,7.23v.05A7.07,7.07,0,0,0,15.22,32a7.13,7.13,0,0,0,7.23-7.23v-.29Zm-3.63.37a3.45,3.45,0,0,1-3.58,3.55,3.58,3.58,0,0,1-3.62-3.61v-.05a3.47,3.47,0,0,1,3.57-3.55,3.59,3.59,0,0,1,3.63,3.6Z"/><path class="cls-2" d="M17.16,24.82v0a1.93,1.93,0,0,0-2-1.94,1.87,1.87,0,0,0-1.92,1.81v.13a1.93,1.93,0,0,0,2,1.95,1.87,1.87,0,0,0,1.92-1.81Z"/><path class="cls-2" d="M17,12.79c4.66,0,10.21,4.13,10.21,10.16a1.65,1.65,0,0,1-1.66,1.66h0a1.22,1.22,0,0,1-1.19-1.09,8.93,8.93,0,0,0-7.93-7.85,1.25,1.25,0,0,1-1.09-1.22v0A1.7,1.7,0,0,1,17,12.79ZM17.06,8A1.66,1.66,0,0,0,15.4,9.66v0a1.19,1.19,0,0,0,1.11,1.15A13.68,13.68,0,0,1,29.16,23.4a1.16,1.16,0,0,0,1.14,1.08h0A1.67,1.67,0,0,0,32,22.83C32,14,24.06,8,17.06,8"/></svg>