<svg id="design" xmlns="http://www.w3.org/2000/svg" viewBox="0 0 40 40"><defs><style>.cls-1{fill:#0061d5;}.cls-2{fill:#fff;}</style></defs><rect class="cls-1" y="0.01" width="40" height="40" rx="4"/><path class="cls-2" d="M20.34,24.46A2.66,2.66,0,1,1,23,21.78a2.66,2.66,0,0,1-2.64,2.68m-7.84.05a2.66,2.66,0,1,1,2.64-2.68,2.66,2.66,0,0,1-2.64,2.68m7.79-7.15a4.42,4.42,0,0,0-3.9,2.39,4.45,4.45,0,0,0-3.94-2.34,4.38,4.38,0,0,0-2.65.91l0-3.74a.89.89,0,0,0-1.77,0L8,22h0a4.43,4.43,0,0,0,8.36,1.95,4.44,4.44,0,1,0,3.88-6.54m11.52,7.4-2.49-3,2.45-3a.84.84,0,0,0-.21-1.23,1,1,0,0,0-1.34.17h0l-2.11,2.64L26,17.66a1,1,0,0,0-1.34-.15.84.84,0,0,0-.2,1.23l2.49,3-2.45,3A.84.84,0,0,0,24.67,26,1,1,0,0,0,26,25.87l2.11-2.64,2.16,2.61a1,1,0,0,0,1.34.15.85.85,0,0,0,.2-1.23"/></svg>