<?xml version="1.0" encoding="UTF-8"?><svg id="design" xmlns="http://www.w3.org/2000/svg" viewBox="0 0 40 40"><defs><style>.cls-1{fill:#2559aa;}.cls-2{fill:#f4f4f4;}.cls-3{fill:#1e88e5;}.cls-4{fill:#1565c0;}.cls-5{fill:#1976d2;}</style></defs><rect class="cls-2" width="40" height="40" rx="4" ry="4"/><g><path class="cls-5" d="M23.77,20.39h-5.65s0,1.11,0,1.11h1.37c1.1,0,2,.9,2,2s-.9,2-2,2h-2.5l-4.5,4.5h4.38c.11,0,.22,0,.33,0,1.57-.06,8.8-.74,8.8-5.5,0-2.83-2-3.99-2.23-4.11Z"/><path class="cls-4" d="M27.5,24.12c0-2.5-2.45-3.89-3.05-4.14-.21,.15-.44,.28-.67,.4,.23,.13,2.23,1.29,2.23,4.11,0,4.75-7.23,5.44-8.8,5.5,9.8-.1,10.3-4.31,10.3-5.87Z"/><path class="cls-3" d="M18,10h-5.5V30l4.5-4.5v-4h1s3.29,.19,5.77-1.11h0c.1-.05,.2-.11,.29-.16,.13-.07,.26-.15,.38-.24,.77-.53,1.4-1.25,1.75-2.21,.19-.52,.3-1.11,.3-1.78,0-6-5.44-6-8.5-6Zm2,8.5h-2c-.55,0-1-.45-1-1v-2c0-.55,.45-1,1-1h2c1.1,0,2,.9,2,2s-.9,2-2,2Z"/><path class="cls-4" d="M21.32,15.01c.42,.37,.68,.9,.68,1.49,0,1.1-.9,2-2,2h-2c-.55,0-1-.45-1-1v-2s0-2.41,1.19-3.68c-1.26,.37-2.35,1.14-3.12,2.55-2.06,3.75-2.56,15.62-2.56,15.62l4.5-3.49v-5.01h1c4,0,7.5-2,7.5-5.23,0-.09,0-.17-.01-.25-.02,0-.03-.01-.05-.02-1.26-.74-3.71-.96-4.12-.99Z"/><path class="cls-1" d="M20.25,11.55c-.72,0-1.41,.08-2.06,.27-1.18,1.27-1.19,3.68-1.19,3.68,0-.55,.45-1,1-1h2c.51,0,.96,.19,1.32,.51,.41,.03,2.86,.25,4.12,.99,.02,.01,.03,.01,.05,.02-.15-2.49-2.43-4.47-5.24-4.47Zm-.75,13.95h-2.5v1h2c1.66,0,2.5-1.34,2.5-3,0,1.1-.9,2-2,2Z"/></g></svg>