<svg width="40" height="41" viewBox="0 0 40 41" fill="none" xmlns="http://www.w3.org/2000/svg">
<rect y="0.105591" width="40" height="40" rx="4" fill="#F4F4F4"/>
<path opacity="0.8" d="M16.0662 15.8425L22.7883 22.5647V15.3033C20.5836 14.4885 18.1152 14.6802 16.0662 15.8425Z" fill="#FFA101"/>
<path opacity="0.8" d="M22.1292 15.0996V24.6017L27.2577 19.4732C26.2751 17.3284 24.4058 15.7227 22.1292 15.0996Z" fill="#F7ED00"/>
<path opacity="0.8" d="M26.9463 18.8501L20.2241 25.5723H27.4855C28.3003 23.3675 28.1086 20.9111 26.9463 18.8501Z" fill="#B5DD01"/>
<path opacity="0.8" d="M27.7011 24.9132H18.199L23.3275 30.0417C25.4604 29.0711 27.066 27.1899 27.7011 24.9132Z" fill="#60C660"/>
<path opacity="0.8" d="M23.9387 29.7422L17.2166 23.02V30.2814C19.4213 31.0962 21.8897 30.9045 23.9387 29.7422Z" fill="#668FD1"/>
<path opacity="0.8" d="M12.7351 26.1115C13.7177 28.2564 15.5989 29.85 17.8636 30.4851V20.983L12.7351 26.1115Z" fill="#9869BC"/>
<path opacity="0.8" d="M12.5193 20.0004C11.6926 22.2052 11.8963 24.6736 13.0586 26.7226L19.7807 20.0004H12.5193Z" fill="#D35F99"/>
<path opacity="0.8" d="M16.6773 15.5309C14.5325 16.5135 12.9388 18.3948 12.3037 20.6595H21.8178L16.6773 15.5309Z" fill="#E54838"/>
<path fill-rule="evenodd" clip-rule="evenodd" d="M11.8442 9.10559H13.1023V18.5962C14.5474 16.3115 17.0965 14.7943 19.9999 14.7943C24.5041 14.7943 28.1556 18.4457 28.1556 22.95C28.1556 27.4542 24.5041 31.1056 19.9999 31.1056C15.5976 31.1056 12.0099 27.6176 11.8498 23.2543H11.8442V22.95V9.10559ZM20.0001 29.8793C23.8238 29.8793 26.9235 26.7796 26.9235 22.9559C26.9235 19.1321 23.8238 16.0324 20.0001 16.0324C16.1763 16.0324 13.0766 19.1321 13.0766 22.9559C13.0766 26.7796 16.1763 29.8793 20.0001 29.8793Z" fill="#1D1B2F"/>
</svg>
