<svg id="design" xmlns="http://www.w3.org/2000/svg" xmlns:xlink="http://www.w3.org/1999/xlink" viewBox="0 0 40 40"><defs><style>.cls-1{fill:none;}.cls-2{fill:#f4f4f4;}.cls-3{fill:#ffd603;}.cls-4{fill:#218dff;}.cls-5{fill:#fff;}.cls-6{clip-path:url(#clip-path);}</style><clipPath id="clip-path"><path class="cls-1" d="M29.88,27.79a1.82,1.82,0,0,1-1.29.61c-2.06.1-5.22.21-8.59.21s-6.53-.11-8.59-.21a1.85,1.85,0,0,1-1.76-2c.11-1.65.26-3.11.44-4.34.27-1.82.67-3.67,1-4.91a1.84,1.84,0,0,1,1.68-1.41c1.5-.09,4-.21,7.27-.21s5.77.12,7.27.21A1.84,1.84,0,0,1,29,17.19c.29,1.24.69,3.09,1,4.91.18,1.23.33,2.69.44,4.34A1.81,1.81,0,0,1,29.88,27.79Zm1.66-5.93c-.28-1.88-.69-3.78-1-5.05a3.48,3.48,0,0,0-3.18-2.68c-1.52-.09-4-.2-7.37-.2s-5.85.11-7.37.2a3.48,3.48,0,0,0-3.18,2.68c-.3,1.27-.71,3.17-1,5.05-.19,1.28-.34,2.78-.45,4.47a3.49,3.49,0,0,0,3.32,3.72c2.08.1,5.27.21,8.67.21s6.59-.11,8.67-.21A3.49,3.49,0,0,0,32,26.33C31.88,24.64,31.73,23.14,31.54,21.86Z"/></clipPath></defs><rect class="cls-2" y="0.01" width="40" height="40" rx="4"/><path class="cls-3" d="M20,26.41a2.67,2.67,0,0,0,2.67-2.67H17.33A2.67,2.67,0,0,0,20,26.41Z"/><path class="cls-4" d="M14,20.45a1.64,1.64,0,0,0-1.65,1.64h3.29A1.63,1.63,0,0,0,14,20.45Z"/><path class="cls-4" d="M26,20.45a1.64,1.64,0,0,0-1.65,1.64h3.29A1.63,1.63,0,0,0,26,20.45Z"/><path class="cls-4" d="M20,12.2A1.23,1.23,0,1,0,18.77,11,1.23,1.23,0,0,0,20,12.2Z"/><path class="cls-5" d="M29.88,27.79a1.82,1.82,0,0,1-1.29.61c-2.06.1-5.22.21-8.59.21s-6.53-.11-8.59-.21a1.85,1.85,0,0,1-1.76-2c.11-1.65.26-3.11.44-4.34.27-1.82.67-3.67,1-4.91a1.84,1.84,0,0,1,1.68-1.41c1.5-.09,4-.21,7.27-.21s5.77.12,7.27.21A1.84,1.84,0,0,1,29,17.19c.29,1.24.69,3.09,1,4.91.18,1.23.33,2.69.44,4.34A1.81,1.81,0,0,1,29.88,27.79Zm1.66-5.93c-.28-1.88-.69-3.78-1-5.05a3.48,3.48,0,0,0-3.18-2.68c-1.52-.09-4-.2-7.37-.2s-5.85.11-7.37.2a3.48,3.48,0,0,0-3.18,2.68c-.3,1.27-.71,3.17-1,5.05-.19,1.28-.34,2.78-.45,4.47a3.49,3.49,0,0,0,3.32,3.72c2.08.1,5.27.21,8.67.21s6.59-.11,8.67-.21A3.49,3.49,0,0,0,32,26.33C31.88,24.64,31.73,23.14,31.54,21.86Z"/><g class="cls-6"><rect class="cls-4" x="3.45" y="13.47" width="34.64" height="9.1"/><rect class="cls-3" x="3.45" y="22.57" width="34.64" height="9.1"/></g></svg>