<svg id="design" xmlns="http://www.w3.org/2000/svg" viewBox="0 0 40 40"><defs><style>.cls-1{fill:#1f98d5;}.cls-2{fill:#fff;}</style></defs><rect class="cls-1" y="0.01" width="40" height="40" rx="4"/><path class="cls-2" d="M31.6,16.89A12.13,12.13,0,0,0,20,8a11.64,11.64,0,0,0-4.51.9h0a12.4,12.4,0,0,0-4.55,3.35h0l0,0,0,0h0A11.77,11.77,0,0,0,8.4,23a13.39,13.39,0,0,0,2.38,4.67A12.3,12.3,0,0,0,15.38,31a11.92,11.92,0,0,0,10.55-.57A12.16,12.16,0,0,0,31.6,16.89Zm-4.93,7a2,2,0,0,1-.74,1.75c-.61.47-1,.52-2.49.53-.11,0-7.64-.66-11.56,1.1l-.17-.19h0a12.09,12.09,0,0,1-2.15-4.23,10.69,10.69,0,0,1,2.23-9.71h0l0,0,0,0h0a3.58,3.58,0,0,1,.26-.29c3.75,1.79,8,1.59,12,1.58a2.74,2.74,0,0,1,1.92.55,2.27,2.27,0,0,1,.6,1.75v1.45a1.87,1.87,0,0,1-.5,1.36,2.36,2.36,0,0,1-1.44.64,2.36,2.36,0,0,1,1.5.73,2.23,2.23,0,0,1,.52,1.54Z"/><path class="cls-2" d="M23.92,18.9a.78.78,0,0,0,.26-.66V17.11a.77.77,0,0,0-.26-.65,1.66,1.66,0,0,0-.94-.2H17v2.83h6A1.67,1.67,0,0,0,23.92,18.9Z"/><path class="cls-2" d="M23,21H17v3h6a1.59,1.59,0,0,0,1-.23,1.11,1.11,0,0,0,.26-.83v-.9a1.1,1.1,0,0,0-.26-.83A1.59,1.59,0,0,0,23,21Z"/></svg>