<?xml version="1.0" encoding="UTF-8"?><svg id="design" xmlns="http://www.w3.org/2000/svg" viewBox="0 0 40 40"><defs><style>.cls-1{fill:#f4f4f4;}.cls-2{fill:#fffffe;}.cls-2,.cls-3,.cls-4,.cls-5,.cls-6,.cls-7,.cls-8,.cls-9,.cls-10,.cls-11{fill-rule:evenodd;}.cls-3{fill:#5bb1cf;}.cls-4{fill:#d33a41;}.cls-5{fill:#d76835;}.cls-6{fill:#1b1a18;}.cls-7{fill:#ecb360;}.cls-8{fill:#25a8c3;}.cls-9{fill:#b6cb46;}.cls-10{fill:#aed7dc;}.cls-12{fill:none;}.cls-11{fill:#66ad4a;}</style></defs><rect class="cls-1" width="40" height="40" rx="4" ry="4"/><g id="Group-2"><path id="Fill-1" class="cls-7" d="M30,20c0,5.52-4.48,10-10,10s-10-4.48-10-10,4.48-10,10-10,10,4.48,10,10"/><path id="Fill-2" class="cls-5" d="M27.33,19c0,4.97-3.88,9-8.67,9s-8.67-4.03-8.67-9,3.88-9,8.67-9,8.67,4.03,8.67,9"/><path id="Fill-3" class="cls-4" d="M28,18c0,4.42-3.43,8-7.67,8s-7.67-3.58-7.67-8,3.43-8,7.67-8,7.67,3.58,7.67,8"/><path id="Fill-4" class="cls-9" d="M27.33,18.67c0,4.05-3.13,7.33-7,7.33s-7-3.28-7-7.33,3.13-7.33,7-7.33,7,3.28,7,7.33"/><path id="Fill-5" class="cls-11" d="M26.67,19.33c0,3.68-2.98,6.67-6.67,6.67s-6.67-2.98-6.67-6.67,2.98-6.67,6.67-6.67,6.67,2.98,6.67,6.67"/><path id="Fill-6" class="cls-10" d="M24,18c0,2.95-2.39,5.33-5.33,5.33s-5.33-2.39-5.33-5.33,2.39-5.33,5.33-5.33,5.33,2.39,5.33,5.33"/><path id="Fill-7" class="cls-3" d="M24.67,17.33c0,2.58-2.09,4.67-4.67,4.67s-4.67-2.09-4.67-4.67,2.09-4.67,4.67-4.67,4.67,2.09,4.67,4.67"/><path id="Fill-8" class="cls-8" d="M24.67,17.67c0,2.39-1.79,4.33-4,4.33s-4-1.94-4-4.33,1.79-4.33,4-4.33,4,1.94,4,4.33"/><path id="Fill-9" class="cls-12" d="M23.33,18.33c0,2.03-1.49,3.67-3.33,3.67s-3.33-1.64-3.33-3.67,1.49-3.67,3.33-3.67,3.33,1.64,3.33,3.67"/><path id="Fill-11" class="cls-6" d="M20,22c-1.84,0-3.33-1.64-3.33-3.67s1.49-3.67,3.33-3.67,3.33,1.64,3.33,3.67-1.49,3.67-3.33,3.67Z"/><path id="Fill-12" class="cls-2" d="M21.82,17.28c-.32,.53-.94,.84-1.39,.68-.45-.15-.56-.71-.24-1.24,.32-.53,.94-.84,1.39-.69,.45,.15,.56,.71,.24,1.24"/></g></svg>