<?xml version="1.0" encoding="UTF-8"?><svg id="design" xmlns="http://www.w3.org/2000/svg" viewBox="0 0 40 40"><defs><style>.cls-1{fill:#f4f4f4;}.cls-2{fill:rgba(49,95,155,.1);}.cls-2,.cls-3{fill-rule:evenodd;}.cls-3{fill:#315f9b;}</style></defs><rect class="cls-1" width="40" height="40" rx="4" ry="4"/><g><path class="cls-2" d="M19.97,10.84V29.42s-2.13-.72-3.06-1.37c-.93-.65-1.76-1.43-2.44-2.34-.68-.92-1.22-1.94-1.6-3.02-.39-1.1-.58-2.25-.58-3.42v-5.07l7.68-3.37Z"/><path class="cls-3" d="M19.95,10.97h-.02s0,.01,0,.01l-7.37,3.28v4.96c0,1.15,.19,2.27,.57,3.35,.37,1.06,.9,2.06,1.57,2.96,.67,.88,1.48,1.66,2.4,2.29,.84,.58,2.56,1.23,2.83,1.33h0s.02,0,.02,0h.01s0,0,0,0c.27-.1,1.99-.74,2.83-1.33,.92-.63,1.72-1.4,2.4-2.29,.67-.9,1.2-1.9,1.57-2.96,.38-1.08,.57-2.21,.57-3.35v-4.96l-7.37-3.28v-.02h-.02Zm.05-.96h.02s0,.01,0,.01l8.26,3.61v5.46c0,1.26-.21,2.49-.63,3.68-.41,1.17-.99,2.26-1.73,3.25-.74,.97-1.63,1.82-2.64,2.52-.93,.64-2.96,1.35-3.27,1.46h0s-.02,0-.02,0h-.02s0,0,0,0c-.3-.11-2.34-.81-3.27-1.46-1.01-.69-1.9-1.54-2.64-2.52-.74-.99-1.32-2.09-1.73-3.25-.42-1.18-.63-2.42-.63-3.68v-5.46l8.26-3.61v-.02h.02Z"/><path class="cls-3" d="M23.78,18.13v.92h-1c.03,.21,.05,.37,.05,.48v.46h.95v.95h-.95v.46c0,.11-.02,.26-.05,.46h1v.95h-1.33c-.51,.87-1.45,1.41-2.46,1.41-1.01,0-1.94-.54-2.46-1.41h-1.32v-.95h.99c-.03-.2-.04-.36-.04-.46v-.46h-.95v-.95h.95v-.46c0-.12,.02-.28,.05-.48h-.99v-.92h1.33c.22-.37,.51-.68,.86-.93v-1.43h.93v1.01c.44-.09,.89-.09,1.33,0v-1.01h.93v1.43c.35,.25,.64,.56,.86,.93,0,0,1.33,0,1.33,0Z"/></g></svg>