<svg id="design" xmlns="http://www.w3.org/2000/svg" viewBox="0 0 40 40"><defs><style>.cls-1{fill:#fff;}</style></defs><rect width="40" height="40" rx="4"/><path class="cls-1" d="M18,23.21c1.26-1.24,2.53-2.51,3.77-3.78V16.78c-1.28,1.27-2.54,2.5-3.77,3.77Z"/><path class="cls-1" d="M8.54,12.52c0,.34,0,.64,0,1v3.17c0,.47,0,.9,0,1.37v1.78a3.17,3.17,0,0,0,0,.87v1.93c0,.65,0,1.31,0,1.94V26.5a5.91,5.91,0,0,0,0,1h5.33l2.17-2.17V21c-.34-.37-.7-.7-1-1,.33-.33.7-.65,1-1v-4.3c-.7-.74-1.44-1.44-2.17-2.16Zm2.26,2.19h2.14l.77.8c.16.09.07.32.11.46,0,.67,0,1.37,0,2a9.78,9.78,0,0,1-.83.87H10.8Zm3,9.64c-.31.27-.54.6-.84.84a20.31,20.31,0,0,1-2.2,0V21.09H13l.8.79a.46.46,0,0,1,.07.3C13.8,22.92,13.84,23.65,13.84,24.35Z"/><path class="cls-1" d="M30.22,22.92c-.2-.81-.46-1.57-.63-2.37.54-.54,1.06-1,1.57-1.57V14.64L29,12.47H23.62v15h2.23V21.11H27.4c.61,2.12,1.14,4.26,1.74,6.39l2.32,0C31.06,26,30.63,24.45,30.22,22.92ZM28.88,18c-.3.27-.59.6-.86.83H25.85V14.74H28c.33.23.6.59.9.84Z"/></svg>