<svg id="design" xmlns="http://www.w3.org/2000/svg" viewBox="0 0 40 40"><defs><style>.cls-1{fill:#f4f4f4;}.cls-2{fill:#7bb546;}.cls-3{fill:#647e62;}</style></defs><rect class="cls-1" y="0.01" width="40" height="40" rx="4"/><path class="cls-2" d="M29.37,29.41C26.52,32.32,21.56,32,21.56,32s-.31-5,2.55-7.93,7.81-2.58,7.81-2.58.31,5-2.55,7.93m-18.74,0C13.48,32.32,18.44,32,18.44,32s.31-5-2.55-7.93-7.81-2.58-7.81-2.58-.31,5,2.55,7.93m3-12V15.57H26.24v1.85A6.22,6.22,0,0,1,20,23.55V22.38a5.09,5.09,0,0,0,5.13-5v-.68H14.86v.68a5,5,0,0,0,5.13,5v1.17a6.21,6.21,0,0,1-6.31-6.13"/><polygon id="Fill-17" class="cls-2" points="18.86 31.96 21.25 31.96 21.25 19.38 18.86 19.38 18.86 31.96"/><path class="cls-3" d="M24.05,12a4.12,4.12,0,0,0-8.24,0v1.45h8.24V12m-8.32,5.21a4.12,4.12,0,0,0,8.24,0V14.31H15.75v2.91"/></svg>