<svg id="design" xmlns="http://www.w3.org/2000/svg" viewBox="0 0 40 40"><defs><style>.cls-1{fill:#1d2d35;}.cls-2{fill:#fff;}</style></defs><rect class="cls-1" y="0.01" width="40" height="40" rx="4"/><path class="cls-2" d="M30.89,26.28a1.13,1.13,0,0,1-1.11-1c-.39-5.59-3.44-13.48-9.12-13.48-4.68,0-8.21,3.26-10.49,9.71a1.05,1.05,0,0,1-1.43.65,1,1,0,0,1-.65-1.36c2.6-7.43,6.85-11.21,12.57-11.21,7.5,0,10.94,9.52,11.33,15.56a1.05,1.05,0,0,1-1,1.17Z"/><path class="cls-2" d="M20.4,30.4a13.39,13.39,0,0,1-10-4.49,1,1,0,0,1-.26-1.1c.72-1.89,2.6-6.27,5-6.33A4.17,4.17,0,0,1,18,20.24a4.8,4.8,0,0,0,.78.78,18.43,18.43,0,0,0,2.54-4.3,1.12,1.12,0,1,1,2,1c-2.61,5.66-4,5.66-4.49,5.66a3.56,3.56,0,0,1-2.47-1.56c-.33-.33-1-1-1.24-1-.59.06-1.82,2.08-2.67,4.22a11.14,11.14,0,0,0,8.09,3.26c2.6,0,7.23-.46,9.12-3.26-.52-5.59-3.58-13.15-9.12-13.15a1.14,1.14,0,0,1-1.11-1.11,1.21,1.21,0,0,1,1.17-1.17c7.5,0,10.94,9.52,11.33,15.56a2.09,2.09,0,0,1-.13.65c-1.75,3-5.72,4.69-11.2,4.69A.47.47,0,0,0,20.4,30.4Z"/></svg>