<?xml version="1.0" encoding="UTF-8"?><svg id="design" xmlns="http://www.w3.org/2000/svg" viewBox="0 0 40 40"><defs><style>.cls-1{fill:#ea0a2a;}.cls-2{fill:#f4f4f4;}.cls-3{fill:#a32135;}.cls-4{fill:#d82336;}.cls-5{fill:#911a1c;}.cls-6{fill:#ab1a2d;}.cls-7{fill:#d6202a;}.cls-8{fill:#f12535;}.cls-9{fill:#c20f2f;}</style></defs><rect class="cls-2" width="40" height="40" rx="4" ry="4"/><g><path class="cls-6" d="M13.05,14.72v5.87c0,.07,.03,.13,.07,.17,.05,.05,.11,.07,.17,.07h5.87s.1-.01,.14-.04c.04-.03,.07-.07,.09-.11,.02-.05,.02-.09,.01-.14,0-.05-.03-.09-.07-.13l-5.87-5.87s-.08-.06-.13-.07-.1,0-.14,.01c-.04,.02-.08,.05-.11,.09-.03,.04-.04,.09-.04,.14Z"/><path class="cls-1" d="M15.35,15.02l4.6,4.6s.08,.06,.13,.07,.1,0,.14-.01c.05-.02,.08-.05,.11-.09,.03-.04,.04-.09,.04-.14V10.25s-.01-.1-.04-.14c-.03-.04-.07-.07-.11-.09-.05-.02-.1-.02-.14-.01-.05,0-.09,.03-.13,.07l-4.6,4.6s-.04,.05-.05,.08c-.01,.03-.02,.06-.02,.1s0,.07,.02,.1c.01,.03,.03,.06,.05,.08Z"/><path class="cls-7" d="M21.54,14.13v5.32s.01,.1,.04,.14c.03,.04,.07,.07,.11,.09,.05,.02,.09,.02,.14,.01,.05,0,.09-.03,.13-.07l5.32-5.32s.06-.08,.07-.13c0-.05,0-.1-.01-.14-.02-.05-.05-.08-.09-.11-.04-.03-.09-.04-.14-.04h-5.32c-.07,0-.13,.03-.17,.07-.05,.05-.07,.11-.07,.18Z"/><path class="cls-3" d="M22.75,20.83h6.66s.1-.01,.14-.04c.04-.03,.07-.07,.09-.11,.02-.04,.02-.09,.01-.14,0-.05-.03-.09-.07-.13l-3.33-3.33s-.05-.04-.08-.05c-.03-.01-.06-.02-.09-.02s-.06,0-.09,.02-.06,.03-.08,.05l-3.33,3.33s-.06,.08-.07,.13c0,.05,0,.1,.01,.14s.05,.08,.09,.11c.04,.03,.09,.04,.14,.04h0Z"/><path class="cls-8" d="M22.57,22.24l3.77,3.77s.08,.06,.13,.07c.05,0,.1,0,.14-.01,.05-.02,.08-.05,.11-.09,.03-.04,.04-.09,.04-.14v-3.77s0-.06-.02-.1c-.01-.03-.03-.06-.05-.08-.02-.02-.05-.04-.08-.05-.03-.01-.06-.02-.09-.02h-3.77s-.1,.02-.14,.04c-.04,.03-.07,.07-.09,.11-.02,.04-.02,.09-.01,.14,0,.05,.03,.09,.07,.13Z"/><path class="cls-5" d="M25.24,26.31l-3.27-3.27s-.08-.06-.13-.07c-.05,0-.1,0-.14,.01-.04,.02-.08,.05-.11,.09-.03,.04-.04,.09-.04,.14v6.54s.01,.1,.04,.14c.03,.04,.07,.07,.11,.09,.05,.02,.1,.02,.14,.01,.05,0,.09-.03,.13-.07l3.27-3.27s.07-.11,.07-.17-.03-.13-.07-.17Z"/><path class="cls-9" d="M20.37,28.28v-5.07s-.01-.1-.04-.14c-.03-.04-.07-.07-.11-.09-.05-.02-.09-.02-.14-.01-.05,0-.09,.03-.13,.07l-5.07,5.07s-.06,.08-.07,.13c0,.05,0,.1,.01,.14,.02,.05,.05,.08,.09,.11,.04,.03,.09,.04,.14,.04h5.07s.06,0,.1-.02c.03-.01,.06-.03,.08-.05,.02-.02,.04-.05,.05-.08,.01-.03,.02-.06,.02-.09h0Z"/><path class="cls-4" d="M19.17,21.82H10.59s-.1,.02-.14,.04c-.04,.03-.07,.07-.09,.11-.02,.05-.02,.09-.01,.14,0,.05,.03,.09,.07,.13l4.29,4.29s.05,.04,.08,.05c.03,.01,.06,.02,.09,.02s.06,0,.1-.02c.03-.01,.06-.03,.08-.05l4.29-4.29s.06-.08,.07-.13c0-.05,0-.1-.01-.14-.02-.04-.05-.08-.09-.11-.04-.03-.09-.04-.14-.04Z"/></g></svg>