<?xml version="1.0" encoding="UTF-8"?><svg id="design" xmlns="http://www.w3.org/2000/svg" viewBox="0 0 40 40"><defs><style>.cls-1{fill:#fff;}.cls-2{fill:#73c41d;}</style></defs><rect class="cls-2" width="40" height="40" rx="4" ry="4"/><g><path class="cls-1" d="M24.6,16.97c-1.93,0-2.96,.66-3.69,1.37l-.2,.21v-6.41h-1.67v10.49c0,3.23,2.51,5.24,5.38,5.24,3.17,0,5.57-2.42,5.57-5.53,0-2.89-2.5-5.37-5.4-5.37Zm-.17,9.39c-2.09,0-3.86-1.64-3.86-3.83s1.49-3.99,3.9-3.99,3.83,1.93,3.83,3.95c0,2.2-1.5,3.87-3.86,3.87Z"/><path class="cls-1" d="M15.72,13.4c1.24,1.3,1.37,2.03,1.81,3.29l.74,2.4s-.73-.14-1.33-.23c-.69-.1-1-.21-1.88-.56-.88-.36-1.68-1.23-2.46-2.2-.78-.97-2.6-2.5-2.6-2.5,0,0,.56,.04,1.14,.18,.47,.12,1.69,.51,2.95,1.16,.28,.14,.43,.24,.71,.41,.42,.26,.86,.64,1.28,1.06,.49,.5,.93,.9,1.3,1.34-.4-.74-1.45-3.38-3.49-5.57-.2-.21,1.41,.77,1.84,1.21Z"/></g></svg>