<svg id="design" xmlns="http://www.w3.org/2000/svg" viewBox="0 0 40 40"><defs><style>.cls-1{fill:#273b7d;}.cls-2{fill:#fff;}</style></defs><rect class="cls-1" y="0.01" width="40" height="40" rx="4"/><g id="g3360"><g id="g3366"><path id="path3374" class="cls-2" d="M26,29.14A2.86,2.86,0,1,1,28.81,32,2.86,2.86,0,0,1,26,29.14"/></g></g><g id="g3410"><g id="g3412"><g id="g3418"><path id="path3424" class="cls-2" d="M16.89,27.71h-4V22.93c0-1,.39-1.55,1.27-1.67h2.72a3,3,0,0,1,3.2,3.21,3,3,0,0,1-3.2,3.24Zm-4-12.88V13.58c0-1.1.46-1.62,1.48-1.69h2a2.58,2.58,0,0,1,2.8,2.8,2.66,2.66,0,0,1-2.74,2.9H12.9V14.83ZM22,19.6l-.72-.41.63-.54a5.76,5.76,0,0,0,2-4.49C23.86,10.42,21,8,16.46,8H10.75a2.51,2.51,0,0,0-2.42,2.47V31.72h8.23c5,0,8.22-2.72,8.22-6.93A5.77,5.77,0,0,0,22,19.6"/></g></g></g></svg>