<svg id="design" xmlns="http://www.w3.org/2000/svg" xmlns:xlink="http://www.w3.org/1999/xlink" viewBox="0 0 40 40"><defs><style>.cls-1{fill:url(#linear-gradient);}.cls-2{fill:url(#linear-gradient-2);}.cls-3{fill:url(#linear-gradient-3);}.cls-4{fill:url(#linear-gradient-4);}.cls-5{fill:url(#linear-gradient-5);}.cls-6{fill:url(#linear-gradient-6);}.cls-7{fill:url(#linear-gradient-7);}.cls-8{fill:url(#linear-gradient-8);}.cls-9{fill:url(#linear-gradient-9);}</style><linearGradient id="linear-gradient" x1="11.63" y1="20.49" x2="11.63" y2="25.32" gradientUnits="userSpaceOnUse"><stop offset="0" stop-color="#b99632"/><stop offset="1" stop-color="#f4de69"/></linearGradient><linearGradient id="linear-gradient-2" x1="30.08" y1="14.41" x2="30.08" y2="19.24" xlink:href="#linear-gradient"/><linearGradient id="linear-gradient-3" x1="26.96" y1="20.5" x2="26.96" y2="25.33" xlink:href="#linear-gradient"/><linearGradient id="linear-gradient-4" x1="19.6" y1="14.41" x2="19.6" y2="19.24" xlink:href="#linear-gradient"/><linearGradient id="linear-gradient-5" x1="16.6" y1="20.49" x2="16.6" y2="25.32" xlink:href="#linear-gradient"/><linearGradient id="linear-gradient-6" x1="21.68" y1="20.49" x2="21.68" y2="25.32" xlink:href="#linear-gradient"/><linearGradient id="linear-gradient-7" x1="9.81" y1="14.41" x2="9.81" y2="19.24" xlink:href="#linear-gradient"/><linearGradient id="linear-gradient-8" x1="24.65" y1="14.41" x2="24.65" y2="19.24" xlink:href="#linear-gradient"/><linearGradient id="linear-gradient-9" x1="14.7" y1="14.41" x2="14.7" y2="19.24" xlink:href="#linear-gradient"/></defs><rect y="0.01" width="40" height="40" rx="4"/><path class="cls-1" d="M12.61,22.88a0,0,0,0,0,0,0,1.17,1.17,0,0,1,.74,1,1.64,1.64,0,0,1-.2,1,1.18,1.18,0,0,1-1.12.61l-2.07,0H9.89V20.51h1.92a3.13,3.13,0,0,1,.44,0,1,1,0,0,1,.65.4,1.39,1.39,0,0,1,0,1.68A3.2,3.2,0,0,1,12.61,22.88Zm-1.89,1.85c.46,0,.91,0,1.36-.05a.43.43,0,0,0,.38-.35,1.56,1.56,0,0,0,0-.43.54.54,0,0,0-.53-.51c-.41,0-.82,0-1.22,0h0Zm0-2.23c.4,0,.78,0,1.16,0a.45.45,0,0,0,.43-.35,1.26,1.26,0,0,0,0-.39.44.44,0,0,0-.43-.4H10.72Z"/><path class="cls-2" d="M30.82,17.61l.17-.55.71.2a2.29,2.29,0,0,1-.07.28c-.08.24-.16.48-.26.71a.08.08,0,0,0,0,.11l.54.48.06,0-.48.75a2.52,2.52,0,0,1-.68-.58l-.23.21a1.66,1.66,0,0,1-1.79.13A1.49,1.49,0,0,1,28.16,18a1.63,1.63,0,0,1,.74-1.26l.19-.14a1.74,1.74,0,0,0-.11-.18,1.91,1.91,0,0,1-.29-.76,1.06,1.06,0,0,1,1-1.27,1.11,1.11,0,0,1,1.17.64,1.18,1.18,0,0,1-.18,1.27c-.14.17-.3.3-.47.47l.55.89Zm-1.31-.44a1.09,1.09,0,0,0-.54,1,.63.63,0,0,0,.84.57,1.2,1.2,0,0,0,.51-.35v0Zm.31-1c.14-.15.26-.26.36-.39a.43.43,0,0,0,.08-.42.41.41,0,0,0-.54-.29.36.36,0,0,0-.23.51A5.07,5.07,0,0,0,29.82,16.14Z"/><path class="cls-3" d="M28.84,25.58h-1s-.08-.05-.1-.08l-1-2.07-.11-.23-.16.2L26,24a.31.31,0,0,0-.06.16v1.44h-.83V20.51h.83v2.24l.09-.11,1.55-2.06a.17.17,0,0,1,.16-.08h1l-.07.1-1.43,1.8a.14.14,0,0,0,0,.17l1.55,2.9Z"/><path class="cls-4" d="M21.68,19.5h-.86s-.06,0-.07-.07c-.1-.33-.21-.65-.31-1,0-.08-.05-.1-.14-.1H18.83c-.07,0-.1,0-.11.08-.1.33-.2.65-.29,1,0,.07-.05.09-.13.09h-.79l.18-.58c.47-1.46.94-2.93,1.4-4.39,0-.08.06-.11.15-.11h.68c.08,0,.11,0,.13.09l1.38,4.22c.08.22.15.44.22.65C21.66,19.42,21.67,19.45,21.68,19.5Zm-2.1-3.86h0L19,17.48h1.14Z"/><path class="cls-5" d="M14.94,20.5h.83v.12c0,.95,0,1.89,0,2.84a3.49,3.49,0,0,0,.05.72.82.82,0,0,0,1.25.49.65.65,0,0,0,.3-.52c0-.3,0-.6,0-.9,0-.87,0-1.74,0-2.62v-.12h.83a.28.28,0,0,1,0,.09c0,1,0,2.09,0,3.13a6.11,6.11,0,0,1-.09.86A1.3,1.3,0,0,1,17,25.64a2.46,2.46,0,0,1-1-.06,1.27,1.27,0,0,1-.94-1.1,8.92,8.92,0,0,1-.09-1.16c0-.91,0-1.81,0-2.72Z"/><path class="cls-6" d="M23.49,21.9l-.83.24c0-.09-.05-.17-.08-.25a.83.83,0,0,0-.69-.59.86.86,0,0,0-.85.37,1.54,1.54,0,0,0-.28.8A4.15,4.15,0,0,0,20.83,24a1.12,1.12,0,0,0,.33.59.81.81,0,0,0,1.24-.12,1.74,1.74,0,0,0,.26-.65l0-.07.81.32c0,.14-.07.28-.12.42a1.87,1.87,0,0,1-.51.81A1.68,1.68,0,0,1,20.44,25a2.55,2.55,0,0,1-.52-1.26,4.33,4.33,0,0,1,.12-2,2.41,2.41,0,0,1,.53-.9,1.69,1.69,0,0,1,2.78.57Z"/><path class="cls-7" d="M11.62,15.82l-.83.24s0-.1,0-.15a.88.88,0,0,0-1.67-.17,1.88,1.88,0,0,0-.19.74A4.12,4.12,0,0,0,9,17.92a1.12,1.12,0,0,0,.3.54.81.81,0,0,0,1.29-.15,4,4,0,0,0,.22-.57l0-.11.81.32A2.34,2.34,0,0,1,11,19.17a1.54,1.54,0,0,1-1.17.41,1.7,1.7,0,0,1-1.57-1.14A3.58,3.58,0,0,1,8,16.82a3.39,3.39,0,0,1,.37-1.53,1.7,1.7,0,0,1,1.26-.93,1.62,1.62,0,0,1,1.9,1.16C11.57,15.62,11.59,15.72,11.62,15.82Z"/><path class="cls-8" d="M26.6,14.42l-.06.11-1.43,2.76a.38.38,0,0,0,0,.19c0,.63,0,1.27,0,1.9v.11h-.83v-2a.4.4,0,0,0-.06-.22c-.46-.91-.94-1.82-1.41-2.73l-.05-.11h.88a.13.13,0,0,1,.14.08c.29.61.59,1.22.89,1.82a.93.93,0,0,0,.05.1.54.54,0,0,0,0-.11l.87-1.8a.12.12,0,0,1,.14-.09Z"/><path class="cls-9" d="M13.23,19.49v-5h.84v4.17h2.09v.85Z"/></svg>