<svg id="design" xmlns="http://www.w3.org/2000/svg" viewBox="0 0 40 40"><defs><style>.cls-1{fill:#1856ed;}.cls-2{fill:#fff;}</style></defs><rect class="cls-1" y="0.01" width="40" height="40" rx="4"/><path class="cls-2" d="M19.09,32a11.09,11.09,0,0,1-.42-22.18.44.44,0,0,1,.45.42V12a.41.41,0,0,1-.4.42,8.48,8.48,0,1,0,8.82,8.87A.39.39,0,0,1,28,20.9h1.77a.44.44,0,0,1,.42.45A11,11,0,0,1,19.09,32Z"/><path class="cls-2" d="M19.12,26.1a5.21,5.21,0,0,1-.45-10.4.42.42,0,0,1,.45.42v1.77a.43.43,0,0,1-.37.42,2.59,2.59,0,1,0,2.9,2.9.43.43,0,0,1,.42-.37h1.77a.42.42,0,0,1,.42.45A5.18,5.18,0,0,1,19.12,26.1Z"/><path class="cls-2" d="M29.36,18.71a8.49,8.49,0,0,0-8.08-8.08.4.4,0,0,1-.4-.43V8.44A.45.45,0,0,1,21.33,8,11.1,11.1,0,0,1,32,18.68a.44.44,0,0,1-.42.45H29.81A.46.46,0,0,1,29.36,18.71Z"/><path class="cls-2" d="M21.36,16.57a.58.58,0,0,1-.48-.48V14.35a.42.42,0,0,1,.45-.42,5.25,5.25,0,0,1,4.76,4.72.43.43,0,0,1-.43.45H23.82a.35.35,0,0,1-.35-.29A2.61,2.61,0,0,0,21.36,16.57Z"/></svg>