<svg width="40" height="40" viewBox="0 0 40 40" fill="none" xmlns="http://www.w3.org/2000/svg">
<rect width="40" height="40" rx="4" fill="#27446E"/>
<path fill-rule="evenodd" clip-rule="evenodd" d="M14.2482 14C14.5352 14 14.7694 14.2328 14.7694 14.5195V20.0447C14.7694 20.333 14.5352 20.5658 14.2482 20.5658C13.9609 20.5658 13.7267 20.333 13.7267 20.0447V14.5195C13.7267 14.2328 13.9609 14 14.2482 14ZM11.906 16.4809C11.906 16.1942 11.6719 15.9611 11.3849 15.9611C11.0975 15.9611 10.8634 16.1942 10.8634 16.4809V19.0069C10.8634 19.2952 11.0975 19.5277 11.3849 19.5277C11.6719 19.5277 11.906 19.2952 11.906 19.0069V16.4809ZM8.52149 17.3953C8.80851 17.3953 9.04265 17.6278 9.04265 17.9145V19.0067C9.04265 19.295 8.80851 19.5278 8.52149 19.5278C8.23447 19.5278 8 19.295 8 19.0067V17.9145C8 17.6278 8.23447 17.3953 8.52149 17.3953ZM19.8045 23.332C19.7889 23.327 19.3469 23.2049 18.9837 23.2049C18.563 23.2049 18.3342 23.3459 18.3342 23.5458C18.3342 23.791 18.623 23.8818 18.7981 23.9368L18.8154 23.9422L19.1051 24.0344C19.7865 24.2512 20.0972 24.7178 20.0972 25.2247C20.0972 26.27 19.1779 26.6212 18.3744 26.6212C17.816 26.6212 17.2928 26.5184 17.2413 26.5074V25.5499L17.2536 25.5531L17.2786 25.5598L17.2786 25.5598C17.4209 25.5979 17.8194 25.7046 18.2327 25.7046C18.7552 25.7046 18.9953 25.5519 18.9953 25.3161C18.9953 25.1053 18.7875 24.9836 18.5271 24.9017C18.4888 24.8889 18.439 24.873 18.3912 24.8577L18.3912 24.8577C18.3596 24.8476 18.3288 24.8377 18.3029 24.8292C17.7182 24.6443 17.2306 24.3008 17.2306 23.612C17.2306 22.8337 17.8133 22.3113 18.7811 22.3113C19.2923 22.3113 19.7732 22.4353 19.8045 22.4436V23.332ZM13.319 23.573L13.3292 23.5785V22.4617L13.3081 22.4553C13.1854 22.4182 12.8357 22.3123 12.3716 22.3123C11.0939 22.3123 10.156 23.2236 10.156 24.4661C10.156 25.8068 11.1913 26.6209 12.3716 26.6209C12.8135 26.6209 13.157 26.5223 13.3043 26.48L13.3292 26.4729V25.3561L13.326 25.3579C13.2698 25.389 12.9306 25.577 12.4471 25.577C11.7474 25.577 11.2964 25.0844 11.2964 24.4661C11.2964 23.8289 11.767 23.3563 12.4471 23.3563C12.9205 23.3563 13.2475 23.5341 13.319 23.573ZM14.7726 22.3862H15.8226V26.5471H14.7726V22.3862ZM24.3434 23.5785L24.3333 23.573C24.2618 23.5341 23.9348 23.3563 23.4614 23.3563C22.7813 23.3563 22.3107 23.8289 22.3107 24.4661C22.3107 25.0844 22.7617 25.577 23.4614 25.577C23.9449 25.577 24.2841 25.389 24.3403 25.3579L24.3434 25.3561V26.4729L24.3186 26.48C24.1713 26.5223 23.8278 26.6209 23.3859 26.6209C22.2056 26.6209 21.1703 25.8068 21.1703 24.4661C21.1703 23.2236 22.1082 22.3123 23.3859 22.3123C23.85 22.3123 24.1997 22.4182 24.3224 22.4553L24.3434 22.4617V23.5785ZM26.5064 24.4661C26.5064 23.8622 26.9691 23.3719 27.592 23.3719C28.2143 23.3719 28.6782 23.8622 28.6782 24.4661C28.6782 25.0714 28.2143 25.5613 27.592 25.5613C26.9691 25.5613 26.5064 25.0714 26.5064 24.4661ZM27.592 26.6209C28.8718 26.6209 29.7907 25.6564 29.7907 24.4661C29.7907 23.2778 28.8718 22.3123 27.592 22.3123C26.3122 22.3123 25.3946 23.2778 25.3946 24.4661C25.3946 25.6564 26.3122 26.6209 27.592 26.6209ZM17.6325 16.4809C17.6325 16.1942 17.3984 15.9611 17.1113 15.9611C16.824 15.9611 16.5898 16.1942 16.5898 16.4809V19.0069C16.5898 19.2952 16.824 19.5277 17.1113 19.5277C17.3984 19.5277 17.6325 19.2952 17.6325 19.0069V16.4809ZM19.9746 17.3953C20.2603 17.3953 20.4928 17.6278 20.4928 17.9145V19.0067C20.4928 19.295 20.2603 19.5278 19.9746 19.5278C19.6876 19.5278 19.4535 19.295 19.4535 19.0067V17.9145C19.4535 17.6278 19.6876 17.3953 19.9746 17.3953ZM23.4133 16.4809C23.4133 16.1942 23.1792 15.9611 22.8921 15.9611C22.6048 15.9611 22.3707 16.1942 22.3707 16.4809V19.0069C22.3707 19.2952 22.6048 19.5277 22.8921 19.5277C23.1792 19.5277 23.4133 19.2952 23.4133 19.0069V16.4809ZM25.7555 14C26.0425 14 26.2767 14.2328 26.2767 14.5195V20.0447C26.2767 20.333 26.0425 20.5658 25.7555 20.5658C25.4682 20.5658 25.234 20.333 25.234 20.0447V14.5195C25.234 14.2328 25.4682 14 25.7555 14ZM29.14 16.4809C29.14 16.1942 28.9059 15.9611 28.6189 15.9611C28.3315 15.9611 28.0974 16.1942 28.0974 16.4809V19.0069C28.0974 19.2952 28.3315 19.5277 28.6189 19.5277C28.9059 19.5277 29.14 19.2952 29.14 19.0069V16.4809ZM31.4819 17.3953C31.7676 17.3953 32.0001 17.6278 32.0001 17.9145V19.0067C32.0001 19.295 31.7676 19.5278 31.4819 19.5278C31.1949 19.5278 30.9608 19.295 30.9608 19.0067V17.9145C30.9608 17.6278 31.1949 17.3953 31.4819 17.3953Z" fill="white"/>
</svg>
