<?xml version="1.0" encoding="UTF-8"?><svg id="design" xmlns="http://www.w3.org/2000/svg" viewBox="0 0 40 40"><defs><style>.cls-1{fill:#ff6c36;}.cls-2{fill:#fff;}</style></defs><rect class="cls-1" width="40" height="40" rx="4" ry="4"/><g id="Layer_4"><g><path class="cls-2" d="M28.05,24.19c-.19-.13-.44-.12-.63,0-.19,.13-.27,.38-.2,.6s.27,.38,.5,.39,.44-.12,.53-.33c.1-.24,.02-.53-.2-.67-.24-.17,.25,.17,0,0Z"/><path class="cls-2" d="M21.07,29.28c.12,0,.25,0,.37,0,.25,0,.5-.03,.74-.06,.2-.02-.41,.05,0,0,.25-.03,.45,.2,.4,.45-.03,.11-.11,.2-.21,.25-.07,.03-.14,.03-.21,.04-.08,0-.17,.02-.25,.02-.66,.05-1.32,.04-1.98-.03-.6-.07-1.18-.18-1.76-.36-.56-.17-1.1-.39-1.62-.66-.53-.27-1.02-.59-1.49-.95-.54-.4-1.03-.86-1.47-1.37-.44-.5-.83-1.05-1.16-1.62-.34-.59-.62-1.21-.83-1.86-.22-.66-.36-1.34-.44-2.03-.08-.7-.08-1.41,0-2.11,.07-.69,.21-1.38,.43-2.04,.21-.65,.48-1.27,.82-1.87,.33-.59,.73-1.14,1.17-1.65,.44-.5,.93-.96,1.46-1.37,.54-.41,1.12-.77,1.72-1.06,.62-.3,1.27-.53,1.94-.7,.68-.17,1.38-.26,2.08-.29,.7-.02,1.41,.03,2.1,.15,.67,.12,1.33,.31,1.97,.56,.63,.25,1.23,.57,1.79,.94s1.08,.8,1.56,1.28c.2,.2,.38,.4,.51,.66,.11,.22,.17,.47,.19,.71,.03,.5-.14,1.01-.48,1.38-.39,.44-.98,.68-1.56,.64-.28-.02-.56-.1-.81-.24-.13-.07-.25-.16-.35-.26-.12-.11-.23-.24-.35-.35-.49-.46-1.05-.83-1.66-1.11-.63-.28-1.3-.46-1.98-.52-.7-.06-1.41,0-2.09,.16-.66,.17-1.29,.45-1.87,.82-.56,.37-1.06,.83-1.47,1.35-.42,.53-.75,1.13-.98,1.77-.23,.65-.35,1.34-.35,2.03s.11,1.39,.34,2.05c.22,.64,.55,1.23,.96,1.76,.41,.53,.91,.99,1.47,1.36,.57,.38,1.2,.66,1.87,.83,.68,.18,1.39,.23,2.09,.17,.68-.06,1.35-.23,1.98-.51,.07-.03,.13-.07,.2-.08,.06,0,.12,0,.18,0,.12,.04,.21,.13,.24,.25,.03,.11,0,.24-.07,.33-.04,.05-.1,.08-.16,.11-.08,.03-.15,.07-.23,.1-.64,.27-1.31,.44-2,.5-.7,.07-1.41,.03-2.09-.11,.09,.1,.17,.21,.25,.32s.16,.23,.23,.34c0,.02,.04,.06,.04,.06h.03s.07,0,.11,0c.07,0,.14,0,.21,.02,.29,.02,.58,.02,.87,0,.57-.03,1.14-.11,1.69-.27,.53-.15,1.05-.36,1.54-.62,.48-.26,.93-.56,1.34-.92,.1-.09,.2-.18,.3-.27,.09-.08,.16-.18,.27-.23,.19-.1,.42-.07,.58,.06,.17,.13,.24,.35,.19,.56-.03,.11-.08,.2-.16,.27-.1,.09-.19,.19-.29,.28-.4,.36-.83,.69-1.29,.97-.47,.29-.96,.53-1.48,.72-.53,.2-1.07,.34-1.63,.43-.57,.09-1.15,.13-1.73,.11,.05,.13,.09,.26,.13,.39,.02,.06,.03,.12,.05,.18,0,.02,.02,.07,.02,.07l.08,.05Z"/><path class="cls-2" d="M26.65,27.44c-.56,.42-1.17,.78-1.81,1.06-.32,.14-.65,.26-.99,.37-.17,.05-.34,.1-.51,.14-.07,.02-.15,.03-.22,.07-.06,.03-.1,.08-.13,.14-.07,.13-.05,.28,.04,.39,.1,.13,.25,.15,.4,.12,.34-.08,.68-.18,1.01-.3,.66-.23,1.3-.54,1.9-.91,.15-.09,.3-.19,.44-.29,.07-.05,.15-.1,.22-.15,.06-.05,.13-.09,.18-.16,.08-.11,.08-.27,0-.39-.07-.12-.21-.19-.34-.18-.08,.02-.15,.05-.2,.09-1.03,.76,.16-.12,0,0Z"/><path class="cls-2" d="M27.85,26.36c-.09,.1-.19,.2-.29,.3-.08,.08-.17,.15-.21,.26-.06,.21,.08,.43,.29,.46,.13,.02,.24-.03,.33-.11,.1-.09,.2-.19,.29-.29,.08-.08,.17-.16,.2-.28,.02-.09,0-.2-.04-.28-.12-.2-.41-.23-.57-.06-.13,.14,.14-.15,0,0Z"/><path class="cls-2" d="M25.58,24.26c-.23,.24-.47,.46-.73,.66-.07,.05-.15,.11-.22,.16-.06,.04-.11,.1-.14,.17-.06,.14-.02,.31,.1,.41,.14,.12,.32,.11,.47,0,.14-.1,.28-.2,.41-.3,.12-.1,.24-.21,.36-.32,.07-.06,.13-.13,.2-.2,.06-.06,.12-.12,.16-.2,.06-.16,0-.35-.15-.44-.15-.08-.34-.06-.46,.06-.35,.37,.14-.14,0,0Z"/><path class="cls-2" d="M21.11,17.64c-.49,0-.97,.15-1.37,.44-.39,.28-.69,.67-.85,1.12-.17,.46-.19,.98-.05,1.46,.13,.46,.4,.87,.77,1.17,.37,.31,.84,.5,1.32,.53,.49,.04,.99-.08,1.41-.34,.41-.25,.73-.61,.93-1.05,.2-.45,.26-.96,.16-1.45-.09-.47-.34-.91-.68-1.24-.35-.33-.8-.55-1.27-.63-.13,0-.25-.01-.37-.01Z"/></g></g></svg>