<?xml version="1.0" encoding="UTF-8"?><svg id="design" xmlns="http://www.w3.org/2000/svg" viewBox="0 0 40 40"><defs><style>.cls-1{fill:#f4f4f4;}.cls-2{fill:#683993;}.cls-2,.cls-3{fill-rule:evenodd;}.cls-3{fill:#ef6333;}</style></defs><rect class="cls-1" width="40" height="40" rx="4" ry="4"/><g><path class="cls-2" d="M17.32,12.64c-.09,.01-.16,.05-.16,.08s-.09,.06-.21,.06c-.66,0-2.77,.81-3.07,1.18-.04,.05-.09,.08-.11,.08-.09,0-.94,.69-1.33,1.07-.87,.88-1.54,1.94-2.06,3.27-.06,.16-.24,.87-.32,1.26-.18,.93,.02,3.42,.34,4.26,.59,1.53,1.42,2.72,2.63,3.78,.57,.5,1.92,1.28,2.39,1.38,.11,.02,.25,.08,.31,.12,.07,.04,.18,.08,.25,.08s.15,.02,.17,.05c.02,.03,.22,.07,.44,.1,.22,.02,.55,.08,.73,.13,.44,.11,1.84,.11,2.27,0,.18-.05,.49-.1,.71-.13,.21-.02,.4-.07,.42-.09,.02-.03,.11-.05,.2-.05s.2-.04,.24-.08c.04-.05,.17-.1,.28-.12,.22-.04,.29-.07,.56-.21,.08-.04,.27-.14,.42-.21,.25-.12,1.01-.6,1.08-.68,.02-.02,.13-.11,.25-.2,.56-.42,1.36-1.3,1.81-1.99,.47-.73,.89-1.63,1.04-2.22,.02-.07,.05-.17,.08-.24,.03-.07,.08-.35,.11-.63,.03-.28,.09-.64,.12-.81,.08-.39,.08-1.19,0-1.53-.03-.15-.09-.49-.12-.75-.03-.26-.08-.53-.11-.6-.03-.07-.07-.17-.09-.22-.05-.16-.2-.13-.32,.06-.06,.09-.36,.52-.68,.95-.73,.99-.69,.9-.74,1.69-.09,1.63-.77,3.16-1.86,4.23-.27,.27-.96,.82-1.02,.82-.02,0-.13,.07-.24,.15-.11,.08-.22,.15-.24,.15s-.24,.09-.49,.21c-.24,.12-.48,.21-.53,.21s-.15,.02-.23,.05c-.22,.08-.58,.17-1.06,.25-.24,.04-.45,.1-.47,.12-.11,.19-2.3-.13-2.3-.33,0-.04-.09-.11-.2-.15s-.3-.13-.43-.19c-.13-.06-.32-.12-.42-.12-.34,0-1.54-.88-1.52-1.1,0-.07-.12-.25-.3-.45-.17-.18-.31-.35-.31-.38s-.05-.05-.11-.05c-.31,0-.96-1.44-1-2.22-.01-.21-.05-.65-.09-.98-.09-.71,.08-2.37,.25-2.48,.03-.02,.05-.1,.05-.17s.02-.16,.05-.18c.03-.02,.07-.14,.1-.27,.02-.13,.06-.24,.09-.24s.1-.12,.17-.26c.27-.61,1.08-1.58,1.7-2.05,.21-.15,.42-.32,.48-.37,.06-.05,.25-.16,.43-.24,.18-.08,.34-.17,.36-.2,.02-.03,.12-.07,.23-.1,.11-.02,.22-.06,.25-.09,.03-.02,.13-.06,.21-.08,.08-.02,.26-.07,.39-.1,.78-.23,2.45-.23,3.21,0,.12,.03,.28,.08,.36,.1,.08,.02,.18,.06,.21,.09,.03,.02,.16,.06,.28,.08,.12,.02,.26,.07,.3,.11,.04,.04,.16,.11,.26,.16,.21,.1,1,.61,1.05,.68,.07,.09,.44,.34,.51,.34,.04,0,.29-.31,.56-.69,.27-.38,.52-.71,.55-.72,.13-.08,.03-.26-.23-.44-.16-.11-.31-.23-.34-.27-.14-.15-.94-.64-1.44-.87-.51-.24-.61-.28-.94-.42-.2-.08-.97-.25-1.14-.25-.08,0-.25-.04-.37-.09-.21-.09-1.79-.12-2.33-.04"/><path class="cls-3" d="M29.32,10.52c-.16,.08-.28,.13-.28,.11s-.05,0-.11,.06c-.06,.05-.12,.1-.15,.1-.11,.02-.59,.25-.62,.3-.02,.03-.06,.04-.09,.03-.03-.02-.07,0-.09,.03-.02,.03-.09,.06-.15,.06s-.12,.02-.12,.04c0,.02-.13,.1-.28,.17-1.15,.52-1.12,.49-.67,.86l.3,.25-.12,.16c-.07,.09-.23,.32-.37,.52-.14,.2-.27,.37-.3,.38-.03,.01-.05,.05-.05,.09,0,.04-.09,.19-.21,.34-.44,.57-1.07,1.43-1.72,2.34-.13,.18-.26,.36-.28,.39-.03,.03-.11,.14-.18,.24-.07,.1-.18,.23-.23,.3-.05,.07-.18,.25-.28,.4-.42,.61-.92,1.29-1.16,1.59-.14,.17-.27,.37-.29,.44-.02,.07-.06,.12-.08,.12s-.11,.11-.19,.24c-.08,.13-.17,.24-.19,.24s-.05,.04-.05,.08-.05,.13-.11,.19c-.06,.06-.27,.35-.48,.63-.21,.28-.41,.56-.46,.63s-.28,.39-.52,.72c-.23,.33-.45,.61-.48,.62-.03,.01-.05,.05-.05,.1s-.06,.14-.13,.22c-.07,.08-.19,.24-.27,.35-.08,.12-.2,.29-.28,.39-.62,.82-.8,1.08-.86,1.16-.08,.14-.52,.75-.57,.79-.02,.02-.06,.07-.09,.13-.03,.05-.19,.28-.35,.5-.33,.46-.33,.52,.03,.61,.67,.17,.87,.2,1.42,.2h.59l.22-.24c.12-.13,.22-.27,.22-.3s.02-.06,.05-.06,.1-.1,.16-.22c.06-.12,.16-.26,.21-.31,.05-.05,.24-.31,.42-.57,.18-.26,.44-.64,.59-.84,.15-.2,.49-.67,.75-1.04,.41-.58,.63-.89,.85-1.18,.03-.03,.17-.23,.31-.45,.15-.21,.32-.44,.37-.49,.06-.06,.11-.13,.11-.15s.06-.11,.13-.2c.16-.18,.4-.52,.4-.56,0-.02,.04-.08,.09-.14,.08-.09,.25-.32,.84-1.15,.52-.73,.76-1.05,.81-1.07,.03-.01,.06-.05,.06-.08,0-.05,.11-.22,.38-.56,.03-.03,.13-.18,.24-.33,.69-.98,1.19-1.66,1.24-1.72,.03-.04,.06-.1,.06-.13s.02-.06,.05-.06,.09-.08,.15-.18c.06-.1,.16-.24,.22-.31s.25-.33,.42-.56c.16-.23,.32-.45,.35-.48,.03-.03,.1-.13,.16-.22,.14-.21,.19-.21,.51,.08,.55,.48,.58,.39,.69-1.92,.02-.38,.06-.77,.08-.87,.02-.1,.05-.35,.06-.55v-.37s-.18,0-.18,0c-.11,0-.33,.07-.48,.14"/><path class="cls-3" d="M18.61,19.09c-.08,.11-.31,.43-.52,.72-.21,.29-.42,.59-.46,.66-.04,.07-.09,.15-.11,.16-.02,.02-.25,.32-.5,.68-.25,.36-.49,.68-.52,.72-.03,.04-.33,.45-.66,.91-.33,.46-.62,.87-.64,.9-.73,.95-1.28,1.76-1.28,1.91,0,.16,.45,.55,1.06,.94,.43,.28,.45,.27,.97-.46,.4-.56,.64-.89,1.01-1.38,.2-.27,.37-.52,.37-.54,0-.02,.08-.13,.18-.24,.1-.11,.18-.22,.18-.25s.03-.06,.06-.06,.07-.05,.09-.12c.02-.07,.12-.21,.21-.31,.1-.11,.18-.22,.18-.25s.05-.11,.12-.18c.15-.16,.76-.98,1.22-1.64,.19-.27,.38-.53,.42-.57,.38-.41,.42-.66,.15-.82-.17-.1-.37-.25-.69-.54-.48-.42-.66-.47-.84-.22"/><path class="cls-3" d="M14.67,19.47c-.3,.43-1.12,1.53-1.18,1.61-.03,.03-.3,.4-.59,.81-.3,.41-.57,.78-.61,.81-.18,.15-.09,.52,.32,1.37,.38,.79,.66,1.02,.76,.64,.02-.07,.05-.12,.08-.12s.11-.1,.19-.22c.08-.12,.17-.25,.2-.29,.03-.04,.21-.28,.39-.53,.18-.26,.4-.55,.49-.66,.09-.11,.16-.21,.16-.23s.03-.07,.06-.11c.03-.04,.2-.26,.37-.49s.36-.47,.42-.54c.06-.06,.11-.14,.11-.17s.16-.27,.36-.53l.36-.47-.2-.2c-.11-.11-.3-.26-.42-.33-.12-.07-.22-.16-.22-.19s-.05-.07-.11-.08-.2-.11-.31-.21c-.29-.25-.35-.23-.63,.16"/></g></svg>