<svg id="design" xmlns="http://www.w3.org/2000/svg" viewBox="0 0 40 40"><defs><style>.cls-1{fill:#f4f4f4;}</style></defs><rect class="cls-1" width="40" height="40" rx="4"/><path d="M20,8.5A11.5,11.5,0,1,0,31.5,20,11.5,11.5,0,0,0,20,8.5Zm2.34,20.56a9.05,9.05,0,1,1,8.86-9A9,9,0,0,1,22.34,29.06Z"/><path d="M23.86,12.79A7.21,7.21,0,1,0,30.92,20,7.11,7.11,0,0,0,23.86,12.79Zm1.72,12.49A5.19,5.19,0,0,1,20.51,20a5.08,5.08,0,1,1,10.15,0A5.16,5.16,0,0,1,25.58,25.28Z"/><path d="M26.4,16.07a3.73,3.73,0,0,0-3.33,2.08h0a1.85,1.85,0,0,1,0,3.7h0a3.73,3.73,0,0,0,3.33,2.08,3.93,3.93,0,0,0,0-7.86Z"/></svg>