<?xml version="1.0" encoding="UTF-8"?><svg id="design" xmlns="http://www.w3.org/2000/svg" viewBox="0 0 40 40"><defs><style>.cls-1{fill:#fff;}.cls-2{fill:#f2683e;}</style></defs><rect class="cls-2" width="40" height="40" rx="4" ry="4"/><g><path class="cls-1" d="M12.63,24.99v.04c1,1.53,2.48,2.68,4.21,3.29l-.34,1.67,7.27-2.3-5.53-6.07-.43,2.11c-.52-.35-.96-.8-1.3-1.31v-.04c-1.37-1.87-.97-4.5,.9-5.87,.05-.04,.1-.07,.16-.11h0l-2.46-3.31c-4.02,2.84-5.04,8.03-2.48,11.9Z"/><path class="cls-1" d="M23.12,11.84l.51-1.84-7.37,1.81,5.07,6.47,.55-2c.65,.37,1.2,.89,1.62,1.51v.04c1.33,1.82,.98,4.37-.78,5.77l2.69,3.13c3.57-2.74,4.43-7.76,1.97-11.53v-.04c-1.02-1.54-2.51-2.71-4.25-3.32Z"/></g></svg>