<svg width="40" height="40" viewBox="0 0 40 40" fill="none" xmlns="http://www.w3.org/2000/svg">
<rect width="40" height="40" rx="4" fill="#F4F4F4"/>
<g clip-path="url(#clip0_3185_8485)">
<path d="M23.6389 22.9687C23.0045 23.5319 22.2117 24.2324 20.774 24.2324H19.9141C18.8738 24.2324 17.9269 23.8548 17.2505 23.1701C16.5888 22.5 16.2249 21.5835 16.2249 20.5883V19.4127C16.2249 18.4176 16.5899 17.501 17.2505 16.832C17.9269 16.1472 18.8738 15.7697 19.9141 15.7697H20.774C22.2138 15.7697 23.0045 16.4702 23.6389 17.0333C24.2986 17.6143 24.8669 18.1218 26.3833 18.1218C26.615 18.1218 26.8457 18.104 27.0743 18.0673L27.0691 18.0537C26.9789 17.8282 26.872 17.609 26.7503 17.3983L25.7363 15.6428C24.8061 14.0321 23.0873 13.04 21.227 13.04H19.1989C17.3386 13.04 15.6199 14.0321 14.6897 15.6428L13.6756 17.3983C12.7455 19.009 12.7455 20.9941 13.6756 22.6059L14.6897 24.3613C15.6199 25.9721 17.3386 26.9641 19.1989 26.9641H21.227C23.0863 26.9641 24.8061 25.9721 25.7363 24.3613L26.7503 22.608C26.872 22.3972 26.9779 22.1791 27.0691 21.9526L27.0743 21.94C26.8457 21.9012 26.615 21.8823 26.3833 21.8813C24.8669 21.8813 24.2986 22.3857 23.6389 22.9698" fill="#006BFF"/>
<path d="M20.7739 16.8341H19.914C18.3306 16.8341 17.2903 17.9646 17.2903 19.4128V20.5883C17.2903 22.0365 18.3306 23.167 19.914 23.167H20.7739C23.081 23.167 22.8996 20.8148 26.3832 20.8148C26.7135 20.8148 27.0428 20.8442 27.3668 20.905C27.4727 20.3073 27.4727 19.6948 27.3668 19.0961C27.0428 19.1558 26.7135 19.1873 26.3832 19.1862C22.8985 19.1862 23.081 16.8341 20.7739 16.8341Z" fill="#006BFF"/>
<path d="M29.3677 21.7638C28.7741 21.3297 28.0904 21.035 27.3668 20.9039V20.9217C27.3039 21.2678 27.2074 21.6086 27.0764 21.9347C27.6741 22.027 28.2414 22.2609 28.7311 22.6164C28.7311 22.6206 28.728 22.6268 28.7269 22.6321C27.2735 27.3385 22.2787 29.9758 17.5724 28.5224C12.866 27.069 10.2276 22.0742 11.6821 17.3678C13.1355 12.6614 18.1292 10.0241 22.8356 11.4775C25.6523 12.3469 27.8566 14.5522 28.7259 17.3678C28.7259 17.3731 28.729 17.3794 28.7301 17.3836C28.2404 17.7391 27.673 17.9719 27.0753 18.0641C27.2064 18.3924 27.3029 18.7321 27.3658 19.0792C27.3658 19.0845 27.3658 19.0897 27.3658 19.096C28.0894 18.9639 28.7731 18.6703 29.3666 18.2361C29.9371 17.8135 29.827 17.3364 29.7399 17.0543C28.1145 11.7785 22.5189 8.82022 17.242 10.4467C11.9662 12.0732 9.00693 17.6698 10.6345 22.9456C12.262 28.2214 17.8576 31.1797 23.1334 29.5532C26.293 28.579 28.7668 26.1052 29.742 22.9456C29.8291 22.6635 29.9392 22.1864 29.3687 21.7638" fill="#006BFF"/>
<path d="M27.0733 18.0641C26.8457 18.1019 26.614 18.1218 26.3822 18.1228C24.8659 18.1228 24.2975 17.6174 23.6389 17.0343C23.0034 16.4702 22.2128 15.7697 20.773 15.7697H19.9131C18.8728 15.7697 17.9269 16.1482 17.2495 16.833C16.5878 17.5031 16.2239 18.4186 16.2239 19.4137V20.5903C16.2239 21.5855 16.5878 22.501 17.2495 23.1711C17.9269 23.8559 18.8717 24.2334 19.9131 24.2334H20.773C22.2117 24.2334 23.0024 23.5329 23.6389 22.9697C24.2975 22.3888 24.8659 21.8812 26.3822 21.8812C26.614 21.8812 26.8447 21.8991 27.0733 21.9358C27.2044 21.6086 27.3019 21.2688 27.3638 20.9228V20.9049C27.0397 20.8452 26.7094 20.8147 26.3791 20.8147C22.8944 20.8147 23.0769 23.1679 20.7698 23.1679H19.9099C18.3264 23.1679 17.2862 22.0364 17.2862 20.5893V19.4106C17.2862 17.9634 18.3264 16.8319 19.9099 16.8319H20.7698C23.0769 16.8319 22.8954 19.1841 26.3791 19.1841C26.7094 19.1841 27.0387 19.1547 27.3638 19.0939V19.0782C27.3008 18.7311 27.2044 18.3902 27.0733 18.0631" fill="#0AE8F0"/>
<path d="M27.0733 18.0641C26.8457 18.1019 26.614 18.1218 26.3822 18.1228C24.8659 18.1228 24.2975 17.6174 23.6389 17.0343C23.0034 16.4702 22.2128 15.7697 20.773 15.7697H19.9131C18.8728 15.7697 17.9269 16.1482 17.2495 16.833C16.5878 17.5031 16.2239 18.4186 16.2239 19.4137V20.5903C16.2239 21.5855 16.5878 22.501 17.2495 23.1711C17.9269 23.8559 18.8717 24.2334 19.9131 24.2334H20.773C22.2117 24.2334 23.0024 23.5329 23.6389 22.9697C24.2975 22.3888 24.8659 21.8812 26.3822 21.8812C26.614 21.8812 26.8447 21.8991 27.0733 21.9358C27.2044 21.6086 27.3019 21.2688 27.3638 20.9228V20.9049C27.0397 20.8452 26.7094 20.8147 26.3791 20.8147C22.8944 20.8147 23.0769 23.1679 20.7698 23.1679H19.9099C18.3264 23.1679 17.2862 22.0364 17.2862 20.5893V19.4106C17.2862 17.9634 18.3264 16.8319 19.9099 16.8319H20.7698C23.0769 16.8319 22.8954 19.1841 26.3791 19.1841C26.7094 19.1841 27.0387 19.1547 27.3638 19.0939V19.0782C27.3008 18.7311 27.2044 18.3902 27.0733 18.0631" fill="#0AE8F0"/>
</g>
<defs>
<clipPath id="clip0_3185_8485">
<rect width="19.6246" height="20" fill="white" transform="translate(10.1877 10)"/>
</clipPath>
</defs>
</svg>
