<svg id="design" xmlns="http://www.w3.org/2000/svg" viewBox="0 0 40 40"><defs><style>.cls-1{fill:#8abc00;}.cls-2{fill:#fff;}</style></defs><rect class="cls-1" y="0.01" width="40" height="40" rx="4"/><path class="cls-2" d="M26.42,16.61C26.42,11.88,22.12,8,20,8s-6.42,3.88-6.42,8.61a10.5,10.5,0,0,0,1.76,5.93A20.14,20.14,0,0,0,16.89,25a16.53,16.53,0,0,1,1.84,3,1.4,1.4,0,0,0-.78.77l1.13.21a5.72,5.72,0,0,0,2.61-.14,4.74,4.74,0,0,1-2.61.36,6.37,6.37,0,0,1-1.2-.14v2c0,.78.64,1,1.41,1h2c.78,0,1.41-.21,1.41-1V29.25a1.41,1.41,0,0,0-1.13-1.34l.85-1.7.28-.56.21-.43c.15-.28.43-.84.71-1.34h0A10,10,0,0,0,26.42,16.61Zm-4,8.47-.21.43-.28.56a13.45,13.45,0,0,0-.85,1.84h-.85V25.29h-.42v2.62H19a21.09,21.09,0,0,0-1.83-3.11c-.22-.28-.36-.49-.57-.78A5.43,5.43,0,0,0,20,25.29a4.87,4.87,0,0,0,2.75-.84A2.52,2.52,0,0,0,22.4,25.08Zm-.07-.7a11.58,11.58,0,0,0,2.61-5.3,4.62,4.62,0,0,1-3.53,1.56c-2.33,0-4.23-1.49-4.23-3.32S19.08,14,21.41,14a4.56,4.56,0,0,1,3.53,1.48c-1.2-5.08-6.78-6.35-6.78-6.35a2.44,2.44,0,0,1,1.13-.64,1.78,1.78,0,0,1,1.35,0c.49.15,5.36,2.83,5.36,8A10.56,10.56,0,0,1,22.33,24.38Z"/><path class="cls-2" d="M22.89,16.4c-.35,0-.7-.21-1.2-.21-.84,0-1.27.49-1.27,1.06s.43,1,1.27,1c.36,0,.92-.22,1.13-.22s.64.22.64.43c0,.49-1.27.7-1.84.7-1.62,0-2.68-.91-2.68-1.9s1.13-2,2.68-2c.64,0,1.84.14,1.84.64C23.53,16.12,23.25,16.4,22.89,16.4Z"/></svg>