<svg id="design" xmlns="http://www.w3.org/2000/svg" viewBox="0 0 40 40"><defs><style>.cls-1{fill:#242529;}.cls-2{fill:#d8b97d;fill-rule:evenodd;}</style></defs><rect class="cls-1" width="40" height="40" rx="4"/><path id="Fill-17" class="cls-2" d="M19.94,12.59l-.51-2.27.51-2.27a.07.07,0,0,1,.13,0l.5,2.27-.5,2.27c0,.06-.12.06-.13,0"/><path id="Fill-19" class="cls-2" d="M18.81,12.68,18,10.52l.16-2.32a.06.06,0,0,1,.12,0l.84,2.16-.15,2.32a.06.06,0,0,1-.12,0"/><path id="Fill-21" class="cls-2" d="M17.71,13l-1.17-2-.2-2.31c0-.07.09-.1.12,0l1.16,2,.21,2.31c0,.07-.09.1-.12,0"/><path id="Fill-23" class="cls-2" d="M16.66,13.39,15.2,11.58l-.55-2.26a.06.06,0,0,1,.11-.06l1.46,1.81.55,2.26a.06.06,0,0,1-.11.06"/><path id="Fill-25" class="cls-2" d="M15.69,14,14,12.41l-.89-2.15a.07.07,0,0,1,.11-.07l1.71,1.57.89,2.14a.06.06,0,0,1-.1.07"/><path id="Fill-27" class="cls-2" d="M14.82,14.71l-1.93-1.29-1.21-2c0-.06,0-.13.09-.09l1.93,1.28,1.21,2a.07.07,0,0,1-.09.09"/><path id="Fill-29" class="cls-2" d="M14.07,15.56l-2.1-1-1.5-1.78a.07.07,0,0,1,.08-.1l2.1,1,1.5,1.78a.07.07,0,0,1-.08.1"/><path id="Fill-31" class="cls-2" d="M13.46,16.52l-2.23-.64L9.49,14.35a.06.06,0,0,1,.06-.11l2.23.64,1.74,1.53a.06.06,0,0,1-.06.11"/><path id="Fill-33" class="cls-2" d="M13,17.56l-2.3-.29L8.75,16a.06.06,0,0,1,0-.12l2.3.29,2,1.24a.07.07,0,0,1,0,.12"/><path id="Fill-35" class="cls-2" d="M12.71,18.66l-2.31.07L8.27,17.8a.07.07,0,0,1,0-.13l2.31-.06,2.13.93a.06.06,0,0,1,0,.12"/><path id="Fill-37" class="cls-2" d="M12.59,19.79l-2.27.42-2.25-.59a.07.07,0,0,1,0-.13l2.28-.41,2.24.59a.06.06,0,0,1,0,.12"/><path id="Fill-39" class="cls-2" d="M12.65,20.93l-2.19.77-2.31-.25a.06.06,0,0,1,0-.12l2.19-.77,2.3.24a.07.07,0,0,1,0,.13"/><path id="Fill-41" class="cls-2" d="M12.87,22.05l-2,1.09-2.32.11a.06.06,0,0,1,0-.12l2-1.09,2.31-.12a.07.07,0,0,1,0,.13"/><path id="Fill-43" class="cls-2" d="M13.26,23.11,11.41,24.5,9.14,25a.07.07,0,0,1-.05-.12l1.85-1.38L13.21,23c.07,0,.11.07,0,.11"/><path id="Fill-45" class="cls-2" d="M13.81,24.11l-1.62,1.66-2.17.8a.06.06,0,0,1-.07-.1l1.62-1.66L13.75,24a.06.06,0,0,1,.06.11"/><path id="Fill-47" class="cls-2" d="M14.51,25,13.16,26.9l-2,1.13a.07.07,0,0,1-.08-.1l1.35-1.88,2-1.14a.07.07,0,0,1,.08.1"/><path id="Fill-49" class="cls-2" d="M15.33,25.79l-1,2.07-1.83,1.43a.07.07,0,0,1-.1-.08l1.05-2.07,1.83-1.43a.06.06,0,0,1,.09.08"/><path id="Fill-51" class="cls-2" d="M16.27,26.44l-.72,2.21L14,30.34a.07.07,0,0,1-.11-.07l.72-2.21,1.59-1.69a.07.07,0,0,1,.11.07"/><path id="Fill-53" class="cls-2" d="M17.29,26.93l-.38,2.3L15.6,31.14a.07.07,0,0,1-.12-.05l.38-2.29,1.31-1.91a.07.07,0,0,1,.12,0"/><path id="Fill-55" class="cls-2" d="M18.37,27.27l0,2.32-1,2.09a.06.06,0,0,1-.12,0l0-2.33,1-2.09a.06.06,0,0,1,.12,0"/><path id="Fill-57" class="cls-2" d="M19.49,27.43l.34,2.3L19.15,32A.07.07,0,0,1,19,32l-.33-2.31.68-2.22a.06.06,0,0,1,.12,0"/><path id="Fill-59" class="cls-2" d="M20.63,27.42l.68,2.22L21,32a.06.06,0,0,1-.12,0l-.68-2.23.33-2.3a.07.07,0,0,1,.13,0"/><path id="Fill-61" class="cls-2" d="M21.75,27.24l1,2.09,0,2.33a.06.06,0,0,1-.12,0l-1-2.1,0-2.32a.06.06,0,0,1,.12,0"/><path id="Fill-63" class="cls-2" d="M22.83,26.89l1.31,1.91.38,2.29a.07.07,0,0,1-.12.05l-1.31-1.91-.38-2.3a.07.07,0,0,1,.12,0"/><path id="Fill-65" class="cls-2" d="M23.84,26.37l1.59,1.69.72,2.21a.07.07,0,0,1-.11.07l-1.59-1.69-.72-2.21a.07.07,0,0,1,.11-.07"/><path id="Fill-67" class="cls-2" d="M24.76,25.71l1.83,1.43,1.05,2.07a.07.07,0,0,1-.1.08l-1.83-1.43-1.05-2.07a.07.07,0,0,1,.1-.08"/><path id="Fill-69" class="cls-2" d="M25.57,24.92l2,1.13L29,27.93a.07.07,0,0,1-.09.1l-2-1.13L25.49,25c0-.06,0-.13.08-.09"/><path id="Fill-71" class="cls-2" d="M26.25,24l2.18.81,1.62,1.66a.07.07,0,0,1-.07.11l-2.17-.81-1.63-1.66a.07.07,0,0,1,.07-.11"/><path id="Fill-73" class="cls-2" d="M26.79,23l2.27.47,1.85,1.39c.06,0,0,.12-.05.11l-2.27-.47-1.86-1.38a.07.07,0,0,1,.06-.12"/><path id="Fill-75" class="cls-2" d="M27.16,21.93l2.31.11,2.05,1.09a.06.06,0,0,1,0,.12l-2.32-.11-2-1.09c-.06,0,0-.13,0-.12"/><path id="Fill-77" class="cls-2" d="M27.37,20.81l2.3-.25,2.19.77c.06,0,.05.12,0,.12l-2.31.25-2.19-.77a.06.06,0,0,1,0-.12"/><path id="Fill-79" class="cls-2" d="M27.4,19.67l2.24-.59,2.28.42a.06.06,0,0,1,0,.12l-2.25.59-2.27-.41a.07.07,0,0,1,0-.13"/><path id="Fill-81" class="cls-2" d="M27.26,18.54l2.13-.93,2.31.07a.06.06,0,0,1,0,.12l-2.13.93-2.31-.06a.07.07,0,0,1,0-.13"/><path id="Fill-83" class="cls-2" d="M27,17.45l2-1.25,2.3-.29c.07,0,.1.09,0,.12l-2,1.24-2.29.3c-.07,0-.1-.09-.05-.12"/><path id="Fill-85" class="cls-2" d="M26.48,16.41l1.74-1.53,2.23-.63a.06.06,0,0,1,.06.11l-1.74,1.52-2.23.64a.06.06,0,0,1-.06-.11"/><path id="Fill-87" class="cls-2" d="M25.85,15.46l1.5-1.78,2.1-1c.06,0,.12,0,.08.1L28,14.59l-2.1,1a.07.07,0,0,1-.08-.1"/><path id="Fill-89" class="cls-2" d="M25.09,14.62l1.21-2,1.93-1.28c.06,0,.12,0,.09.09l-1.21,2-1.93,1.29a.07.07,0,0,1-.09-.09"/><path id="Fill-91" class="cls-2" d="M24.21,13.9l.89-2.14,1.71-1.57a.07.07,0,0,1,.11.08L26,12.41,24.32,14a.07.07,0,0,1-.11-.08"/><path id="Fill-93" class="cls-2" d="M23.23,13.33l.55-2.26,1.46-1.81a.06.06,0,0,1,.11.06l-.55,2.26-1.45,1.81a.07.07,0,0,1-.12-.06"/><path id="Fill-95" class="cls-2" d="M22.18,12.91l.2-2.31,1.16-2a.06.06,0,0,1,.12,0l-.2,2.31L22.3,13a.06.06,0,0,1-.12,0"/><path id="Fill-97" class="cls-2" d="M21.07,12.66l-.15-2.32.84-2.16a.07.07,0,0,1,.13,0L22,10.52l-.84,2.16a.07.07,0,0,1-.13,0"/><polygon id="Fill-99" class="cls-2" points="28.96 29.11 28.96 28.99 29.77 28.99 29.77 29.11 29.43 29.11 29.43 30.01 29.3 30.01 29.3 29.11 28.96 29.11"/><polygon id="Fill-101" class="cls-2" points="30.09 28.99 30.42 29.85 30.74 28.99 30.92 28.99 30.92 30.01 30.79 30.01 30.79 29.16 30.79 29.16 30.47 30.01 30.36 30.01 30.04 29.16 30.04 29.16 30.04 30.01 29.91 30.01 29.91 28.99 30.09 28.99"/></svg>