<?xml version="1.0" encoding="UTF-8"?><svg id="design" xmlns="http://www.w3.org/2000/svg" viewBox="0 0 40 40"><defs><style>.cls-1{fill:#fff;}.cls-2{fill:#388aed;}</style></defs><rect class="cls-2" width="40" height="40" rx="4" ry="4"/><path id="_Compound_Path_5" class="cls-1" d="M20,10c.29,0,.58,.04,.86,.08,.45,.06,.86,.19,1.29,.33,.67,.25,1.27,.64,1.82,1.11,.42,.36,.79,.78,1.09,1.25,.21,.32,.39,.65,.53,1,.12,.31,.25,.64,.31,.96,.05,.18,.08,.36,.1,.54,.03,.15,.04,.3,.04,.45,0,.19,.02,.37,.02,.54-.02,.25-.05,.49-.1,.74-.06,.25-.12,.51-.19,.76-.06,.21-.1,.39-.16,.6-.06,.16-.1,.35-.16,.51-.1,.31-.21,.61-.33,.92-.16,.43-.35,.88-.51,1.31-.14,.37-.31,.72-.45,1.07-.16,.39-.35,.78-.51,1.17-.23,.51-.47,1-.7,1.52-.14,.33-.31,.63-.47,.96l-.49,.98c-.21,.41-.43,.84-.63,1.25-.16,.33-.33,.66-.49,.96-.1,.19-.19,.37-.29,.56-.06,.1-.14,.2-.23,.29-.21,.19-.41,.19-.63-.02-.14-.12-.23-.29-.31-.43l-.8-1.54c-.14-.27-.29-.56-.41-.82s-.27-.51-.39-.78c-.14-.29-.27-.57-.41-.86-.06-.14-.14-.29-.21-.43-.16-.35-.33-.7-.49-1.05-.19-.39-.37-.78-.54-1.17-.1-.25-.23-.49-.33-.74-.16-.37-.31-.72-.47-1.09-.14-.37-.29-.72-.43-1.09-.04-.12-.1-.25-.14-.37-.1-.29-.19-.56-.29-.84-.06-.21-.14-.41-.19-.62-.08-.29-.14-.57-.23-.86-.04-.21-.08-.41-.1-.61-.02-.23-.02-.45-.02-.67,0-.23,.04-.45,.08-.67,.04-.23,.08-.43,.14-.66,.04-.16,.09-.32,.14-.47,.18-.49,.41-.95,.71-1.38,.2-.29,.42-.57,.66-.82,.39-.4,.83-.75,1.31-1.02,.29-.16,.59-.31,.9-.43,.28-.1,.57-.19,.86-.25,.25-.06,.47-.08,.72-.12,.2-.02,.37-.03,.54-.05Zm-2.85,4.72c0,.14,.02,.37,.04,.6,.02,.21,.06,.43,.1,.64,.04,.16,.06,.33,.12,.47,.08,.29,.16,.57,.27,.86,.12,.33,.25,.67,.39,1,.14,.35,.33,.7,.49,1.05,.27,.49,.56,.96,.92,1.38,.23,.27,.5,.51,.8,.7,.39,.25,.78,.39,1.25,.37,.11,0,.22-.02,.33-.06,.27-.1,.54-.21,.78-.31,.23-.08,.35-.25,.37-.49,.02-.14,0-.29-.06-.43-.12-.33-.27-.65-.39-.98s-.27-.65-.39-.98c-.05-.16-.2-.27-.37-.29-.12-.02-.24,0-.35,.04-.29,.12-.58,.21-.84,.37-.1,.06-.21,.04-.31-.02-.07-.06-.13-.13-.19-.21-.18-.26-.32-.55-.43-.84-.14-.37-.31-.74-.43-1.11-.06-.23-.12-.43-.14-.66-.03-.16,.08-.32,.25-.35,.08-.02,.15-.04,.23-.08,.14-.06,.29-.1,.43-.16,.11-.04,.21-.09,.31-.14,.13-.07,.21-.22,.16-.37-.02-.09-.05-.18-.08-.27-.06-.19-.14-.39-.21-.58-.06-.16-.1-.31-.16-.47-.1-.27-.19-.56-.29-.82-.04-.12-.08-.25-.12-.39-.04-.12-.14-.21-.27-.23-.08,0-.15,0-.23,.02-.15,.05-.29,.1-.43,.16-.19,.08-.39,.16-.57,.25s-.33,.21-.45,.37c-.29,.33-.43,.72-.51,1.13,.01,.28-.01,.53-.01,.85h0Z"/></svg>