<svg width="16" height="20" viewBox="0 0 16 20" fill="none" xmlns="http://www.w3.org/2000/svg">
<path d="M14.6091 15.3477C13.7938 16.4508 12.7386 17.6019 11.3477 18.4652C10.0048 19.3285 8.47005 20 6.6475 20C4.96885 20 3.57796 19.1367 2.81057 18.4173C1.65949 17.3141 1.03599 15.7314 0.844145 14.2446C0.268606 9.64029 3.09834 3.54916 7.46285 0.911271C8.47005 0.28777 9.57316 0 10.6283 0C12.7386 0 14.3214 1.48681 14.5132 3.30935C14.7051 4.94005 14.0816 6.33094 12.259 7.24221C11.3477 7.72182 10.8681 7.67386 10.7242 7.48202C10.6283 7.33813 10.6763 7.09832 10.8681 6.95444C12.5468 5.56355 12.5947 4.41247 12.4029 2.78177C12.259 1.72662 11.5876 1.05516 10.8202 1.05516C7.51081 1.05516 2.71465 8.48921 3.38611 13.8609C3.62592 15.9712 4.92088 18.4173 7.60674 18.4173C8.47005 18.4173 9.42928 18.1775 10.2446 17.7458C12.1151 16.7866 12.9305 16.1151 14.0336 14.5803C14.1775 14.3885 14.3214 14.1487 14.4652 13.9568C14.5612 13.765 14.753 13.717 14.8969 13.717C15.0408 13.717 15.2326 13.8609 15.2326 14.1007C15.2326 14.2446 15.1847 14.5324 14.9928 14.7722C14.9449 14.8681 14.801 15.1559 14.6091 15.3477Z" fill="white"/>
</svg>
