<?xml version="1.0" encoding="UTF-8"?><svg id="design" xmlns="http://www.w3.org/2000/svg" viewBox="0 0 40 40"><defs><style>.cls-1{fill:#fff;}.cls-2{fill:#1c87b1;}</style></defs><rect class="cls-2" width="40" height="40" rx="4" ry="4"/><path class="cls-1" d="M17.73,27.8h4.21v-1.79s.98,.36,2.05,.36,5.31-.65,5.98-5.7c.29-2.35-1.43-6.37-6.23-6.6-2.53,.04-4.21,1.14-5.29,3.63-1.1,2.51-1.44,2.77-2.92,2.51s-2.27-3.23,.45-3.84c0,0,1.22-.1,1.86,1.07,.77-1.76,1.81-2.82,2.78-3.27-1.09-1.22-3.64-2.72-6.78-1.51-2.77,1.12-3.54,3.39-3.8,5.05-.19,1.6,.51,4.79,3.59,6.24,2.38,1.04,5.27,.45,6.53-.82s1.83-4.06,2.87-4.56,2.73-.07,2.81,1.82c-.05,1.09-1.05,1.81-1.94,1.83-.84,.02-1.4-.62-1.71-1.01-.38,.91-1.38,3.25-4.44,3.76,.01,1.38,.01,2.84,.01,2.84Z"/></svg>