<svg width="18" height="18" viewBox="0 0 18 18" fill="none" xmlns="http://www.w3.org/2000/svg">
<path fill-rule="evenodd" clip-rule="evenodd" d="M14.7378 13.2255C13.8548 14.2346 11.8371 16 9.4404 16C5.90902 16 3.26001 13.6039 3.26001 9.44182C3.26001 5.65816 6.41359 3.51372 8.43125 2.75686L8.55739 2.883C6.66524 4.1438 5.6561 5.65752 5.6561 8.30653C5.6561 10.7033 6.41296 12.3425 7.54825 13.3516L8.05282 12.9732C8.55739 12.7209 8.55739 12.3425 8.55739 11.7118V5.65816C8.55739 5.02744 8.43125 4.77515 8.05282 4.52287V4.39672C9.31362 3.766 10.8273 2.75686 11.8365 2C12.2149 2.37843 12.5933 2.63072 13.2241 2.63072C13.7286 2.63072 14.1071 2.37843 14.3594 2.25228C14.3594 3.51372 13.7286 4.39672 12.4672 4.39672H11.9626V14.1085C12.9718 14.1085 13.9803 13.3516 14.6116 13.0993L14.7378 13.2255ZM11.711 14.2346V4.27058C11.3325 4.14443 11.0803 4.01829 10.828 3.766V10.1987C10.828 11.3333 10.7018 11.7118 9.18811 12.7209L7.92731 13.4778C8.80968 14.1079 10.0718 14.2346 11.3325 14.2346H11.711Z" fill="white"/>
</svg>
