<svg id="design" xmlns="http://www.w3.org/2000/svg" viewBox="0 0 40 40"><defs><style>.cls-1{fill:#f4f4f4;}.cls-2{fill:#701400;stroke:#132530;stroke-width:0.4px;}</style></defs><rect class="cls-1" width="40" height="40" rx="4"/><path class="cls-2" d="M18,31.2c-1.44,0-2.9.08-4.33-.06a5.92,5.92,0,0,1-4-2.75,7.22,7.22,0,0,1-.83-3.87,6.48,6.48,0,0,1,1.28-4,6.84,6.84,0,0,1,5.34-2.13c2.62-.08,5.24,0,7.86,0V8.79H31.2l0,22.4h-8l0-9.25c-1.48,0-3,0-4.46,0a2.68,2.68,0,0,0-1.83,2.57,2.38,2.38,0,0,0,.84,2.16c1.15.77,2.59.67,3.91.66.06,1.28,0,2.56,0,3.84Z"/></svg>