<svg width="22" height="18" viewBox="0 0 22 18" fill="none" xmlns="http://www.w3.org/2000/svg">
<path d="M18.6361 1.91119C17.212 1.24489 15.6893 0.760655 14.0973 0.484924C13.9018 0.838401 13.6734 1.31383 13.5159 1.69204C11.8236 1.43754 10.1469 1.43754 8.48573 1.69204C8.32828 1.31383 8.09468 0.838401 7.89741 0.484924C6.30374 0.760655 4.77928 1.24667 3.35518 1.91472C0.482756 6.25533 -0.29591 10.4881 0.0934236 14.6608C1.99856 16.0835 3.84487 16.9478 5.66003 17.5133C6.1082 16.8965 6.50791 16.2408 6.85224 15.5498C6.19644 15.3006 5.56832 14.9931 4.97482 14.6361C5.13227 14.5194 5.28628 14.3975 5.43508 14.272C9.05501 15.9651 12.9882 15.9651 16.5648 14.272C16.7154 14.3975 16.8694 14.5194 17.0251 14.6361C16.4299 14.9948 15.8 15.3023 15.1442 15.5516C15.4885 16.2408 15.8865 16.8983 16.3364 17.5151C18.1533 16.9495 20.0014 16.0853 21.9065 14.6608C22.3633 9.8236 21.1261 5.62968 18.6361 1.91119ZM7.34541 12.0946C6.25874 12.0946 5.36759 11.0802 5.36759 9.8448C5.36759 8.60943 6.23972 7.59321 7.34541 7.59321C8.45114 7.59321 9.34226 8.60765 9.32323 9.8448C9.32495 11.0802 8.45114 12.0946 7.34541 12.0946ZM14.6545 12.0946C13.5678 12.0946 12.6767 11.0802 12.6767 9.8448C12.6767 8.60943 13.5488 7.59321 14.6545 7.59321C15.7602 7.59321 16.6514 8.60765 16.6323 9.8448C16.6323 11.0802 15.7602 12.0946 14.6545 12.0946Z" fill="white"/>
</svg>
