<?xml version="1.0" encoding="UTF-8"?><svg id="design" xmlns="http://www.w3.org/2000/svg" xmlns:xlink="http://www.w3.org/1999/xlink" viewBox="0 0 40 40"><defs><style>.cls-1{fill:url(#linear-gradient-2);}.cls-2{fill:#f4f4f4;}.cls-3{fill:#fff;}.cls-4{fill:#7540ab;}.cls-5{clip-path:url(#clippath-2);}.cls-6{clip-path:url(#clippath-6);}.cls-7{clip-path:url(#clippath-7);}.cls-8{clip-path:url(#clippath-1);}.cls-9{clip-path:url(#clippath-4);}.cls-10{clip-path:url(#clippath);}.cls-11{fill:none;}.cls-12{clip-path:url(#clippath-3);}.cls-13{clip-path:url(#clippath-5);}.cls-14{fill:url(#linear-gradient);}.cls-15{opacity:.25;}</style><clipPath id="clippath"><path class="cls-11" d="M18.67,10.36l-6.36,3.67c-.82,.47-1.33,1.35-1.33,2.3v7.35c0,.95,.51,1.82,1.33,2.3l6.36,3.67c.41,.24,.86,.35,1.32,.36h.01c.46,0,.91-.12,1.32-.36l6.36-3.67c.82-.47,1.33-1.35,1.33-2.3v-7.35c0-.95-.51-1.82-1.33-2.3l-6.36-3.67c-.41-.24-.87-.36-1.33-.36-.46,0-.92,.12-1.33,.36"/></clipPath><linearGradient id="linear-gradient" x1="-458.54" y1="733.54" x2="-458.52" y2="733.54" gradientTransform="translate(-413368.2 661341.91) rotate(-180) scale(901.55)" gradientUnits="userSpaceOnUse"><stop offset="0" stop-color="#1d9ad6"/><stop offset=".24" stop-color="#208bcb"/><stop offset=".7" stop-color="#2864ad"/><stop offset="1" stop-color="#2e4797"/></linearGradient><clipPath id="clippath-1"><rect class="cls-11" x="10.98" y="10" width="18.04" height="20"/></clipPath><clipPath id="clippath-2"><rect class="cls-11" x="10.98" y="10" width="9.02" height="15"/></clipPath><clipPath id="clippath-3"><rect class="cls-11" x="10.98" y="10" width="9.02" height="15"/></clipPath><clipPath id="clippath-4"><path class="cls-11" d="M11.34,25c.23,.4,.56,.73,.97,.97l6.36,3.67c.41,.24,.86,.35,1.32,.36h.01c.46,0,.91-.12,1.32-.36l6.36-3.67c.41-.24,.74-.57,.97-.97l-8.66-5-8.66,5Z"/></clipPath><linearGradient id="linear-gradient-2" x1="-458.48" y1="736" x2="-458.46" y2="736" gradientTransform="translate(397064.8 -637372.13) scale(866.03)" gradientUnits="userSpaceOnUse"><stop offset="0" stop-color="#375cb3"/><stop offset="1" stop-color="#15bedf"/></linearGradient><clipPath id="clippath-5"><rect class="cls-11" x="10.98" y="10" width="18.04" height="20"/></clipPath><clipPath id="clippath-6"><rect class="cls-11" x="10.98" y="10" width="18.04" height="20"/></clipPath><clipPath id="clippath-7"><rect class="cls-11" x="10.98" y="10" width="18.04" height="20"/></clipPath></defs><rect class="cls-2" width="40" height="40" rx="4" ry="4"/><g><g class="cls-10"><rect class="cls-14" x="10.98" y="10" width="18.03" height="20"/></g><g class="cls-8"><g class="cls-15"><g class="cls-5"><g class="cls-12"><path class="cls-4" d="M12.31,14.03c-.82,.47-1.33,1.35-1.33,2.3v7.35c0,.47,.13,.93,.36,1.33l8.66-5V10c-.46,0-.92,.12-1.33,.36l-6.36,3.67Z"/></g></g></g></g><g class="cls-9"><rect class="cls-1" x="11.34" y="20" width="17.32" height="10"/></g><g class="cls-13"><path class="cls-3" d="M19.91,14.78h.84c.12,0,.23,.1,.23,.23v8.97c0,.54-.44,.98-.98,.98h-.76c-.12,0-.23-.1-.23-.23V15.68c0-.5,.4-.9,.9-.9"/></g><g class="cls-6"><path class="cls-3" d="M23.33,17.25h.84c.12,0,.23,.1,.23,.23v6.5c0,.54-.44,.98-.98,.98h-.76c-.12,0-.23-.1-.23-.23v-6.58c0-.5,.4-.9,.9-.9"/></g><g class="cls-7"><path class="cls-3" d="M16.5,20.68h.84c.12,0,.23,.1,.23,.23v3.08c0,.54-.44,.98-.98,.98h-.76c-.12,0-.23-.1-.23-.23v-3.17c0-.5,.4-.9,.9-.9"/></g></g></svg>