<svg id="design" xmlns="http://www.w3.org/2000/svg" viewBox="0 0 40 40"><defs><style>.cls-1{fill:#003f8c;}.cls-2{fill:#fff;}</style></defs><rect class="cls-1" y="0.01" width="40" height="40" rx="4"/><path class="cls-2" d="M21.58,18.22h2.49m-5.45,0h2.49m-5.39,0h2.49m-5.39,0h2.43m-5.39,0h2.49m.47-2.72h2.43m.47,0h2.49m.41,0h2.49m-2.49-2.72h2.49"/><path class="cls-2" d="M24.07,19.35H21.58V17.1h2.49Zm-3,0H18.62V17.1h2.49Zm-2.9,0H15.72V17.1h2.49Zm-3,0H12.82V17.1h2.43Zm-2.9,0H9.86V17.1h2.49Zm8.76-2.72H18.62V14.38h2.49Zm-2.9,0H15.72V14.38h2.49Zm-3,0H12.82V14.38h2.43Zm5.86-2.73H18.62V11.65h2.49Z"/><path class="cls-2" d="M32,18.34a4,4,0,0,0-3.26-.65A4.27,4.27,0,0,0,26.67,15a4.14,4.14,0,0,0-.47,4.38,4,4,0,0,1-1.84.41H8.09c-.3,1.13-.3,8.59,7.87,8.59,5.86,0,10.24-2.73,12.31-7.7A3.35,3.35,0,0,0,32,18.34"/></svg>