<?xml version="1.0" encoding="UTF-8"?><svg id="design" xmlns="http://www.w3.org/2000/svg" viewBox="0 0 40 40"><defs><style>.cls-1{fill:#f4f4f4;}.cls-2{fill:#633c97;fill-rule:evenodd;}</style></defs><rect class="cls-1" width="40" height="40" rx="4" ry="4"/><path class="cls-2" d="M26.31,24.2l-1.66-1.1-1.39,2.32-1.61-.47-1.42,2.17,.07,.68,7.73-1.42-.45-4.83-1.26,2.65Zm-7.21-2.08l1.24-.17c.2,.09,.34,.12,.58,.19,.37,.1,.81,.19,1.45-.13,.15-.07,.46-.36,.59-.52l5.08-.92,.52,6.27-8.7,1.57-.75-6.28Zm9.44-2.26l-.5,.1-.96-9.95-16.42,1.9,2.02,16.41,1.92-.28c-.15-.22-.39-.48-.8-.82-.57-.47-.37-1.27-.03-1.77,.44-.85,2.72-1.93,2.59-3.3-.05-.5-.12-1.14-.58-1.58-.02,.18,.01,.36,.01,.36,0,0-.19-.24-.28-.57-.09-.13-.17-.17-.27-.33-.07,.19-.06,.42-.06,.42,0,0-.15-.36-.18-.67-.09,.14-.11,.4-.11,.4,0,0-.2-.57-.15-.88-.09-.27-.36-.8-.29-2.02,.5,.35,1.6,.27,2.03-.37,.14-.21,.24-.78-.07-1.91-.2-.72-.7-1.8-.89-2.21l-.02,.02c.1,.33,.31,1.02,.39,1.35,.24,1.02,.31,1.37,.19,1.84-.1,.41-.33,.67-.92,.97-.59,.3-1.38-.43-1.43-.47-.58-.46-1.02-1.21-1.07-1.57-.05-.4,.23-.64,.37-.96-.2,.06-.43,.16-.43,.16,0,0,.27-.28,.6-.52,.14-.09,.22-.15,.36-.27-.21,0-.38,0-.38,0,0,0,.35-.19,.71-.33-.27-.01-.52,0-.52,0,0,0,.78-.35,1.4-.61,.42-.17,.84-.12,1.07,.21,.31,.44,.63,.68,1.31,.83,.42-.19,.54-.28,1.07-.42,.46-.51,.83-.57,.83-.57,0,0-.18,.17-.23,.42,.26-.21,.55-.38,.55-.38,0,0-.11,.14-.21,.36l.02,.04c.31-.18,.67-.33,.67-.33,0,0-.1,.13-.22,.3,.23,0,.7,0,.88,.03,1.07,.02,1.29-1.14,1.7-1.29,.51-.18,.74-.3,1.62,.57,.75,.74,1.34,2.06,1.05,2.36-.24,.25-.73-.1-1.26-.76-.28-.35-.5-.77-.6-1.3-.08-.45-.41-.71-.41-.71,0,0,.19,.43,.19,.8,0,.2,.03,.97,.35,1.4-.03,.06-.05,.31-.08,.36-.38-.46-1.2-.79-1.34-.89,.45,.37,1.49,1.22,1.89,2.04,.38,.77,.16,1.48,.35,1.66,.05,.05,.81,1,.96,1.47,.25,.83,.02,1.7-.32,2.24l-.93,.15c-.14-.04-.23-.06-.35-.13,.07-.12,.2-.42,.2-.48l-.05-.09c-.29,.41-.77,.81-1.18,1.04-.53,.3-1.14,.25-1.53,.13-1.12-.35-2.19-1.11-2.44-1.31,0,0,0,.16,.04,.2,.28,.32,.93,.9,1.56,1.3l-1.34,.15,.63,4.92c-.28,.04-.32,.06-.63,.1-.27-.96-.79-1.58-1.35-1.94-.5-.32-1.19-.39-1.84-.26l-.04,.05c.46-.05,1,.02,1.55,.37,.54,.34,.98,1.23,1.15,1.77,.21,.68,.35,1.42-.21,2.19-.4,.55-1.55,.86-2.49,.2,.25,.4,.59,.73,1.04,.79,.67,.09,1.31-.03,1.76-.48,.38-.39,.58-1.2,.52-2.05l.6-.09,.21,1.53,9.86-1.19-.8-7.84Zm-6-4.15c-.03,.06-.07,.1,0,.31h0s.01,.04,.01,.04l.03,.06c.12,.24,.25,.46,.46,.58,.06,0,.11-.02,.17-.02,.2,0,.33,.02,.41,.07,0-.04,0-.1,0-.19-.02-.3,.06-.82-.52-1.09-.22-.1-.53-.07-.63,.06,.02,0,.04,0,.05,.01,.16,.05,.05,.11,.02,.17m1.63,2.83c-.08-.04-.43-.03-.68,0-.48,.06-.99,.22-1.11,.31-.21,.16-.11,.44,.04,.55,.43,.32,.8,.53,1.19,.48,.24-.03,.46-.41,.61-.76,.1-.24,.1-.5-.05-.58m-4.23-2.45c.13-.13-.67-.3-1.3,.13-.46,.31-.48,.99-.03,1.37,.04,.04,.08,.06,.11,.09,.13-.06,.28-.12,.44-.18,.29-.09,.52-.14,.72-.17,.09-.1,.2-.29,.18-.62-.04-.45-.38-.38-.12-.62"/></svg>