<svg id="design" xmlns="http://www.w3.org/2000/svg" viewBox="0 0 40 40"><defs><style>.cls-1{fill:#f4f4f4;}.cls-2{fill:#2170bf;}.cls-3{fill:#42bd4f;}</style></defs><rect class="cls-1" y="0.01" width="40" height="40" rx="4"/><path d="M25.64,22.11H14.36V14.33H25.64ZM15,21.45H25V15H15Z"/><polygon class="cls-2" points="21.38 20.86 21.38 18.55 24.4 18.55 24.4 17.89 20.71 17.89 20.71 20.86 21.38 20.86"/><polygon class="cls-2" points="26.13 17.89 26.13 18.55 31.34 18.55 31.34 25 21.38 25 21.38 22.69 20.71 22.69 20.71 25.67 32 25.67 32 17.89 26.13 17.89"/><polygon class="cls-3" points="18.63 20.86 19.29 20.86 19.29 17.89 15.54 17.89 15.54 18.55 18.63 18.55 18.63 20.86"/><polygon class="cls-3" points="18.63 22.69 18.63 25 8.66 25 8.66 18.55 13.81 18.55 13.81 17.89 8 17.89 8 25.67 19.29 25.67 19.29 22.69 18.63 22.69"/></svg>