<svg id="design" xmlns="http://www.w3.org/2000/svg" viewBox="0 0 40 40"><defs><style>.cls-1{fill:#fff;}</style></defs><rect y="0.01" width="40" height="40" rx="4"/><path class="cls-1" d="M27.7,15.64h0a24.11,24.11,0,0,0-15.37-5.17c-1.06.06-3.43.18-4.27,1.67-.09.31-.12.79.22.89s1.47.35,1.6-.06-1-.35-1-.57,1-.43,1.61-.47a23.75,23.75,0,0,1,10.79,2c3.36,1.52,7.46,3.89,8.44,7.81a3.76,3.76,0,0,1-1.31,3.61c-2.43,1.77-5.7,2.06-8.81,1.56a.42.42,0,0,1-.26-.26,25.85,25.85,0,0,1-.1-5.06c0-.24.19-.3.41-.26,1.76.22,4.6.57,5.16,1.15.4.41-.89.9-.93,1.2s.69.26,1.08.26a1.68,1.68,0,0,0,1.41-1,2,2,0,0,0-.56-2c-1.8-1.28-4.08-1.39-6.36-1.49-.52-1.24.05-3-1.15-3.87a.35.35,0,0,0-.48.11,15.63,15.63,0,0,0-.56,3.8c-.09,0,0,.19-.15.15a11.88,11.88,0,0,0-5.27,2,1.16,1.16,0,0,0-.26,1.09,10,10,0,0,0,4.94,4.34c1,.39.44,1.6,1.11,2.23a1,1,0,0,0,.93.15c.48-.17.63-.67.78-1.08a15.19,15.19,0,0,0,7.25-.07c2.28-.61,5-2.52,5.36-5C32.3,20.06,29.7,17.27,27.7,15.64ZM17,25.88a8.12,8.12,0,0,1-2.67-1.13,7.2,7.2,0,0,1-2.13-1.82c-.22-.37.13-.67.41-.78a13.49,13.49,0,0,1,4.47-.7h0c.11.05,0,.13.11.18A26.1,26.1,0,0,1,17,25.88Z"/></svg>