<svg width="24" height="24" viewBox="0 0 24 24" fill="none" xmlns="http://www.w3.org/2000/svg">
<path d="M12.0001 1C9.28796 1 7.08936 3.1986 7.08936 5.91071V7.08929L16.9108 7.08928V5.91071C16.9108 3.1986 14.7122 1 12.0001 1Z" fill="#6CC5E9"/>
<path d="M12.0001 1C9.28796 1 7.08936 3.1986 7.08936 5.91071V7.08929L16.9108 7.08928V5.91071C16.9108 3.1986 14.7122 1 12.0001 1Z" fill="#6CC5E9"/>
<path d="M11.9999 23C14.712 23 16.9106 20.8014 16.9106 18.0893L16.9106 16.9107L7.08922 16.9107L7.08922 18.875C7.08922 20.6429 9.28782 23 11.9999 23Z" fill="#6CC5E9"/>
<path d="M11.9999 23C14.712 23 16.9106 20.8014 16.9106 18.0893L16.9106 16.9107L7.08922 16.9107L7.08922 18.875C7.08922 20.6429 9.28782 23 11.9999 23Z" fill="#4B5EA5"/>
<path d="M1 12C1 14.7121 3.1986 16.9107 5.91071 16.9107L7.08929 16.9107L7.08928 7.08928L5.91071 7.08928C3.1986 7.08928 1 9.28788 1 12Z" fill="#6CC5E9"/>
<path d="M1 12C1 14.7121 3.1986 16.9107 5.91071 16.9107L7.08929 16.9107L7.08928 7.08928L5.91071 7.08928C3.1986 7.08928 1 9.28788 1 12Z" fill="#6CC5E9"/>
<path d="M23 12C23 9.2879 20.8014 7.08929 18.0893 7.08929L16.9107 7.08929L16.9107 16.9107L18.0893 16.9107C20.8014 16.9107 23 14.7121 23 12Z" fill="#6CC5E9"/>
<path d="M23 12C23 9.2879 20.8014 7.08929 18.0893 7.08929L16.9107 7.08929L16.9107 16.9107L18.0893 16.9107C20.8014 16.9107 23 14.7121 23 12Z" fill="#4B5EA5"/>
<path d="M7.08936 7.08929H16.9108V16.9107H9.05364L7.08936 18.875V7.08929Z" fill="#143A5A"/>
</svg>
