<svg id="design" xmlns="http://www.w3.org/2000/svg" viewBox="0 0 40 40"><defs><style>.cls-1{fill:#f4f4f4;}.cls-2{fill:#fec514;}.cls-3{fill:#00bfb3;}.cls-4{fill:#f04e98;}.cls-5{fill:#1ba9f5;}.cls-6{fill:#93c90e;}.cls-7{fill:#07c;}</style></defs><rect class="cls-1" y="0.01" width="40" height="40" rx="4"/><path class="cls-2" d="M17.22,18.18l5.69,2.6,5.75-5a6.64,6.64,0,0,0,.12-1.26,6.4,6.4,0,0,0-4.52-6.13,6.42,6.42,0,0,0-7.19,2.5l-1,5Z"/><path class="cls-3" d="M11.33,24.21a6.86,6.86,0,0,0-.13,1.28A6.44,6.44,0,0,0,23,29.11l.95-4.94-1.27-2.42-5.71-2.6Z"/><path class="cls-4" d="M11.29,14.36l3.9.92.86-4.43a3,3,0,0,0-1.84-.63,3.12,3.12,0,0,0-1.85.6,3.11,3.11,0,0,0-1.07,3.54Z"/><path class="cls-5" d="M11,15.29a4.36,4.36,0,0,0-3,4.08,4.28,4.28,0,0,0,2.77,4l5.48-4.94-1-2.15Z"/><path class="cls-6" d="M24,29.11a3.07,3.07,0,0,0,1.84.62,3.05,3.05,0,0,0,3-2.19,3.14,3.14,0,0,0-.05-1.94l-3.9-.9Z"/><path class="cls-7" d="M24.75,23.67l4.29,1a4.29,4.29,0,0,0,2.2-6.52,4.38,4.38,0,0,0-2-1.57l-5.61,4.91Z"/></svg>