<svg id="design" xmlns="http://www.w3.org/2000/svg" viewBox="0 0 40 40"><defs><style>.cls-1{fill:#f4f4f4;}.cls-2{fill:#03d47c;}.cls-3{fill:#0185ff;}.cls-4{fill:#fed607;}</style></defs><rect class="cls-1" y="0.01" width="40" height="40" rx="4"/><path d="M16.16,25.52h7.68V23.24H19V21.1h4.15V18.78H19v-2h4.87V14.48H16.16Z"/><path class="cls-2" d="M29.6,20a9.62,9.62,0,0,1-2.16,6.07l1.7,1.71a12,12,0,0,0,.08-15.46L27.51,14A9.61,9.61,0,0,1,29.6,20Z"/><path class="cls-3" d="M26.07,27.44a9.6,9.6,0,0,1-12,.07l-1.7,1.71a12,12,0,0,0,15.46-.08Z"/><path class="cls-4" d="M12.63,26.17A9.61,9.61,0,0,1,26.17,12.63l1.7-1.7A12,12,0,0,0,10.93,27.87Z"/></svg>