<svg id="design" xmlns="http://www.w3.org/2000/svg" viewBox="0 0 40 40"><defs><style>.cls-1{fill:#f4f4f4;}.cls-2{fill:#ff5252;}.cls-2,.cls-3{fill-rule:evenodd;}.cls-3{fill:#ea3251;}</style></defs><rect class="cls-1" y="0.01" width="40" height="40" rx="4"/><path class="cls-2" d="M25.51,26.43a5.5,5.5,0,0,1-.27,1.06.77.77,0,0,0,.34.93l1.22.72c1.76-1.85,3.59-4.68,2.28-7.69-2.27-5.19-7.92-2.13-8.74-1.41A5.7,5.7,0,0,1,25.51,26.43Z"/><path class="cls-2" d="M16,29.67a7.35,7.35,0,0,1-1.18-1.53.05.05,0,0,0-.09,0,4.26,4.26,0,0,0,1,1.76.2.2,0,0,0,.26,0h0A.2.2,0,0,0,16,29.67Z"/><path class="cls-2" d="M24.28,30a.63.63,0,0,0-.76.05,5.08,5.08,0,0,1-2.21,1.11l-.12,0a.52.52,0,0,0-.42.51h0a.34.34,0,0,0,.37.34,10.67,10.67,0,0,0,3.15-.69s.22-.15.57-.42a.34.34,0,0,0,0-.56Z"/><path class="cls-2" d="M19.57,31.26a5.46,5.46,0,0,1-2.81-.93.23.23,0,0,0-.29,0h0a.25.25,0,0,0,0,.37,5.88,5.88,0,0,0,1.91,1.08,4.63,4.63,0,0,0,1.16.21.24.24,0,0,0,.26-.24v-.27A.23.23,0,0,0,19.57,31.26Z"/><path class="cls-3" d="M30.24,17.12a10.79,10.79,0,0,0-9.9-6.57V8.72a.72.72,0,0,0-1.12-.6l-10,6.64a.73.73,0,0,0,0,1.21l10,6.6A.73.73,0,0,0,20.34,22V20a6.06,6.06,0,0,1,6,5.16,7,7,0,0,1-.47,3.37l1.09.64a.73.73,0,0,0,.87-.1,9.61,9.61,0,0,0,1.83-2.37A10.59,10.59,0,0,0,30.24,17.12Z"/><path class="cls-3" d="M25,30.39l-.23-.14A6.44,6.44,0,0,1,21.12,32a10,10,0,0,0,3.78-.93A.38.38,0,0,0,25,30.39Z"/></svg>