<?xml version="1.0" encoding="UTF-8"?><svg id="design" xmlns="http://www.w3.org/2000/svg" viewBox="0 0 40 40"><defs><style>.cls-1{fill:#fff;}.cls-2{fill:#042a2d;}</style></defs><rect class="cls-2" width="40" height="40" rx="4" ry="4"/><path class="cls-1" d="M29.82,17.21l-4.69-4.69c-.12-.12-.28-.18-.44-.18H15.31c-.17,0-.32,.07-.44,.18l-4.69,4.69c-.12,.12-.18,.28-.18,.44s.07,.32,.18,.44l4.69,4.69,4.69,4.69c.12,.12,.28,.18,.44,.18s.32-.07,.44-.18l4.69-4.69,4.69-4.69c.12-.12,.18-.28,.18-.44,0-.17-.06-.32-.18-.44Zm-18.31,.44l3.81-3.81,3.81,3.81-3.81,3.81-3.81-3.81Zm8.49,8.49l-3.81-3.81,3.81-3.81,3.81,3.81-3.81,3.81Zm4.69-4.69l-7.87-7.87h7.61l4.06,4.06-3.8,3.81Z"/></svg>