<svg id="design" xmlns="http://www.w3.org/2000/svg" viewBox="0 0 40 40"><defs><style>.cls-1{fill:#2bb24c;}.cls-2{fill:#fff;fill-rule:evenodd;}</style></defs><rect class="cls-1" y="0.01" width="40" height="40" rx="4"/><path class="cls-2" d="M31.23,19.53,21.86,10a2.62,2.62,0,0,0-3.73,0L8.77,19.53a2.71,2.71,0,0,0,0,3.79l6.68,6.81a2.65,2.65,0,0,0,1.74.66h5.62A2.61,2.61,0,0,0,24.68,30l6.55-6.67A2.72,2.72,0,0,0,31.23,19.53ZM21.6,27.41l-.93.95a.4.4,0,0,1-.27.12h-.8a.37.37,0,0,1-.25-.1l-1-1a.38.38,0,0,1,0-.54l1.33-1.36a.37.37,0,0,1,.53,0l1.34,1.36A.38.38,0,0,1,21.6,27.41Zm0-5.71-3.74,3.81a.36.36,0,0,1-.26.11h-.81a.34.34,0,0,1-.24-.09l-1-1a.41.41,0,0,1,0-.55l4.14-4.21a.37.37,0,0,1,.53,0l1.34,1.36A.38.38,0,0,1,21.6,21.7Zm0-5.71-6.54,6.66a.38.38,0,0,1-.27.12H14a.39.39,0,0,1-.25-.1l-1-1a.38.38,0,0,1,0-.54l6.94-7.07a.37.37,0,0,1,.53,0l1.34,1.36A.38.38,0,0,1,21.6,16Z"/></svg>