<svg width="24" height="24" viewBox="0 0 24 24" fill="none" xmlns="http://www.w3.org/2000/svg">
<path d="M20.599 19.6946C21.8181 19.2805 22.7668 17.8767 22.9947 16.1117V15.6016H16.745V19.695H20.5982L20.599 19.6946ZM22.9956 8.09613V7.63457C22.756 5.79277 21.7368 4.34142 20.4374 4.00044H16.7458V8.09568H22.9956V8.09613ZM1 15.602V16.1077C1.22632 17.8744 2.17486 19.2807 3.39743 19.695H7.2312V15.6016H1V15.602ZM3.55732 4.00353C2.25967 4.34469 1.23762 5.79675 1 7.6412V8.09948H7.2312V4.00424H3.55732V4.00353ZM23 9.80365H16.7503V13.8989H23V9.80365ZM8.93696 19.6972H15.0507V15.6038H8.93696V19.6972ZM15.0507 4H8.93696V8.09524H15.0507V4ZM1.0053 13.8936H7.2365V9.79835H1.0053V13.8936Z" fill="#EE2E24"/>
</svg>
