<svg width="24" height="24" viewBox="0 0 24 24" fill="none" xmlns="http://www.w3.org/2000/svg">
<path d="M17.1786 2.67057L14.4923 2.66669C11.4742 2.66669 9.52382 4.46979 9.52382 7.26058V9.37867H6.8228C6.5894 9.37867 6.40039 9.54917 6.40039 9.75949V12.8284C6.40039 13.0387 6.58961 13.209 6.8228 13.209H9.52382V20.9527C9.52382 21.163 9.71283 21.3334 9.94623 21.3334H13.4703C13.7037 21.3334 13.8927 21.1628 13.8927 20.9527V13.209H17.0508C17.2842 13.209 17.4732 13.0387 17.4732 12.8284L17.4745 9.75949C17.4745 9.65851 17.4299 9.5618 17.3508 9.49033C17.2717 9.41887 17.164 9.37867 17.0519 9.37867H13.8927V7.58314C13.8927 6.72013 14.1209 6.28203 15.3685 6.28203L17.1782 6.28144C17.4114 6.28144 17.6004 6.11094 17.6004 5.90082V3.05119C17.6004 2.84127 17.4116 2.67096 17.1786 2.67057Z" fill="white"/>
</svg>
