<svg width="40" height="40" viewBox="0 0 40 40" fill="none" xmlns="http://www.w3.org/2000/svg">
<rect width="40" height="40" rx="4" fill="#F1F4F6"/>
<path fill-rule="evenodd" clip-rule="evenodd" d="M12.9412 10C11.3168 10 10 11.3168 10 12.9412V27.0588C10 28.6832 11.3168 30 12.9412 30H27.0588C28.6832 30 30 28.6832 30 27.0588V12.9412C30 11.3168 28.6832 10 27.0588 10H12.9412ZM11.1765 12.9412C11.1765 11.9666 11.9666 11.1765 12.9412 11.1765H27.0588C28.0334 11.1765 28.8235 11.9666 28.8235 12.9412V14.8822H11.1765V12.9412ZM11.1765 16.0587H28.8235V27.0588C28.8235 28.0334 28.0334 28.8235 27.0588 28.8235H12.9412C11.9666 28.8235 11.1765 28.0334 11.1765 27.0588V16.0587ZM18.4435 25.7305C18.3441 26.0398 18.5143 26.3711 18.8235 26.4705C19.1328 26.5699 19.4642 26.3998 19.5636 26.0905L21.8506 18.9752C21.95 18.6659 21.7799 18.3346 21.4706 18.2352C21.1613 18.1358 20.83 18.3059 20.7306 18.6152L18.4435 25.7305ZM17.0588 19.7058C16.8291 19.4761 16.4567 19.4761 16.227 19.7058L13.9126 22.0201C13.7289 22.2039 13.7289 22.5018 13.9126 22.6856L16.227 24.9999C16.4567 25.2296 16.8291 25.2296 17.0588 24.9999C17.2886 24.7702 17.2886 24.3977 17.0588 24.168L15.4516 22.5608C15.3368 22.446 15.3368 22.2597 15.4516 22.1449L17.0588 20.5377C17.2886 20.308 17.2886 19.9355 17.0588 19.7058ZM24.8745 22.1769C24.9851 22.2875 24.9898 22.4653 24.8851 22.5816L23.1916 24.4633C22.9743 24.7048 22.9938 25.0767 23.2353 25.294C23.4768 25.5114 23.8487 25.4918 24.0661 25.2503L26.3943 22.6634C26.5617 22.4774 26.5542 22.1928 26.3772 22.0158L24.0672 19.7058C23.8375 19.4761 23.465 19.4761 23.2353 19.7058C23.0056 19.9355 23.0056 20.308 23.2353 20.5377L24.8745 22.1769ZM19.7647 13.8823C20.2845 13.8823 20.7059 13.4609 20.7059 12.9411C20.7059 12.4213 20.2845 11.9999 19.7647 11.9999C19.2449 11.9999 18.8235 12.4213 18.8235 12.9411C18.8235 13.4609 19.2449 13.8823 19.7647 13.8823ZM17.4706 12.9411C17.4706 13.4609 17.0492 13.8823 16.5294 13.8823C16.0096 13.8823 15.5882 13.4609 15.5882 12.9411C15.5882 12.4213 16.0096 11.9999 16.5294 11.9999C17.0492 11.9999 17.4706 12.4213 17.4706 12.9411ZM13.2941 13.8823C13.8139 13.8823 14.2353 13.4609 14.2353 12.9411C14.2353 12.4213 13.8139 11.9999 13.2941 11.9999C12.7743 11.9999 12.3529 12.4213 12.3529 12.9411C12.3529 13.4609 12.7743 13.8823 13.2941 13.8823Z" fill="#404040"/>
</svg>
