<svg width="20" height="19" viewBox="0 0 20 19" fill="none" xmlns="http://www.w3.org/2000/svg">
<path fill-rule="evenodd" clip-rule="evenodd" d="M1.33779 5.15127H5.18395V1.7794C5.18395 1.16487 5.67808 0.666687 6.28763 0.666687H13.7124C14.3219 0.666687 14.8161 1.16487 14.8161 1.7794V5.15127H18.6622C19.401 5.15127 20 5.75513 20 6.50002V16.8179C20 17.5628 19.401 18.1667 18.6622 18.1667H1.33779C0.59895 18.1667 0 17.5628 0 16.8179V6.50002C0 5.75513 0.59895 5.15127 1.33779 5.15127ZM6.85619 2.35262V5.15127H13.1438V2.35262H6.85619ZM2.17391 16.1436H17.9933V7.37671L11.6388 12.8054L8.89632 10.2428L2.17391 16.1436Z" fill="white"/>
</svg>
