<svg width="40" height="40" viewBox="0 0 40 40" fill="none" xmlns="http://www.w3.org/2000/svg">
<path d="M0 4C0 1.79086 1.79086 0 4 0H36C38.2091 0 40 1.79086 40 4V36C40 38.2091 38.2091 40 36 40H4C1.79086 40 0 38.2091 0 36V4Z" fill="#4267B2"/>
<path d="M25.1786 10.6706L22.4923 10.6667C19.4742 10.6667 17.5238 12.4698 17.5238 15.2606V17.3787H14.8228C14.5894 17.3787 14.4004 17.5492 14.4004 17.7595V20.8284C14.4004 21.0387 14.5896 21.209 14.8228 21.209H17.5238V28.9527C17.5238 29.163 17.7128 29.3333 17.9462 29.3333H21.4703C21.7037 29.3333 21.8927 29.1628 21.8927 28.9527V21.209H25.0508C25.2842 21.209 25.4732 21.0387 25.4732 20.8284L25.4745 17.7595C25.4745 17.6585 25.4299 17.5618 25.3508 17.4903C25.2717 17.4189 25.164 17.3787 25.0519 17.3787H21.8927V15.5831C21.8927 14.7201 22.1209 14.282 23.3685 14.282L25.1782 14.2814C25.4114 14.2814 25.6004 14.1109 25.6004 13.9008V11.0512C25.6004 10.8413 25.4116 10.671 25.1786 10.6706Z" fill="white"/>
</svg>
