<svg width="40" height="41" viewBox="0 0 40 41" fill="none" xmlns="http://www.w3.org/2000/svg">
<rect y="0.826172" width="40" height="40" rx="4" fill="#3B2FC9"/>
<path d="M15.4653 21.6669C15.2448 21.8874 14.9691 21.9976 14.6383 21.9976H13.5082H11.8819C11.6338 21.9976 11.4408 21.915 11.2754 21.7495C11.1376 21.5841 11.0273 21.3912 11.0273 21.1431V16.9257V12.6807C11.0273 12.4326 11.1376 12.2396 11.2754 12.0743C11.4408 11.9364 11.6613 11.8262 11.8819 11.8262H14.4178H16.9538C17.2019 11.8262 17.3948 11.9364 17.5602 12.0743C17.7256 12.2396 17.8083 12.4326 17.8083 12.6807V15.9885V18.8277C17.8083 19.1309 17.6981 19.4341 17.4775 19.627L16.4852 20.6193L15.4653 21.6669Z" fill="white"/>
<path d="M19.1321 16.2641C18.9115 16.0436 18.8013 15.768 18.8013 15.4647V14.307V12.6807C18.8013 12.4326 18.9115 12.2396 19.0494 12.0743C19.2147 11.9364 19.4353 11.8262 19.6558 11.8262H23.8733H28.1182C28.3663 11.8262 28.5593 11.9364 28.7247 12.0743C28.8901 12.2396 28.9728 12.4326 28.9728 12.6807V15.2167V17.7526C28.9728 18.0007 28.8625 18.1937 28.7247 18.3591C28.5593 18.5245 28.3663 18.6071 28.1182 18.6071H24.8105H21.9437C21.6405 18.6071 21.3373 18.4969 21.1167 18.2764L20.1244 17.284L19.1321 16.2641Z" fill="white"/>
<path d="M24.5615 19.9853C24.782 19.7648 25.0576 19.6545 25.3884 19.6545H26.5186H28.1174C28.3654 19.6545 28.5584 19.7648 28.7238 19.9026C28.8892 20.068 28.9719 20.261 28.9719 20.509V24.7265V28.9439C28.9719 29.192 28.8616 29.385 28.7238 29.5504C28.5584 29.7157 28.3654 29.7985 28.1174 29.7985H25.5813H23.0454C22.7973 29.7985 22.6044 29.6881 22.4389 29.5504C22.2736 29.385 22.1909 29.192 22.1909 28.9439V25.6361V22.7969C22.1909 22.4937 22.3012 22.1905 22.5217 21.9975L23.514 21.0052L24.5615 19.9853Z" fill="white"/>
<path d="M20.868 25.3882C21.0885 25.6087 21.1988 25.8843 21.1988 26.2152V27.3453V28.9716C21.1988 29.2197 21.0885 29.4127 20.9507 29.5781C20.7853 29.7435 20.5923 29.8262 20.3443 29.8262H16.1269H11.8819C11.6338 29.8262 11.4408 29.7159 11.2754 29.5781C11.1376 29.4127 11.0273 29.1922 11.0273 28.9716V26.4357V23.8997C11.0273 23.6516 11.1376 23.4586 11.2754 23.2933C11.4408 23.1279 11.6338 23.0452 11.8819 23.0452H15.1896H18.0288C18.332 23.0452 18.6352 23.1555 18.8282 23.376L19.8205 24.3683L20.868 25.3882Z" fill="white"/>
</svg>
