<svg width="40" height="40" viewBox="0 0 40 40" fill="none" xmlns="http://www.w3.org/2000/svg">
<rect width="40" height="40" rx="4" fill="#F1F4F6"/>
<path fill-rule="evenodd" clip-rule="evenodd" d="M9 14.9784C9 13.6648 10.0648 12.6 11.3784 12.6H20.8919C22.2054 12.6 23.2703 13.6648 23.2703 14.9784V25.0865C23.2703 26.4 22.2054 27.4648 20.8919 27.4648H11.3784C10.0648 27.4648 9 26.4 9 25.0865V14.9784ZM11.3784 13.7892C10.7216 13.7892 10.1892 14.3216 10.1892 14.9784V25.0865C10.1892 25.7432 10.7216 26.2757 11.3784 26.2757H20.8919C21.5487 26.2757 22.0811 25.7432 22.0811 25.0865V14.9784C22.0811 14.3216 21.5487 13.7892 20.8919 13.7892H11.3784ZM11.3784 16.346C11.3784 15.9191 11.7245 15.573 12.1514 15.573H20.119C20.5459 15.573 20.8919 15.9191 20.8919 16.346V20.746C20.8919 21.1729 20.5459 21.519 20.119 21.519H12.1514C11.7245 21.519 11.3784 21.1729 11.3784 20.746V16.346ZM12.5676 16.7622V20.3298H19.7027V16.7622H12.5676ZM30.4054 15.5728C30.7338 15.5728 31 15.3065 31 14.9782C31 14.6498 30.7338 14.3836 30.4054 14.3836H26.2432C25.9148 14.3836 25.6486 14.6498 25.6486 14.9782C25.6486 15.3065 25.9148 15.5728 26.2432 15.5728H30.4054ZM16.7298 23.8971C16.7298 24.2255 16.4636 24.4917 16.1352 24.4917H11.973C11.6446 24.4917 11.3784 24.2255 11.3784 23.8971C11.3784 23.5687 11.6446 23.3025 11.973 23.3025H16.1352C16.4636 23.3025 16.7298 23.5687 16.7298 23.8971ZM30.4054 20.627C30.7338 20.627 31 20.3607 31 20.0324C31 19.704 30.7338 19.4378 30.4054 19.4378H26.2432C25.9148 19.4378 25.6486 19.704 25.6486 20.0324C25.6486 20.3607 25.9148 20.627 26.2432 20.627H30.4054ZM31 25.0866C31 25.4149 30.7338 25.6812 30.4054 25.6812H26.2432C25.9148 25.6812 25.6486 25.4149 25.6486 25.0866C25.6486 24.7582 25.9148 24.492 26.2432 24.492H30.4054C30.7338 24.492 31 24.7582 31 25.0866ZM20.2973 24.4917C20.6257 24.4917 20.8919 24.2255 20.8919 23.8971C20.8919 23.5687 20.6257 23.3025 20.2973 23.3025H18.5135C18.1852 23.3025 17.9189 23.5687 17.9189 23.8971C17.9189 24.2255 18.1852 24.4917 18.5135 24.4917H20.2973Z" fill="#404040"/>
</svg>
