<?xml version="1.0" encoding="UTF-8"?><svg id="design" xmlns="http://www.w3.org/2000/svg" viewBox="0 0 40 40"><defs><style>.cls-1{fill:#f4f4f4;}.cls-2{fill:#00b7e5;}.cls-2,.cls-3{fill-rule:evenodd;}.cls-3{fill:#2199c6;}</style></defs><rect class="cls-1" width="40" height="40" rx="4" ry="4"/><g id="Page-1"><g id="ALOHI-Vertical-_White_"><g id="Alohi_Logo_V-Copy"><g id="Group-6"><path id="Fill-1" class="cls-3" d="M27.47,22.02v.75c-4.35-1.65-4.41-3.03-4.67-3.64v-.66c0-1,.81-1.82,1.81-1.82h1.04c1,0,1.81,.82,1.81,1.82v3.55Z"/><path id="Fill-2" class="cls-2" d="M17.2,14.14v4.99h6.65c1.99,0,3.62,1.63,3.62,3.64v5.42c0,1-.81,1.82-1.81,1.82h-1.04c-1,0-1.81-.82-1.81-1.82v-3.68c0-.38-.31-.68-.68-.68h-4.25c-.37,0-.68,.31-.68,.68v3.68c0,1-.81,1.82-1.81,1.82h-1.04c-1,0-1.81-.82-1.81-1.82V13.91c0-1,.81-1.82,1.81-1.82h1.04c1,0,1.81,.82,1.81,1.82v.23Z"/><path id="Fill-3" class="cls-2" d="M25.64,11.36h-.91c-.12,0-.23-.1-.23-.23v-.91c0-.13,.1-.23,.23-.23h.91c.12,0,.23,.1,.23,.23v.91c0,.13-.1,.23-.23,.23"/><path id="Fill-4" class="cls-2" d="M26.16,15.62h-.98c-.37,0-.68-.31-.68-.68v-.98c0-.38,.31-.68,.68-.68h.98c.37,0,.68,.31,.68,.68v.98c0,.38-.3,.68-.68,.68"/><path id="Fill-5" class="cls-3" d="M23.15,11.56h.91c.25,0,.45,.2,.45,.45v.91c0,.25-.2,.45-.45,.45h-.91c-.25,0-.45-.2-.45-.45v-.91c0-.25,.2-.45,.45-.45"/></g></g></g></g></svg>