<svg width="40" height="40" viewBox="0 0 40 40" fill="none" xmlns="http://www.w3.org/2000/svg">
<rect width="40" height="40" rx="4" fill="#3477EA"/>
<g clip-path="url(#clip0_512_2480)">
<path d="M9.64004 15.5229C9.64004 13.1728 10.8697 10.7691 12.3359 10.7691C13.1298 10.7691 13.7932 11.2065 14.8094 12.5929C13.8443 14.0037 13.2601 14.8881 13.2601 14.8881C11.9755 16.8081 11.5306 17.2382 10.8148 17.2382C10.0989 17.2382 9.64132 16.6217 9.64132 15.5229H9.64004ZM18.1112 14.6457L17.2228 13.2325C16.9825 12.8597 16.7524 12.5174 16.53 12.2031C17.3315 11.025 17.9911 10.4378 18.7772 10.4378C20.4096 10.4378 21.716 12.7281 21.716 15.5423C21.716 16.6144 21.3478 17.237 20.5834 17.237C19.819 17.237 19.502 16.7765 18.1112 14.6445V14.6457ZM15.7873 11.2248C14.5755 9.7592 13.5656 9.20001 12.3551 9.20001C9.8893 9.20001 8 12.2591 8 15.4961C8 17.522 9.02902 18.8 10.7509 18.8C11.9908 18.8 12.8818 18.2433 14.4668 15.602C14.4668 15.602 15.1277 14.4898 15.5828 13.7235C15.7426 13.9683 15.91 14.2327 16.0864 14.5153L16.8291 15.7068C18.2774 18.0167 19.084 18.7988 20.5451 18.7988C22.2235 18.7988 23.1566 17.5038 23.1566 15.4351C23.1579 12.0471 21.2264 9.20001 18.8782 9.20001C17.6357 9.20001 16.6642 10.0918 15.7847 11.226" fill="white"/>
</g>
<path d="M12.0961 21.5V25.1946H11.4582V22.6642L10.2719 25.1946H9.82983L8.63792 22.6642V25.1946H8V21.5H8.68828L10.0537 24.3972L11.4134 21.5H12.0961Z" fill="white"/>
<path d="M15.7605 23.6583C15.7605 23.7682 15.753 23.8674 15.7381 23.956H13.3822C13.4009 24.1899 13.4923 24.3777 13.6564 24.5195C13.8206 24.6613 14.022 24.7321 14.2608 24.7321C14.604 24.7321 14.8465 24.5957 14.9882 24.3228H15.6765C15.5833 24.5921 15.4135 24.8136 15.1673 24.9873C14.9248 25.1574 14.6226 25.2425 14.2608 25.2425C13.9661 25.2425 13.7012 25.1805 13.4662 25.0564C13.2349 24.9288 13.0521 24.7516 12.9178 24.5248C12.7872 24.2945 12.7219 24.0287 12.7219 23.7274C12.7219 23.4262 12.7854 23.1621 12.9122 22.9353C13.0428 22.705 13.2237 22.5278 13.455 22.4037C13.69 22.2797 13.9586 22.2177 14.2608 22.2177C14.5518 22.2177 14.811 22.2779 15.0386 22.3984C15.2662 22.5189 15.4434 22.689 15.5702 22.9087C15.697 23.1249 15.7605 23.3748 15.7605 23.6583ZM15.0946 23.4669C15.0908 23.2437 15.0069 23.0647 14.8427 22.93C14.6786 22.7953 14.4753 22.728 14.2328 22.728C14.0127 22.728 13.8243 22.7953 13.6676 22.93C13.5109 23.0611 13.4177 23.2401 13.3878 23.4669H15.0946Z" fill="white"/>
<path d="M17.1325 22.7599V24.3813C17.1325 24.4911 17.1586 24.5709 17.2108 24.6205C17.2668 24.6666 17.36 24.6896 17.4906 24.6896H17.8823V25.1946H17.3787C17.0914 25.1946 16.8713 25.1308 16.7184 25.0033C16.5654 24.8757 16.489 24.6683 16.489 24.3813V22.7599H16.1252V22.2655H16.489V21.5372H17.1325V22.2655H17.8823V22.7599H17.1325Z" fill="white"/>
<path d="M18.2576 23.7168C18.2576 23.4226 18.321 23.1621 18.4479 22.9353C18.5785 22.7085 18.7538 22.5331 18.9739 22.409C19.1977 22.2815 19.4439 22.2177 19.7125 22.2177C19.955 22.2177 20.1658 22.2637 20.3449 22.3559C20.5277 22.4445 20.6732 22.5561 20.7813 22.6908V22.2655H21.4249V25.1946H20.7813V24.7587C20.6732 24.8969 20.5258 25.0121 20.3393 25.1043C20.1527 25.1964 19.9401 25.2425 19.7013 25.2425C19.4365 25.2425 19.194 25.1787 18.9739 25.0511C18.7538 24.92 18.5785 24.7392 18.4479 24.5089C18.321 24.275 18.2576 24.0109 18.2576 23.7168ZM20.7813 23.7274C20.7813 23.5254 20.7366 23.35 20.647 23.2011C20.5612 23.0523 20.4475 22.9389 20.3057 22.8609C20.1639 22.7829 20.011 22.7439 19.8468 22.7439C19.6827 22.7439 19.5297 22.7829 19.388 22.8609C19.2462 22.9353 19.1306 23.047 19.041 23.1958C18.9552 23.3411 18.9123 23.5148 18.9123 23.7168C18.9123 23.9188 18.9552 24.096 19.041 24.2484C19.1306 24.4008 19.2462 24.5177 19.388 24.5992C19.5335 24.6772 19.6864 24.7162 19.8468 24.7162C20.011 24.7162 20.1639 24.6772 20.3057 24.5992C20.4475 24.5213 20.5612 24.4079 20.647 24.259C20.7366 24.1066 20.7813 23.9294 20.7813 23.7274Z" fill="white"/>
<path d="M10.0816 28.6128C10.2905 28.6483 10.4677 28.7528 10.6132 28.9265C10.7587 29.1001 10.8315 29.2968 10.8315 29.5165C10.8315 29.7044 10.7792 29.8745 10.6748 30.0269C10.5741 30.1757 10.4267 30.2945 10.2327 30.3831C10.0387 30.4681 9.81304 30.5106 9.55563 30.5106H8V26.816H9.48289C9.74776 26.816 9.97532 26.8585 10.1656 26.9436C10.3558 27.0287 10.4995 27.1438 10.5965 27.2891C10.6934 27.4309 10.7419 27.5904 10.7419 27.7676C10.7419 27.9802 10.6823 28.1574 10.5629 28.2992C10.4435 28.4409 10.2831 28.5455 10.0816 28.6128ZM8.63792 28.3683H9.42693C9.63584 28.3683 9.79812 28.324 9.91376 28.2354C10.0331 28.1432 10.0928 28.0121 10.0928 27.842C10.0928 27.6754 10.0331 27.5461 9.91376 27.4539C9.79812 27.3582 9.63584 27.3104 9.42693 27.3104H8.63792V28.3683ZM9.49968 30.0163C9.71605 30.0163 9.88579 29.9666 10.0089 29.8674C10.132 29.7682 10.1936 29.63 10.1936 29.4528C10.1936 29.272 10.1283 29.1285 9.9977 29.0222C9.86713 28.9158 9.69366 28.8627 9.47729 28.8627H8.63792V30.0163H9.49968Z" fill="white"/>
<path d="M14.317 27.5815V30.5106H13.6791V30.1651C13.5784 30.2856 13.4459 30.3813 13.2818 30.4522C13.1214 30.5195 12.9498 30.5532 12.767 30.5532C12.5245 30.5532 12.3062 30.5053 12.1123 30.4096C11.922 30.3139 11.7709 30.1722 11.659 29.9844C11.5508 29.7965 11.4967 29.5697 11.4967 29.3039V27.5815H12.129V29.2135C12.129 29.4758 12.1981 29.6778 12.3361 29.8196C12.4741 29.9578 12.6625 30.0269 12.9013 30.0269C13.14 30.0269 13.3284 29.9578 13.4664 29.8196C13.6082 29.6778 13.6791 29.4758 13.6791 29.2135V27.5815H14.317Z" fill="white"/>
<path d="M16.2779 30.5585C16.0354 30.5585 15.8171 30.5177 15.6231 30.4362C15.4329 30.3512 15.2818 30.2378 15.1699 30.096C15.058 29.9507 14.9983 29.7894 14.9908 29.6122H15.6511C15.6623 29.7363 15.7239 29.8408 15.8358 29.9259C15.9514 30.0074 16.0951 30.0481 16.2667 30.0481C16.4457 30.0481 16.5838 30.0163 16.6807 29.9525C16.7815 29.8851 16.8318 29.8001 16.8318 29.6973C16.8318 29.5874 16.7759 29.5059 16.664 29.4528C16.5558 29.3996 16.3823 29.3411 16.1436 29.2773C15.9123 29.2171 15.7239 29.1586 15.5784 29.1019C15.4329 29.0452 15.306 28.9584 15.1979 28.8414C15.0934 28.7245 15.0412 28.5703 15.0412 28.3789C15.0412 28.223 15.0897 28.0812 15.1867 27.9536C15.2837 27.8225 15.4217 27.7197 15.6008 27.6453C15.7836 27.5709 15.9925 27.5337 16.2275 27.5337C16.5782 27.5337 16.8598 27.6187 17.0725 27.7888C17.2888 27.9554 17.4045 28.184 17.4194 28.4746H16.7815C16.7703 28.3435 16.7143 28.2389 16.6136 28.161C16.5129 28.083 16.3767 28.044 16.2051 28.044C16.0372 28.044 15.9085 28.0741 15.819 28.1344C15.7295 28.1946 15.6847 28.2744 15.6847 28.3736C15.6847 28.4516 15.7145 28.5171 15.7742 28.5703C15.8339 28.6235 15.9067 28.666 15.9925 28.6979C16.0783 28.7262 16.2051 28.7634 16.373 28.8095C16.5968 28.8662 16.7796 28.9247 16.9214 28.9849C17.0669 29.0416 17.1918 29.1267 17.2963 29.2401C17.4007 29.3535 17.4548 29.5041 17.4586 29.692C17.4586 29.8585 17.4101 30.0074 17.3131 30.1385C17.2161 30.2696 17.0781 30.3724 16.899 30.4468C16.7237 30.5213 16.5166 30.5585 16.2779 30.5585Z" fill="white"/>
<path d="M18.4724 27.1934C18.3568 27.1934 18.2598 27.1562 18.1814 27.0818C18.1031 27.0074 18.0639 26.9152 18.0639 26.8054C18.0639 26.6955 18.1031 26.6034 18.1814 26.5289C18.2598 26.4545 18.3568 26.4173 18.4724 26.4173C18.5843 26.4173 18.6795 26.4545 18.7578 26.5289C18.8361 26.6034 18.8753 26.6955 18.8753 26.8054C18.8753 26.9152 18.8361 27.0074 18.7578 27.0818C18.6795 27.1562 18.5843 27.1934 18.4724 27.1934ZM18.7858 27.5815V30.5106H18.1479V27.5815H18.7858Z" fill="white"/>
<path d="M21.1789 27.5337C21.4214 27.5337 21.6378 27.5815 21.8281 27.6772C22.022 27.7729 22.1731 27.9147 22.2813 28.1025C22.3895 28.2903 22.4436 28.5171 22.4436 28.7829V30.5106H21.8113V28.8733C21.8113 28.6111 21.7423 28.4108 21.6042 28.2726C21.4662 28.1308 21.2778 28.06 21.039 28.06C20.8003 28.06 20.61 28.1308 20.4683 28.2726C20.3302 28.4108 20.2612 28.6111 20.2612 28.8733V30.5106H19.6233V27.5815H20.2612V27.9164C20.3657 27.7959 20.4981 27.702 20.6585 27.6347C20.8227 27.5673 20.9961 27.5337 21.1789 27.5337Z" fill="white"/>
<path d="M26.0832 28.9743C26.0832 29.0842 26.0757 29.1834 26.0608 29.272H23.705C23.7236 29.5059 23.815 29.6937 23.9792 29.8355C24.1433 29.9773 24.3448 30.0481 24.5835 30.0481C24.9267 30.0481 25.1692 29.9117 25.311 29.6388H25.9992C25.906 29.9082 25.7362 30.1297 25.49 30.3033C25.2475 30.4734 24.9454 30.5585 24.5835 30.5585C24.2888 30.5585 24.0239 30.4965 23.7889 30.3724C23.5576 30.2448 23.3748 30.0676 23.2405 29.8408C23.1099 29.6105 23.0447 29.3447 23.0447 29.0434C23.0447 28.7422 23.1081 28.4782 23.2349 28.2513C23.3655 28.021 23.5464 27.8438 23.7777 27.7197C24.0127 27.5957 24.2813 27.5337 24.5835 27.5337C24.8745 27.5337 25.1338 27.5939 25.3613 27.7144C25.5889 27.8349 25.7661 28.005 25.8929 28.2248C26.0198 28.4409 26.0832 28.6908 26.0832 28.9743ZM25.4173 28.7829C25.4136 28.5597 25.3296 28.3807 25.1655 28.246C25.0013 28.1113 24.798 28.044 24.5555 28.044C24.3354 28.044 24.147 28.1113 23.9904 28.246C23.8337 28.3771 23.7404 28.5561 23.7106 28.7829H25.4173Z" fill="white"/>
<path d="M27.8301 30.5585C27.5876 30.5585 27.3694 30.5177 27.1754 30.4362C26.9852 30.3512 26.8341 30.2378 26.7222 30.096C26.6102 29.9507 26.5505 29.7894 26.5431 29.6122H27.2034C27.2146 29.7363 27.2761 29.8408 27.3881 29.9259C27.5037 30.0074 27.6473 30.0481 27.8189 30.0481C27.998 30.0481 28.136 30.0163 28.233 29.9525C28.3337 29.8851 28.3841 29.8001 28.3841 29.6973C28.3841 29.5874 28.3281 29.5059 28.2162 29.4528C28.108 29.3996 27.9346 29.3411 27.6958 29.2773C27.4645 29.2171 27.2761 29.1586 27.1306 29.1019C26.9852 29.0452 26.8583 28.9584 26.7501 28.8414C26.6457 28.7245 26.5935 28.5703 26.5935 28.3789C26.5935 28.223 26.6419 28.0812 26.7389 27.9536C26.8359 27.8225 26.974 27.7197 27.153 27.6453C27.3358 27.5709 27.5447 27.5337 27.7798 27.5337C28.1304 27.5337 28.4121 27.6187 28.6247 27.7888C28.8411 27.9554 28.9567 28.184 28.9717 28.4746H28.3337C28.3226 28.3435 28.2666 28.2389 28.1659 28.161C28.0651 28.083 27.929 28.044 27.7574 28.044C27.5895 28.044 27.4608 28.0741 27.3713 28.1344C27.2817 28.1946 27.237 28.2744 27.237 28.3736C27.237 28.4516 27.2668 28.5171 27.3265 28.5703C27.3862 28.6235 27.4589 28.666 27.5447 28.6979C27.6305 28.7262 27.7574 28.7634 27.9253 28.8095C28.1491 28.8662 28.3319 28.9247 28.4736 28.9849C28.6191 29.0416 28.7441 29.1267 28.8486 29.2401C28.953 29.3535 29.0071 29.5041 29.0108 29.692C29.0108 29.8585 28.9623 30.0074 28.8653 30.1385C28.7684 30.2696 28.6303 30.3724 28.4513 30.4468C28.2759 30.5213 28.0689 30.5585 27.8301 30.5585Z" fill="white"/>
<path d="M30.8193 30.5585C30.5768 30.5585 30.3586 30.5177 30.1646 30.4362C29.9743 30.3512 29.8232 30.2378 29.7113 30.096C29.5994 29.9507 29.5397 29.7894 29.5323 29.6122H30.1926C30.2037 29.7363 30.2653 29.8408 30.3772 29.9259C30.4929 30.0074 30.6365 30.0481 30.8081 30.0481C30.9872 30.0481 31.1252 30.0163 31.2222 29.9525C31.3229 29.8851 31.3733 29.8001 31.3733 29.6973C31.3733 29.5874 31.3173 29.5059 31.2054 29.4528C31.0972 29.3996 30.9237 29.3411 30.685 29.2773C30.4537 29.2171 30.2653 29.1586 30.1198 29.1019C29.9743 29.0452 29.8475 28.9584 29.7393 28.8414C29.6348 28.7245 29.5826 28.5703 29.5826 28.3789C29.5826 28.223 29.6311 28.0812 29.7281 27.9536C29.8251 27.8225 29.9631 27.7197 30.1422 27.6453C30.325 27.5709 30.5339 27.5337 30.7689 27.5337C31.1196 27.5337 31.4012 27.6187 31.6139 27.7888C31.8303 27.9554 31.9459 28.184 31.9608 28.4746H31.3229C31.3117 28.3435 31.2558 28.2389 31.155 28.161C31.0543 28.083 30.9181 28.044 30.7465 28.044C30.5787 28.044 30.45 28.0741 30.3604 28.1344C30.2709 28.1946 30.2261 28.2744 30.2261 28.3736C30.2261 28.4516 30.256 28.5171 30.3157 28.5703C30.3754 28.6235 30.4481 28.666 30.5339 28.6979C30.6197 28.7262 30.7465 28.7634 30.9144 28.8095C31.1382 28.8662 31.321 28.9247 31.4628 28.9849C31.6083 29.0416 31.7333 29.1267 31.8377 29.2401C31.9422 29.3535 31.9963 29.5041 32 29.692C32 29.8585 31.9515 30.0074 31.8545 30.1385C31.7575 30.2696 31.6195 30.3724 31.4404 30.4468C31.2651 30.5213 31.058 30.5585 30.8193 30.5585Z" fill="white"/>
<defs>
<clipPath id="clip0_512_2480">
<rect width="15.1579" height="9.6" fill="white" transform="translate(8 9.20001)"/>
</clipPath>
</defs>
</svg>
