<svg width="40" height="40" viewBox="0 0 40 40" fill="none" xmlns="http://www.w3.org/2000/svg">
<rect width="40" height="40" rx="4" fill="#F1F4F6"/>
<path fill-rule="evenodd" clip-rule="evenodd" d="M10 10.7222C10 10.3234 10.3233 10 10.7222 10H14.8333C15.2322 10 15.5556 10.3233 15.5556 10.7222V14.8333C15.5556 15.2322 15.2322 15.5556 14.8333 15.5556H10.7222C10.3234 15.5556 10 15.2322 10 14.8333V10.7222ZM11.1111 11.1111V14.4444H14.4444V11.1111H11.1111ZM17.2222 10.7222C17.2222 10.3234 17.5456 10 17.9444 10H22.0556C22.4544 10 22.7778 10.3233 22.7778 10.7222V14.8333C22.7778 15.2322 22.4544 15.5556 22.0556 15.5556H17.9444C17.5456 15.5556 17.2222 15.2322 17.2222 14.8333V10.7222ZM18.3333 11.1111V14.4444H21.6667V11.1111H18.3333ZM25.1667 10C24.7678 10 24.4444 10.3234 24.4444 10.7222V14.8333C24.4444 15.2322 24.7678 15.5556 25.1667 15.5556H29.2778C29.6767 15.5556 30 15.2322 30 14.8333V10.7222C30 10.3233 29.6766 10 29.2778 10H25.1667ZM25.5556 14.4444V11.1111H28.8889V14.4444H25.5556ZM10 17.9444C10 17.5456 10.3233 17.2222 10.7222 17.2222H14.8333C15.2322 17.2222 15.5556 17.5456 15.5556 17.9444V22.0556C15.5556 22.4544 15.2322 22.7778 14.8333 22.7778H10.7222C10.3234 22.7778 10 22.4544 10 22.0556V17.9444ZM11.1111 18.3333V21.6667H14.4444V18.3333H11.1111ZM10.7222 24.4444C10.3233 24.4444 10 24.7678 10 25.1667V29.2778C10 29.6767 10.3234 30 10.7222 30H14.8333C15.2322 30 15.5556 29.6766 15.5556 29.2778V25.1667C15.5556 24.7678 15.2322 24.4444 14.8333 24.4444H10.7222ZM11.1111 28.8889V25.5556H14.4444V28.8889H11.1111ZM17.2222 17.9444C17.2222 17.5456 17.5456 17.2222 17.9444 17.2222H22.0556C22.4544 17.2222 22.7778 17.5456 22.7778 17.9444V22.0556C22.7778 22.4544 22.4544 22.7778 22.0556 22.7778H17.9444C17.5456 22.7778 17.2222 22.4544 17.2222 22.0556V17.9444ZM18.3333 18.3333V21.6667H21.6667V18.3333H18.3333ZM17.9444 24.4444C17.5456 24.4444 17.2222 24.7678 17.2222 25.1667V29.2778C17.2222 29.6767 17.5456 30 17.9444 30H22.0556C22.4544 30 22.7778 29.6766 22.7778 29.2778V25.1667C22.7778 24.7678 22.4544 24.4444 22.0556 24.4444H17.9444ZM18.3333 28.8889V25.5556H21.6667V28.8889H18.3333ZM24.4444 17.9444C24.4444 17.5456 24.7678 17.2222 25.1667 17.2222H29.2778C29.6766 17.2222 30 17.5456 30 17.9444V22.0556C30 22.4544 29.6767 22.7778 29.2778 22.7778H25.1667C24.7678 22.7778 24.4444 22.4544 24.4444 22.0556V17.9444ZM25.5556 18.3333V21.6667H28.8889V18.3333H25.5556ZM25.1667 24.4444C24.7678 24.4444 24.4444 24.7678 24.4444 25.1667V29.2778C24.4444 29.6767 24.7678 30 25.1667 30H29.2778C29.6767 30 30 29.6766 30 29.2778V25.1667C30 24.7678 29.6766 24.4444 29.2778 24.4444H25.1667ZM25.5556 28.8889V25.5556H28.8889V28.8889H25.5556Z" fill="#404040"/>
</svg>
