<svg id="design" xmlns="http://www.w3.org/2000/svg" viewBox="0 0 40 40"><defs><style>.cls-1{fill:#f4f4f4;}.cls-2{fill:#008561;}</style></defs><rect class="cls-1" width="40" height="40" rx="4"/><path class="cls-2" d="M24.1,15.33a4,4,0,0,1-1.24,2.86c-.85.86-2.09,1.07-2.09,1.8,0,1,1.58.68,3.1,2.2a5.49,5.49,0,1,1-7.74,0c1.52-1.52,3.1-1.22,3.1-2.2,0-.73-1.24-.94-2.09-1.79a4,4,0,0,1,2.8-6.92c.42,0,.81.06,1.13.06.57,0,.87-.26.87-.66,0-.24-.1-.54-.1-.86a1.36,1.36,0,0,1,2.71,0,1.43,1.43,0,0,1-1.09,1.32c-.38.13-.68.3-.68.68,0,.73,1.32,1.43,1.32,3.46Zm-.43,10.73A3.67,3.67,0,1,0,20,29.88,3.69,3.69,0,0,0,23.67,26.06ZM22.41,15.29A2.41,2.41,0,1,0,20,17.75,2.45,2.45,0,0,0,22.41,15.29Z"/></svg>