<svg id="design" xmlns="http://www.w3.org/2000/svg" viewBox="0 0 40 40"><defs><style>.cls-1{fill:#f4f4f4;}.cls-2{fill:#222;}.cls-3{fill:#ff4533;}</style></defs><rect class="cls-1" width="40" height="40" rx="4"/><path class="cls-2" d="M14.05,19.68h5.41v5.25a10.3,10.3,0,0,1-5.55,1.52c-3.34,0-5.91-1.8-5.91-4.61V18c0-2.78,2.75-4.49,6-4.49A9,9,0,0,1,19,14.93l-.66,1.19a8,8,0,0,0-4.32-1.18c-2.39,0-4.45,1.21-4.45,3.22V21.7c0,2.09,2,3.33,4.31,3.33a7.67,7.67,0,0,0,3.94-1V21h-3.8Z"/><path class="cls-3" d="M24.16,18.33v3.31c0,1.72,1.34,2.43,3.19,2.43A7,7,0,0,0,31,23.24l.92,2.06a7.94,7.94,0,0,1-4.7,1.15c-3.36,0-5.83-1.58-5.83-4.64V18.18c0-2.87,2.69-4.63,5.81-4.63A7.87,7.87,0,0,1,32,14.81l-1,2a6.93,6.93,0,0,0-3.66-.88c-1.71,0-3.17.85-3.17,2.39"/></svg>