<svg width="18" height="18" viewBox="0 0 18 18" fill="none" xmlns="http://www.w3.org/2000/svg">
<path d="M5.22583 3.02664C4.18675 3.23527 3.34412 3.78418 2.78306 4.6268C2.43467 5.14533 2.20782 5.75703 2.06806 6.52267C1.95463 7.17083 1.98298 8.07624 2.15313 8.94721C2.42049 10.3225 3.17196 11.791 4.23333 13.0165C4.98479 13.8813 6.28111 14.7402 7.36679 15.0906C8.45854 15.445 9.68397 15.4228 10.7717 15.0359C11.4381 14.7989 12.3495 14.2662 12.9531 13.7679C13.2793 13.4985 13.9598 12.8058 13.9902 12.7106C13.9983 12.6843 14.0591 12.6012 14.1219 12.5202C14.8875 11.5723 15.5033 10.3043 15.7625 9.14773C15.9529 8.30107 16.0441 7.41592 15.9793 7.08779C15.957 6.98854 15.9124 6.73332 15.88 6.52267C15.6045 4.73617 14.5979 3.52492 13.0119 3.08538C12.7668 3.02056 12.6311 3.00841 11.9971 3.00841C11.3206 3.00436 11.2355 3.01246 10.8729 3.10361C10.2795 3.2535 9.64549 3.51479 9.11886 3.82875L8.99125 3.90571L8.56994 3.68696C8.0352 3.40339 7.66859 3.25957 7.14601 3.12184C6.76927 3.02664 6.65989 3.01246 6.06641 3.00233C5.70587 2.99423 5.32913 3.00841 5.22583 3.02664ZM6.70648 4.28449C6.99208 4.34322 7.33236 4.45867 7.68075 4.60856L7.88937 4.70376L7.49845 5.10886C7.28172 5.33167 7.0812 5.5565 7.04879 5.60916C7.01638 5.66183 6.88067 5.8502 6.74497 6.0325C6.26087 6.68876 5.84766 7.44631 5.57624 8.18359C5.5094 8.36184 5.44053 8.52995 5.4223 8.55223C5.37572 8.61705 5.2947 8.91277 5.18329 9.4232C5.09215 9.86476 5.08405 9.95996 5.08405 10.8087C5.07999 11.5277 5.09416 11.7667 5.13873 11.947C5.17113 12.0746 5.18937 12.1759 5.1752 12.1759C5.14279 12.1718 4.71743 11.6472 4.51285 11.3515C3.57909 10.0126 3.09499 8.26258 3.27931 6.87714C3.34615 6.38494 3.55478 5.72867 3.75126 5.40459C4.01052 4.96303 4.5493 4.52146 5.0253 4.35537C5.47496 4.19333 6.12313 4.16903 6.70648 4.28449ZM12.7506 4.30271C14.1705 4.68148 14.9321 6.23505 14.6728 8.2079C14.529 9.29762 14.1522 10.2861 13.5203 11.2421C13.2894 11.5885 12.8215 12.1819 12.7992 12.1617C12.7911 12.1536 12.8093 12.0057 12.8397 11.8255C12.9633 11.0639 12.943 10.2476 12.7709 9.38674C12.6838 8.95329 12.5116 8.34765 12.463 8.31119C12.4528 8.30107 12.386 8.15523 12.3171 7.98306C12.2483 7.81089 12.1308 7.54555 12.0498 7.38959C11.9039 7.09386 11.8108 7.02095 11.669 7.07564C11.6244 7.08982 11.0249 7.45441 10.3321 7.88584C9.63941 8.31525 9.00746 8.70212 8.92239 8.74263C8.84137 8.78314 8.75427 8.8439 8.72794 8.87429C8.65097 8.96543 8.70161 9.19837 8.83124 9.37661C8.89403 9.46371 8.99935 9.61765 9.07025 9.71892C9.19178 9.89717 9.26064 9.95186 9.35989 9.95186C9.4004 9.95186 10.239 9.43333 10.8912 8.99987C11.0593 8.89049 11.2173 8.78516 11.2436 8.77301C11.2983 8.7406 11.4077 9.07887 11.5333 9.67639C11.8087 11.0031 11.592 12.3339 10.9661 13.1582C10.7433 13.454 10.4314 13.7011 10.0769 13.8692C9.686 14.0555 9.34369 14.1163 8.85757 14.0961C8.15472 14.0596 7.71923 13.8692 7.22501 13.377C6.96575 13.1177 6.88066 13.0023 6.75913 12.7531C6.25681 11.71 6.19199 10.6831 6.53228 9.3037C7.06296 7.13843 8.79883 5.12102 10.7251 4.43234C10.9661 4.3493 11.4057 4.246 11.6953 4.20954C11.9303 4.1832 12.4772 4.2298 12.7506 4.30271Z" fill="white"/>
</svg>
