<svg width="40" height="40" viewBox="0 0 40 40" fill="none" xmlns="http://www.w3.org/2000/svg">
<rect width="40" height="40" rx="4" fill="#161514"/>
<path d="M20.0002 10.6667C14.8461 10.6667 10.6667 14.951 10.6667 20.2363C10.6667 24.4644 13.3411 28.0515 17.0495 29.3169C17.516 29.4055 17.6872 29.1093 17.6872 28.8565C17.6872 28.6283 17.6786 27.8745 17.6745 27.0749C15.078 27.6537 14.5301 25.9458 14.5301 25.9458C14.1055 24.8396 13.4938 24.5455 13.4938 24.5455C12.6469 23.9516 13.5576 23.9638 13.5576 23.9638C14.4948 24.0313 14.9883 24.9499 14.9883 24.9499C15.8208 26.4129 17.1718 25.99 17.7044 25.7455C17.7881 25.127 18.03 24.7048 18.2969 24.4658C16.2239 24.2238 14.0446 23.4033 14.0446 19.7365C14.0446 18.6917 14.4092 17.838 15.0063 17.1678C14.9093 16.9268 14.5899 15.9535 15.0967 14.6354C15.0967 14.6354 15.8804 14.3782 17.664 15.6163C18.4085 15.4042 19.207 15.2979 20.0002 15.2943C20.7933 15.2979 21.5924 15.4042 22.3383 15.6163C24.1197 14.3782 24.9024 14.6354 24.9024 14.6354C25.4104 15.9535 25.0908 16.9268 24.9939 17.1678C25.5924 17.838 25.9545 18.6917 25.9545 19.7365C25.9545 23.412 23.771 24.2213 21.6927 24.4582C22.0275 24.7552 22.3258 25.3376 22.3258 26.2304C22.3258 27.5108 22.315 28.5413 22.315 28.8565C22.315 29.1112 22.483 29.4096 22.9561 29.3156C26.6625 28.0488 29.3334 24.463 29.3334 20.2363C29.3334 14.951 25.1546 10.6667 20.0002 10.6667Z" fill="white"/>
<path d="M14.2292 24.3409C14.2087 24.3879 14.1359 24.4021 14.0696 24.3697C14.002 24.3388 13.964 24.2747 13.9859 24.2274C14.006 24.1789 14.079 24.1655 14.1464 24.1979C14.2141 24.2288 14.2527 24.2936 14.2292 24.3409Z" fill="#161514"/>
<path d="M14.6067 24.7689C14.5623 24.8108 14.4755 24.7914 14.4165 24.7251C14.3556 24.6591 14.3442 24.5708 14.3892 24.5282C14.435 24.4863 14.5193 24.506 14.5804 24.572C14.6413 24.6389 14.6532 24.7266 14.6067 24.7689Z" fill="#161514"/>
<path d="M14.9739 25.3146C14.9168 25.355 14.8235 25.3172 14.7658 25.2329C14.7087 25.1486 14.7087 25.0476 14.767 25.0071C14.8249 24.9666 14.9168 25.003 14.9753 25.0867C15.0322 25.1723 15.0322 25.2734 14.9739 25.3146Z" fill="#161514"/>
<path d="M15.4771 25.8418C15.426 25.8991 15.3173 25.8837 15.2377 25.8056C15.1562 25.7292 15.1335 25.6208 15.1848 25.5635C15.2364 25.5061 15.3458 25.5222 15.426 25.5997C15.5069 25.676 15.5316 25.7852 15.4771 25.8418Z" fill="#161514"/>
<path d="M16.1714 26.148C16.1489 26.2222 16.0442 26.2559 15.9386 26.2244C15.8333 26.1919 15.7643 26.105 15.7856 26.03C15.8075 25.9553 15.9127 25.9201 16.019 25.9539C16.1242 25.9862 16.1933 26.0725 16.1714 26.148Z" fill="#161514"/>
<path d="M16.9338 26.2048C16.9364 26.2829 16.8469 26.3477 16.7362 26.3491C16.6248 26.3516 16.5347 26.2884 16.5334 26.2115C16.5334 26.1326 16.6209 26.0684 16.7323 26.0665C16.8431 26.0643 16.9338 26.1271 16.9338 26.2048Z" fill="#161514"/>
<path d="M17.6433 26.0819C17.6566 26.1582 17.5796 26.2365 17.4696 26.2573C17.3614 26.2774 17.2613 26.2303 17.2476 26.1547C17.2342 26.0766 17.3125 25.9983 17.4205 25.978C17.5307 25.9586 17.6293 26.0044 17.6433 26.0819Z" fill="#161514"/>
</svg>
