<svg id="design" xmlns="http://www.w3.org/2000/svg" viewBox="0 0 40 40"><defs><style>.cls-1{fill:#238062;}.cls-2{fill:#fff;fill-rule:evenodd;}</style></defs><rect class="cls-1" y="0.01" width="40" height="40" rx="4"/><path id="path15538" class="cls-2" d="M23.94,8.67a12.12,12.12,0,0,0-7.1-.26c-3.16.86-6.32,3.45-7.17,6.7a5.73,5.73,0,0,0,.42,4.28,6.58,6.58,0,0,0,.47.7,6.23,6.23,0,0,0,10.75-1.38H18.07a.26.26,0,0,1-.26-.25h0V16.3a.26.26,0,0,1,.26-.25h7.66a.25.25,0,0,1,.25.25v8.11a.26.26,0,0,1-.25.26H23.58a.26.26,0,0,1-.26-.26V20.68A8.9,8.9,0,0,1,9.13,22.52,9.29,9.29,0,0,1,8,21.12,12,12,0,1,0,23.94,8.67"/></svg>