<?xml version="1.0" encoding="UTF-8"?><svg id="design" xmlns="http://www.w3.org/2000/svg" viewBox="0 0 40 40"><defs><style>.cls-1{fill:#f4f4f4;}.cls-2{fill:#ffe900;}</style></defs><rect class="cls-1" width="40" height="40" rx="4" ry="4"/><g><path class="cls-2" d="M29.76,20.59l-19.76,2.07,.24,2.27,19.76-2.07-.24-2.27Z"/><path d="M19.58,16.34c-.45,0-.89,.14-1.27,.38-.38,.25-.66,.61-.84,1.03-.18,.42-.22,.87-.13,1.31s.3,.85,.62,1.17,.73,.54,1.17,.62c.44,.09,.9,.04,1.31-.13,.42-.18,.77-.46,1.03-.84,.25-.38,.38-.82,.38-1.27,0-.3-.06-.59-.18-.87-.11-.28-.28-.53-.5-.74-.21-.21-.46-.38-.74-.5-.28-.11-.58-.18-.87-.18h0Zm0,3.55c-.25,0-.5-.07-.7-.22-.21-.14-.37-.34-.46-.57-.1-.23-.12-.49-.07-.73,.05-.25,.17-.47,.34-.65s.4-.3,.65-.34c.25-.05,.5-.02,.73,.07,.23,.1,.43,.26,.57,.46,.14,.21,.22,.46,.22,.7,0,.34-.14,.66-.37,.9-.24,.23-.56,.37-.9,.37h0Zm7.34-3.55c-.45,0-.89,.14-1.27,.38-.38,.25-.66,.61-.84,1.03-.18,.42-.22,.87-.13,1.31,.09,.44,.3,.85,.62,1.17s.73,.54,1.17,.62c.44,.09,.9,.04,1.31-.13,.42-.18,.77-.46,1.03-.84,.25-.38,.38-.82,.38-1.27,0-.3-.06-.59-.18-.87-.11-.28-.28-.53-.5-.74-.21-.21-.46-.38-.74-.5-.28-.12-.58-.18-.87-.18h0Zm0,3.55c-.25,0-.5-.07-.7-.22-.21-.14-.37-.34-.46-.57s-.12-.49-.07-.73c.05-.25,.17-.47,.34-.65s.4-.3,.65-.34c.25-.05,.5-.02,.73,.07,.23,.1,.43,.26,.57,.46,.14,.21,.22,.46,.22,.7,0,.34-.14,.66-.37,.9-.24,.23-.56,.37-.9,.37h0Zm-1.39-3.68v-1.01h-4.56v1.01h1.77v4.57h1.01v-4.57h1.78Zm-12.1,1.27v1.01h1.4c-.32,.85-.94,1.4-1.65,1.4-.31,0-.62-.08-.9-.22-.27-.14-.51-.36-.68-.62-.18-.26-.28-.56-.31-.87s.02-.62,.14-.91,.31-.54,.55-.74c.24-.2,.53-.34,.83-.39,.3-.06,.62-.05,.92,.05,.3,.09,.57,.26,.79,.47l.72-.72c-.41-.41-.93-.68-1.49-.8-.57-.11-1.15-.06-1.68,.17s-.99,.59-1.31,1.07-.49,1.04-.49,1.62c0,.38,.07,.76,.22,1.11,.14,.35,.36,.67,.63,.95,.27,.27,.59,.49,.95,.63,.35,.14,.73,.22,1.11,.22,.99,0,1.88-.64,2.41-1.65v1.53h1.01v-3.3h-3.18Z"/></g></svg>