<svg id="design" xmlns="http://www.w3.org/2000/svg" viewBox="0 0 40 40"><defs><style>.cls-1{fill:#231f20;}.cls-2{fill:#fff;}</style></defs><rect class="cls-1" y="0.01" width="40" height="40" rx="4"/><path class="cls-2" d="M21.69,17.13l1.87,2.71L20,24.6l-.22-.31-2.93-4,0,0-.37-.52L24.58,9H16.13L8,19.87,16.33,31,20,26.13l2,2.74h0L23.67,31,32,19.87l-5.93-8.6ZM16.58,9.91h6.18L15.67,19.4H9.49Zm-.25,19.6-6.84-9.2h6.18l3.77,5.07Zm7.34,0-2.74-3.64-.37-.49,3.8-5.07h6.17Zm.69-10.09-1.52-2.26,3.25-4.38,4.47,6.64Z"/></svg>