<svg width="25" height="25" viewBox="0 0 25 25" fill="none" xmlns="http://www.w3.org/2000/svg">
<path d="M21.2897 3.19267C21.7599 3.64475 22.0673 4.24149 22.1396 4.89248C22.1396 5.16373 22.0673 5.34457 21.9046 5.68815C21.7418 6.03173 19.7346 9.50371 19.1378 10.4621C18.7943 11.0227 18.6134 11.6918 18.6134 12.3428C18.6134 13.0118 18.7943 13.6628 19.1378 14.2234C19.7346 15.1818 21.7418 18.6719 21.9046 19.0154C22.0673 19.359 22.1396 19.5218 22.1396 19.793C22.0673 20.444 21.778 21.0408 21.3078 21.4748C20.8557 21.9449 20.259 22.2523 19.6261 22.3066C19.3548 22.3066 19.174 22.2343 18.8485 22.0715C18.523 21.9088 14.9787 19.9558 14.0203 19.359C13.948 19.3229 13.8756 19.2686 13.7852 19.2324L9.04743 16.4296C9.15591 17.3337 9.55376 18.2017 10.2047 18.8346C10.3313 18.9612 10.4579 19.0697 10.6026 19.1782C10.4941 19.2324 10.3675 19.2867 10.259 19.359C9.30058 19.9558 5.81054 21.963 5.46696 22.1258C5.12338 22.2885 4.96063 22.3608 4.67129 22.3608C4.0203 22.2885 3.42356 21.9992 2.98956 21.529C2.5194 21.0769 2.21198 20.4802 2.13965 19.8292C2.15773 19.558 2.23006 19.2867 2.37473 19.0516C2.53748 18.708 4.54471 15.218 5.14145 14.2596C5.48503 13.699 5.66587 13.048 5.66587 12.3789C5.66587 11.7098 5.48503 11.0588 5.14145 10.4983C4.54471 9.50371 2.5194 6.01364 2.37473 5.67006C2.23006 5.43497 2.15773 5.16373 2.13965 4.89248C2.21198 4.24149 2.50131 3.64475 2.97148 3.19267C3.42356 2.7225 4.0203 2.43317 4.67129 2.36084C4.94254 2.37892 5.21378 2.45126 5.46696 2.59592C5.75629 2.7225 8.306 4.20532 9.66225 5.001L9.96967 5.18182C10.0782 5.25415 10.1686 5.3084 10.2409 5.34457L10.3856 5.43497L15.2138 8.29213C15.1053 7.20713 14.5447 6.21255 13.6767 5.54348C13.7852 5.48924 13.9118 5.43497 14.0203 5.36264C14.9787 4.76591 18.4688 2.74059 18.8123 2.59592C19.0474 2.45126 19.3187 2.37892 19.608 2.36084C20.2409 2.43317 20.8377 2.7225 21.2897 3.19267ZM12.3928 13.6448L13.4236 12.614C13.5682 12.4693 13.5682 12.2524 13.4236 12.1077L12.3928 11.0769C12.2481 10.9323 12.0312 10.9323 11.8865 11.0769L10.8557 12.1077C10.7111 12.2524 10.7111 12.4693 10.8557 12.614L11.8865 13.6448C12.0131 13.7713 12.2481 13.7713 12.3928 13.6448Z" fill="#FF694A"/>
</svg>
