<svg width="15" height="21" viewBox="0 0 15 21" fill="none" xmlns="http://www.w3.org/2000/svg">
<path fill-rule="evenodd" clip-rule="evenodd" d="M11.7915 17.2029H0.438512C0.438512 18.7836 1.70438 20.0562 3.27833 20.0562H11.7915C13.3588 20.0562 14.6246 18.7768 14.6246 17.2029V5.46802C14.6246 5.4144 14.5779 5.36102 14.5242 5.36102H11.8919C11.8383 5.36102 11.7915 5.40779 11.7915 5.46802V17.2029ZM11.7915 0.0561523C13.3588 0.0561523 14.6246 1.33548 14.6246 2.91622H3.27169V14.6509C3.27169 14.7045 3.2248 14.7581 3.16455 14.7581H0.532266C0.478645 14.7581 0.425049 14.7112 0.425049 14.6509V2.91622C0.425049 1.33548 1.69101 0.0561523 3.26503 0.0561523H11.7915Z" fill="#0DAB40"/>
</svg>
