<svg id="design" xmlns="http://www.w3.org/2000/svg" viewBox="0 0 40 40"><defs><style>.cls-1{fill:#2bb673;}.cls-2{fill:#fff;}</style></defs><rect class="cls-1" y="0.01" width="40" height="40" rx="4"/><circle class="cls-2" cx="20" cy="20" r="12"/><path class="cls-1" d="M22.37,21.62a.82.82,0,0,0-.8,1,.83.83,0,0,0,.83.65h1.25l.73-.1A5.28,5.28,0,0,1,19,25.27a5.15,5.15,0,0,1-4-3.21,5.46,5.46,0,0,1,5-7.56A5.82,5.82,0,0,1,24.57,17v0a.8.8,0,0,0,1.12.21.81.81,0,0,0,.23-1.07A7,7,0,0,0,19.5,12.9,7.19,7.19,0,0,0,13,19.58,7,7,0,0,0,20,27a6.91,6.91,0,0,0,5.3-2.42l-.16.86v.78a.83.83,0,0,0,.65.83.81.81,0,0,0,1-.81V21.62Z"/></svg>