<svg id="design" xmlns="http://www.w3.org/2000/svg" viewBox="0 0 40 40"><defs><style>.cls-1{fill:#00c0f3;}.cls-2{fill:#fff;}</style></defs><rect class="cls-1" y="0.01" width="40" height="40" rx="4"/><path id="Shape" class="cls-2" d="M29.3,21.72a3.17,3.17,0,0,0-3.46.12.64.64,0,0,1-.69,0L22,20.07a.08.08,0,0,1,0-.14l3.12-1.8a.62.62,0,0,1,.68,0,3.17,3.17,0,1,0-1.3-2.3.64.64,0,0,1-.31.61l-3.14,1.81a.08.08,0,0,1-.12-.07V14.6a.63.63,0,0,1,.37-.57,3.15,3.15,0,1,0-2.64,0,.62.62,0,0,1,.38.57v3.62a.08.08,0,0,1-.12.07L15.8,16.48a.63.63,0,0,1-.31-.6,3.15,3.15,0,1,0-1.3,2.29.62.62,0,0,1,.68,0L18,19.93a.08.08,0,0,1,0,.14l-3.13,1.81a.64.64,0,0,1-.69,0,3.17,3.17,0,1,0,1.32,2.29.64.64,0,0,1,.31-.61l3.14-1.81a.08.08,0,0,1,.12.07V25.4a.63.63,0,0,1-.37.57,3.15,3.15,0,1,0,2.64,0A.62.62,0,0,1,21,25.4V21.78a.08.08,0,0,1,.12-.07l3.14,1.81a.64.64,0,0,1,.31.61,3.16,3.16,0,1,0,4.78-2.41Z"/></svg>