<svg id="design" xmlns="http://www.w3.org/2000/svg" viewBox="0 0 40 40"><defs><style>.cls-1{fill:#f4f4f4;}.cls-2{fill:#ed26b7;}.cls-3{fill:#fff;}</style></defs><rect class="cls-1" width="40" height="40" rx="4"/><circle class="cls-2" cx="20" cy="20" r="11.5"/><path class="cls-3" d="M27.23,22.1a4.52,4.52,0,0,0-2.84-4.3V14.24a6.79,6.79,0,0,0-1.34-.69V21.2c0,1.52-.69,2.2-1.8,2.2a2,2,0,0,1-2-2.22A2.5,2.5,0,0,1,22,18.67a2.17,2.17,0,0,1,.44,0V17.34a3.27,3.27,0,0,0-.44,0,3.8,3.8,0,0,0-4.1,3.86,3.35,3.35,0,0,0,3.44,3.58,3,3,0,0,0,2.12-.81,3.36,3.36,0,0,0,.94-2.55V19.26a3.23,3.23,0,0,1,1.51,3A4.84,4.84,0,0,1,21,26.82h-.17a6.43,6.43,0,0,1-4.73-2,6.92,6.92,0,0,1-1.45-7.43,6.8,6.8,0,0,1,2.45-3.07,6.65,6.65,0,0,1,3.71-1.14v-1.4a7.88,7.88,0,0,0-3.07.63,8,8,0,0,0-2.61,1.78,8.36,8.36,0,0,0,0,11.62,7.92,7.92,0,0,0,5.68,2.41H21a6.28,6.28,0,0,0,1.93-.3h0a6.18,6.18,0,0,0,2.44-1.44,5.76,5.76,0,0,0,1.87-4.23Z"/></svg>