<svg width="14" height="20" viewBox="0 0 14 20" fill="none" xmlns="http://www.w3.org/2000/svg">
<path d="M9.05844 5.01964C9.05844 6.35805 7.99968 7.41201 6.69415 7.41201C5.22237 7.41201 4.19612 6.35768 4.19612 5.01964C4.19612 3.68825 5.22237 2.62506 6.69378 2.62506C7.99968 2.62506 9.05844 3.68825 9.05844 5.01964ZM0.534788 15.5984C0.431204 15.9382 0.386721 16.2933 0.403274 16.6483C0.513362 18.9246 2.94009 20 6.82382 20C11.4298 20 13.5122 17.7779 13.5122 15.721C13.5122 9.94475 4.01621 13.1155 4.01621 10.7811C4.01621 9.94254 5.20981 9.8886 6.70708 9.8886C10.3281 9.8886 12.1568 7.94804 12.1568 5.21802C12.1568 4.10311 11.8258 3.26859 11.3825 2.65536C11.9071 2.31955 12.8003 2.31955 13.6027 2.31955V0.00476522C11.9632 -0.0513866 10.879 0.389701 10.214 1.27594C9.32738 0.501635 7.88184 0.00476522 6.65942 0.00476522C2.90536 0.00476522 0.962947 2.49835 0.962947 5.03036C0.962947 6.78362 1.90719 7.89189 3.10337 8.86198C2.46058 9.05334 0.851013 10.1099 0.851013 11.4974C0.851013 13.3778 3.38524 14.1048 6.55672 14.301C9.13196 14.4624 10.3906 15.1118 10.3906 16.11C10.3906 16.7602 9.59263 17.6616 7.37869 17.7236C3.78569 17.823 3.39632 16.758 3.62426 15.6564L0.534788 15.5984Z" fill="white"/>
</svg>
