<svg width="18" height="18" viewBox="0 0 18 18" fill="none" xmlns="http://www.w3.org/2000/svg">
<path d="M10.6095 4.42398C10.7085 4.46775 10.7954 4.53502 10.8625 4.61994C10.9297 4.70485 10.9751 4.80487 10.9949 4.91131C11.0147 5.01776 11.0083 5.12742 10.9761 5.23081C10.9439 5.33419 10.8871 5.42818 10.8104 5.50462C10.7337 5.58106 10.6396 5.63766 10.5361 5.6695C10.4326 5.70135 10.3229 5.70748 10.2165 5.68737C10.1102 5.66726 10.0103 5.62152 9.92556 5.5541C9.84084 5.48668 9.77384 5.39962 9.73036 5.30047C9.69021 5.42823 9.66979 5.56137 9.66982 5.69528C9.66183 5.87499 9.69032 6.05445 9.75358 6.22285C9.81684 6.39124 9.91356 6.54507 10.0379 6.67507C10.1622 6.80506 10.3116 6.90852 10.477 6.9792C10.6424 7.04988 10.8205 7.08632 11.0003 7.08632C11.1802 7.08632 11.3583 7.04988 11.5237 6.9792C11.6891 6.90852 11.8385 6.80506 11.9628 6.67507C12.0871 6.54507 12.1839 6.39124 12.2471 6.22285C12.3104 6.05445 12.3389 5.87499 12.3309 5.69528C12.3327 5.5623 12.3131 5.42989 12.273 5.3031C12.2232 5.13507 12.1403 4.97869 12.0292 4.84312C11.9181 4.70756 11.7811 4.59555 11.6261 4.51366C11.4712 4.43177 11.3014 4.38165 11.1269 4.36625C10.9523 4.35085 10.7764 4.37048 10.6095 4.42398H10.6095ZM7.67205 5.69002C7.52069 5.68675 7.37493 5.6322 7.2586 5.53531C7.14228 5.43841 7.06229 5.3049 7.03172 5.15663C7.00114 5.00835 7.0218 4.85409 7.09031 4.71909C7.15882 4.58408 7.27112 4.47632 7.40884 4.41345C7.28179 4.37446 7.14956 4.35493 7.01666 4.35554C6.66343 4.35554 6.32467 4.49586 6.0749 4.74563C5.82513 4.9954 5.68481 5.33416 5.68481 5.68739C5.68481 6.04062 5.82513 6.37938 6.0749 6.62915C6.32467 6.87891 6.66343 7.01923 7.01666 7.01923C7.19103 7.02167 7.36415 6.98944 7.52595 6.92439C7.68775 6.85935 7.83502 6.7628 7.95918 6.64035C8.08335 6.51789 8.18194 6.37199 8.24923 6.2111C8.31651 6.05022 8.35115 5.87757 8.35114 5.70318C8.35071 5.56949 8.33121 5.43655 8.29323 5.30837C8.23801 5.42549 8.14984 5.52397 8.03951 5.59175C7.92918 5.65954 7.80149 5.69369 7.67205 5.69002L7.67205 5.69002Z" fill="black"/>
<path d="M11.3333 2.62891C10.6246 2.21699 9.81957 2 8.99991 2C8.18024 2 7.37519 2.21699 6.66655 2.62891C5.96118 2.2233 5.16133 2.01085 4.34766 2.013V6.67445C4.34628 7.89772 4.58585 9.10928 5.0527 10.24C5.51954 11.3706 6.20452 12.3983 7.06852 13.2643C7.93252 14.1302 8.95863 14.8175 10.0882 15.2869C11.2179 15.7563 12.4289 15.9986 13.6522 16V2.013C12.8385 2.01085 12.0386 2.2233 11.3333 2.62891ZM10.9937 7.69834C10.616 7.69626 10.2465 7.5877 9.92772 7.38512L8.99596 8.31162L8.06683 7.37723C7.75244 7.57822 7.38712 7.68507 7.01398 7.68518C6.62561 7.68529 6.2456 7.57235 5.92034 7.36013C5.59507 7.14791 5.33862 6.84559 5.18227 6.49008C5.02592 6.13456 4.97645 5.74122 5.03988 5.35807C5.10331 4.97491 5.27691 4.6185 5.53948 4.33234C5.80206 4.04617 6.14226 3.84264 6.51856 3.74656C6.89486 3.65048 7.291 3.66602 7.65861 3.79129C8.02623 3.91655 8.34944 4.14612 8.58879 4.45198C8.82813 4.75783 8.97327 5.12675 9.00649 5.5137C9.04322 5.12875 9.19103 4.76277 9.43193 4.46028C9.67284 4.15779 9.99646 3.93183 10.3634 3.80988C10.7304 3.68793 11.1249 3.67526 11.4989 3.77339C11.873 3.87153 12.2104 4.07625 12.4703 4.36265C12.7301 4.64904 12.9011 5.00478 12.9625 5.38658C13.0238 5.76837 12.9729 6.15978 12.8159 6.51317C12.6589 6.86657 12.4026 7.16673 12.0782 7.37714C11.7538 7.58755 11.3752 7.69914 10.9885 7.69834H10.9937Z" fill="black"/>
</svg>
