<?xml version="1.0" encoding="UTF-8"?><svg id="design" xmlns="http://www.w3.org/2000/svg" xmlns:xlink="http://www.w3.org/1999/xlink" viewBox="0 0 40 40"><defs><style>.cls-1{fill:#fff;}.cls-2{fill:url(#linear-gradient);}</style><linearGradient id="linear-gradient" x1="0" y1="20" x2="40" y2="20" gradientUnits="userSpaceOnUse"><stop offset="0" stop-color="#fbc67a"/><stop offset="1" stop-color="#ffa561"/></linearGradient></defs><rect class="cls-2" width="40" height="40" rx="4" ry="4"/><path class="cls-1" d="M21.89,27.5h3.18c.85,0,1.55-.84,1.55-1.88s-.7-1.87-1.55-1.87H15.05c-.85,0-1.55,.84-1.55,1.87s.7,1.88,1.55,1.88h3.3c.13-.37,.37-.68,.69-.91,.32-.22,.7-.34,1.08-.34s.77,.12,1.08,.34c.32,.22,.56,.54,.69,.91Zm3.18-11.25H15.05c-.85,0-1.55-.84-1.55-1.88s.7-1.88,1.55-1.88h10.02c.85,0,1.55,.84,1.55,1.88s-.7,1.88-1.55,1.88Zm-13.31,5.63c-.97,0-1.76-.84-1.76-1.88s.79-1.87,1.76-1.87H28.25c.96,0,1.75,.84,1.75,1.87s-.79,1.88-1.75,1.88H11.76Z"/></svg>