<?xml version="1.0" encoding="UTF-8"?><svg id="design" xmlns="http://www.w3.org/2000/svg" viewBox="0 0 40 40"><defs><style>.cls-1{fill:#fff;}.cls-2{fill:#ed6d12;}</style></defs><rect class="cls-2" width="40" height="40" rx="4" ry="4"/><g><path class="cls-1" d="M18.75,22.5v7.46h-1.26v-11.21c0-.17,.04-.33,.09-.48,.07-.15,.15-.28,.28-.41,.11-.11,.26-.2,.41-.26,.15-.07,.31-.09,.48-.09h3.73v3.73c0,.17-.02,.33-.09,.48s-.15,.28-.26,.41c-.11,.11-.26,.22-.39,.28-.15,.07-.31,.09-.48,.11l-2.51-.02h0Z"/><path class="cls-1" d="M29.98,10.02V28.71c0,.7-.57,1.26-1.26,1.26h-1.24V11.26c0-.68,.52-1.22,1.2-1.24h1.31Zm-4.99,0h1.22V28.71c0,.68-.55,1.24-1.22,1.26h-1.26v-13.72c0-.17,.04-.33,.09-.48,.07-.15,.15-.28,.28-.39,.11-.11,.26-.2,.41-.26s.31-.09,.48-.09c0-.04,0-5.02,0-5.02ZM14.99,29.96h-1.22V11.24c0-.68,.52-1.22,1.2-1.24h1.29v13.7c0,.33-.13,.65-.37,.89s-.55,.37-.89,.37v4.99h0Zm-4.97,0V11.24c0-.17,.04-.33,.09-.48,.07-.15,.15-.28,.28-.39,.24-.24,.55-.37,.89-.35h1.22V28.71c0,.17-.02,.33-.09,.48s-.15,.28-.26,.41-.26,.22-.39,.28c-.15,.07-.31,.09-.48,.11l-1.26-.04h0Z"/></g></svg>