<svg width="18" height="18" viewBox="0 0 18 18" fill="none" xmlns="http://www.w3.org/2000/svg">
<path d="M12.126 6.54608V4.90195C12.3432 4.8004 12.5272 4.63923 12.6565 4.4372C12.7857 4.23517 12.8549 4.00059 12.856 3.76076V3.72304C12.856 3.02378 12.2891 2.45692 11.5899 2.45692H11.5522C10.8529 2.45692 10.286 3.02378 10.286 3.72304V3.76076C10.2871 4.00059 10.3563 4.23517 10.4856 4.4372C10.6148 4.63923 10.7988 4.8004 11.0161 4.90195V6.54608C10.3916 6.64171 9.80349 6.90064 9.31129 7.29666L4.80215 3.7845C4.8343 3.66843 4.85107 3.54907 4.85297 3.42927C4.85352 3.1471 4.77037 2.8711 4.61404 2.63619C4.45772 2.40128 4.23523 2.21801 3.97473 2.10956C3.71423 2.00111 3.42742 1.97236 3.15058 2.02694C2.87373 2.08152 2.61929 2.21697 2.41945 2.41617C2.2196 2.61538 2.08331 2.86937 2.02784 3.14604C1.97237 3.4227 2.00019 3.70961 2.10779 3.97046C2.21539 4.23131 2.39794 4.45439 2.63234 4.61147C2.86675 4.76856 3.14247 4.8526 3.42464 4.85297C3.67149 4.8518 3.91372 4.7859 4.12713 4.66184L8.56734 8.117C7.75102 9.35018 7.77286 10.9574 8.62234 12.168L7.27186 13.5189C7.16265 13.484 7.04897 13.4654 6.93435 13.4639C6.28759 13.4644 5.76363 13.9889 5.7638 14.6357C5.76397 15.2824 6.28826 15.8066 6.93497 15.8068C7.58173 15.807 8.10624 15.283 8.1068 14.6363C8.10528 14.5217 8.08672 14.4079 8.05175 14.2988L9.38774 12.9623C10.5815 13.8813 12.221 13.9605 13.4977 13.1608C14.7744 12.3611 15.4188 10.8513 15.1128 9.37626C14.8069 7.90113 13.6154 6.77215 12.126 6.54603V6.54608ZM11.5722 11.9535C11.3254 11.9602 11.0797 11.9173 10.8498 11.8274C10.6198 11.7375 10.4102 11.6025 10.2332 11.4303C10.0563 11.2581 9.91571 11.0521 9.81969 10.8247C9.72367 10.5972 9.6742 10.3528 9.6742 10.1059C9.6742 9.85898 9.72367 9.61458 9.81969 9.38711C9.91571 9.15963 10.0563 8.95371 10.2332 8.78148C10.4102 8.60926 10.6198 8.47422 10.8498 8.38436C11.0797 8.29449 11.3254 8.25161 11.5722 8.25825C12.5669 8.29308 13.3553 9.10924 13.3559 10.1045C13.3563 11.0997 12.5687 11.9167 11.5741 11.9526" fill="white"/>
</svg>
