<svg width="40" height="41" viewBox="0 0 40 41" fill="none" xmlns="http://www.w3.org/2000/svg">
<rect y="0.792969" width="40" height="40" rx="4" fill="#F7F8FA"/>
<path d="M33.2184 16.8498V20.0738H27.4648V16.8498H25.6792V24.7361H27.4648V21.3634H33.2184V24.7361H35.0039V16.8498H33.2184Z" fill="#0D2639"/>
<path d="M17.8422 23.4466V16.8498H16.0566V24.7361H16.4782H17.8422H24.3646V23.4466H17.8422Z" fill="#0D2639"/>
<path d="M14.2702 24.7361L11.6236 21.656C11.6623 21.6579 11.702 21.6609 11.7417 21.6609C13.056 21.6609 14.1224 20.5945 14.1224 19.2801C14.1224 17.9657 13.056 16.8994 11.7417 16.8994C11.6752 16.8994 11.6087 16.9023 11.5433 16.9083V16.8994H4.99609V24.7361H6.78168V21.6609H9.54339L12.1375 24.7361H14.2693H14.2702ZM6.78168 18.1889H10.9481V18.1929C10.9808 18.1909 11.0135 18.1889 11.0473 18.1889C11.7595 18.1889 12.3368 18.677 12.3368 19.2801C12.3368 19.8833 11.7595 20.3713 11.0473 20.3713C11.0135 20.3713 10.9808 20.3693 10.9481 20.3674V20.3713H6.78168V18.1889Z" fill="#0D2639"/>
</svg>
