<svg id="design" xmlns="http://www.w3.org/2000/svg" viewBox="0 0 40 40"><defs><style>.cls-1{fill:#fff;}</style></defs><rect y="0.01" width="40" height="40" rx="4"/><path class="cls-1" d="M10.32,8.2a3.29,3.29,0,0,0-1.69,2.58,3.37,3.37,0,0,0,.69,1.76,2.73,2.73,0,0,0,2.4,1A2.65,2.65,0,0,0,14.31,11a2.7,2.7,0,0,0-2.73-3A4.3,4.3,0,0,0,10.32,8.2Z"/><path class="cls-1" d="M21.73,8.15A8.14,8.14,0,0,0,18.88,9.4a5.88,5.88,0,0,0-2.31,2.67,4.51,4.51,0,0,0-.4,2.52c0,1.63,0,1.71.5,2.6.91,1.67,2.34,2.69,5.57,4a11.73,11.73,0,0,1,4,2.14,2.75,2.75,0,0,1,.23,3.3c-1.39,2.07-4.95,1.89-7.74-.39l-.84-.67-1.44,1.5L15,28.56l.38.34a12.43,12.43,0,0,0,8,3.1,8.07,8.07,0,0,0,6-2.28A6.51,6.51,0,0,0,31.3,24c-.35-2.81-2.21-4.58-6.71-6.36-3.62-1.44-4.48-2.31-3.88-3.89.8-2.1,4.58-2.43,7.11-.63.25.17.45.29.48.26s.54-.78,1.16-1.65l1.11-1.6-.34-.26a14.1,14.1,0,0,0-3.16-1.52A18.48,18.48,0,0,0,21.73,8.15Z"/><path class="cls-1" d="M9.37,23.59v8.12h4.31l0-8.08,0-8.09-2.12,0-2.12,0Z"/></svg>