<svg id="design" xmlns="http://www.w3.org/2000/svg" viewBox="0 0 40 40"><defs><style>.cls-1{fill:#f4f4f4;}.cls-2{fill:#333;}</style></defs><rect class="cls-1" y="0.01" width="40" height="40" rx="4"/><rect class="cls-2" x="8" y="16.82" width="2.02" height="6.36"/><polygon class="cls-2" points="10.6 16.82 10.6 18.87 10.6 19.51 10.6 21.71 10.6 23.18 12.63 23.18 12.63 21.45 14.65 21.45 14.65 19.42 12.63 19.42 12.63 18.84 15.52 18.84 15.52 16.82 12.74 16.82 10.6 16.82"/><polygon class="cls-2" points="17.48 16.82 16.1 16.82 16.1 18.84 17.54 18.84 17.54 23.18 19.57 23.18 19.57 18.84 21.01 18.84 21.01 16.82 19.68 16.82 17.48 16.82"/><polygon class="cls-2" points="22.98 16.82 21.59 16.82 21.59 18.84 23.04 18.84 23.04 23.18 25.06 23.18 25.06 18.84 26.51 18.84 26.51 16.82 25.18 16.82 22.98 16.82"/><polygon class="cls-2" points="28.47 16.82 27.08 16.82 27.08 18.84 28.53 18.84 28.53 23.18 30.55 23.18 30.55 18.84 32 18.84 32 16.82 30.67 16.82 28.47 16.82"/></svg>