<svg width="24" height="24" viewBox="0 0 24 24" fill="none" xmlns="http://www.w3.org/2000/svg">
<path fill-rule="evenodd" clip-rule="evenodd" d="M11.9999 2.66669C9.46506 2.66669 9.14721 2.67743 8.15172 2.72285C7.15829 2.76816 6.47982 2.92595 5.88615 3.15669C5.2724 3.39518 4.7519 3.71431 4.233 4.23318C3.71413 4.75209 3.39499 5.27258 3.15651 5.88633C2.92577 6.48 2.76798 7.15847 2.72267 8.1519C2.67725 9.1474 2.6665 9.46524 2.6665 12C2.6665 14.5348 2.67725 14.8526 2.72267 15.8481C2.76798 16.8416 2.92577 17.52 3.15651 18.1137C3.39499 18.7275 3.71413 19.248 4.233 19.7669C4.7519 20.2857 5.2724 20.6049 5.88615 20.8434C6.47982 21.0741 7.15829 21.2319 8.15172 21.2772C9.14721 21.3226 9.46506 21.3334 11.9999 21.3334C14.5346 21.3334 14.8525 21.3226 15.848 21.2772C16.8414 21.2319 17.5199 21.0741 18.1135 20.8434C18.7273 20.6049 19.2478 20.2857 19.7667 19.7669C20.2855 19.248 20.6047 18.7275 20.8432 18.1137C21.0739 17.52 21.2317 16.8416 21.277 15.8481C21.3224 14.8526 21.3332 14.5348 21.3332 12C21.3332 9.46524 21.3224 9.1474 21.277 8.1519C21.2317 7.15847 21.0739 6.48 20.8432 5.88633C20.6047 5.27258 20.2855 4.75209 19.7667 4.23318C19.2478 3.71431 18.7273 3.39518 18.1135 3.15669C17.5199 2.92595 16.8414 2.76816 15.848 2.72285C14.8525 2.67743 14.5346 2.66669 11.9999 2.66669ZM11.9999 4.34846C14.492 4.34846 14.7872 4.35798 15.7714 4.40289C16.6814 4.44438 17.1755 4.59643 17.5044 4.72425C17.9401 4.89356 18.251 5.09581 18.5776 5.42243C18.9042 5.74901 19.1065 6.05993 19.2758 6.49558C19.4036 6.82447 19.5556 7.31866 19.5971 8.22865C19.642 9.21281 19.6516 9.50802 19.6516 12.0001C19.6516 14.4922 19.642 14.7874 19.5971 15.7716C19.5556 16.6816 19.4036 17.1758 19.2758 17.5046C19.1065 17.9403 18.9042 18.2512 18.5776 18.5778C18.251 18.9044 17.9401 19.1067 17.5044 19.276C17.1755 19.4038 16.6814 19.5559 15.7714 19.5973C14.7873 19.6423 14.4922 19.6518 11.9999 19.6518C9.50761 19.6518 9.21248 19.6423 8.22843 19.5973C7.31844 19.5559 6.82425 19.4038 6.49536 19.276C6.05971 19.1067 5.7488 18.9044 5.42221 18.5778C5.09563 18.2512 4.89334 17.9403 4.72403 17.5046C4.59621 17.1758 4.44416 16.6816 4.40267 15.7716C4.35776 14.7874 4.34824 14.4922 4.34824 12.0001C4.34824 9.50802 4.35776 9.21281 4.40267 8.22865C4.44416 7.31866 4.59621 6.82447 4.72403 6.49558C4.89334 6.05993 5.09559 5.74901 5.42221 5.42243C5.7488 5.09581 6.05971 4.89356 6.49536 4.72425C6.82425 4.59643 7.31844 4.44438 8.22843 4.40289C9.21259 4.35798 9.5078 4.34846 11.9999 4.34846ZM12.0034 15.0337C10.3298 15.0337 8.97314 13.677 8.97314 12.0035C8.97314 10.33 10.3298 8.97331 12.0034 8.97331C13.6769 8.97331 15.0335 10.33 15.0335 12.0035C15.0335 13.677 13.6769 15.0337 12.0034 15.0337ZM12.0032 7.33469C9.42504 7.33469 7.33506 9.42467 7.33506 12.0028C7.33506 14.581 9.42504 16.671 12.0032 16.671C14.5814 16.671 16.6713 14.581 16.6713 12.0028C16.6713 9.42467 14.5814 7.33469 12.0032 7.33469ZM16.9822 8.26881C17.6697 8.26881 18.2271 7.71151 18.2271 7.024C18.2271 6.33648 17.6697 5.77914 16.9822 5.77914C16.2947 5.77914 15.7374 6.33648 15.7374 7.024C15.7374 7.71151 16.2947 8.26881 16.9822 8.26881Z" fill="white"/>
</svg>
