<svg id="design" xmlns="http://www.w3.org/2000/svg" viewBox="0 0 40 40"><defs><style>.cls-1{fill:#f4f4f4;}.cls-2{fill:#ee2924;}.cls-3{fill:#100f0d;}</style></defs><rect class="cls-1" y="0.01" width="40" height="40" rx="4"/><g id="g10"><g id="g12"><path id="path14" class="cls-2" d="M30.46,22.94A1.54,1.54,0,1,0,32,24.48a1.54,1.54,0,0,0-1.54-1.54"/><path id="path16" class="cls-2" d="M9.54,14.19a1.54,1.54,0,1,0,1.54,1.54,1.54,1.54,0,0,0-1.54-1.54"/><path id="path18" class="cls-3" d="M8.36,18.33h2.36V26H8.36V18.33"/><path id="path20" class="cls-3" d="M27,19.44a3.5,3.5,0,0,0-2.54-1.11,3.41,3.41,0,0,0-2,.65V14H20.1V26h2.36V25.3a3.42,3.42,0,0,0,2,.66h0A3.47,3.47,0,0,0,27,24.84a4,4,0,0,0,0-5.4m-3,4.23a1.54,1.54,0,1,1,1.54-1.54A1.53,1.53,0,0,1,24,23.67"/><path id="path22" class="cls-3" d="M17,18.33V19a3.42,3.42,0,0,0-2-.65,3.49,3.49,0,0,0-2.53,1.11,4,4,0,0,0,0,5.4A3.46,3.46,0,0,0,15,26h0a3.43,3.43,0,0,0,2-.66V26h2.37V18.33Zm-1.54,5.34A1.54,1.54,0,1,1,17,22.13a1.54,1.54,0,0,1-1.54,1.54"/></g></g></svg>