<svg id="design" xmlns="http://www.w3.org/2000/svg" viewBox="0 0 40 40"><defs><style>.cls-1{fill:#f4f4f4;}.cls-2{fill:#ef483e;}.cls-3{fill:#fff;}</style></defs><rect class="cls-1" y="0.01" width="40" height="40" rx="4"/><path class="cls-2" d="M14.85,8H31.92a0,0,0,0,1,0,0V25.23A6.77,6.77,0,0,1,25.15,32H14.85a6.77,6.77,0,0,1-6.77-6.77V14.77A6.77,6.77,0,0,1,14.85,8Z"/><rect class="cls-3" x="11.22" y="17.28" width="1.67" height="5.27" rx="0.84"/><rect class="cls-3" x="27.11" y="17.38" width="1.67" height="5.08" rx="0.84"/><rect class="cls-3" x="17.59" y="15.93" width="1.67" height="7.98" rx="0.84"/><rect class="cls-3" x="23.97" y="14.59" width="1.67" height="10.65" rx="0.84"/><rect class="cls-3" x="20.77" y="10.62" width="1.67" height="18.59" rx="0.84"/><rect class="cls-3" x="14.39" y="13.25" width="1.67" height="13.34" rx="0.84"/></svg>