<svg width="20" height="19" viewBox="0 0 20 19" fill="none" xmlns="http://www.w3.org/2000/svg">
<path d="M9.89808 0.821777H13.3757C14.6443 0.821777 15.6822 1.85086 15.6822 3.12833V6.11798H9.90695C8.63835 6.11798 7.6004 5.08891 7.6004 3.81143V3.12833C7.59153 1.85086 8.62948 0.821777 9.89808 0.821777Z" fill="#F04034"/>
<path d="M19.0179 9.7552V13.2328C19.0179 14.5014 17.9888 15.5393 16.7113 15.5393H13.7217V9.76408C13.7217 8.49547 14.7508 7.45752 16.0282 7.45752H16.7113C17.9888 7.45752 19.0179 8.4866 19.0179 9.7552Z" fill="#F04034"/>
<path d="M10.049 18.8306H6.57145C5.30284 18.8306 4.26489 17.8016 4.26489 16.5241V13.5344H10.0402C11.3088 13.5344 12.3467 14.5635 12.3467 15.841V16.5241C12.3467 17.8016 11.3176 18.8306 10.049 18.8306Z" fill="#F04034"/>
<path d="M0.982422 9.93257V6.45499C0.982422 5.18639 2.0115 4.14844 3.28898 4.14844H6.27863V9.9237C6.27863 11.1923 5.24955 12.2303 3.97207 12.2303H3.28898C2.0115 12.2303 0.982422 11.2012 0.982422 9.93257Z" fill="#F04034"/>
</svg>
