<svg id="design" xmlns="http://www.w3.org/2000/svg" viewBox="0 0 40 40"><defs><style>.cls-1{fill:#2164f3;}.cls-2{fill:#fff;fill-rule:evenodd;}</style></defs><rect class="cls-1" y="0.01" width="40" height="40" rx="4"/><path class="cls-2" d="M22.48,8a9.27,9.27,0,0,0-2.88.57,13,13,0,0,0-7.22,8.7A15.14,15.14,0,0,0,12,19.5s-.06.78,0,.57a2.69,2.69,0,0,0,.22-.64,19.52,19.52,0,0,1,2.24-5.12C16.9,10.71,20.84,8.39,25,9.67a9.36,9.36,0,0,1,2.16,1.1c.13.09,1.09.85.88.16a3.61,3.61,0,0,0-1-1.38A6.54,6.54,0,0,0,22.48,8Z"/><path class="cls-2" d="M21.54,12.6A3,3,0,0,0,18.77,17a3,3,0,1,0,2.77-4.39Z"/><path class="cls-2" d="M23.58,19.94a6.39,6.39,0,0,1-3.27.9c-.25,0-.48,0-.73,0v8.76a2.61,2.61,0,0,0,.56,1.82,1.81,1.81,0,0,0,1.42.62A1.87,1.87,0,0,0,23,31.39a2.62,2.62,0,0,0,.56-1.83V19.94Z"/></svg>