<svg id="design" xmlns="http://www.w3.org/2000/svg" viewBox="0 0 40 40"><defs><style>.cls-1{fill:#1a1a1a;}.cls-2{fill:#fff;}</style></defs><rect class="cls-1" y="0.01" width="40" height="40" rx="4"/><polygon id="Rectangle-path" class="cls-2" points="8 24.14 12.67 24.14 12.67 24.81 8 24.81 8 24.14"/><polygon id="Rectangle-path-2" data-name="Rectangle-path" class="cls-2" points="8 22.86 12.67 22.86 12.67 23.53 8 23.53 8 22.86"/><polygon id="Rectangle-path-3" data-name="Rectangle-path" class="cls-2" points="9.33 21.58 11.33 21.58 11.33 22.25 9.33 22.25 9.33 21.58"/><polygon id="Rectangle-path-4" data-name="Rectangle-path" class="cls-2" points="9.33 20.3 11.33 20.3 11.33 20.98 9.33 20.98 9.33 20.3"/><polygon id="Rectangle-path-5" data-name="Rectangle-path" class="cls-2" points="9.33 19.02 11.33 19.02 11.33 19.7 9.33 19.7 9.33 19.02"/><polygon id="Rectangle-path-6" data-name="Rectangle-path" class="cls-2" points="9.33 17.74 11.33 17.74 11.33 18.41 9.33 18.41 9.33 17.74"/><rect id="Rectangle-path-7" data-name="Rectangle-path" class="cls-2" x="8" y="16.47" width="4.67" height="0.67"/><rect id="Rectangle-path-8" data-name="Rectangle-path" class="cls-2" x="8" y="15.19" width="4.67" height="0.67"/><path id="Shape" class="cls-2" d="M13.33,23.53h7.18a2.17,2.17,0,0,0,.26-.67H13.33Z"/><path id="Shape-2" data-name="Shape" class="cls-2" d="M20,20.3H14.67V21h5.84A2.77,2.77,0,0,0,20,20.3Z"/><path id="Shape-3" data-name="Shape" class="cls-2" d="M14.67,19v.67H20a2.77,2.77,0,0,0,.56-.67Z"/><path id="Shape-4" data-name="Shape" class="cls-2" d="M20.51,16.47H13.33v.67h7.44A2.83,2.83,0,0,0,20.51,16.47Z"/><path id="Shape-5" data-name="Shape" class="cls-2" d="M18.3,15.19h-5v.67H20A2.52,2.52,0,0,0,18.3,15.19Z"/><rect id="Rectangle-path-9" data-name="Rectangle-path" class="cls-2" x="14.67" y="17.74" width="2" height="0.67"/><path id="Shape-6" data-name="Shape" class="cls-2" d="M18.67,18.41h2.09a2.46,2.46,0,0,0,.09-.67H18.67v.67Z"/><polygon id="Rectangle-path-10" data-name="Rectangle-path" class="cls-2" points="14.67 21.58 16.66 21.58 16.66 22.25 14.67 22.25 14.67 21.58"/><path id="Shape-7" data-name="Shape" class="cls-2" d="M18.67,21.58v.67h2.18a2.52,2.52,0,0,0-.09-.67Z"/><path id="Shape-8" data-name="Shape" class="cls-2" d="M13.33,24.81h5A2.5,2.5,0,0,0,20,24.14H13.33Z"/><polygon id="Rectangle-path-11" data-name="Rectangle-path" class="cls-2" points="21.33 24.14 24.67 24.14 24.67 24.81 21.33 24.81 21.33 24.14"/><polygon id="Rectangle-path-12" data-name="Rectangle-path" class="cls-2" points="21.33 22.86 24.67 22.86 24.67 23.53 21.33 23.53 21.33 22.86"/><polygon id="Rectangle-path-13" data-name="Rectangle-path" class="cls-2" points="22.66 21.58 24.67 21.58 24.67 22.25 22.66 22.25 22.66 21.58"/><polygon id="Rectangle-path-14" data-name="Rectangle-path" class="cls-2" points="22.66 20.3 24.67 20.3 24.67 20.98 22.66 20.98 22.66 20.3"/><polygon id="Shape-9" data-name="Shape" class="cls-2" points="25.59 16.46 21.33 16.46 21.33 17.14 25.82 17.14 25.59 16.46"/><polygon id="Shape-10" data-name="Shape" class="cls-2" points="25.15 15.19 21.33 15.19 21.33 15.86 25.38 15.86 25.15 15.19"/><polygon id="Rectangle-path-15" data-name="Rectangle-path" class="cls-2" points="28.66 24.14 32 24.14 32 24.81 28.66 24.81 28.66 24.14"/><polygon id="Rectangle-path-16" data-name="Rectangle-path" class="cls-2" points="28.66 22.86 32 22.86 32 23.53 28.66 23.53 28.66 22.86"/><polygon id="Rectangle-path-17" data-name="Rectangle-path" class="cls-2" points="28.66 21.58 30.67 21.58 30.67 22.25 28.66 22.25 28.66 21.58"/><polygon id="Rectangle-path-18" data-name="Rectangle-path" class="cls-2" points="28.66 20.3 30.67 20.3 30.67 20.98 28.66 20.98 28.66 20.3"/><polygon id="Shape-11" data-name="Shape" class="cls-2" points="28.66 19.7 30.67 19.7 30.67 19.02 28.66 19.02 28.66 19.02 26.85 19.02 26.67 19.57 26.48 19.02 24.67 19.02 24.67 19.02 22.66 19.02 22.66 19.7 24.67 19.7 24.67 19.08 24.88 19.7 28.45 19.7 28.66 19.08 28.66 19.7"/><polygon id="Shape-12" data-name="Shape" class="cls-2" points="30.67 17.74 27.3 17.74 27.07 18.41 30.67 18.41 30.67 17.74"/><polygon id="Shape-13" data-name="Shape" class="cls-2" points="28.18 15.19 27.95 15.86 32 15.86 32 15.19 28.18 15.19"/><polygon id="Shape-14" data-name="Shape" class="cls-2" points="26.67 24.81 26.9 24.14 26.43 24.14 26.67 24.81"/><polygon id="Shape-15" data-name="Shape" class="cls-2" points="26.22 23.53 27.11 23.53 27.34 22.86 25.99 22.86 26.22 23.53"/><polygon id="Shape-16" data-name="Shape" class="cls-2" points="25.77 22.25 27.56 22.25 27.79 21.58 25.54 21.58 25.77 22.25"/><polygon id="Shape-17" data-name="Shape" class="cls-2" points="25.33 20.98 28.01 20.98 28.23 20.3 25.1 20.3 25.33 20.98"/><polygon id="Shape-18" data-name="Shape" class="cls-2" points="22.66 18.41 26.27 18.41 26.04 17.74 22.66 17.74 22.66 18.41"/><polygon id="Shape-19" data-name="Shape" class="cls-2" points="27.51 17.14 32 17.14 32 16.46 27.74 16.46 27.51 17.14"/></svg>