<svg width="40" height="41" viewBox="0 0 40 41" fill="none" xmlns="http://www.w3.org/2000/svg">
<rect y="0.792969" width="40" height="40" rx="4" fill="#F7F8FA"/>
<path d="M27.1252 19.4148C27.6184 22.0094 26.7548 24.8096 24.4528 26.5805C21.8222 28.6401 18.0398 28.6401 15.4501 26.5397C11.9972 23.7803 11.7916 18.6732 14.8334 15.6256C17.1767 13.2784 20.7122 12.8663 23.5075 14.3903L17.2589 20.6497C17.0946 20.8144 17.0946 21.1026 17.2589 21.3086L19.5201 23.5738C19.6844 23.7385 19.9721 23.7385 20.1776 23.5738L29.8792 13.8542C29.0161 12.6189 27.8648 11.507 26.4676 10.6006C22.4389 8.006 17.0946 8.08813 13.148 10.848C6.36521 15.6251 6.20046 25.4273 12.696 30.4105C16.9299 33.6641 22.973 33.7054 27.2486 30.4518C32.017 26.8274 33.2504 20.567 30.907 15.6251L27.1252 19.4143V19.4148Z" fill="#EA0029"/>
</svg>
