<?xml version="1.0" encoding="UTF-8"?><svg id="design" xmlns="http://www.w3.org/2000/svg" viewBox="0 0 40 40"><defs><style>.cls-1{fill:#fff;}.cls-2{fill:#002b49;}</style></defs><rect class="cls-2" width="40" height="40" rx="4" ry="4"/><path class="cls-1" d="M18.55,15.41c.62-.25,1.29-.23,1.94-.17,.99,.14,1.8,.8,2.36,1.59,.6-.03,1.23-.14,1.8,.09,.93,.32,1.69,1.14,1.86,2.11,.05,.15,.02,.49,.28,.42,.47-.02,.96-.08,1.4,.12,.98,.35,1.74,1.3,1.8,2.35,.07,1.1-.53,2.14-1.51,2.63-.58,.34-1.27,.23-1.91,.24-.13-.35-.26-.73-.54-1.02-.47-.5-1.13-.74-1.74-1.01,.43-.54,.73-1.23,.61-1.94-.13-1.18-1.26-2.14-2.45-2.04-1.24,0-2.31,1.17-2.22,2.4-.02,.58,.3,1.1,.59,1.58-.57,.24-1.11,.52-1.63,.86-.3-.11-.59-.24-.88-.38,.24-.41,.52-.84,.5-1.33,.11-1.07-.86-2.05-1.91-2.08-1.08-.08-2.09,.88-2.09,1.96-.02,.54,.25,1.01,.5,1.45-.75,.31-1.59,.7-1.85,1.53-.59,0-1.22,.09-1.77-.17-.93-.36-1.58-1.21-1.68-2.2-.18-1.36,.85-2.74,2.2-2.97,.51-.07,1.03,0,1.53,.1,.44-1,1.55-1.59,2.63-1.55,.22-1.15,1.05-2.14,2.17-2.58h0Z"/></svg>