<?xml version="1.0" encoding="UTF-8"?><svg id="design" xmlns="http://www.w3.org/2000/svg" viewBox="0 0 40 40"><defs><style>.cls-1{fill:#85ffcd;}.cls-2{fill:#f4f4f4;}.cls-3{fill:#494949;}</style></defs><rect class="cls-2" width="40" height="40" rx="4" ry="4"/><g><path class="cls-1" d="M12.19,15.65l-1.98,1.7c-.28,.24-.28,.67,0,.92l1.98,1.69"/><path class="cls-3" d="M27.81,22.63l1.98-1.7c.28-.24,.28-.67,0-.92l-1.98-1.69"/><path class="cls-3" d="M22.6,13.04c-.21,0-.4,.04-.61,.06,.38,.72,.61,1.52,.61,2.39v6.26c0,2.67-2.01,4.84-4.6,5.14,.87,1.67,2.59,2.82,4.6,2.82,2.88,0,5.21-2.33,5.21-5.21v-6.26c0-2.88-2.33-5.21-5.21-5.21Z"/><path class="cls-1" d="M17.4,24.51v-6.26c0-2.67,2.01-4.84,4.6-5.14-.87-1.67-2.59-2.82-4.6-2.82-2.88,0-5.21,2.33-5.21,5.21v6.26c0,2.88,2.33,5.21,5.21,5.21,.21,0,.4-.04,.6-.06-.37-.72-.6-1.52-.6-2.39Z"/></g></svg>