<svg width="22" height="22" viewBox="0 0 22 22" fill="none" xmlns="http://www.w3.org/2000/svg">
<path d="M2.33319 11.2996C2.2792 11.4831 2.19281 11.4723 2.14962 11.2996L2.06323 10.9864C2.06323 10.9864 1.94445 10.5329 1.73928 9.99296C1.68529 9.82019 1.6097 9.64741 1.50172 9.49623C1.32894 9.31266 1.06979 9.24787 0.832222 9.32346C0.616255 9.39905 0.45428 9.60422 0.432683 9.83098C0.421885 10.0254 0.443482 10.2305 0.486675 10.4249C0.64865 11.5911 0.90781 12.7465 1.26416 13.8804C1.49092 14.3879 2.07403 14.6146 2.58155 14.3987C2.59235 14.3879 2.61395 14.3879 2.62474 14.3771C3.07827 14.0423 3.40222 13.5672 3.5426 13.0273C3.79096 12.4226 5.06517 8.91313 5.06517 8.91313C5.19475 8.56758 5.29193 8.57838 5.28113 8.95632C5.28113 8.95632 5.21634 12.3902 5.20555 13.9559C5.18395 14.6902 5.25954 15.4245 5.41071 16.148C5.5079 16.5259 5.72387 16.8607 6.02622 17.1091C6.32857 17.3358 6.70651 17.4438 7.08446 17.4006C7.26803 17.3682 7.4516 17.3142 7.61357 17.217C7.85114 17.0767 8.0563 16.9039 8.21828 16.6771C8.58542 16.1804 8.89858 15.6513 9.15774 15.1006C9.77324 13.8912 11.3606 10.1549 11.3606 10.1549C11.501 9.80939 11.609 9.84178 11.5982 10.2089C11.5982 10.2089 11.4038 16.4936 11.393 18.8908C11.393 19.4847 11.501 20.0786 11.7169 20.6401C11.9113 21.1692 12.3 21.6012 12.8076 21.8387C13.3691 22.0871 14.0062 22.0439 14.5353 21.7415C14.9348 21.4932 15.2588 21.1584 15.4856 20.7481C15.8095 20.1974 16.0795 19.6143 16.2954 19.0204C16.7706 17.7894 17.1701 16.5152 17.5588 15.2517C17.9476 13.9883 21.3059 1.99139 21.5218 0.965553C21.5542 0.846772 21.565 0.72799 21.5542 0.620007C21.5218 0.382444 21.3814 0.177276 21.1655 0.069293C20.7983 -0.10348 20.3556 0.0584933 20.172 0.425637C19.9885 0.803578 15.3992 11.9259 15.3992 11.9259C15.2588 12.2714 15.14 12.2498 15.14 11.8719C15.14 11.8719 15.1508 8.00607 15.1724 4.79896C15.1832 3.06043 14.3301 2.08858 13.1315 1.89421C12.5808 1.80782 12.0085 1.9374 11.5442 2.25056C11.0582 2.5961 10.6695 3.04963 10.4103 3.58955C10.0432 4.29144 7.79714 10.8568 7.79714 10.8568C7.67836 11.2024 7.57038 11.1916 7.55958 10.8244C7.55958 10.8244 7.49479 8.00607 7.43 7.33657C7.33282 6.32153 7.09525 4.63699 5.77786 4.5506C4.53605 4.47501 3.98533 5.99757 3.66138 6.94783C3.45622 7.57413 2.40878 10.9756 2.40878 10.9756L2.33319 11.2996Z" fill="white"/>
</svg>
