<svg width="40" height="40" viewBox="0 0 40 40" fill="none" xmlns="http://www.w3.org/2000/svg">
<rect width="40" height="40" rx="4" fill="#0A1551"/>
<path d="M15.7041 28.9432C16.0986 29.3214 15.8199 29.9695 15.2598 29.9695H11.7544C11.0627 29.9695 10.5 29.4299 10.5 28.7667V25.4052C10.5 24.8681 11.1758 24.6007 11.5703 24.979L15.7041 28.9432Z" fill="white"/>
<path d="M21.1838 29.2351C20.1461 28.2156 20.1461 26.5622 21.1838 25.5426L24.9283 21.8624C25.966 20.8428 27.6481 20.8428 28.6857 21.8624C29.7234 22.8822 29.7234 24.5353 28.6857 25.5552L24.9411 29.2351C23.9035 30.2549 22.2212 30.2549 21.1838 29.2351Z" fill="#FFB21D"/>
<path d="M11.2902 19.9882C10.2526 18.9686 10.2526 17.3152 11.2902 16.2957L16.9182 10.7649C17.9556 9.74505 19.638 9.74505 20.6756 10.7649C21.7133 11.7844 21.7133 13.4378 20.6756 14.4574L15.0476 19.9882C14.01 21.008 12.3278 21.008 11.2902 19.9882Z" fill="#0099FF"/>
<path d="M16.4421 24.4055C15.4047 23.3857 15.4047 21.7325 16.4421 20.7127L24.9571 12.3447C25.9948 11.3249 27.6771 11.3249 28.7147 12.3447C29.7524 13.3643 29.7524 15.0177 28.7147 16.0373L20.1997 24.4055C19.1621 25.425 17.4798 25.425 16.4421 24.4055Z" fill="#FF6100"/>
</svg>
