<?xml version="1.0" encoding="UTF-8"?><svg id="design" xmlns="http://www.w3.org/2000/svg" viewBox="0 0 40 40"><defs><style>.cls-1{fill:#f4f4f4;}.cls-2{fill:#f18830;}.cls-3{fill:#e4186a;}.cls-4{fill:#2666bc;}.cls-5{fill:#42ad49;}</style></defs><rect class="cls-1" width="40" height="40" rx="4" ry="4"/><g><path class="cls-3" d="M14.89,19.38c.36,.36,.36,.93,0,1.33l-1.64,1.64c-.36,.36-.93,.36-1.33,0l-1.64-1.64c-.36-.36-.36-.93,0-1.33l1.64-1.64c.36-.36,.93-.36,1.33,0l1.64,1.64Z"/><path class="cls-5" d="M21.42,16.98c-.36-.36-.36-.93,0-1.33l1.64-1.64c.36-.36,.93-.36,1.33,0l3.69,3.69,1.64,1.64h0c.36,.36,.36,.93,0,1.33l-5.38,5.38c-.36,.36-.93,.36-1.33,0l-1.64-1.64c-.36-.36-.36-.93,0-1.29l2.4-2.4c.36-.36,.36-.98,0-1.33l-2.36-2.4Z"/><path class="cls-2" d="M16.93,21.42c-.09-.09-.18-.13-.27-.18v-2.44c.09-.04,.18-.09,.27-.18l1.64-1.64c.36-.36,.36-.93,0-1.33l-1.64-1.64c-.36-.36-.93-.36-1.33,0l-1.6,1.64c-.36,.36-.36,.93,0,1.33l1.64,1.64c.09,.09,.18,.13,.27,.18v2.44c-.09,.04-.18,.09-.27,.18l-1.64,1.64c-.36,.36-.36,.93,0,1.33l1.64,1.64c.36,.36,.93,.36,1.33,0l1.64-1.64c.36-.36,.36-.93,0-1.33l-1.69-1.64Z"/><path class="cls-4" d="M20.67,25.11c-.09-.09-.18-.13-.27-.18v-2.44c.09-.04,.18-.09,.27-.18l1.64-1.64c.36-.36,.36-.93,0-1.33l-1.64-1.64c-.09-.09-.18-.13-.27-.18v-2.44c.09-.04,.18-.09,.27-.18l1.64-1.64c.36-.36,.36-.93,0-1.33l-1.64-1.64c-.36-.36-.93-.36-1.33,0l-1.64,1.64c-.36,.36-.36,.93,0,1.33l1.64,1.64c.09,.09,.18,.13,.27,.18v2.44c-.09,.04-.18,.09-.27,.18l-1.64,1.64c-.36,.36-.36,.93,0,1.33l1.64,1.64c.09,.09,.18,.13,.27,.18v2.44c-.09,.04-.18,.09-.27,.18l-1.64,1.64c-.36,.36-.36,.93,0,1.33l1.64,1.64c.36,.36,.93,.36,1.33,0l1.64-1.64c.36-.36,.36-.93,0-1.33l-1.64-1.64Z"/></g></svg>