<?xml version="1.0" encoding="UTF-8"?><svg id="design" xmlns="http://www.w3.org/2000/svg" viewBox="0 0 40 40"><defs><style>.cls-1{fill:#fff;}.cls-2{fill:#ef3f24;}</style></defs><rect class="cls-2" width="40" height="40" rx="4" ry="4"/><g id="_グループ_653"><path id="_パス_510" class="cls-1" d="M15.7,24.79l3.71-2.3c.09-.05,.2-.02,.25,.06,.02,.03,.03,.06,.03,.1v4.59c0,.1-.08,.19-.18,.19-.03,0-.07,0-.1-.03l-3.71-2.3c-.09-.06-.12-.17-.06-.26,.02-.02,.04-.04,.06-.06"/><path id="_パス_511" class="cls-1" d="M14.27,24.22l-4.15-2.57c-.07-.05-.12-.13-.12-.21v-5.21c0-.1,.08-.18,.18-.18,.03,0,.07,0,.1,.03l4.15,2.57c.07,.05,.12,.13,.12,.21v5.21c0,.1-.08,.18-.18,.18-.03,0-.07,0-.1-.03"/><path id="_パス_512" class="cls-1" d="M14.72,18.1l-4.19-2.59c-.09-.05-.11-.17-.06-.25,.01-.02,.03-.04,.06-.06l4.18-2.59c.08-.05,.17-.05,.25,0l4.18,2.59c.09,.05,.11,.17,.06,.25-.01,.02-.03,.04-.06,.06l-4.18,2.59c-.08,.05-.17,.05-.25,0"/><path id="_パス_513" class="cls-1" d="M19.17,21.9l-3.74,2.31c-.09,.05-.2,.02-.25-.06-.02-.03-.03-.06-.03-.1v-4.62c0-.1,.08-.19,.18-.19,.03,0,.07,0,.1,.03l3.74,2.31c.09,.06,.12,.17,.06,.26-.02,.02-.04,.04-.06,.06"/><path id="_パス_514" class="cls-1" d="M19.42,20.99l-3.72-2.29c-.09-.06-.12-.17-.06-.26,.02-.02,.04-.04,.06-.06l3.72-2.3c.09-.05,.2-.02,.25,.06,.02,.03,.03,.06,.03,.1v4.59c0,.1-.08,.19-.18,.19-.03,0-.07,0-.1-.03"/><path id="_パス_515" class="cls-1" d="M24.3,24.79l-3.71-2.3c-.09-.05-.2-.02-.25,.06-.02,.03-.03,.06-.03,.1v4.59c0,.1,.08,.19,.18,.19,.03,0,.07,0,.1-.03l3.71-2.3c.09-.06,.12-.17,.06-.26-.02-.02-.04-.04-.06-.06"/><path id="_パス_516" class="cls-1" d="M25.73,24.22l4.15-2.57c.07-.05,.12-.13,.12-.21v-5.21c0-.1-.08-.18-.17-.18-.03,0-.07,0-.1,.03l-4.15,2.57c-.07,.05-.12,.13-.12,.21v5.21c0,.1,.08,.18,.18,.18,.03,0,.07,0,.1-.03"/><path id="_パス_517" class="cls-1" d="M25.28,18.1l4.19-2.59c.09-.05,.11-.17,.06-.25-.01-.02-.03-.04-.06-.06l-4.18-2.59c-.08-.05-.17-.05-.25,0l-4.18,2.59c-.09,.05-.11,.17-.06,.25,.01,.02,.03,.04,.06,.06l4.18,2.59c.08,.05,.17,.05,.25,0"/><path id="_パス_518" class="cls-1" d="M20.83,21.9l3.74,2.31c.09,.05,.2,.02,.25-.06,.02-.03,.03-.06,.03-.1v-4.62c0-.1-.08-.19-.18-.19-.03,0-.07,0-.1,.03l-3.74,2.31c-.09,.06-.12,.17-.06,.26,.01,.02,.04,.04,.06,.06"/><path id="_パス_519" class="cls-1" d="M20.58,20.99l3.72-2.29c.09-.06,.12-.17,.06-.26-.01-.02-.04-.04-.06-.06l-3.72-2.3c-.09-.05-.2-.02-.25,.06-.02,.03-.03,.06-.03,.1v4.59c0,.1,.08,.19,.18,.19,.03,0,.07,0,.1-.03"/></g></svg>