<?xml version="1.0" encoding="UTF-8"?><svg id="design" xmlns="http://www.w3.org/2000/svg" viewBox="0 0 40 40"><defs><style>.cls-1{fill:#fff;}.cls-2{fill:#191919;}</style></defs><rect class="cls-2" width="40" height="40" rx="4" ry="4"/><path class="cls-1" d="M20.18,29.91c-.15,0-.31-.09-.4-.24-.07-.15-.07-.31,.04-.44l4.68-6.42-8.2,3.33c-.07,.02-.11,.04-.18,.04-.2,0-.37-.13-.42-.31-.07-.18,.02-.37,.18-.48l7.21-4.23-12.68-.72c-.26-.02-.42-.22-.42-.44,0-.2,.13-.42,.42-.44l12.68-.72-7.21-4.23c-.15-.11-.24-.31-.18-.48,.07-.18,.22-.31,.42-.31,.07,0,.11,.02,.18,.04l8.2,3.33-4.68-6.44c-.09-.13-.11-.31-.04-.44,.07-.15,.22-.24,.4-.24,.11,0,.22,.04,.31,.13l9.32,9.27c.13,.13,.2,.33,.2,.5s-.07,.35-.2,.5l-9.32,9.29c-.09,.09-.2,.13-.31,.13Z"/></svg>