<svg width="35" height="30" viewBox="0 0 35 30" fill="none" xmlns="http://www.w3.org/2000/svg">
<path fill-rule="evenodd" clip-rule="evenodd" d="M0 15.0098H5.00325V10.0065H0V15.0098Z" fill="#42C0F0"/>
<path fill-rule="evenodd" clip-rule="evenodd" d="M5.00317 19.9935H10.0064V14.9903H5.00317V19.9935Z" fill="#5D5CA6"/>
<path fill-rule="evenodd" clip-rule="evenodd" d="M24.9771 30H29.9803V24.9968H24.9771V30Z" fill="#64BB91"/>
<path fill-rule="evenodd" clip-rule="evenodd" d="M5.00317 5.00325H10.0064V0H5.00317V5.00325Z" fill="#FAB316"/>
<path fill-rule="evenodd" clip-rule="evenodd" d="M14.9905 19.9935H19.9937V14.9903H14.9905V19.9935Z" fill="#F18A65"/>
<path fill-rule="evenodd" clip-rule="evenodd" d="M19.9937 15.0098H24.9969V10.0065H19.9937V15.0098Z" fill="#75BE88"/>
<path fill-rule="evenodd" clip-rule="evenodd" d="M9.9873 30H14.9906V24.9968H9.9873V30Z" fill="#42C0F0"/>
<path fill-rule="evenodd" clip-rule="evenodd" d="M30 5H35V0H30V5Z" fill="#BCD364"/>
<path fill-rule="evenodd" clip-rule="evenodd" d="M30 10H35V5H30V10Z" fill="#42C0F0"/>
<path fill-rule="evenodd" clip-rule="evenodd" d="M25 5H30V0H25V5Z" fill="#929DCF"/>
</svg>
