<svg width="24" height="24" viewBox="0 0 24 24" fill="none" xmlns="http://www.w3.org/2000/svg">
<path fill-rule="evenodd" clip-rule="evenodd" d="M21.3337 10.9993L15.7333 10.9993L20.5829 8.19939L19.5829 6.46734L14.7318 9.26813L17.5322 4.4177L15.8001 3.4177L12.9997 8.26823L12.9997 2.66688L10.9997 2.66688L10.9997 8.26592L8.19982 3.41643L6.46777 4.41643L9.26865 9.26769L4.41732 6.46677L3.41732 8.19882L8.26799 10.9994L2.66699 10.9994L2.66699 12.9994L8.26866 12.9994L3.41699 15.8005L4.41699 17.5325L9.2679 14.7318L6.4668 19.5835L8.19885 20.5835L11 15.7318L11 21.3333L13 21.3333L13 15.7306L15.8011 20.5822L17.5332 19.5822L14.7327 14.7317L19.5832 17.5322L20.5832 15.8001L15.7321 12.9993L21.3337 12.9993L21.3337 10.9993ZM10.6662 14.31C11.9416 15.0464 13.5725 14.6094 14.3089 13.3339C15.0453 12.0585 14.6083 10.4276 13.3328 9.6912C12.0574 8.95482 10.4265 9.39182 9.6901 10.6673C8.95372 11.9427 9.39073 13.5736 10.6662 14.31Z" fill="white"/>
</svg>
