<svg width="40" height="40" viewBox="0 0 40 40" fill="none" xmlns="http://www.w3.org/2000/svg">
<g opacity="0.72">
<path d="M0 4C0 1.79086 1.79086 0 4 0H36C38.2091 0 40 1.79086 40 4V36C40 38.2091 38.2091 40 36 40H4C1.79086 40 0 38.2091 0 36V4Z" fill="#1D87BD"/>
<path d="M27.8889 12C28.1246 12 28.3507 12.0937 28.5174 12.2603C28.6841 12.427 28.7778 12.6531 28.7778 12.8889V27.1111C28.7778 27.3469 28.6841 27.573 28.5174 27.7397C28.3507 27.9064 28.1246 28 27.8889 28H11.8889C11.6531 28 11.427 27.9064 11.2603 27.7397C11.0937 27.573 11 27.3469 11 27.1111V12.8889C11 12.6531 11.0937 12.427 11.2603 12.2603C11.427 12.0937 11.6531 12 11.8889 12H27.8889ZM27 13.7778H12.7778V26.2222H27V13.7778ZM17.5769 16.4444L20.4204 23.5556H18.5049L18.1493 22.6667H15.2249L14.8693 23.5556H12.9547L15.7991 16.4444H17.5769ZM26.1111 16.4444V23.5556H23.4444C22.7372 23.5556 22.0589 23.2746 21.5588 22.7745C21.0587 22.2744 20.7778 21.5961 20.7778 20.8889C20.7778 20.1816 21.0587 19.5034 21.5588 19.0033C22.0589 18.5032 22.7372 18.2222 23.4444 18.2222H24.3324L24.3333 16.4444H26.1111ZM24.3333 20H23.4444C23.2179 20.0003 23 20.087 22.8352 20.2425C22.6705 20.3981 22.5713 20.6106 22.5581 20.8368C22.5448 21.063 22.6184 21.2857 22.7638 21.4594C22.9092 21.6331 23.1155 21.7448 23.3404 21.7716L23.4444 21.7778H24.3333V20ZM16.688 19.0089L15.9351 20.8889H17.4391L16.688 19.0089Z" fill="white"/>
</g>
</svg>
