<svg width="41" height="41" viewBox="0 0 41 41" fill="none" xmlns="http://www.w3.org/2000/svg">
<rect x="0.524902" y="0.0922852" width="40" height="40" rx="4" fill="black"/>
<g clip-path="url(#clip0_3631_9114)">
<path d="M20.974 25.9763V13.5652C20.3346 13.2813 19.8106 12.8509 19.2772 12.2333L16.9004 14.1485C16.9004 17.7199 18.7688 19.3356 18.7688 22.2208C18.7688 24.2389 17.3433 26.3381 16.2485 27.408L16.3452 27.4329C17.7956 26.6032 19.6764 26.1572 20.9771 25.9794M27.2061 25.5427L24.8792 30.0031C23.9871 29.2358 22.6646 28.6931 20.9272 28.6931C18.3258 28.6931 15.0819 29.3668 14.1649 29.9532L13.8499 29.6132C14.8698 28.7211 15.9334 26.4036 15.9334 23.6494C15.9334 20.7143 14.2616 19.3294 14.2616 16.4255C14.2616 13.5215 15.5935 11.781 18.0638 10.5334L18.3539 10.8016C17.4681 11.5377 17.0096 12.4236 16.9222 13.5184L21.1923 10C21.9815 10.7642 23.2447 11.6251 24.3926 11.6251C25.2597 11.6251 25.7026 11.4473 25.7026 11.0667C25.7026 10.864 25.5342 10.8016 25.5342 10.68C25.5342 10.4772 25.6808 10.3899 25.8492 10.3899C26.08 10.3899 26.236 10.6644 26.236 10.9732C26.236 12.5827 24.586 13.9301 22.8923 13.9301C22.3308 13.9301 21.8536 13.8833 21.4387 13.7617V25.9264C21.7008 25.9014 21.916 25.8796 22.0938 25.8796C23.7033 25.8796 25.1287 26.5596 25.5124 26.5596C26.0738 26.5596 26.2766 26.1603 26.7257 25.2994L27.2092 25.5427H27.2061Z" fill="white"/>
</g>
<defs>
<clipPath id="clip0_3631_9114">
<rect width="13.3562" height="20" fill="white" transform="translate(13.8467 10)"/>
</clipPath>
</defs>
</svg>
