<svg id="design" xmlns="http://www.w3.org/2000/svg" viewBox="0 0 40 40"><defs><style>.cls-1{fill:#069;}.cls-2{fill:#fff;fill-rule:evenodd;}</style></defs><rect class="cls-1" y="0.01" width="40" height="40" rx="4"/><path id="path28" class="cls-2" d="M13.45,31.47V16H8.3V31.47ZM10.88,13.88a2.68,2.68,0,1,0,0-5.35,2.68,2.68,0,1,0-.07,5.35Z"/><path id="path30" class="cls-2" d="M16.3,31.47h5.14V22.83a3.43,3.43,0,0,1,.17-1.26,2.82,2.82,0,0,1,2.64-1.88c1.86,0,2.61,1.42,2.61,3.5v8.28H32V22.59c0-4.75-2.54-7-5.92-7a5.1,5.1,0,0,0-4.67,2.61h0V16H16.3c.06,1.45,0,15.48,0,15.48Z"/></svg>