<svg id="design" xmlns="http://www.w3.org/2000/svg" viewBox="0 0 40 40"><defs><style>.cls-1{fill:#754abc;}.cls-2,.cls-3{fill:#fff;}.cls-2{fill-rule:evenodd;}</style></defs><rect class="cls-1" y="0.01" width="40" height="40" rx="4"/><path class="cls-2" d="M17.36,10.7A9.08,9.08,0,0,1,20,8a9,9,0,0,1,2.59,2.65A13.37,13.37,0,0,1,25.07,19c.55.44,1.11.86,1.65,1.31a3,3,0,0,1,.94,2.74c-.26,1.25-.51,2.5-.78,3.74a1,1,0,0,1-1.32.66,1.26,1.26,0,0,1-.26-.13c-.88-.71-1.74-1.44-2.62-2.15a4,4,0,0,1-2.48,1.08,4,4,0,0,1-2.9-1.05c-.63.47-1.21,1-1.83,1.52a4.31,4.31,0,0,1-.9.69,1,1,0,0,1-1.34-.59l0-.08c-.28-1.22-.58-2.44-.85-3.66a2.94,2.94,0,0,1,1-2.84c.48-.39,1-.77,1.45-1.14.14-.07.07-.23.07-.35a13.39,13.39,0,0,1,2.49-8.07m.86,3.77a2.06,2.06,0,0,0,.18,2.72,2.27,2.27,0,0,0,3.09.07A2.07,2.07,0,0,0,22,15a2.21,2.21,0,0,0-1.84-1.37,2.26,2.26,0,0,0-2,.84"/><path class="cls-3" d="M17.05,27.78a.52.52,0,0,1,.55-.48.57.57,0,0,1,.22.07,4.94,4.94,0,0,0,4.31,0,.52.52,0,0,1,.71.21.49.49,0,0,1,.06.17V30a.53.53,0,0,1-.57.47.54.54,0,0,1-.24-.09c-.23-.2-.43-.42-.65-.62-.35.65-.68,1.32-1,2a.52.52,0,0,1-.72.14.4.4,0,0,1-.15-.14c-.35-.65-.68-1.32-1-2-.22.21-.42.42-.65.62a.52.52,0,0,1-.72-.14.5.5,0,0,1-.09-.24V27.78"/><path class="cls-3" d="M20,16.79a1,1,0,0,0,1.07-1h0a1,1,0,0,0-1.07-1h0a1,1,0,0,0-1.07,1h0a1,1,0,0,0,1.06,1Z"/></svg>