<svg id="design" xmlns="http://www.w3.org/2000/svg" xmlns:xlink="http://www.w3.org/1999/xlink" viewBox="0 0 40 40"><defs><style>.cls-1{fill:#fff;fill-rule:evenodd;}.cls-2{fill:#5521b5;}.cls-3{mask:url(#mask);}</style><mask id="mask" x="8" y="15.78" width="24" height="8.44" maskUnits="userSpaceOnUse"><g id="b"><path id="a" class="cls-1" d="M8,15.78H32v8.44H8Z"/></g></mask></defs><rect class="cls-2" y="0.01" width="40" height="40" rx="4"/><path class="cls-1" d="M26,19.68a.75.75,0,0,0-.59.27,1,1,0,0,0-.23.67,1,1,0,0,0,.23.66.75.75,0,0,0,.59.27.76.76,0,0,0,.6-.26,1.11,1.11,0,0,0,0-1.35.76.76,0,0,0-.6-.26"/><g class="cls-3"><path class="cls-1" d="M27.68,21.54a1.53,1.53,0,0,1-.66.65,2,2,0,0,1-1,.24,2.14,2.14,0,0,1-1-.22,1.66,1.66,0,0,1-.68-.63,1.89,1.89,0,0,1-.25-1,1.8,1.8,0,0,1,.25-.93A1.68,1.68,0,0,1,25,19a2.12,2.12,0,0,1,1-.24A2,2,0,0,1,27,19a1.57,1.57,0,0,1,.66.64,1.78,1.78,0,0,1,.23.93,1.83,1.83,0,0,1-.23.93Zm-3.86-1.67h-.13a1,1,0,0,0-.57.17,1.21,1.21,0,0,0-.38.43,1.34,1.34,0,0,0-.13.55v1.32H21.54V19h1l.09.78a1.62,1.62,0,0,1,.38-.49,2.21,2.21,0,0,1,.5-.34,1,1,0,0,1,.4-.12Zm-3.3-1.71a.6.6,0,0,1-.4.15.63.63,0,0,1-.41-.15.48.48,0,0,1-.18-.39.51.51,0,0,1,.18-.39.64.64,0,0,1,.41-.16.61.61,0,0,1,.4.16.51.51,0,0,1,.18.39.48.48,0,0,1-.18.39Zm-1,4.18h1.08V19H19.55v3.37Zm-.92,0H17.56V20.26a1,1,0,0,0-.08-.38.32.32,0,0,0-.28-.15.68.68,0,0,0-.59.37,1.69,1.69,0,0,0-.21.86v1.38H15.32V20.26a.84.84,0,0,0-.09-.38.33.33,0,0,0-.29-.15.65.65,0,0,0-.57.37,1.67,1.67,0,0,0-.21.85v1.39H13.08V19h1l.08.53a1.32,1.32,0,0,1,1.22-.7A1.29,1.29,0,0,1,16,19a.88.88,0,0,1,.36.5,1.69,1.69,0,0,1,.52-.48,1.14,1.14,0,0,1,.61-.18,1.09,1.09,0,0,1,.79.28,1,1,0,0,1,.31.73Zm-7.58-6L8,24.22H30.82L32,15.78l-20.95.57Z"/></g></svg>