<svg id="design" xmlns="http://www.w3.org/2000/svg" viewBox="0 0 40 40"><defs><style>.cls-1{fill:#012d9b;}.cls-2{fill:#eff2f7;}</style></defs><rect class="cls-1" y="0.01" width="40" height="40" rx="4"/><path class="cls-2" d="M20,26.3a9.15,9.15,0,1,1,9.15-9.15A9.19,9.19,0,0,1,20,26.3ZM20,9.42a7.73,7.73,0,1,0,7.73,7.73A7.72,7.72,0,0,0,20,9.42Z"/><path class="cls-2" d="M16.4,20.75l-1.35-.6v-.22H16.7s.83-1.13,1.28-1.65,1-1.2,1-1.2l-4.5-2,.23-.3,5.77.75s1.65-1.72,2.25-2.25c.23-.22,1.12-.75,1.43-.37l.07.07c.38.38-.15,1.2-.37,1.43-.53.6-2.25,2.25-2.25,2.25l.82,5.77-.3.3-2-4.5s-.68.6-1.2,1-1.65,1.27-1.65,1.27V22.1H17Z"/><path class="cls-2" d="M20,32a11.81,11.81,0,0,1-2.77-.3.69.69,0,0,1-.53-.82.74.74,0,0,1,.83-.6,13.73,13.73,0,0,0,4.95,0,.72.72,0,0,1,.22,1.42A10.85,10.85,0,0,1,20,32Z"/><path class="cls-2" d="M20,29.15a12.07,12.07,0,0,1-3.68-.6.71.71,0,0,1,.45-1.35,10.48,10.48,0,0,0,6.46,0,.68.68,0,0,1,.9.45.67.67,0,0,1-.45.9A12,12,0,0,1,20,29.15Z"/></svg>