<svg id="design" xmlns="http://www.w3.org/2000/svg" viewBox="0 0 40 40"><defs><style>.cls-1{fill:#f4f4f4;}.cls-2{fill:none;}.cls-3{fill:#ef3f37;}.cls-4{fill:#f7941e;}</style></defs><rect class="cls-1" y="0.01" width="40" height="40" rx="4"/><path class="cls-2" d="M21.61,19.82l0,0h0l-.15.17h0l.35-.38Z"/><path class="cls-2" d="M18.42,19.86h0l0,0h0s-.23-.25-.56-.54C17.89,19.34,18.1,19.52,18.42,19.86Z"/><path class="cls-3" d="M27.07,15.07A10.33,10.33,0,0,0,20,18.4a10.33,10.33,0,0,0-7.07-3.33A5,5,0,0,0,8,19.88a4.85,4.85,0,0,0,4.91,5.05h.43V22.77h-.43c-2.73,0-2.76-2.78-2.76-2.9a2.8,2.8,0,0,1,2.78-2.66,7.81,7.81,0,0,1,4.88,2h0l0,0c.33.29.52.5.56.54h0l0,0h0c.38.38.91,1,1.58,1.78L21.44,20h0l.15-.17h0l0,0,.18-.18.08-.08h0a8,8,0,0,1,5.2-2.34,2.8,2.8,0,0,1,2.78,2.66c0,.12,0,2.9-2.76,2.9l-.47,0v2.16h.47A4.85,4.85,0,0,0,32,19.88,5,5,0,0,0,27.07,15.07Z"/><path class="cls-4" d="M18.42,19.86l.14.16-.11.13a8.49,8.49,0,0,1-5.11,2.62v2.15A10.47,10.47,0,0,0,20,21.64C19.33,20.83,18.8,20.24,18.42,19.86Z"/><path d="M17.81,19.26h0l0,0Z"/><path class="cls-4" d="M21.55,20.15,21.44,20,20,21.64a10.54,10.54,0,0,0,6.62,3.28V22.76A8.46,8.46,0,0,1,21.55,20.15Z"/></svg>