<svg id="design" xmlns="http://www.w3.org/2000/svg" viewBox="0 0 40 40"><defs><style>.cls-1{fill:#f4f4f4;}.cls-2{fill:#f7578c;}.cls-2,.cls-3{fill-rule:evenodd;}.cls-3{fill:#fff;}</style></defs><rect class="cls-1" y="0.01" width="40" height="40" rx="4"/><path class="cls-2" d="M23,8.79c8.7,2.34,10.24,6.54,8.19,14.21S25.7,33.54,17,31.21,6.76,24.67,8.81,17,14.3,6.46,23,8.79Z"/><path class="cls-3" d="M14,20.13c-1.1-2.31-1.15-4.58.19-5.93s3.62-1.29,5.93-.19c2.31-1.1,4.58-1.15,5.93.19s1.3,3.62.19,5.93c1.11,2.31,1.16,4.58-.19,5.93s-3.62,1.3-5.93.19c-2.31,1.11-4.58,1.16-5.93-.19S12.91,22.44,14,20.13Zm1.08-1.82a15.36,15.36,0,0,1,3.22-3.22,2.93,2.93,0,0,0-2.92.3A2.93,2.93,0,0,0,15.09,18.31ZM25.17,22A14.19,14.19,0,0,1,22,25.17a2.9,2.9,0,0,0,2.92-.3A2.9,2.9,0,0,0,25.17,22ZM15.09,22a2.93,2.93,0,0,0,.3,2.92,2.9,2.9,0,0,0,2.92.3,14.76,14.76,0,0,1-1.73-1.48A14,14,0,0,1,15.09,22Zm.82-1.82a11.93,11.93,0,0,0,1.85,2.37,11.57,11.57,0,0,0,2.37,1.85,12.29,12.29,0,0,0,4.22-4.22,11.57,11.57,0,0,0-1.85-2.37,11.93,11.93,0,0,0-2.37-1.85,12.29,12.29,0,0,0-4.22,4.22Zm6-5a14,14,0,0,1,1.74,1.49,14.76,14.76,0,0,1,1.48,1.73,2.9,2.9,0,0,0-.3-2.92A2.93,2.93,0,0,0,22,15.09Z"/></svg>