<svg id="design" xmlns="http://www.w3.org/2000/svg" viewBox="0 0 40 40"><defs><style>.cls-1{fill:#d32328;}.cls-2{fill:#fff;}</style></defs><rect class="cls-1" y="0.01" width="40" height="40" rx="4"/><path class="cls-2" d="M30.4,14V26s0,0-.07,0l-1.22.71-1.28.74-1.38.8-1,.57-1,.57-1,.57-1,.57-.88.51-1,.56L20,32H20l-.8-.48L18,30.82l-1.22-.71-1.28-.74-1.38-.81-1-.56-1.22-.72-1.14-.65L9.6,26V14l.06,0,.76-.44,1.47-.85,1.63-.94,1.3-.74,1.7-1L18,9.15l1.67-1L20,8H20s0,0,0,0l.59.35,1,.58,1.08.62,1,.58c.35.21.71.41,1.07.61l.9.52,1.17.68.91.52,1.17.68.93.53Zm-19.92.48a1.18,1.18,0,0,1,.19.11l1.63.9,1.46.82,1.86,1,1.21.66L18.71,19l1.21.67a.14.14,0,0,0,.15,0L21.36,19l1.73-1,1.26-.7,1.91-1.06,1.31-.73,1.58-.87.38-.22-1.28-.74L26.92,13l-1.46-.84c-.33-.2-.68-.39-1-.58l-1.31-.76L21.82,10c-.54-.31-1.09-.62-1.62-.94a.33.33,0,0,0-.4,0c-.48.29-1,.56-1.47.84l-1.55.91-1.62.92-1.56.91-1.47.84Zm16.39,5.32-.1.05-.7.39-1,.55-1.32.75-1,.53-1.5.85-1.23.68a.11.11,0,0,1-.11,0l-.69-.38-1.15-.65-1-.53-1.28-.73-1-.53-1.5-.85-.27-.14v2.5c0,1.26,0,2.52,0,3.78v.88a.14.14,0,0,0,.05.1l1.06.62,1,.56,1.09.63c.32.19.64.38,1,.56l.94.55.87.51.89.51a.15.15,0,0,0,.13,0l1.26-.73,1.73-1L25,28.11l1.75-1a.3.3,0,0,0,.18-.3c0-1.49,0-3,0-4.46,0-.85,0-1.69,0-2.53Z"/></svg>