<svg width="40" height="41" viewBox="0 0 40 41" fill="none" xmlns="http://www.w3.org/2000/svg">
<rect y="0.791992" width="40" height="40" rx="4" fill="#615CF5"/>
<path fill-rule="evenodd" clip-rule="evenodd" d="M24.9265 11.0493C27.1468 11.3774 29.0197 13.071 29.3087 15.2198C29.4346 16.4977 29.3723 18.4176 29.342 19.3513C29.3345 19.5839 29.3289 19.7554 29.3287 19.8404C29.3287 19.9658 29.3105 21.1112 29.3033 21.2321C29.1087 24.3027 27.194 25.5153 25.182 25.9017C25.1597 25.9084 25.1342 25.9133 25.1082 25.9183C25.1025 25.9194 25.0968 25.9205 25.091 25.9216C23.8155 26.1707 22.449 26.2371 21.1525 26.2734C20.8425 26.2816 20.5334 26.2816 20.2233 26.2816C18.9343 26.282 17.6497 26.1294 16.3966 25.8272C16.39 25.8254 16.3831 25.8253 16.3764 25.8267C16.3662 25.8289 16.3573 25.8347 16.351 25.8429C16.3447 25.8512 16.3415 25.8614 16.3421 25.8717C16.3775 26.2797 16.4662 26.6812 16.6058 27.0662C16.7794 27.5116 17.3858 28.5815 19.6406 28.5815C20.9508 28.5838 22.2566 28.4312 23.531 28.1269C23.5374 28.1254 23.5441 28.1254 23.5506 28.1269C23.5571 28.1282 23.5632 28.1311 23.5685 28.1352C23.5737 28.1393 23.5779 28.1445 23.5808 28.1505C23.5838 28.1565 23.5853 28.163 23.5855 28.1697V29.6768C23.5853 29.6839 23.5834 29.6909 23.58 29.6972C23.5768 29.7034 23.5721 29.7089 23.5664 29.7131C23.168 30.0019 22.6324 30.1716 22.1632 30.3203C22.142 30.327 22.1208 30.3337 22.0998 30.3404C21.8861 30.4077 21.6699 30.4668 21.4516 30.5176C19.4627 30.9706 17.3869 30.861 15.4566 30.2013C13.6537 29.5686 11.8135 28.0178 11.3589 26.1544C11.1162 25.1454 10.9452 24.1205 10.8471 23.0873C10.744 21.9565 10.7095 20.8238 10.675 19.6895C10.6621 19.2637 10.6491 18.8376 10.6325 18.4114C10.5898 17.3224 10.6143 16.1352 10.8443 15.0644C11.3225 12.89 13.2937 11.3683 15.4521 11.0493C15.4965 11.0428 15.5455 11.0341 15.6029 11.024C16.0301 10.9489 16.9218 10.792 19.8206 10.792H19.8452C23.1328 10.792 24.5519 10.9939 24.9265 11.0493ZM26.1211 22.9729V17.6342C26.1217 16.5428 25.8439 15.6762 25.2874 15.0343C24.711 14.3936 23.9573 14.0645 23.0227 14.0645C21.9417 14.0645 21.1234 14.4808 20.5779 15.3125L20.0507 16.1961L19.5242 15.3125C18.9787 14.4808 18.1604 14.0645 17.0776 14.0645C16.1421 14.0645 15.3884 14.3936 14.8137 15.0343C14.2568 15.6768 13.9783 16.5434 13.9783 17.6342V22.9729H16.093V17.7914C16.093 16.7006 16.5521 16.1443 17.4713 16.1443C18.4878 16.1443 18.9978 16.8025 18.9978 18.1023V20.9384H21.1007V18.1023C21.1007 16.8025 21.6098 16.1443 22.6263 16.1443C23.551 16.1443 24.0055 16.7006 24.0055 17.7914V22.9729H26.1211Z" fill="white"/>
</svg>
