<?xml version="1.0" encoding="UTF-8"?><svg id="design" xmlns="http://www.w3.org/2000/svg" xmlns:xlink="http://www.w3.org/1999/xlink" viewBox="0 0 40 40"><defs><style>.cls-1{fill:#f4f4f4;}.cls-2{fill:#f38334;}.cls-3{fill:#95c748;}.cls-4{fill:#3253a0;}.cls-5{fill:#3152a0;}.cls-6{fill:#35bfc0;}.cls-7{mask:url(#mask);}</style><mask id="mask" x="21.33" y="15.72" width="8.67" height="9.93" maskUnits="userSpaceOnUse"/></defs><rect class="cls-1" width="40" height="40" rx="4" ry="4"/><g><path class="cls-3" d="M29.57,21.26h0s-.05-.08-.05-.08c0-.01-.02-.02-.02-.04l-3.56-5.42-4.6,3.43,3.37,5.18s.03,.04,.04,.07l.02,.03h0c.52,.74,1.38,1.22,2.36,1.22,1.59,0,2.88-1.29,2.88-2.88,0-.55-.16-1.07-.43-1.51"/><path class="cls-6" d="M15.76,22.77c0-1.59-1.29-2.88-2.88-2.88s-2.88,1.29-2.88,2.88,1.29,2.88,2.88,2.88,2.88-1.29,2.88-2.88"/><path class="cls-4" d="M23.5,14.35c1.59,0,2.88,1.29,2.88,2.88,0,.6-.18,1.16-.5,1.62h0s-3.41,5.33-3.41,5.33c-.05,.09-.11,.18-.17,.26h0l-.02,.04h0c-.52,.71-1.37,1.17-2.32,1.17s-1.79-.46-2.32-1.17h0l-2.28-3.2h0c-.5-.83-1.42-1.39-2.46-1.39s-1.87,.5-2.39,1.27h0l3.49-5.43h0c.51-.82,1.41-1.37,2.45-1.37s1.94,.55,2.45,1.37h0l2.19,3.09h0c-.3-.45-.47-1-.47-1.58,0-1.59,1.29-2.88,2.88-2.88Z"/><path class="cls-3" d="M29.57,21.26h0s-.05-.08-.05-.08c0-.01-.02-.02-.02-.04l-3.56-5.42-4.6,3.43,3.37,5.18s.03,.04,.04,.07l.02,.03h0c.52,.74,1.38,1.22,2.36,1.22,1.59,0,2.88-1.29,2.88-2.88,0-.55-.16-1.07-.43-1.51"/><g class="cls-7"><path id="path-3" d="M26.38,17.23c0-1.59-1.29-2.88-2.88-2.88s-2.88,1.29-2.88,2.88c0,.59,.18,1.13,.47,1.58t0,0h0s-2.19-3.09-2.19-3.09h0c-.51-.82-1.41-1.37-2.45-1.37s-1.94,.55-2.45,1.37h0l-3.49,5.43c.52-.77,1.39-1.27,2.39-1.27,1.05,0,1.96,.56,2.46,1.39h0l2.28,3.2h0c.52,.71,1.37,1.17,2.32,1.17s1.79-.46,2.32-1.17h0l.02-.04c.06-.08,.12-.17,.17-.26l3.41-5.33h0c.31-.46,.5-1.02,.5-1.62m-4.86,2.09s.03,.03,.05,.05c-.02-.02-.03-.03-.05-.05m.26,.21s.04,.03,.06,.04c-.02-.01-.04-.03-.06-.04m.63,.36s.05,.02,.07,.03c-.02,0-.05-.02-.07-.03m.31,.1s.07,.02,.1,.03c-.03,0-.07-.02-.1-.03m.34,.07s.07,.01,.1,.02c-.03,0-.07-.01-.1-.02m2.34-.68s.05-.05,.08-.07c-.02,.02-.05,.05-.08,.07m-1.56,.69s.07-.01,.1-.02c-.03,0-.07,.01-.1,.02m.33-.06s.07-.02,.11-.03c-.04,.01-.07,.02-.11,.03m.33-.1s.06-.02,.09-.03c-.03,.01-.06,.02-.09,.03m.65-.34s.05-.04,.07-.05c-.02,.02-.05,.04-.07,.05m.49-.43s.04-.04,.06-.07c-.02,.02-.04,.04-.06,.07"/></g><path class="cls-2" d="M26.37,17.23c0-1.59-1.29-2.88-2.88-2.88s-2.88,1.29-2.88,2.88,1.29,2.88,2.88,2.88,2.88-1.29,2.88-2.88"/><path class="cls-5" d="M23.48,20.11c-1.01,0-1.89-.52-2.41-1.3h0l-2.19-3.09h0c-.51-.82-1.41-1.37-2.45-1.37s-1.94,.55-2.45,1.37h0l-3.48,5.43c.52-.77,1.39-1.27,2.39-1.27,1.05,0,1.96,.56,2.46,1.39h0l2.28,3.2h0c.53,.71,1.37,1.17,2.32,1.17s1.79-.46,2.32-1.17h0l.02-.04c.06-.08,.12-.17,.17-.26l3.41-5.33c-.52,.76-1.39,1.27-2.39,1.27"/></g></svg>