<svg id="design" xmlns="http://www.w3.org/2000/svg" viewBox="0 0 40 40"><defs><style>.cls-1{fill:#f4f4f4;}.cls-2{fill:#534cda;}.cls-3{fill:#fff;}</style></defs><rect class="cls-1" width="40" height="40" rx="4"/><circle class="cls-2" cx="20" cy="20" r="11.5"/><path class="cls-3" d="M12.32,16.14h2.16c.73,1.87,1.41,3.78,2.16,5.64C17.31,19.9,18,18,18.69,16.14h2.12v7.7H19.23V18.71c-.69,1.7-1.32,3.43-2,5.13H15.88c-.66-1.71-1.33-3.41-2-5.13,0,1.72,0,3.43,0,5.15H12.31C12.32,21.26,12.32,18.71,12.32,16.14Z"/><path class="cls-3" d="M22.82,18.56a3.57,3.57,0,0,1,2.91-.36,1.88,1.88,0,0,1,1.4,1.62c.06.85,0,1.7,0,2.57l.54.12v1.28c-.56,0-1.33.16-1.72-.39a3.76,3.76,0,0,1-.13-.48,2.43,2.43,0,0,1-3.27.54,1.63,1.63,0,0,1,.05-2.65,5.86,5.86,0,0,1,3-.41c0-.29,0-.65-.2-.88a1.24,1.24,0,0,0-2,.4H22A2.13,2.13,0,0,1,22.82,18.56Zm1,2.88a.66.66,0,0,0-.06,1.18,1.41,1.41,0,0,0,1.36-.18,1.5,1.5,0,0,0,.48-1.11,5.33,5.33,0,0,0-1.78.11Z"/></svg>