<svg width="15" height="20" viewBox="0 0 15 20" fill="none" xmlns="http://www.w3.org/2000/svg">
<path d="M14.7594 2.6738C14.7594 0.534759 12.7273 0 11.123 0V0.320856C12.0856 0.320856 12.8342 0.641711 12.8342 1.39037C12.8342 1.81818 12.5134 2.45989 11.5508 2.45989C10.8021 2.45989 9.19786 2.03209 8.02139 1.60428C6.63102 1.06952 5.34759 0.641711 4.27807 0.641711C2.13904 0.641711 0.641711 2.24599 0.641711 4.06417C0.641711 5.66845 1.81818 6.20321 2.24599 6.41711L2.35294 6.20321C2.13904 5.9893 1.81818 5.7754 1.81818 5.13369C1.81818 4.70588 2.24599 3.95722 3.31551 3.95722C4.27807 3.95722 5.5615 4.38503 7.27273 4.91979C8.77005 5.34759 10.3743 5.66845 11.2299 5.7754V9.09091L9.62567 10.4813V10.5882L11.2299 11.9786V16.5775C10.3743 17.1123 9.41176 17.2193 8.55615 17.2193C6.95187 17.2193 5.5615 16.7914 4.38503 15.508L8.77005 13.369V5.9893L3.42246 8.34225C3.85027 6.95187 5.02674 5.9893 6.20321 5.34759L6.09626 5.02674C2.8877 5.88235 0 8.87701 0 12.5134C0 16.7914 3.52941 20 7.48663 20C11.7647 20 14.5455 16.5775 14.5455 13.0481H14.3315C13.6898 14.4385 12.7273 15.7219 11.5508 16.3636V11.9786L13.262 10.5882V10.4813L11.5508 9.09091V5.7754C13.1551 5.7754 14.7594 4.70588 14.7594 2.6738ZM5.45455 14.4385L4.17112 15.0802C3.42246 14.1176 2.99465 12.8342 2.99465 11.016C2.99465 10.2674 2.99465 9.41177 3.20856 8.77005L5.45455 7.80749V14.4385Z" fill="white"/>
</svg>
