<svg id="design" xmlns="http://www.w3.org/2000/svg" xmlns:xlink="http://www.w3.org/1999/xlink" viewBox="0 0 40 40"><defs><style>.cls-1{fill:#f4f4f4;}.cls-2{fill:url(#radial-gradient);}</style><radialGradient id="radial-gradient" cx="628.85" cy="-97.71" r="39.23" gradientTransform="matrix(0.61, 0, 0, -0.61, -364.7, -63.93)" gradientUnits="userSpaceOnUse"><stop offset="0" stop-color="#20c6b7"/><stop offset="1" stop-color="#4d9abf"/></radialGradient></defs><rect class="cls-1" y="0.01" width="40" height="40" rx="4"/><path id="path14" class="cls-2" d="M25.38,16.33h0a.07.07,0,0,1,0-.06l.48-3,2.27,2.27-2.36,1h0a1,1,0,0,0-.31-.24Zm3.29-.18,2.42,2.42a3.37,3.37,0,0,1,.85,1.05l0,.13L26.18,17.3h0s-.05,0-.05,0,0,0,.05,0h0Zm3.2,4.38a4.24,4.24,0,0,1-.78.89l-2.73,2.74-3.53-.74h0s-.07,0-.07,0a1,1,0,0,0-.41-.75,0,0,0,0,1,0-.05h0L25,18.48h0s0-.07,0-.07a1,1,0,0,0,.73-.42h0a.09.09,0,0,1,.07,0l6,2.55Zm-4.14,4.26-4.49,4.5L24,24.55h0v0l0,0h0a1.06,1.06,0,0,0,.43-.32s0,0,.06,0h0l3.16.65Zm-5.44,5.45-.51.51-5.6-8.11h0l0,0s0,0,0,0h0l.05-.07v0h0s0,0,0,0h0l6.2,1.28.05,0s0,0,0,0a1.11,1.11,0,0,0,.64.74s0,0,0,.05a0,0,0,0,0,0,0c-.08.47-.75,4.56-.93,5.67ZM21.23,31.3a2.3,2.3,0,0,1-.84.64,1.23,1.23,0,0,1-.76,0c-.29-.09-.54-.34-1-.85L13,25.46l1.47-2.28,0,0h.06a1.44,1.44,0,0,0,1,0s0,0,.05,0a0,0,0,0,0,0,0l5.62,8.18Zm-8.8-6.38-1.29-1.29,2.54-1.09h0a.07.07,0,0,1,.05,0,.44.44,0,0,0,.08.11h0s0,0,0,0l-1.4,2.19Zm-1.86-1.86L8.93,21.42a7.85,7.85,0,0,1-.61-.65l5,1h0s.07,0,.07,0,0,.05-.07.06h0ZM8,19.93a1.13,1.13,0,0,1,.06-.31c.09-.29.34-.54.84-1.05L11,16.48l2.89,4.19s0,0,0,.07a2,2,0,0,0-.25.33l0,0h0L8,19.93Zm3.55-4,2.81-2.81,2.08.89,1.43.61s0,0,0,0,0,0,0,0a1.23,1.23,0,0,0,.33,1.14s0,0,0,.07h0l-2.85,4.42a.05.05,0,0,1,0,0h-.06a1.27,1.27,0,0,0-.34-.05,1.87,1.87,0,0,0-.32,0h0a.05.05,0,0,1,0,0l-3-4.39ZM15,12.55l3.64-3.64c.5-.51.75-.76,1-.85a1.23,1.23,0,0,1,.76,0c.29.09.54.34,1,.85l.79.79-2.58,4s0,0,0,0h-.05a1.29,1.29,0,0,0-1.2.24.09.09,0,0,1-.07,0L15,12.55Zm7.82-2.31,2.39,2.39-.58,3.57h0v0s0,0,0,0a1.42,1.42,0,0,0-.35.17h0l0,0h0L20.5,14.9h0s-.05,0-.05-.05a1.44,1.44,0,0,0-.2-.57s0-.06,0-.09Zm-2.46,5.39,3.41,1.45s0,0,.05,0v0a.88.88,0,0,0,0,.16v.1s0,0-.05,0h0l-7.59,3.23h0s0,0,0-.07h0l2.8-4.34h0s0-.06.07-.06h0l.17,0a1.26,1.26,0,0,0,1.06-.57l0,0a.06.06,0,0,1,.06,0Zm-3.9,5.75,7.67-3.28h0a.5.5,0,0,0,.11.1h0s0,0,0,0h0l-.66,4.05h0s0,.07,0,.07a1.06,1.06,0,0,0-.86.53h0l0,0s0,0-.05,0l-6.12-1.26a3.18,3.18,0,0,0-.1-.33Z"/></svg>