<svg width="24" height="24" viewBox="0 0 24 24" fill="none" xmlns="http://www.w3.org/2000/svg">
<path d="M19.9424 4.08603C19.2902 3.43333 18.5146 2.91602 17.6604 2.56404C16.8063 2.21205 15.8906 2.03239 14.9664 2.03544C14.0421 2.03232 13.1263 2.21195 12.2722 2.56393C11.4181 2.91593 10.6425 3.43328 9.99034 4.08603L2.79412 11.2569C2.62501 11.4262 2.53028 11.6554 2.53076 11.8942C2.53125 12.133 2.62691 12.3619 2.79671 12.5304C2.9665 12.6989 3.19653 12.7933 3.43617 12.7929C3.67581 12.7924 3.90544 12.6971 4.07455 12.5278L11.2701 5.35692C12.2559 4.40196 13.5794 3.87216 14.9542 3.88209C16.3289 3.89203 17.6445 4.44092 18.6164 5.41002C19.5882 6.37913 20.1382 7.69054 20.1473 9.06062C20.1564 10.4307 19.624 11.7493 18.6652 12.7312L11.4696 19.9021C11.3 20.0708 11.2045 20.2997 11.2043 20.5386C11.204 20.7774 11.299 21.0065 11.4683 21.1755C11.6376 21.3446 11.8673 21.4397 12.107 21.4399C12.3466 21.4402 12.5765 21.3455 12.7462 21.1769L19.9424 14.004C21.2601 12.6877 22.0001 10.9043 22.0001 9.04503C22.0001 7.18567 21.2601 5.40229 19.9424 4.08603Z" fill="#4169E1"/>
<path d="M18.9342 9.04236C18.9342 8.26008 18.7014 7.49537 18.2652 6.84499C17.8291 6.19456 17.2092 5.68767 16.4839 5.38842C15.7586 5.08918 14.9606 5.01102 14.1907 5.16384C13.4209 5.31666 12.7138 5.69359 12.1589 6.24695L2.5981 15.775C2.43741 15.9455 2.34964 16.1717 2.35339 16.4055C2.35714 16.6394 2.45212 16.8626 2.61819 17.0278C2.78427 17.1931 3.0084 17.2874 3.24307 17.2908C3.47773 17.2941 3.7045 17.2064 3.8753 17.0459L13.3312 7.63336L13.3461 7.61596C13.3753 7.58303 13.4038 7.55141 13.4355 7.51782C13.4672 7.48428 13.5087 7.45327 13.5475 7.41715L13.5689 7.39778C13.975 7.05472 14.4939 6.87309 15.0261 6.8877C15.5583 6.90224 16.0664 7.11203 16.453 7.47676C16.8396 7.8415 17.0776 8.33561 17.1213 8.86436C17.165 9.39316 17.0115 9.91938 16.69 10.3423L16.6835 10.3514C16.626 10.4274 16.5634 10.4997 16.4964 10.5676C16.4262 10.6369 16.3516 10.7017 16.2729 10.7612L6.93552 20.0977C6.76615 20.2664 6.67101 20.4953 6.67101 20.734C6.67101 20.9727 6.76615 21.2017 6.93552 21.3705C7.10489 21.5393 7.3346 21.6341 7.57412 21.6341C7.81365 21.6341 8.04336 21.5393 8.2127 21.3705L17.7729 11.8424C18.1428 11.4754 18.4359 11.039 18.6352 10.5584C18.8345 10.0777 18.9362 9.56243 18.9342 9.04236Z" fill="#4169E1"/>
<path d="M14.0693 11.0053C13.5929 10.793 13.2118 10.4131 12.9988 9.93834L12.934 9.797L2.37251 20.3229C2.17044 20.5184 2.04173 20.7769 2.00787 21.0555C1.9907 21.1786 2.00171 21.3038 2.04007 21.422C2.07843 21.5402 2.14315 21.6481 2.22937 21.7378C2.30668 21.8121 2.398 21.8704 2.49805 21.9092C2.59811 21.9481 2.70491 21.9669 2.81227 21.9643C3.13073 21.9564 3.43322 21.8238 3.65424 21.5951L14.2112 11.0698L14.0693 11.0053Z" fill="#4169E1"/>
</svg>
