<svg width="25" height="24" viewBox="0 0 25 24" fill="none" xmlns="http://www.w3.org/2000/svg">
<path d="M6.72787 16.6804C6.63681 17.1535 6.49625 17.496 6.30621 17.6979C6.13398 17.882 5.93602 17.9711 5.70441 17.9711C5.36986 17.9711 5.11251 17.8285 4.89871 17.5217C4.6671 17.1891 4.54832 16.5932 4.54832 15.7499C4.54832 14.9066 4.66907 14.3642 4.90663 14.0376C5.12636 13.7347 5.39757 13.5882 5.73806 13.5882C5.9677 13.5882 6.16368 13.6654 6.33393 13.8218C6.51011 13.9861 6.63285 14.2336 6.69619 14.5602L6.75756 14.8809L8.52337 14.3662L8.46003 14.093C8.29968 13.4081 8.03837 12.8775 7.68204 12.5172C7.17922 12.0065 6.54772 11.7491 5.80339 11.7491C4.89673 11.7491 4.16427 12.0916 3.62384 12.7667C3.02798 13.513 2.7251 14.5483 2.7251 15.843C2.7251 17.1376 3.026 18.07 3.6179 18.8084C4.15438 19.4736 4.86308 19.8101 5.72619 19.8101C6.41311 19.8101 7.00105 19.5963 7.47418 19.1766C7.93939 18.7629 8.27394 18.1156 8.46795 17.2485L8.52337 16.9991L6.79517 16.33L6.72787 16.6804Z" fill="black"/>
<path d="M12.0253 11.7492C11.3839 11.7492 10.8257 11.9036 10.3684 12.2084C9.91307 12.5113 9.5409 12.9706 9.26574 13.5764C8.99453 14.1702 8.85596 14.9264 8.85596 15.8252C8.85596 17.0763 9.16478 18.0819 9.77252 18.8144C10.3248 19.4776 11.085 19.8121 12.0313 19.8121C12.9775 19.8121 13.7278 19.4716 14.2801 18.8025C14.8878 18.0701 15.1966 17.0545 15.1966 15.7797C15.1966 14.5048 14.9037 13.5249 14.3276 12.8261C13.7377 12.1095 12.9636 11.7472 12.0273 11.7472L12.0253 11.7492ZM12.9656 17.4722C12.7142 17.8088 12.4094 17.9711 12.0332 17.9711C11.6571 17.9711 11.3542 17.8048 11.0949 17.4643C10.8217 17.104 10.6812 16.5339 10.6812 15.7737C10.6812 15.0135 10.8158 14.4256 11.0791 14.0752C11.3285 13.7466 11.6393 13.5862 12.0313 13.5862C12.4232 13.5862 12.732 13.7446 12.9755 14.0693C13.2349 14.4157 13.3675 14.9799 13.3675 15.748C13.3675 16.5161 13.2309 17.1119 12.9636 17.4683L12.9656 17.4722Z" fill="black"/>
<path d="M19.0785 15.7045L18.2431 11.8719L15.5984 11.9016V19.6221H17.1821V13.8813L18.259 19.6894H19.8922L20.9433 14.2772V19.6221H22.725V11.9016L19.91 11.8719L19.0785 15.7045Z" fill="black"/>
<path d="M9.48557 9.38204C9.00642 10.0577 8.61619 10.3898 8.31486 10.3782C8.19137 10.3744 8.13703 10.2746 8.14938 10.0788C8.1642 9.83312 8.21854 9.50105 8.31486 9.0826L8.79155 6.98654C8.85576 6.67943 8.89034 6.44909 8.90022 6.29361C8.92986 5.78495 8.73227 5.5239 8.30992 5.50855C7.88017 5.49319 7.34421 5.6909 6.70946 6.10358C6.07224 6.51435 5.47947 7.04412 4.92869 7.68907L5.00526 7.28982L5.08182 6.90592L5.16086 6.44909C5.19297 6.2725 5.21273 6.13238 5.21767 6.02489C5.24236 5.61028 5.067 5.3953 4.69159 5.38378C4.41743 5.37419 4.02966 5.55654 3.53075 5.93083C3.02443 6.30321 2.76757 6.60265 2.75522 6.82914C2.75275 6.88289 2.79968 6.94623 2.896 7.02109C3.30847 6.39342 3.67648 6.08439 4.00497 6.09591C4.14328 6.10166 4.20749 6.22451 4.19268 6.46444C4.18527 6.6084 4.16057 6.79651 4.12105 7.02877L4.06424 7.32821L3.57274 9.94252L3.49865 10.3379L3.42208 10.7545L3.39244 10.9119L4.39026 10.9675L4.64219 9.24768C4.7805 8.501 5.15592 7.80807 5.7635 7.17465C6.37356 6.5393 6.95644 6.23219 7.51216 6.25138C7.75174 6.25906 7.86288 6.41262 7.84559 6.71014C7.83077 6.97118 7.77397 7.32245 7.6727 7.76393L7.36397 9.12483C7.24048 9.66804 7.17132 10.0961 7.15403 10.4051C7.12933 10.8274 7.2874 11.0443 7.62824 11.0558C7.93451 11.0654 8.33956 10.8811 8.84835 10.4992C9.35714 10.1172 9.61895 9.80432 9.63377 9.55863C9.63624 9.49721 9.58684 9.4377 9.48557 9.3782V9.38204Z" fill="#FF0000"/>
<path d="M14.8556 6.20081C14.8556 5.68256 14.5444 5.42151 13.922 5.42151C13.06 5.42151 12.1906 5.8841 11.3113 6.80929C10.4321 7.73447 9.99243 8.64814 9.99243 9.55029C9.99243 10.0494 10.1604 10.4601 10.4963 10.7807C10.8322 11.1012 11.2619 11.2625 11.7806 11.2625C12.6302 11.2625 13.5861 10.8805 14.4579 10.0954C14.784 9.7979 14.8531 9.57908 14.8531 9.45624C14.8531 9.3641 14.7889 9.2854 14.6629 9.21822C14.1171 10.0666 13.4181 10.4889 12.5611 10.4889C11.704 10.4889 11.2101 10.0129 11.1088 9.06274C12.1536 8.84584 13.0378 8.45811 13.7664 7.9053C14.4925 7.35058 14.8556 6.78241 14.8556 6.20081ZM12.9587 7.94753C12.4845 8.24889 11.9313 8.39861 11.299 8.39861C11.1755 8.39861 11.2891 8.37941 11.1409 8.3391C11.2372 7.72103 11.4645 7.20854 11.8177 6.80353C12.1733 6.39852 12.5685 6.19506 13.0057 6.19506C13.6132 6.19506 13.6676 6.42731 13.6676 6.8899C13.6676 7.29299 13.4305 7.64618 12.9563 7.94753H12.9587Z" fill="#FF0000"/>
<path d="M16.8977 8.76196L17.4262 6.58912H19.4787V6.0056H17.5374L17.693 5.52766L18.0116 4.18787L16.8631 4.40477L16.5964 5.46048L16.463 6.0056H14.9712V6.58912H16.3197L16.2234 6.97878L16.3 6.68318L15.8134 8.69478C15.6702 9.27446 15.5837 9.69483 15.559 9.95587C15.4899 10.6661 15.8134 11.0423 16.5346 11.0884C16.8952 11.1114 17.3398 10.9847 17.8708 10.7121C18.4018 10.4396 19.2144 9.84455 19.2366 9.62573L18.9896 9.43378C18.4858 9.93668 17.5473 10.3033 17.2607 10.3935C16.8977 10.5068 16.6581 10.2265 16.7026 9.78696C16.7248 9.5643 16.7915 9.22264 16.9026 8.76388L16.8977 8.76196Z" fill="#FF0000"/>
</svg>
