<svg id="design" xmlns="http://www.w3.org/2000/svg" xmlns:xlink="http://www.w3.org/1999/xlink" viewBox="0 0 40 40"><defs><style>.cls-1{fill:#f4f4f4;}.cls-2{fill:#ff5100;}.cls-3{fill:url(#linear-gradient);}.cls-4{fill:url(#linear-gradient-2);}.cls-5{fill:#ff8c44;}</style><linearGradient id="linear-gradient" x1="25.85" y1="-764.47" x2="31.57" y2="-752.22" gradientTransform="matrix(1, 0, 0, -1, -1, -738.71)" gradientUnits="userSpaceOnUse"><stop offset="0" stop-color="#d4202c"/><stop offset="0.1" stop-color="#dc3d29" stop-opacity="0.79"/><stop offset="0.2" stop-color="#e45926" stop-opacity="0.58"/><stop offset="0.32" stop-color="#ea7123" stop-opacity="0.4"/><stop offset="0.43" stop-color="#f08521" stop-opacity="0.25"/><stop offset="0.55" stop-color="#f4941f" stop-opacity="0.14"/><stop offset="0.68" stop-color="#f79f1e" stop-opacity="0.06"/><stop offset="0.82" stop-color="#f8a51d" stop-opacity="0.02"/><stop offset="1" stop-color="#f9a71d" stop-opacity="0"/></linearGradient><linearGradient id="linear-gradient-2" x1="2009.35" y1="-533.65" x2="2015.06" y2="-521.4" gradientTransform="matrix(-1, 0, 0, 1, 2024.5, 547.89)" xlink:href="#linear-gradient"/></defs><rect class="cls-1" y="0.01" width="40" height="40" rx="4"/><path class="cls-2" d="M29.76,13.35a2.26,2.26,0,0,0-2,1.15l0,.1L26,18.07l-2.23,4.39,1.46,2.87.08.16a2.21,2.21,0,0,0,1,.92,2.29,2.29,0,0,0,1-.92l.08-.16,4.37-8.62.1-.21a2.23,2.23,0,0,0-1.16-2.95,2.09,2.09,0,0,0-.89-.19Z"/><path class="cls-2" d="M16.25,17.52l-1.46-2.85-.08-.16a2.21,2.21,0,0,0-1-.92,2.21,2.21,0,0,0-1,.92l-.09.16L8.31,23.29l-.11.2a2.25,2.25,0,0,0,4,2l0-.09L14,21.93l2.22-4.39Z"/><path class="cls-3" d="M29.75,13.35a2.24,2.24,0,0,0-2,1.15l-.05.1L26,18.07l-2.23,4.39,1.46,2.87.08.16a2.27,2.27,0,0,0,1,.92,2.29,2.29,0,0,0,1-.92l.08-.16,4.39-8.62.1-.21a2.24,2.24,0,0,0-1.16-2.95,2.13,2.13,0,0,0-.89-.19Z"/><path class="cls-4" d="M10.25,26.65a2.26,2.26,0,0,0,2-1.14l0-.1L14,21.94l2.22-4.39-1.46-2.89-.08-.16a2.27,2.27,0,0,0-1-.92,2.35,2.35,0,0,0-1,.92l-.08.16L8.29,23.29l-.1.21a2.25,2.25,0,0,0,2.05,3.14Z"/><path class="cls-5" d="M16.25,17.52l-1.46-2.85-.08-.16a2.27,2.27,0,0,0-1-.92,1.92,1.92,0,0,1,.42-.16,2.22,2.22,0,0,1,.57-.07h3.05a2.26,2.26,0,0,1,2,1.14l.08.16,3.94,7.81,1.46,2.86.08.15a2.2,2.2,0,0,0,1,.93,2.28,2.28,0,0,1-1,.23H22.22a2.23,2.23,0,0,1-1.95-1.14l-.08-.15Z"/></svg>