<svg width="24" height="24" viewBox="0 0 24 24" fill="none" xmlns="http://www.w3.org/2000/svg">
<path fill-rule="evenodd" clip-rule="evenodd" d="M12.1053 9.94739C12.7896 9.94739 13.4152 10.1985 13.8951 10.6137L13.04 11.4935C12.7726 11.3148 12.4511 11.2105 12.1053 11.2105C11.5411 11.2105 11.0417 11.488 10.736 11.9138L9.69863 11.3799C10.1621 10.5266 11.066 9.94739 12.1053 9.94739ZM12.1053 14.5789C11.1888 14.5789 10.4434 13.847 10.4215 12.9358L9.38286 12.4012C9.37331 12.4943 9.36841 12.5887 9.36841 12.6842V18.1579C9.36841 19.6694 10.5937 20.8948 12.1053 20.8948C13.6168 20.8948 14.8421 19.6694 14.8421 18.1579V12.6842C14.8421 12.2406 14.7365 11.8216 14.5492 11.451L13.6931 12.3319C13.7555 12.5079 13.7895 12.6973 13.7895 12.8947C13.7895 13.8249 13.0354 14.5789 12.1053 14.5789ZM12.1053 13.7368C12.5703 13.7368 12.9474 13.3598 12.9474 12.8947C12.9474 12.4297 12.5703 12.0526 12.1053 12.0526C11.6402 12.0526 11.2632 12.4297 11.2632 12.8947C11.2632 13.3598 11.6402 13.7368 12.1053 13.7368Z" fill="#814DB1"/>
<path fill-rule="evenodd" clip-rule="evenodd" d="M7.68421 9.42102V10.343L6.61096 9.79063C6.62453 9.70452 6.63158 9.61624 6.63158 9.52632C6.63158 8.59615 5.87753 7.84211 4.94737 7.84211C4.0172 7.84211 3.26316 8.59615 3.26316 9.52632C3.26316 10.4565 4.0172 11.2105 4.94737 11.2105C5.40775 11.2105 5.82498 11.0258 6.129 10.7264L7.68421 11.5269V18.0526C7.68421 19.6223 6.41176 20.8947 4.84211 20.8947C3.27245 20.8947 2 19.6223 2 18.0526V9.42102C2 7.85137 3.27245 6.57892 4.84211 6.57892C6.41176 6.57892 7.68421 7.85137 7.68421 9.42102ZM4.94737 10.3684C5.41245 10.3684 5.78947 9.9914 5.78947 9.52632C5.78947 9.06123 5.41245 8.68421 4.94737 8.68421C4.48229 8.68421 4.10526 9.06123 4.10526 9.52632C4.10526 9.9914 4.48229 10.3684 4.94737 10.3684Z" fill="#363C51"/>
<path fill-rule="evenodd" clip-rule="evenodd" d="M16.5264 5.73685C16.5264 4.22533 17.7517 3 19.2632 3C20.7747 3 22.0001 4.22533 22.0001 5.73684V18.1579C22.0001 19.6694 20.7747 20.8947 19.2632 20.8947C17.7517 20.8947 16.5264 19.6694 16.5264 18.1579V9.41648L18.5981 7.28467C18.8021 7.37244 19.027 7.42105 19.2632 7.42105C20.1933 7.42105 20.9474 6.66701 20.9474 5.73684C20.9474 4.80668 20.1933 4.05263 19.2632 4.05263C18.333 4.05263 17.5789 4.80668 17.5789 5.73684C17.5789 6.04677 17.6627 6.33715 17.8087 6.58659L16.5264 7.90611V5.73685Z" fill="#4E70B5"/>
</svg>
