<svg width="40" height="40" viewBox="0 0 40 40" fill="none" xmlns="http://www.w3.org/2000/svg">
<rect width="40" height="40" rx="4" fill="#F4F4F4"/>
<path fill-rule="evenodd" clip-rule="evenodd" d="M21.0105 10.1453L20.5974 15.2072C20.403 15.1869 20.2085 15.1748 20.0101 15.1748C19.7589 15.1748 19.5159 15.191 19.277 15.2314L19.042 12.7754C19.038 12.6985 19.0987 12.6297 19.1757 12.6297H19.5929L19.3944 10.1493C19.3863 10.0724 19.4471 10.0037 19.52 10.0037H20.8809C20.9619 10.0037 21.0226 10.0724 21.0105 10.1453ZM18.9246 15.2921C18.4872 15.3892 18.07 15.5511 17.6852 15.7615L16.624 13.5361C16.5916 13.4713 16.624 13.3863 16.6969 13.358L17.0898 13.2164L16.0529 10.9505C16.0165 10.8817 16.0529 10.8008 16.1218 10.7725L17.4017 10.3031C17.4746 10.2788 17.5515 10.3233 17.5758 10.3921C17.5799 10.3921 18.9246 15.2921 18.9246 15.2921ZM14.4368 11.8043L17.3814 15.9476C17.0088 16.1904 16.6686 16.4777 16.381 16.8135L14.6151 15.0817C14.5624 15.0251 14.5664 14.9361 14.6232 14.8875L14.9431 14.6205L13.1934 12.8482C13.1367 12.7915 13.1448 12.7025 13.2055 12.654L14.2424 11.78C14.3032 11.7314 14.3882 11.7436 14.4328 11.8043H14.4368ZM16.1542 17.0887C15.8868 17.4407 15.6722 17.8291 15.5102 18.2459L13.2622 17.2182C13.1934 17.1898 13.165 17.1008 13.2015 17.0361L13.4121 16.6719L11.1561 15.6077C11.0913 15.5754 11.0629 15.4904 11.0994 15.4257L11.7798 14.2482C11.8203 14.1794 11.9054 14.1592 11.9702 14.2037L16.1542 17.0887ZM10.3015 17.4002C10.3136 17.3193 10.3906 17.2748 10.4635 17.295L15.3846 18.5777C15.2591 18.9904 15.1861 19.4315 15.174 19.8846L12.7114 19.6864C12.6344 19.6823 12.5777 19.6095 12.5939 19.5326L12.6669 19.1199L10.18 18.8852C10.103 18.8812 10.0544 18.8083 10.0625 18.7315L10.2974 17.3921L10.3015 17.4002ZM10.1111 20.7222L15.178 20.2569C15.1983 20.706 15.2874 21.143 15.4292 21.5558L13.0476 22.2112C12.9747 22.2274 12.8977 22.1829 12.8856 22.106L12.8167 21.6933L10.4027 22.3205C10.3298 22.3367 10.2529 22.2922 10.2407 22.2153L10.0017 20.876C9.98959 20.7991 10.0422 20.7263 10.1192 20.7222H10.1111ZM10.905 24.2425C10.8645 24.1737 10.8928 24.0928 10.9617 24.0604L15.5547 21.8835C15.7248 22.2922 15.9598 22.6766 16.2392 23.0205L14.2262 24.4529C14.1655 24.4974 14.0764 24.4812 14.0359 24.4124L13.8252 24.0483L11.7717 25.4644C11.711 25.509 11.6219 25.4847 11.5854 25.4199C11.5854 25.4199 10.9009 24.2425 10.905 24.2425ZM17.507 24.1251L16.1056 26.1564C16.061 26.2251 15.9719 26.2332 15.9112 26.1847L15.5871 25.9136L14.1412 27.9448C14.0966 28.0055 14.0116 28.0176 13.9508 27.9691L12.9058 27.0951C12.8451 27.0465 12.841 26.9575 12.8977 26.9009L16.4701 23.2876C16.7779 23.6072 17.1262 23.8905 17.507 24.1251ZM15.7653 29.0899C15.6924 29.0616 15.66 28.9766 15.6924 28.9119L17.8107 24.291C18.1996 24.4933 18.6208 24.6431 19.0623 24.724L18.4385 27.1113C18.4223 27.1841 18.3373 27.2286 18.2684 27.2003L17.8715 27.0587L17.2113 29.4622C17.187 29.535 17.11 29.5795 17.0371 29.5512L15.7572 29.0818L15.7653 29.0899ZM20.002 24.8292C20.2531 24.8292 20.5002 24.809 20.7391 24.7725L20.97 27.2246C20.9781 27.3055 20.9173 27.3702 20.8363 27.3702H20.4192L20.6217 29.8506C20.6338 29.9315 20.5731 29.9963 20.4921 29.9963H19.1312C19.0582 29.9963 18.9975 29.9315 19.0015 29.8506L19.4147 24.7887C19.6091 24.817 19.8035 24.8292 20.002 24.8292ZM22.1932 15.6927C21.8044 15.4985 21.3872 15.3488 20.9416 15.2598L21.5654 12.8725C21.5897 12.7996 21.6666 12.7551 21.7396 12.7834L22.1324 12.9291L22.7967 10.5256C22.8169 10.4528 22.8939 10.4083 22.9668 10.4366L24.2467 10.9019C24.3196 10.9303 24.352 11.0071 24.3196 11.08L22.1932 15.6927ZM27.1062 13.095L23.5338 16.7083C23.2301 16.3846 22.8858 16.1014 22.5051 15.8707L23.9065 13.8395C23.951 13.7748 24.0361 13.7586 24.1009 13.8112L24.4209 14.0823L25.8668 12.0511C25.9114 11.9904 26.0005 11.9782 26.0572 12.0268L27.1022 12.9008C27.1629 12.9493 27.1629 13.0384 27.1062 13.095ZM29.0382 15.9436L24.4452 18.1205C24.2669 17.7078 24.0361 17.3234 23.7607 16.9794L25.7737 15.547C25.8344 15.4985 25.9235 15.5187 25.96 15.5875L26.1746 15.9476L28.2241 14.5314C28.2849 14.495 28.374 14.5112 28.4145 14.5759L29.099 15.7534C29.1354 15.8181 29.1152 15.9031 29.0423 15.9355L29.0382 15.9436ZM29.7673 17.7806L29.9981 19.1199C30.0103 19.1968 29.9617 19.2656 29.8847 19.2777L24.8178 19.7471C24.7975 19.2939 24.7084 18.8609 24.5667 18.4482L26.9483 17.7927C27.0212 17.7725 27.0981 17.8211 27.1103 17.8979L27.1791 18.3106L29.5931 17.6835C29.666 17.6673 29.743 17.7118 29.7551 17.7887L29.7673 17.7806ZM29.5324 22.6887L24.6112 21.406C24.7408 20.9893 24.8137 20.5523 24.8259 20.0951L27.2885 20.2933C27.3654 20.3055 27.414 20.3742 27.4059 20.4511L27.333 20.8598L29.8159 21.0945C29.8969 21.1066 29.9455 21.1714 29.9333 21.2523L29.7025 22.5876C29.6903 22.6644 29.6134 22.7089 29.5405 22.6928L29.5324 22.6887ZM28.2241 25.7477C28.1877 25.8165 28.0985 25.8327 28.0337 25.7922L23.8498 22.9072C24.1171 22.5552 24.3318 22.1667 24.4938 21.75L26.7417 22.7777C26.8105 22.8101 26.8389 22.8951 26.8024 22.9639L26.5918 23.324L28.8479 24.3881C28.9127 24.4205 28.941 24.5055 28.9046 24.5702L28.2241 25.7477ZM22.6185 24.0442C22.9911 23.8055 23.3232 23.5101 23.6189 23.1783L25.3808 24.9101C25.4375 24.9668 25.4375 25.0558 25.3767 25.1043L25.0527 25.3714L26.8065 27.1437C26.8551 27.2003 26.8551 27.2893 26.7943 27.3379L25.7534 28.2078C25.6967 28.2604 25.6076 28.2483 25.563 28.1876L22.6225 24.0442H22.6185ZM22.5982 29.6847C22.5253 29.713 22.4484 29.6685 22.4241 29.5957L21.0794 24.6997C21.5168 24.5985 21.934 24.4407 22.3187 24.2263L23.3799 26.4558C23.4164 26.5286 23.3799 26.6095 23.307 26.6338L22.9141 26.7754L23.9551 29.0413C23.9875 29.1142 23.9551 29.1911 23.8822 29.2194L22.6023 29.6847H22.5982Z" fill="black"/>
</svg>
