<svg id="design" xmlns="http://www.w3.org/2000/svg" viewBox="0 0 40 40"><defs><style>.cls-1{fill:#ce2027;}.cls-2{fill:#fff;}</style></defs><rect class="cls-1" y="0.01" width="40" height="40" rx="4"/><path class="cls-2" d="M32,20a3.27,3.27,0,0,1-1,2.33Q26.65,26.64,22.32,31a3.21,3.21,0,0,1-1.78,1,3.09,3.09,0,0,1-2.79-.9L9.21,22.51a4.31,4.31,0,0,1-.85-1.05,3.13,3.13,0,0,1,.56-3.68l8.87-8.86a3.13,3.13,0,0,1,4.39,0l4.43,4.42c1.49,1.49,3,3,4.46,4.46A3.15,3.15,0,0,1,32,20Zm-4.92,0A7.08,7.08,0,1,0,20,27.08,7.09,7.09,0,0,0,27.08,20Z"/><path class="cls-2" d="M24.23,20A4.23,4.23,0,1,1,20,15.77,4.24,4.24,0,0,1,24.23,20Z"/></svg>