<svg id="design" xmlns="http://www.w3.org/2000/svg" viewBox="0 0 40 40"><defs><style>.cls-1{fill:#f4f4f4;}.cls-2{fill:#3b4550;}.cls-3{fill:#64bc4f;}</style></defs><rect class="cls-1" y="0.01" width="40" height="40" rx="4"/><path class="cls-2" d="M15.14,19.67l1.76,1V18.39l4.8-2.8L20,14.52l-4.81,2.83v2.32Zm7.58-3.47-1.76,1,2,1.18,0,5.41,1.76-1V17.35ZM22,24.44v-2l-2,1.18-4.79-2.8v2l4.81,2.8Z"/><path class="cls-3" d="M20,8l4,2.32L13.46,16.53v5.35L9.65,19.65V14ZM30.35,26l-4,2.37V16.45l-4.81-2.83,4-2.34,4.76,2.77ZM9.65,26v-4.4L20,27.51l4.73-2.83,0,4.56L20.06,32Z"/></svg>