<svg width="18" height="18" viewBox="0 0 18 18" fill="none" xmlns="http://www.w3.org/2000/svg">
<path d="M10.2625 11.4467C10.898 11.291 11.51 11.0201 12.0732 10.6393C12.4995 10.3499 12.6285 9.74391 12.3595 9.28349C12.0905 8.82309 11.5273 8.68429 11.0994 8.97373C9.82197 9.83868 8.17802 9.83698 6.90062 8.97373C6.47274 8.68429 5.90953 8.82309 5.64052 9.28349C5.37151 9.7422 5.50051 10.3499 5.92684 10.6393C6.49003 11.0201 7.10198 11.291 7.73754 11.4467L5.99606 13.3222C5.63897 13.7064 5.63897 14.3276 5.99606 14.7118C6.1754 14.9031 6.40822 14.9996 6.64105 14.9996C6.87545 14.9996 7.10828 14.9031 7.28763 14.7118L9.00078 12.8685L10.7139 14.7118C11.0711 15.0961 11.6484 15.0961 12.0055 14.7118C12.3626 14.3276 12.3626 13.7047 12.0055 13.3222L10.2625 11.4467ZM9.00078 3.96686C9.71344 3.96686 10.2924 4.58976 10.2924 5.35653C10.2924 6.12161 9.71344 6.74451 9.00078 6.74451C8.28973 6.74451 7.70922 6.12161 7.70922 5.35653C7.70922 4.58976 8.28973 3.96686 9.00078 3.96686ZM9.00078 8.70968C10.7203 8.70968 12.1188 7.20491 12.1188 5.35651C12.1188 3.50477 10.7203 2 9.00078 2C7.28132 2 5.88281 3.50477 5.88281 5.35484C5.88281 7.20491 7.28132 8.70968 9.00078 8.70968Z" fill="white"/>
</svg>
