<svg width="24" height="24" viewBox="0 0 24 24" fill="none" xmlns="http://www.w3.org/2000/svg">
<path fill-rule="evenodd" clip-rule="evenodd" d="M18.6758 19.7621C18.7673 19.9449 18.6343 20.1601 18.4299 20.1601H2.81979C2.61536 20.1601 2.4824 19.9449 2.57382 19.7621L10.3789 4.15202C10.4802 3.94933 10.7695 3.94933 10.8708 4.15202L14.3717 11.1539H12.8344L10.6248 6.73468L4.59963 18.7851H16.65L15.6532 16.7913H17.1905L18.6758 19.7621ZM16.8467 16.1038H15.3094L14.2094 13.9039H15.7467L16.8467 16.1038ZM15.403 13.2164L14.7155 11.8414H13.1782L13.8657 13.2164H15.403Z" fill="#7CB658"/>
<path fill-rule="evenodd" clip-rule="evenodd" d="M10.625 10.4664V9.77887H23V10.4664H10.625ZM20.9375 12.5289H10.625V11.8414H20.9375V12.5289ZM19.5625 15.4164H10.625V14.7289H19.5625V15.4164Z" fill="#3F4157"/>
<path d="M1 17.0865V9.4837C1 9.33503 1.15646 9.23833 1.28944 9.30482L8.89223 13.1062C9.03964 13.1799 9.03964 13.3903 8.89223 13.464L1.28944 17.2654C1.15646 17.3319 1 17.2352 1 17.0865Z" fill="#A4A4A5"/>
</svg>
