<svg id="design" xmlns="http://www.w3.org/2000/svg" viewBox="0 0 40 40"><defs><style>.cls-1{fill:#f4f4f4;}.cls-2{fill:#005794;}.cls-3{fill:#f16647;}</style></defs><rect class="cls-1" y="0.01" width="40" height="40" rx="4"/><path class="cls-2" d="M26.23,10.45s4,.28,2.41,4.79c-1.16,3.08-5.51,7.64-11.42,9.26a12.28,12.28,0,0,0,2.2,3.57,26.23,26.23,0,0,0,8.48-5.86c3.68-3.82,4.84-7.2,3.66-9.82C30.91,11.21,29.08,10.26,26.23,10.45Z"/><path class="cls-2" d="M16.41,21.15a14.52,14.52,0,0,0,9-5.79c1.85-2.9.58-4.68-3.45-3.78-2.9.67-7.67,3.66-10.82,7.41C8.47,22.33,7.84,24.32,8,26.45c.14,1.2,1.37,3.08,4.33,3.12-1.62-2.36-1.5-5.83-.74-8.22s3.36-6.85,8-7.17c1.53,0,2.53,1.4.86,3.84A12.26,12.26,0,0,1,16.41,21.15Z"/><path class="cls-3" d="M16.11,16.35A12.64,12.64,0,0,0,17.9,28.69a11.25,11.25,0,0,1-3.48.88S9.05,23.11,16.11,16.35Z"/></svg>