<svg id="design" xmlns="http://www.w3.org/2000/svg" viewBox="0 0 40 40"><defs><style>.cls-1{fill:#3a3a3c;}.cls-2{fill:#fff;}</style></defs><rect class="cls-1" y="0.01" width="40" height="40" rx="4"/><path class="cls-2" d="M13.2,11.67H10.54L11.3,8h.28c3.65,0,7.3,0,11,0a14,14,0,0,1,4.76.71,5.75,5.75,0,0,1,2.82,2A5.3,5.3,0,0,1,31,13.43a9.53,9.53,0,0,1-.85,5.07,9,9,0,0,1-5.31,4.75,15.1,15.1,0,0,1-5.12.83c-1.21,0-2.43,0-3.64,0-.2,0-.28,0-.32.25-.51,2.47-1,4.93-1.56,7.4,0,.09,0,.17-.06.27H8.91Zm3.35,9,.08,0h.51A19.4,19.4,0,0,0,21,20.56a5.44,5.44,0,0,0,3-1.48,6.12,6.12,0,0,0,1.64-5.17,2.16,2.16,0,0,0-1.3-1.79,5.06,5.06,0,0,0-2-.41c-1.19,0-2.39,0-3.58-.05-.23,0-.3.08-.35.29-.46,2.19-.93,4.39-1.4,6.58C16.85,19.25,16.7,20,16.55,20.71Z"/></svg>