<svg id="design" xmlns="http://www.w3.org/2000/svg" viewBox="0 0 40 40"><defs><style>.cls-1{fill:#ef4154;}.cls-2{fill:#fff;}</style></defs><rect class="cls-1" y="0.01" width="40" height="40" rx="4"/><path class="cls-2" d="M29.77,9.3H10.32A2.27,2.27,0,0,0,8,11.54v7.2a12,12,0,0,0,24,0v-7.2A2.22,2.22,0,0,0,29.77,9.3Zm-2.92,8.93-5.72,5.39a1.51,1.51,0,0,1-1.1.48,1.56,1.56,0,0,1-1.17-.48l-5.63-5.39a1.69,1.69,0,0,1,0-2.35,1.65,1.65,0,0,1,2.32,0l4.5,4.33,4.59-4.33a1.54,1.54,0,0,1,2.23,0,1.78,1.78,0,0,1,0,2.35Z"/><path class="cls-1" d="M26.85,18.23l-5.72,5.39a1.51,1.51,0,0,1-1.1.48,1.56,1.56,0,0,1-1.17-.48l-5.63-5.39a1.69,1.69,0,0,1,0-2.35,1.65,1.65,0,0,1,2.32,0l4.5,4.33,4.59-4.33a1.54,1.54,0,0,1,2.23,0,1.78,1.78,0,0,1,0,2.35Z"/></svg>