<svg width="24" height="24" viewBox="0 0 24 24" fill="none" xmlns="http://www.w3.org/2000/svg">
<path d="M2.66675 12C2.66675 6.84533 6.84542 2.66666 12.0001 2.66666C17.1547 2.66666 21.3334 6.84533 21.3334 12C21.3334 17.1546 17.1547 21.3333 12.0001 21.3333C10.7131 21.3333 9.48704 21.0729 8.37162 20.6018L10.7495 15.1667C11.3473 15.9035 12.2563 16.3555 13.2445 16.3555C15.65 16.3555 17.6001 14.4055 17.6001 12V11.3778C17.6001 8.62862 15.3715 6.39999 12.6223 6.39999H11.3779C8.62871 6.39999 6.40008 8.62862 6.40008 11.3778V12C6.40008 13.1151 6.81997 14.1337 7.50929 14.9038L8.43657 14.0739C7.94356 13.5231 7.64453 12.7972 7.64453 12V11.3778C7.64453 9.31591 9.316 7.64443 11.3779 7.64443H12.6223C14.6842 7.64443 16.3556 9.31591 16.3556 11.3778V12C16.3556 13.7182 14.9627 15.1111 13.2445 15.1111C12.3976 15.1111 11.6457 14.5692 11.3779 13.7657L11.3712 13.7456L12.5702 11.0049L11.4301 10.5061L7.25863 20.041C4.51019 18.4168 2.66675 15.4237 2.66675 12Z" fill="white"/>
</svg>
