<svg id="design" xmlns="http://www.w3.org/2000/svg" viewBox="0 0 40 40"><defs><style>.cls-1{fill:#ff6c37;}.cls-2{fill:#fff;}</style></defs><rect class="cls-1" y="0.01" width="40" height="40" rx="4"/><path class="cls-2" d="M29.5,12.67A12,12,0,1,0,27.33,29.5h0A12,12,0,0,0,29.5,12.67Z"/><path class="cls-1" d="M24.05,15.65,19,20.75l-1.43-1.47c5-5,5.48-4.53,6.49-3.63Z"/><path class="cls-2" d="M19,20.89a.22.22,0,0,1-.12-.05L17.43,19.4a.18.18,0,0,1,0-.25c4.91-4.91,5.58-4.68,6.74-3.63a.16.16,0,0,1,.06.13.18.18,0,0,1-.05.13l-5.06,5.06a.21.21,0,0,1-.13.05Zm-1.18-1.61L19,20.46l4.8-4.8a1.07,1.07,0,0,0-1.42-.24C21.5,15.81,20.1,17,17.81,19.28Z"/><path class="cls-1" d="M20.44,22.16l-1.38-1.41,5.06-5c1.36,1.33-.66,3.55-3.68,6.41Z"/><path class="cls-2" d="M20.44,22.34a.33.33,0,0,1-.12-.05l-1.41-1.38a.22.22,0,0,1,0-.16.15.15,0,0,1,0-.13L24,15.56a.19.19,0,0,1,.26,0,1.56,1.56,0,0,1,.5,1.19c0,1.35-1.54,3.05-4.16,5.53a.31.31,0,0,1-.13.06Zm-1.12-1.59,1.13,1.13c2-1.89,3.91-3.84,3.92-5.16a1.13,1.13,0,0,0-.26-.77Z"/><path class="cls-1" d="M17.6,19.31l1,1a.06.06,0,0,1,0,.08h0l-2.11.45a.22.22,0,0,1-.22-.11.19.19,0,0,1,0-.23l1.23-1.22A.1.1,0,0,1,17.6,19.31Z"/><path class="cls-2" d="M16.44,21.05a.42.42,0,0,1-.33-.19.38.38,0,0,1,.07-.45l1.22-1.23a.22.22,0,0,1,.32,0l1,1a.22.22,0,0,1,.06.22.25.25,0,0,1-.17.16L16.5,21Zm1.12-1.52-1.13,1.13,1.87-.4Z"/><path class="cls-1" d="M26.74,12.84a1.94,1.94,0,1,0-.35,3.06L25,14.54Z"/><path class="cls-2" d="M25.39,16.36A2.15,2.15,0,0,1,23.45,15a2.11,2.11,0,0,1,3.45-2.29.16.16,0,0,1,.06.13.18.18,0,0,1-.06.13l-1.62,1.53,1.23,1.21a.18.18,0,0,1,0,.28,2.24,2.24,0,0,1-1.1.33Zm0-3.88a1.76,1.76,0,0,0-1.62,1.08,1.76,1.76,0,0,0,2.32,2.29l-1.18-1.18a.18.18,0,0,1-.06-.13.13.13,0,0,1,.06-.12l1.56-1.57a1.76,1.76,0,0,0-1.08-.37Z"/><path class="cls-1" d="M26.77,12.87l-1.71,1.7,1.36,1.36a3.37,3.37,0,0,0,.38-.28A2,2,0,0,0,26.77,12.87Z"/><path class="cls-2" d="M26.39,16.08a.17.17,0,0,1-.12,0l-1.36-1.36a.18.18,0,0,1-.06-.13.14.14,0,0,1,.06-.12l1.7-1.67a.17.17,0,0,1,.25-.05l.05.05a2.1,2.1,0,0,1,0,3l0,0a2.44,2.44,0,0,1-.4.32.25.25,0,0,1-.12,0Zm-1.1-1.54,1.13,1.13.22-.18a1.79,1.79,0,0,0,.52-1.25,1.7,1.7,0,0,0-.43-1.14Z"/><path class="cls-1" d="M24.26,15.86a.72.72,0,0,0-1,0l-4.53,4.52.75.76,4.79-4.2a.76.76,0,0,0,.23-.55.75.75,0,0,0-.24-.53Z"/><path class="cls-2" d="M19.44,21.32a.22.22,0,0,1-.12-.05l-.76-.76a.18.18,0,0,1,0-.25l4.53-4.51a.92.92,0,0,1,1.3,0,.9.9,0,0,1,.27.68.94.94,0,0,1-.31.66l-4.79,4.2a.27.27,0,0,1-.12,0Zm-.53-.94.5.51,4.7-4.09a.63.63,0,0,0,.19-.4.57.57,0,0,0-1-.41Z"/><path class="cls-1" d="M15.22,25.53a.09.09,0,0,0,0,.12l.2.87a.25.25,0,0,1-.13.26.24.24,0,0,1-.28,0l-1.37-1.32,4.27-4.3h1.48l1,1A23.11,23.11,0,0,1,15.22,25.53Z"/><path class="cls-2" d="M15.13,27a.44.44,0,0,1-.3-.13l-1.31-1.31a.18.18,0,0,1-.06-.13.13.13,0,0,1,.06-.12L17.82,21a.11.11,0,0,1,.09-.05H19.4a.13.13,0,0,1,.12,0l1,1a.14.14,0,0,1,.05.14.18.18,0,0,1-.06.13l-.08.07a24.89,24.89,0,0,1-5.13,3.29l.19.81a.43.43,0,0,1-.32.51l-.09,0Zm-1.22-1.57,1.18,1.19a.06.06,0,0,0,.08,0,.08.08,0,0,0,0-.07l-.2-.87a.28.28,0,0,1,.15-.32,24.8,24.8,0,0,0,5-3.22l-.82-.82H18Z"/><path class="cls-1" d="M12.61,26.46l1-1L15.15,27l-2.45-.17a.2.2,0,0,1-.18-.16.18.18,0,0,1,.09-.21Z"/><path class="cls-2" d="M15.18,27.15,12.74,27a.4.4,0,0,1-.32-.25.37.37,0,0,1,.08-.39l1-1a.18.18,0,0,1,.25,0l1.53,1.53a.18.18,0,0,1,0,.2.39.39,0,0,1-.1.08Zm-2.44-.56,2,.13-1.1-1Z"/><path class="cls-1" d="M19.53,21.25l-2,.31,1.17-1.16Z"/><path class="cls-2" d="M17.51,21.75a.18.18,0,0,1-.16-.1.15.15,0,0,1,0-.2l1.16-1.17a.19.19,0,0,1,.26,0l.85.85a.19.19,0,0,1,0,.18.2.2,0,0,1-.14.13l-2,.31Zm1.17-1.09-.65.65,1.12-.17Z"/><path class="cls-1" d="M19.53,21.25l-1.41.18a.18.18,0,0,1-.17-.3l.73-.73Z"/><path class="cls-2" d="M18.08,21.62a.39.39,0,0,1-.32-.19.35.35,0,0,1,.06-.43l.73-.73a.19.19,0,0,1,.26,0l.85.85a.17.17,0,0,1,0,.25.24.24,0,0,1-.11.06l-1.4.18Zm0-.37,1.06-.13-.47-.47-.6.6ZM26.78,14a.14.14,0,0,0-.19-.06.1.1,0,0,0-.07.08.14.14,0,0,0,0,.11.43.43,0,0,1-.05.45.11.11,0,0,0,0,.09.13.13,0,0,0,0,.1.11.11,0,0,0,.08,0,.17.17,0,0,0,.13,0,.69.69,0,0,0,.09-.73Z"/></svg>