<svg id="design" xmlns="http://www.w3.org/2000/svg" viewBox="0 0 40 40"><defs><style>.cls-1{fill:#017737;}.cls-2{fill:#fff;}</style></defs><rect class="cls-1" y="0.01" width="40" height="40" rx="4"/><path class="cls-2" d="M21.86,8a6.49,6.49,0,0,0-5,2c-.09-.72-.56-1.64-2.4-1.64h-4v4.17h1.64c.27,0,.36.09.36.36V32h4.75V24.33a6.35,6.35,0,0,0,4.37,1.61c4.65,0,7.9-3.67,7.9-9s-3.07-9-7.65-9m-1,13.79c-2.56,0-3.73-2.44-3.73-4.73,0-3.59,2-4.87,3.79-4.87,2.25,0,3.77,1.93,3.77,4.83,0,3.32-1.95,4.77-3.83,4.77"/></svg>