<svg id="design" xmlns="http://www.w3.org/2000/svg" viewBox="0 0 40 40"><defs><style>.cls-1{fill:#2eaee4;}.cls-2{fill:#fff;}.cls-3,.cls-4{fill:none;stroke:#2eaee4;stroke-linecap:round;stroke-linejoin:round;}.cls-3{stroke-width:0.64px;}.cls-4{stroke-width:0.66px;}</style></defs><rect class="cls-1" width="40" height="40" rx="4"/><g id="Layer_2" data-name="Layer 2"><g id="Layer_1-2" data-name="Layer 1-2"><circle class="cls-2" cx="20" cy="20" r="12"/><path class="cls-3" d="M17.51,30.21v-8H13.84l-2.41-2.35"/><path class="cls-4" d="M14.63,20.32,16.3,22"/><path class="cls-3" d="M19.71,28.19V19.51l-5.1-5.08M22.1,29.94V22.73l2.08-2h4M19.94,21h1.54l5.89-5.88"/><path class="cls-4" d="M22.13,25.51l1.95-2m1.31-3,1.22-1.23"/><path class="cls-3" d="M19.12,19.17H16.35L14.13,17"/><path class="cls-4" d="M18.32,17.81l1.95-2"/><circle class="cls-4" cx="14.21" cy="13.81" r="0.55"/><circle class="cls-4" cx="13.67" cy="16.32" r="0.55"/><circle class="cls-4" cx="20.84" cy="15.31" r="0.55"/><circle class="cls-4" cx="24.9" cy="13.81" r="0.55"/><circle class="cls-4" cx="20.78" cy="12.32" r="0.55"/><circle class="cls-4" cx="27.89" cy="14.47" r="0.55"/><circle class="cls-4" cx="27.17" cy="18.71" r="0.55"/><circle class="cls-4" cx="24.6" cy="23.07" r="0.55"/><circle class="cls-4" cx="14.98" cy="24.75" r="0.55"/><circle class="cls-4" cx="29.08" cy="20.68" r="0.55"/><circle class="cls-4" cx="10.92" cy="19.25" r="0.55"/><circle class="cls-4" cx="14.09" cy="19.79" r="0.55"/><path class="cls-4" d="M17.4,27.23l-1.89-1.9m1.18-9,3.51-3.51"/><path class="cls-3" d="M19.12,17.24h2.54l2.75-2.81"/></g></g></svg>