<svg id="design" xmlns="http://www.w3.org/2000/svg" viewBox="0 0 40 40"><defs><style>.cls-1{fill:#b92b27;}.cls-2{fill:#fff;}</style></defs><rect class="cls-1" y="0.01" width="40" height="40" rx="4"/><path class="cls-2" d="M31.61,27H30a1.75,1.75,0,0,1-1.77,1.66c-1.1,0-1.93-.77-2.66-1.92a10.24,10.24,0,0,0,4-8.2,10.63,10.63,0,1,0-7.89,10.13h0c1.05,1.8,2.45,3.34,5.11,3.34A4.63,4.63,0,0,0,31.61,27Zm-7.78-3.08a5.39,5.39,0,0,0-4.89-2.79,5.61,5.61,0,0,0-3.66,1.21l.65,1.29A2.71,2.71,0,0,1,17,23.42c1.91,0,2.89,1.66,3.72,3.29h-.08a6.46,6.46,0,0,1-1.75.22c-4,0-5.76-2.84-5.76-8.39s1.73-8.42,5.76-8.42,5.83,2.83,5.83,8.42A13.2,13.2,0,0,1,23.83,23.92Z"/></svg>