<svg width="18" height="18" viewBox="0 0 18 18" fill="none" xmlns="http://www.w3.org/2000/svg">
<path d="M15.9998 9.08981C16.0019 9.22869 15.9841 9.36732 15.9462 9.50139C15.9084 9.63546 15.8511 9.76395 15.776 9.88256C15.7011 10.0012 15.6091 10.1091 15.503 10.2032C15.3968 10.2972 15.2775 10.3763 15.1485 10.4381C15.1514 10.4751 15.1538 10.5124 15.1551 10.5496C15.1583 10.6239 15.1583 10.6983 15.1551 10.7726C15.1538 10.8099 15.1514 10.8472 15.1485 10.8842C15.1485 13.155 12.4054 15 9.02122 15C5.63701 15 2.89391 13.155 2.89391 10.8842C2.89102 10.8472 2.88866 10.8099 2.88735 10.7726C2.88418 10.6983 2.88418 10.6239 2.88735 10.5496C2.88866 10.5124 2.89102 10.4751 2.89391 10.4381C2.6918 10.3485 2.51228 10.2176 2.36778 10.0544C2.22329 9.89131 2.11727 9.69984 2.05706 9.49328C1.99695 9.28663 1.98415 9.06985 2.01953 8.85795C2.05492 8.64606 2.13766 8.44412 2.262 8.26613C2.38624 8.08817 2.54913 7.93842 2.73937 7.82726C2.92962 7.7161 3.14266 7.64619 3.36371 7.6224C3.58479 7.5985 3.80862 7.62125 4.01968 7.68908C4.23074 7.75691 4.42398 7.8682 4.58602 8.01523C4.88682 7.81857 5.20198 7.64315 5.52902 7.49036C5.85615 7.33779 6.1943 7.20802 6.54087 7.10259C6.88744 6.99716 7.24162 6.91632 7.60027 6.86031C7.95893 6.8043 8.32152 6.77363 8.6849 6.76831L9.46264 3.25058C9.47131 3.20977 9.48839 3.17125 9.51282 3.13678C9.537 3.10257 9.56826 3.07317 9.60426 3.05061C9.64052 3.02806 9.68098 3.0126 9.72355 3.005C9.76585 2.99765 9.80947 2.99841 9.85151 3.00728L12.4264 3.50402C12.6863 3.07342 13.2318 2.88892 13.7134 3.06836C14.195 3.24779 14.4704 3.73819 14.3626 4.2253C14.2552 4.71241 13.7964 5.05202 13.2809 5.02642C12.7651 5.00083 12.345 4.61763 12.2898 4.12241L10.0407 3.66622L9.35754 6.82913C9.71645 6.83648 10.0746 6.86892 10.4288 6.92595C11.138 7.03999 11.8265 7.25219 12.473 7.556C12.7958 7.70755 13.1069 7.88135 13.4039 8.07605C13.6174 7.87832 13.8857 7.74444 14.1764 7.69057C14.467 7.63651 14.7677 7.66477 15.0421 7.77193C15.3165 7.87903 15.553 8.06044 15.7229 8.29426C15.8929 8.52811 15.9891 8.8044 15.9998 9.08981ZM5.56975 10.4916C5.62283 10.6145 5.70007 10.7263 5.79782 10.8203C5.8953 10.9146 6.01117 10.9891 6.1386 11.0403C6.26615 11.0912 6.40284 11.1173 6.54087 11.1173C6.966 11.1173 7.34909 10.8702 7.51199 10.4916C7.67463 10.1127 7.58451 9.67677 7.28392 9.38684C6.98334 9.0969 6.53141 9.00997 6.1386 9.16685C5.74605 9.32399 5.48987 9.6935 5.48987 10.1036C5.48987 10.2366 5.51694 10.3684 5.56975 10.4916ZM11.5893 12.9251C11.6432 12.8744 11.6739 12.8052 11.675 12.7327C11.676 12.66 11.6469 12.59 11.5943 12.5381C11.5418 12.4861 11.47 12.4565 11.3949 12.4555C11.3195 12.4545 11.247 12.4826 11.1863 12.5264C11.0282 12.6358 10.8609 12.732 10.686 12.8141C10.5111 12.8962 10.3293 12.964 10.1426 13.0166C9.95608 13.069 9.76506 13.1063 9.57194 13.1278C9.37856 13.1494 9.18386 13.155 8.98969 13.1448C8.79578 13.1532 8.60135 13.1456 8.40875 13.1223C8.21611 13.0992 8.02588 13.0602 7.84016 13.0057C7.65414 12.9515 7.47363 12.882 7.29995 12.7984C7.12628 12.7147 6.96022 12.6169 6.80362 12.5062C6.74923 12.4631 6.68013 12.441 6.60971 12.4443C6.53929 12.4476 6.47282 12.4763 6.4229 12.5242C6.37324 12.5723 6.34355 12.6364 6.34013 12.7044C6.33671 12.7723 6.35957 12.8389 6.40424 12.8914C6.58895 13.0257 6.78523 13.1443 6.99096 13.2462C7.19669 13.3481 7.41136 13.4325 7.63207 13.4989C7.85278 13.5653 8.079 13.6132 8.30838 13.6423C8.53776 13.6712 8.76924 13.6811 9.0002 13.672C9.23116 13.6811 9.46264 13.6712 9.69202 13.6423C10.1514 13.584 10.5971 13.4501 11.0094 13.2462C11.2152 13.1443 11.4114 13.0257 11.5962 12.8914L11.5893 12.9251ZM11.3965 11.1984C11.5389 11.1999 11.6802 11.1733 11.8119 11.1206C11.9435 11.0676 12.0625 10.9896 12.1619 10.891C12.2612 10.7924 12.3384 10.6753 12.3894 10.5468C12.4404 10.4185 12.4637 10.2815 12.458 10.1441C12.458 9.73405 12.2018 9.36454 11.8093 9.2074C11.4164 9.05052 10.9645 9.13745 10.6639 9.42739C10.3633 9.71732 10.2732 10.1532 10.4359 10.5321C10.5988 10.9108 10.9819 11.1579 11.407 11.1579L11.3965 11.1984Z" fill="white"/>
</svg>
