<svg width="24" height="24" viewBox="0 0 24 24" fill="none" xmlns="http://www.w3.org/2000/svg">
<path d="M18.2239 6.38246C18.2239 5.91125 18.3636 5.45063 18.6254 5.05884C18.8872 4.66704 19.2593 4.36168 19.6946 4.18135C20.1299 4.00103 20.609 3.95385 21.0711 4.04578C21.5333 4.13771 21.9578 4.36461 22.291 4.69781C22.6242 5.031 22.8511 5.45551 22.943 5.91766C23.0349 6.37981 22.9878 6.85885 22.8074 7.29418C22.6271 7.72952 22.3217 8.10161 21.93 8.3634C21.5382 8.62519 21.0775 8.76491 20.6063 8.76491C19.9745 8.76491 19.3685 8.51391 18.9217 8.06711C18.4749 7.62031 18.2239 7.01432 18.2239 6.38246Z" fill="black"/>
<path d="M1 6.38246C1 5.91125 1.13973 5.45063 1.40152 5.05884C1.66331 4.66704 2.03539 4.36168 2.47073 4.18135C2.90607 4.00103 3.3851 3.95385 3.84725 4.04578C4.3094 4.13771 4.73391 4.36461 5.06711 4.69781C5.4003 5.031 5.6272 5.45551 5.71913 5.91766C5.81106 6.37981 5.76388 6.85885 5.58356 7.29418C5.40323 7.72952 5.09787 8.10161 4.70608 8.3634C4.31429 8.62519 3.85366 8.76491 3.38245 8.76491C2.75059 8.76491 2.1446 8.51391 1.69781 8.06711C1.25101 7.62031 1 7.01432 1 6.38246Z" fill="#D0D2D3"/>
<path d="M6.71655 6.38246C6.71655 5.91125 6.85628 5.45063 7.11807 5.05884C7.37985 4.66704 7.75195 4.36168 8.18728 4.18135C8.62262 4.00103 9.10165 3.95385 9.5638 4.04578C10.026 4.13771 10.4505 4.36461 10.7837 4.69781C11.1169 5.031 11.3438 5.45551 11.4357 5.91766C11.5276 6.37981 11.4804 6.85885 11.3001 7.29418C11.1198 7.72952 10.8144 8.10161 10.4226 8.3634C10.0308 8.62519 9.57021 8.76491 9.09901 8.76491C8.46714 8.76491 7.86115 8.51391 7.41436 8.06711C6.96756 7.62031 6.71655 7.01432 6.71655 6.38246Z" fill="#D0D2D3"/>
<path d="M18.2351 12.1755C18.2351 11.7043 18.3748 11.2437 18.6366 10.8519C18.8984 10.4601 19.2705 10.1547 19.7058 9.97438C20.1412 9.79406 20.6202 9.74688 21.0824 9.83881C21.5445 9.93074 21.969 10.1576 22.3022 10.4908C22.6354 10.824 22.8623 11.2485 22.9542 11.7107C23.0462 12.1728 22.999 12.6519 22.8187 13.0872C22.6383 13.5225 22.333 13.8946 21.9412 14.1564C21.5494 14.4182 21.0888 14.5579 20.6176 14.5579C19.9859 14.5573 19.3802 14.3061 18.9336 13.8595C18.4869 13.4128 18.2357 12.8072 18.2351 12.1755Z" fill="#D0D2D3"/>
<path d="M12.4646 6.38246C12.4646 5.91125 12.6043 5.45063 12.8661 5.05884C13.1279 4.66704 13.5 4.36168 13.9353 4.18135C14.3707 4.00103 14.8497 3.95385 15.3118 4.04578C15.774 4.13771 16.1985 4.36461 16.5317 4.69781C16.8649 5.031 17.0918 5.45551 17.1837 5.91766C17.2757 6.37981 17.2285 6.85885 17.0482 7.29418C16.8678 7.72952 16.5625 8.10161 16.1707 8.3634C15.7789 8.62519 15.3183 8.76491 14.8471 8.76491C14.2152 8.76491 13.6092 8.51391 13.1624 8.06711C12.7156 7.62031 12.4646 7.01432 12.4646 6.38246Z" fill="#B4121B"/>
<path d="M12.4646 12.1755C12.4646 11.7043 12.6043 11.2437 12.8661 10.8519C13.1279 10.4601 13.5 10.1547 13.9353 9.97438C14.3707 9.79406 14.8497 9.74688 15.3118 9.83881C15.774 9.93074 16.1985 10.1576 16.5317 10.4908C16.8649 10.824 17.0918 11.2485 17.1837 11.7107C17.2757 12.1728 17.2285 12.6519 17.0482 13.0872C16.8678 13.5225 16.5625 13.8946 16.1707 14.1564C15.7789 14.4182 15.3183 14.5579 14.8471 14.5579C14.2154 14.5573 13.6097 14.3061 13.1631 13.8595C12.7164 13.4128 12.4652 12.8072 12.4646 12.1755Z" fill="#FAAF3F"/>
<path d="M6.78638 17.9685C6.78638 17.4973 6.92611 17.0367 7.1879 16.6449C7.44968 16.2531 7.82177 15.9477 8.25711 15.7674C8.69244 15.5871 9.17148 15.5399 9.63363 15.6318C10.0958 15.7238 10.5203 15.9507 10.8535 16.2839C11.1867 16.6171 11.4136 17.0416 11.5055 17.5037C11.5974 17.9659 11.5503 18.4449 11.3699 18.8802C11.1896 19.3156 10.8842 19.6877 10.4925 19.9495C10.1007 20.2112 9.64004 20.351 9.16883 20.351C8.85588 20.3513 8.54594 20.2898 8.25676 20.1702C7.96757 20.0506 7.70481 19.8751 7.48352 19.6538C7.26223 19.4325 7.08675 19.1698 6.96713 18.8806C6.8475 18.5914 6.78608 18.2815 6.78638 17.9685Z" fill="#D0D2D3"/>
<path d="M12.4646 17.9685C12.4646 17.4973 12.6043 17.0367 12.8661 16.6449C13.1279 16.2531 13.5 15.9477 13.9353 15.7674C14.3707 15.5871 14.8497 15.5399 15.3118 15.6318C15.774 15.7238 16.1985 15.9507 16.5317 16.2839C16.8649 16.6171 17.0918 17.0416 17.1837 17.5037C17.2757 17.9659 17.2285 18.4449 17.0482 18.8802C16.8678 19.3156 16.5625 19.6877 16.1707 19.9495C15.7789 20.2112 15.3183 20.351 14.8471 20.351C14.2152 20.351 13.6092 20.1 13.1624 19.6532C12.7156 19.2064 12.4646 18.6004 12.4646 17.9685Z" fill="#00843F"/>
</svg>
