<svg id="design" xmlns="http://www.w3.org/2000/svg" viewBox="0 0 40 40"><defs><style>.cls-1{fill:#f5455c;}.cls-2{fill:#fff;}</style></defs><rect class="cls-1" y="0.01" width="40" height="40" rx="4"/><path class="cls-2" d="M30.91,16.34a9.39,9.39,0,0,0-2.71-2.69A15,15,0,0,0,20,11.37a17,17,0,0,0-3,.27,9.73,9.73,0,0,0-2.07-1.55A8.09,8.09,0,0,0,8.4,9.66a.65.65,0,0,0-.38.43.57.57,0,0,0,0,.29.51.51,0,0,0,.14.26c.88.92,2.33,2.74,2,4.38A7.1,7.1,0,0,0,8,20a7.14,7.14,0,0,0,2.15,5c.35,1.64-1.1,3.46-2,4.38a.51.51,0,0,0-.14.26.57.57,0,0,0,0,.29.6.6,0,0,0,.14.26.56.56,0,0,0,.24.17,8.24,8.24,0,0,0,3.3.47,8.16,8.16,0,0,0,3.21-.9A9.79,9.79,0,0,0,17,28.36a16.85,16.85,0,0,0,3,.27,14.92,14.92,0,0,0,8.2-2.28,9.39,9.39,0,0,0,2.71-2.69,6.69,6.69,0,0,0,0-7.32Zm-11,10.17A14.33,14.33,0,0,1,16.13,26l-.85.82A7.65,7.65,0,0,1,13.73,28a6.11,6.11,0,0,1-2.2.63l.12-.23a5.48,5.48,0,0,0,.68-4.23,5.2,5.2,0,0,1-1.57-1.76,5.12,5.12,0,0,1-.64-2.27c0-3.51,4.37-6.36,9.75-6.36s9.76,2.85,9.76,6.36-4.37,6.37-9.76,6.37Z"/><path class="cls-2" d="M15.2,18.68a1.44,1.44,0,0,0-.8.24,1.41,1.41,0,0,0-.53.65,1.47,1.47,0,0,0-.09.83,1.47,1.47,0,0,0,1.14,1.14,1.47,1.47,0,0,0,.83-.08,1.53,1.53,0,0,0,.65-.53,1.45,1.45,0,0,0,.24-.81,1.32,1.32,0,0,0-.11-.55,1.43,1.43,0,0,0-.77-.78,1.55,1.55,0,0,0-.56-.11Z"/><path class="cls-2" d="M19.84,18.68a1.45,1.45,0,0,0-.81.24,1.47,1.47,0,0,0-.53.65,1.39,1.39,0,0,0-.08.83,1.4,1.4,0,0,0,.39.74,1.49,1.49,0,0,0,.74.4A1.44,1.44,0,0,0,21,20.93a1.45,1.45,0,0,0,.24-.81,1.32,1.32,0,0,0-.11-.55,1.43,1.43,0,0,0-.77-.78,1.5,1.5,0,0,0-.55-.11Z"/><path class="cls-2" d="M24.46,18.68a1.45,1.45,0,0,0-1.34.89,1.39,1.39,0,0,0-.08.83,1.4,1.4,0,0,0,.39.74,1.49,1.49,0,0,0,.74.4,1.51,1.51,0,0,0,.84-.08,1.47,1.47,0,0,0,.89-1.34,1.46,1.46,0,0,0-.42-1,1.45,1.45,0,0,0-1-.42Z"/></svg>