<?xml version="1.0" encoding="UTF-8"?><svg id="design" xmlns="http://www.w3.org/2000/svg" viewBox="0 0 40 40"><defs><style>.cls-1{fill:#fff;}.cls-2{fill:#ff4500;}</style></defs><rect class="cls-2" width="40" height="40" rx="4" ry="4"/><g><circle class="cls-1" cx="20" cy="20" r="10"/><path class="cls-2" d="M26.67,20c0-.81-.65-1.46-1.46-1.46-.39,0-.75,.16-1.01,.41-1-.72-2.37-1.18-3.9-1.24l.66-3.13,2.17,.46c.03,.55,.48,.99,1.04,.99s1.04-.47,1.04-1.04-.47-1.04-1.04-1.04c-.41,0-.76,.24-.93,.58l-2.42-.52c-.07-.01-.14,0-.2,.04-.06,.04-.1,.1-.11,.16l-.74,3.49c-1.55,.04-2.95,.51-3.96,1.24-.26-.25-.62-.41-1.01-.41-.81,0-1.46,.65-1.46,1.46,0,.59,.35,1.1,.86,1.33-.02,.14-.03,.29-.03,.44,0,2.24,2.61,4.06,5.83,4.06s5.83-1.82,5.83-4.06c0-.15-.01-.29-.03-.44,.51-.23,.87-.74,.87-1.33h0Zm-10,1.04c0-.57,.47-1.04,1.04-1.04s1.04,.47,1.04,1.04-.47,1.04-1.04,1.04-1.04-.47-1.04-1.04Zm5.81,2.75c-.71,.71-2.07,.77-2.47,.77s-1.76-.06-2.47-.77c-.11-.11-.11-.28,0-.38,.11-.11,.28-.11,.38,0,.45,.45,1.41,.61,2.09,.61s1.64-.16,2.09-.61c.11-.11,.28-.11,.38,0,.11,.11,.11,.28,0,.38h0Zm-.18-1.71c-.57,0-1.04-.47-1.04-1.04s.47-1.04,1.04-1.04,1.04,.47,1.04,1.04-.47,1.04-1.04,1.04Z"/></g></svg>