<svg id="design" xmlns="http://www.w3.org/2000/svg" viewBox="0 0 40 40"><defs><style>.cls-1{fill:#f4f4f4;}.cls-2{fill:#f4db12;}.cls-3{fill:#e5242a;}.cls-4{fill:#fff;}</style></defs><rect class="cls-1" y="0.01" width="40" height="40" rx="4"/><path class="cls-2" d="M26.1,20.59a6.35,6.35,0,0,1,3.83-1c.23,0,.46,0,.69,0v-1.5l-.69,0a6.28,6.28,0,0,1-3.83-1V20.6Z"/><path class="cls-3" d="M30.54,20.32a1.49,1.49,0,1,0-1.45-1.49A1.47,1.47,0,0,0,30.54,20.32Z"/><path class="cls-3" d="M15.67,23.38S18.25,24.47,16,28c-.38.6,1.55,1.85,3.24,1.42a2.51,2.51,0,0,1-.56-1.51c.08-.39,1.55-3.41,1.55-3.41Z"/><path class="cls-3" d="M26.24,25.31c-8.25,1.75-13.31-3.06-13-6.52.29-5.85,8.55-7.88,13-6.37Z"/><path class="cls-3" d="M25,19a5,5,0,1,1-5-5A5,5,0,0,1,25,19Z"/><path class="cls-2" d="M19.05,25.14c-1.95,1.44.18,4.24.18,4.24,0-3.94,2.63-3.72,2.63-3.72s0,0,0,0a12.54,12.54,0,0,1-2.81-.51Z"/><path class="cls-3" d="M20,22.82A3.87,3.87,0,1,0,16.14,19,3.87,3.87,0,0,0,20,22.82Z"/><path class="cls-2" d="M25.94,12.33l.27.07s-6.52-4.12-15.8-.11L14,16.05C16.23,12.43,22.22,11.24,25.94,12.33Z"/><path class="cls-2" d="M20,14a5,5,0,0,0-4.46,2.75c-2.72.44-3.78.7-3.78.7a15.08,15.08,0,0,0,1.41,1.31,13.29,13.29,0,0,0-5.18,1s4.51-.29,7.47,1.25A5,5,0,1,0,20,14Zm0,8.85A3.87,3.87,0,1,1,23.88,19,3.87,3.87,0,0,1,20,22.82Z"/><path class="cls-4" d="M21.87,18.61l-1.74-.19.69-2.7-3,3.43,1.79.19-.79,2.85,3-3.58Z"/></svg>