<svg id="design" xmlns="http://www.w3.org/2000/svg" viewBox="0 0 40 40"><defs><style>.cls-1{fill:#fff;}</style></defs><rect y="0.01" width="40" height="40" rx="4"/><path class="cls-1" d="M9.72,13.63a2.12,2.12,0,0,1,2.26-2,2.23,2.23,0,0,1,1.38.51,12.38,12.38,0,0,1,3.93,10.4c0,.18-.24.16-.29,0-.78-2.65-3.35-5.7-5.63-6.61a2.25,2.25,0,0,1-1.65-2.29"/><path class="cls-1" d="M29.47,13.42A3.22,3.22,0,0,0,26,10.29c-3.91.08-9.17,10.16-6.17,19.3,0,.18.22.15.24,0,.42-6.37,4.24-11.34,7.67-13.28a3,3,0,0,0,1.73-2.85"/><path class="cls-1" d="M8,22.63a2,2,0,0,0,2.12,1.88,11.61,11.61,0,0,1,6.67,2.41c.14.12.16.07.07-.23-.66-2.33-4.21-6.22-6.81-6.22a2,2,0,0,0-2.07,2c0,.07,0,.12,0,.17"/><path class="cls-1" d="M32,22.63a2,2,0,0,1-2.12,1.88,11.61,11.61,0,0,0-6.67,2.41c-.14.12-.16.07-.07-.23.66-2.33,4.21-6.22,6.81-6.22a2,2,0,0,1,2.07,2,.44.44,0,0,1,0,.17"/></svg>