<svg width="40" height="41" viewBox="0 0 40 41" fill="none" xmlns="http://www.w3.org/2000/svg">
<path d="M0 4.5C0 2.29086 1.79086 0.5 4 0.5H36C38.2091 0.5 40 2.29086 40 4.5V36.5C40 38.7091 38.2091 40.5 36 40.5H4C1.79086 40.5 0 38.7091 0 36.5V4.5Z" fill="#424243"/>
<path d="M27.8889 12.5C28.1246 12.5 28.3507 12.5937 28.5174 12.7603C28.6841 12.927 28.7778 13.1531 28.7778 13.3889V27.6111C28.7778 27.8469 28.6841 28.073 28.5174 28.2397C28.3507 28.4064 28.1246 28.5 27.8889 28.5H11.8889C11.6531 28.5 11.427 28.4064 11.2603 28.2397C11.0937 28.073 11 27.8469 11 27.6111V13.3889C11 13.1531 11.0937 12.927 11.2603 12.7603C11.427 12.5937 11.6531 12.5 11.8889 12.5H27.8889ZM27 14.2778H12.7778V26.7222H27V14.2778ZM17.5769 16.9444L20.4204 24.0556H18.5049L18.1493 23.1667H15.2249L14.8693 24.0556H12.9547L15.7991 16.9444H17.5769ZM26.1111 16.9444V24.0556H23.4444C22.7372 24.0556 22.0589 23.7746 21.5588 23.2745C21.0587 22.7744 20.7778 22.0961 20.7778 21.3889C20.7778 20.6816 21.0587 20.0034 21.5588 19.5033C22.0589 19.0032 22.7372 18.7222 23.4444 18.7222H24.3324L24.3333 16.9444H26.1111ZM24.3333 20.5H23.4444C23.2179 20.5003 23 20.587 22.8352 20.7425C22.6705 20.8981 22.5713 21.1106 22.5581 21.3368C22.5448 21.563 22.6184 21.7857 22.7638 21.9594C22.9092 22.1331 23.1155 22.2448 23.3404 22.2716L23.4444 22.2778H24.3333V20.5ZM16.688 19.5089L15.9351 21.3889H17.4391L16.688 19.5089Z" fill="white"/>
</svg>
