<svg id="design" xmlns="http://www.w3.org/2000/svg" viewBox="0 0 40 40"><defs><style>.cls-1{fill:#00bf6f;}.cls-2{fill:#fff;fill-rule:evenodd;}</style></defs><rect class="cls-1" y="0.01" width="40" height="40" rx="4"/><path class="cls-2" d="M29.22,24.88a.86.86,0,0,1-.56-.21,11.72,11.72,0,0,0,.09-1.33.86.86,0,0,1,.47-.14.84.84,0,0,1,0,1.68h0m-18.44,0A.84.84,0,0,1,9.94,24h0a.85.85,0,0,1,.84-.84.86.86,0,0,1,.47.14,11.72,11.72,0,0,0,.09,1.33.88.88,0,0,1-.56.21m18.39-3.69a3,3,0,0,0-.68.08,8.78,8.78,0,0,0-6.92-6.48l-.44-.07a2.87,2.87,0,0,1,1.27-2.65l-.19-.49s-2.36.74-2.64,2.78c-.12-.55-1.22-1.25-1.77-1.38l-.27.44a1.91,1.91,0,0,1,.9,1.37,8.78,8.78,0,0,0-6.92,6.48,3.08,3.08,0,0,0-.68-.08,2.85,2.85,0,0,0,0,5.7,2.75,2.75,0,0,0,1-.2,8.7,8.7,0,0,0,.92,1.73l2.35-1.6,0,0a5.79,5.79,0,0,1-1.06-3.16,4.22,4.22,0,0,1,1.07-3.35c1.7-1.46,3.55-.8,4.71.6h.32c1.16-1.4,3-2.06,4.71-.6a4.22,4.22,0,0,1,1.07,3.35,5.79,5.79,0,0,1-1.06,3.16l0,0,2.35,1.6a8.7,8.7,0,0,0,.92-1.73,2.85,2.85,0,1,0,1-5.5"/></svg>