<?xml version="1.0" encoding="UTF-8"?><svg id="design" xmlns="http://www.w3.org/2000/svg" viewBox="0 0 40 40"><defs><style>.cls-1{fill:#f4f4f4;}.cls-2{fill:#10152a;}.cls-3{fill:#eb4e27;}</style></defs><rect class="cls-1" width="40" height="40" rx="4" ry="4"/><g><path class="cls-2" d="M10,22.57c1.19,0,2.39,0,3.58,.01,.11,0,.3,.17,.32,.28,.16,1.23,.98,1.74,2.08,1.84,.79,.07,1.61,.03,2.4-.09,.73-.11,1.11-.59,1.13-1.13,.02-.57-.29-.99-1.04-1.21-1.35-.39-2.71-.73-4.07-1.11-.5-.14-.99-.3-1.46-.5-2.44-1-3.27-3.45-1.96-5.75,.63-1.1,1.55-1.9,2.75-2.28,2.18-.69,4.37-.61,6.5,.25,1.85,.75,2.56,2.26,2.75,4.16-1.28,0-2.52,0-3.75,0-.66-1.75-2.29-2.43-4.07-1.71-.51,.21-.9,.54-.89,1.14,.01,.58,.39,.9,.91,1.03,1.36,.36,2.73,.68,4.08,1.05,.57,.16,1.14,.37,1.68,.62,1.38,.65,2.31,1.66,2.43,3.25,.13,1.84-.5,3.39-2.14,4.29-.9,.49-1.96,.77-2.98,.93-1.69,.25-3.39,.16-5.02-.42-2.02-.72-3.31-2.57-3.22-4.65Z"/><path class="cls-3" d="M27.15,27.83c-1.6,0-2.83-1.21-2.85-2.8-.02-1.62,1.22-2.88,2.84-2.88,1.61,0,2.87,1.26,2.86,2.87,0,1.57-1.26,2.81-2.85,2.82Z"/></g></svg>