<svg width="40" height="40" viewBox="0 0 40 40" fill="none" xmlns="http://www.w3.org/2000/svg">
<path d="M0 4C0 1.79086 1.79086 0 4 0H36C38.2091 0 40 1.79086 40 4V36C40 38.2091 38.2091 40 36 40H4C1.79086 40 0 38.2091 0 36V4Z" fill="#542F63"/>
<path d="M11.9525 14.9131L11.1989 14.1594L10.6875 13.9441C9.63782 13.5135 8.42664 13.998 7.996 15.0476C7.56536 16.0973 8.04983 17.3085 9.09952 17.7392L9.61091 17.9545H14.967L11.9525 14.9131Z" fill="white"/>
<path d="M22.0725 15.0476L25.8945 11.2257L26.1098 10.7412C26.5404 9.69153 26.056 8.48035 25.0063 8.04971C23.9566 7.61907 22.7454 8.10354 22.3147 9.15323C22.2878 9.18015 22.2878 9.23397 22.2609 9.26089L22.0725 9.71845V11.6025V15.0476Z" fill="white"/>
<path d="M24.9792 22.0994L28.8012 25.9213L29.3126 26.1366C30.3623 26.5673 31.5735 26.0559 32.0041 25.0062C32.4347 23.9565 31.9503 22.7453 30.9006 22.3147L30.3354 22.0724H27.4285L24.9792 22.0994Z" fill="white"/>
<path d="M14.1325 28.8282L13.971 29.2319C13.9441 29.2588 13.9441 29.3126 13.9171 29.3396C13.4865 30.3893 13.971 31.6004 15.0207 32.0311C16.0704 32.4617 17.2546 31.9772 17.7122 30.9276L17.9275 30.4431V25.0601L14.1325 28.8282Z" fill="white"/>
<path d="M30.4161 17.9545L30.9275 17.7392C31.9772 17.3085 32.4617 16.0973 32.031 15.0476C31.6004 13.998 30.3892 13.4866 29.3395 13.9172L28.7743 14.1594L24.9792 17.9545H30.4161Z" fill="white"/>
<path d="M15.0207 22.0724H9.6377L9.12632 22.2878C8.07663 22.7184 7.56524 23.9296 7.99588 24.9793C8.42652 26.029 9.63771 26.5404 10.6874 26.1097L11.1988 25.8944L11.3603 25.7329L15.0207 22.0724Z" fill="white"/>
<path d="M17.9276 9.58388L17.7392 9.12632C17.3086 8.07663 16.0974 7.56524 15.0477 7.99588C13.998 8.42652 13.4866 9.6377 13.9173 10.6874C13.9442 10.7143 13.9442 10.7681 13.9711 10.7951L14.1595 11.2526L17.9276 15.0207V9.58388Z" fill="white"/>
<path d="M22.0725 25.0062V30.3623L22.2609 30.793C22.2609 30.8199 22.2878 30.8737 22.3147 30.9006C22.7454 31.9503 23.9566 32.4617 25.0063 32.0311C26.0559 31.6004 26.5404 30.4162 26.1367 29.3665L25.9214 28.8551L24.3603 27.294L22.0725 25.0062Z" fill="white"/>
<path d="M25.8945 11.2257L23.822 16.2319L28.7475 14.1863L29.1781 13.7557C29.9856 12.9483 29.9856 11.6563 29.1781 10.8489C28.3707 10.0414 27.0788 10.0414 26.2713 10.8489C26.2444 10.8758 26.2175 10.9027 26.1906 10.9296L25.8945 11.2257Z" fill="#A7A2D0"/>
<path d="M11.1989 14.1325L16.2051 16.205L14.1865 11.3064V11.2795L13.7558 10.8489C12.9484 10.0414 11.6565 10.0414 10.849 10.8489C10.0415 11.6563 10.0415 12.9483 10.849 13.7557L11.1989 14.1325Z" fill="#A7A2D0"/>
<path d="M28.8013 25.9213L23.8489 23.8758L25.8944 28.8551L26.2712 29.2319C27.0787 30.0394 28.3706 30.0394 29.1781 29.2319C29.9855 28.4245 29.9855 27.1325 29.1781 26.3251L28.8013 25.9213Z" fill="#A7A2D0"/>
<path d="M11.2256 25.8944L10.9026 26.2174C10.8757 26.2443 10.8488 26.2712 10.8219 26.2981C10.0144 27.1056 10.0144 28.3975 10.8219 29.205C11.6294 30.0124 12.9213 30.0124 13.7287 29.205L14.1325 28.8013L16.2049 23.822L11.2256 25.8944Z" fill="#A7A2D0"/>
<path d="M17.9275 9.58385L18.5465 11.118L20 14.617L21.7494 10.472L22.0724 9.71843V9.69151V9.07246C22.0724 7.94202 21.1573 7 20 7C18.8695 7 17.9275 7.91511 17.9275 9.07246V9.58385Z" fill="#A7A2D0"/>
<path d="M9.63768 22.0725L14.5901 20L13.5135 19.5694L9.61077 17.9545H9.18013C9.15321 17.9545 9.09938 17.9545 9.07247 17.9545C7.94203 17.9545 7 18.8696 7 20.0269C7 21.1574 7.91511 22.0725 9.04555 22.0994L9.63768 22.0725Z" fill="#A7A2D0"/>
<path d="M17.9275 30.4161V30.9544C17.9275 32.0849 18.8426 33 20 33C21.1304 33 22.0455 32.0849 22.0724 30.9544V30.3623L20.0269 25.4368L17.9275 30.4161Z" fill="#A7A2D0"/>
<path d="M30.9275 22.0725C32.0849 22.0725 33 21.1574 33 20C33 18.8696 32.0849 17.9276 30.9275 17.9276C30.9006 17.9276 30.8468 17.9276 30.8199 17.9276H30.4161L28.9896 18.5197L25.4099 20L25.9213 20.2153L30.3623 22.0456H30.3354H30.3623L30.9275 22.0725Z" fill="#A7A2D0"/>
<path d="M22.9069 20.0538L24.9524 17.9814H22.0456V15.1014L20.0001 17.147L17.9276 15.0745V17.9814H15.0208L17.0663 20.0538L15.0208 22.0994H17.9276V25.0331L20.0001 22.9606L22.0456 25.0062V22.1263V22.0994H24.9524L22.9069 20.0538Z" fill="#A7A2D0"/>
</svg>
