<svg id="design" xmlns="http://www.w3.org/2000/svg" viewBox="0 0 40 40"><defs><style>.cls-1{fill:#f4f4f4;}.cls-2{fill:#333;}.cls-3{fill:#ec1c27;}</style></defs><rect class="cls-1" y="0.01" width="40" height="40" rx="4"/><path class="cls-2" d="M23.11,9.12a12.16,12.16,0,0,0-2.65-.41l.09,1a11.17,11.17,0,0,1,2.27.36A10.63,10.63,0,0,1,30.27,23a10.47,10.47,0,0,1-3.72,5.55l-2-2.37a.19.19,0,0,1,0-.15l.78-2.5-4.28.8a.18.18,0,0,1-.13,0,.18.18,0,0,1-.05-.11l0-.71a.1.1,0,0,1,.05-.1l3.52-2.6c-.16-.6-1-3.88-2.05-5.19a.17.17,0,0,1,0-.14.18.18,0,0,1,.13-.09l5.22-.26-7.21-3.5a.14.14,0,0,1-.08-.12L20.1,8l-8.37,2.36.59,2.41a.14.14,0,0,1-.06.15l-2.72,2-.07.36,3.64.35a.15.15,0,0,1,.13.11l1.92,7.92v.06l.06.2-.17-.07H15l-4.46-1.69.36,3.34A10.58,10.58,0,0,1,9.67,18c0-.17.07-.31.11-.48a12.84,12.84,0,0,1,.7-1.85l-1.09-.1A12.43,12.43,0,0,0,8.85,17l0,0c-.07.24-.12.47-.18.71A11.65,11.65,0,1,0,23.11,9.12ZM17.32,22.93,23.69,21l-3.56,2.14Z"/><path class="cls-3" d="M22.94,30.38l-2.43-4.79-2.77-.29,4.06,5.34A9.36,9.36,0,0,0,22.94,30.38Z"/></svg>