<svg width="40" height="40" viewBox="0 0 40 40" fill="none" xmlns="http://www.w3.org/2000/svg">
<path d="M0 4C0 1.79086 1.79086 0 4 0H36C38.2091 0 40 1.79086 40 4V36C40 38.2091 38.2091 40 36 40H4C1.79086 40 0 38.2091 0 36V4Z" fill="#F3F4F4"/>
<path d="M18.875 10C15.0779 10 12 13.0779 12 16.875V29.5378C12 29.956 12.5018 30.1567 12.7695 29.8556L16.4997 26.1254H21.2336C25.0308 26.1254 28.1087 23.0475 28.1087 19.2504V10H18.875V10Z" fill="#59CB59"/>
<path d="M16.5166 26.1422H13.0874L15.2285 27.4302L16.5166 26.1422Z" fill="#0CA750"/>
<path d="M28.1256 10H18.8752V19.2504L28.1256 10Z" fill="#2BB656"/>
<path d="M18.875 10C15.0779 10 12 13.0779 12 16.875V26.1254L18.875 19.2504V10Z" fill="#0CA750"/>
<path d="M28.1256 10L18.8752 19.2504H28.1256V10Z" fill="#75DD66"/>
</svg>
