<svg width="18" height="18" viewBox="0 0 18 18" fill="none" xmlns="http://www.w3.org/2000/svg">
<path d="M4.94137 10.8469C4.94137 11.6564 4.28013 12.3176 3.47068 12.3176C2.66124 12.3176 2 11.6564 2 10.8469C2 10.0375 2.66124 9.37622 3.47068 9.37622H4.94137V10.8469Z" fill="#E01E5A"/>
<path d="M5.68237 10.8469C5.68237 10.0375 6.34361 9.37622 7.15306 9.37622C7.9625 9.37622 8.62374 10.0375 8.62374 10.8469V14.5293C8.62374 15.3388 7.9625 16 7.15306 16C6.34361 16 5.68237 15.3388 5.68237 14.5293V10.8469Z" fill="#E01E5A"/>
<path d="M7.15306 4.94137C6.34361 4.94137 5.68237 4.28013 5.68237 3.47068C5.68237 2.66124 6.34361 2 7.15306 2C7.9625 2 8.62374 2.66124 8.62374 3.47068V4.94137H7.15306Z" fill="#36C5F0"/>
<path d="M7.15309 5.68243C7.96254 5.68243 8.62378 6.34367 8.62378 7.15312C8.62378 7.96256 7.96254 8.6238 7.15309 8.6238H3.47068C2.66124 8.6238 2 7.96256 2 7.15312C2 6.34367 2.66124 5.68243 3.47068 5.68243H7.15309Z" fill="#36C5F0"/>
<path d="M13.0586 7.15312C13.0586 6.34367 13.7198 5.68243 14.5293 5.68243C15.3387 5.68243 16 6.34367 16 7.15312C16 7.96256 15.3387 8.6238 14.5293 8.6238H13.0586V7.15312Z" fill="#2EB67D"/>
<path d="M12.3176 7.15309C12.3176 7.96254 11.6564 8.62378 10.8469 8.62378C10.0375 8.62378 9.37622 7.96254 9.37622 7.15309V3.47068C9.37622 2.66124 10.0375 2 10.8469 2C11.6564 2 12.3176 2.66124 12.3176 3.47068V7.15309Z" fill="#2EB67D"/>
<path d="M10.8469 13.0587C11.6564 13.0587 12.3176 13.7199 12.3176 14.5293C12.3176 15.3388 11.6564 16 10.8469 16C10.0375 16 9.37622 15.3388 9.37622 14.5293V13.0587H10.8469Z" fill="#ECB22E"/>
<path d="M10.8469 12.3176C10.0375 12.3176 9.37622 11.6564 9.37622 10.8469C9.37622 10.0375 10.0375 9.37622 10.8469 9.37622H14.5293C15.3388 9.37622 16 10.0375 16 10.8469C16 11.6564 15.3388 12.3176 14.5293 12.3176H10.8469Z" fill="#ECB22E"/>
</svg>
