<svg width="29" height="28" viewBox="0 0 29 28" fill="none" xmlns="http://www.w3.org/2000/svg">
<path d="M0.666748 4C0.666748 1.79086 2.45761 0 4.66675 0H24.6667C26.8759 0 28.6667 1.79086 28.6667 4V24C28.6667 26.2091 26.8759 28 24.6667 28H4.66675C2.45761 28 0.666748 26.2091 0.666748 24V4Z" fill="black"/>
<path d="M20.2731 16.9945C18.2496 16.015 17.9271 14.5027 17.9128 14.3905C17.8954 14.2546 17.8757 14.1478 18.0256 14.0096C18.1702 13.876 18.8115 13.4791 18.9895 13.3549C19.2836 13.1492 19.4131 12.9439 19.3176 12.6915C19.2509 12.5169 19.0883 12.4512 18.917 12.4512C18.863 12.4513 18.8091 12.4574 18.7564 12.4692C18.4333 12.5393 18.1194 12.7012 17.9378 12.745C17.916 12.7506 17.8936 12.7536 17.8711 12.754C17.7742 12.754 17.7375 12.7109 17.7469 12.5944C17.7696 12.2412 17.8176 11.5518 17.7619 10.9078C17.6854 10.0217 17.3997 9.58274 17.0608 9.19447C16.8969 9.00618 16.1357 8.19727 14.6668 8.19727C13.1978 8.19727 12.4377 9.00618 12.2748 9.19214C11.9349 9.5804 11.6495 10.0194 11.5737 10.9054C11.5179 11.5494 11.568 12.2385 11.5887 12.5921C11.5954 12.7029 11.5613 12.7516 11.4645 12.7516C11.442 12.7512 11.4196 12.7482 11.3977 12.7426C11.2165 12.6989 10.9026 12.537 10.5795 12.4669C10.5268 12.455 10.4729 12.449 10.4189 12.4488C10.247 12.4488 10.085 12.5156 10.0183 12.6892C9.92279 12.9416 10.0517 13.1469 10.3468 13.3526C10.5247 13.4768 11.166 13.8734 11.3106 14.0072C11.4602 14.1455 11.4408 14.2523 11.4234 14.3882C11.4091 14.502 11.0863 16.0143 9.06313 16.9922C8.94461 17.0496 8.74297 17.1711 9.09851 17.3674C9.65671 17.6759 10.0283 17.6429 10.3171 17.8288C10.5621 17.9867 10.4172 18.3272 10.5955 18.4501C10.8145 18.6013 11.4618 18.4394 12.2981 18.7155C12.9992 18.9465 13.4252 19.5992 14.6684 19.5992C15.9117 19.5992 16.35 18.9435 17.0388 18.7155C17.8734 18.4394 18.5221 18.6013 18.7414 18.4501C18.9193 18.3272 18.7748 17.9867 19.0198 17.8288C19.3086 17.6429 19.6799 17.6759 20.2384 17.3674C20.5933 17.1735 20.3916 17.0519 20.2731 16.9945Z" fill="white"/>
<path d="M21.1535 16.8793C21.0627 16.6323 20.8898 16.5001 20.6928 16.3906C20.6557 16.3689 20.6217 16.3515 20.5926 16.3382C20.5339 16.3078 20.4738 16.2784 20.414 16.2474C19.8001 15.9219 19.3207 15.5112 18.9882 15.0245C18.8937 14.8874 18.8118 14.7422 18.7434 14.5905C18.7151 14.5093 18.7164 14.4633 18.7368 14.4212C18.757 14.3888 18.7837 14.3609 18.8152 14.3394C18.9207 14.2696 19.0295 14.1989 19.1033 14.1511C19.2349 14.066 19.339 13.9985 19.4061 13.9508C19.6582 13.7745 19.8345 13.5872 19.9446 13.3779C20.0215 13.2333 20.0663 13.0738 20.0761 12.9103C20.0858 12.7469 20.0602 12.5832 20.001 12.4305C19.8341 11.9911 19.4192 11.7184 18.9164 11.7184C18.8103 11.7183 18.7046 11.7295 18.6009 11.7517C18.5732 11.7578 18.5455 11.7641 18.5184 11.7711C18.5231 11.4706 18.5164 11.1535 18.4897 10.8413C18.3949 9.74398 18.0106 9.16876 17.61 8.71005C17.3535 8.4226 17.0513 8.17942 16.7156 7.99027C16.1077 7.64307 15.4183 7.4668 14.6668 7.4668C13.9153 7.4668 13.2293 7.64307 12.6207 7.99027C12.2842 8.17947 11.9814 8.42315 11.7246 8.71139C11.324 9.17009 10.9397 9.74632 10.8449 10.8427C10.8182 11.1548 10.8115 11.4737 10.8159 11.7724C10.7888 11.7654 10.7614 11.7591 10.7337 11.7531C10.6301 11.7308 10.5243 11.7196 10.4183 11.7197C9.91514 11.7197 9.4995 11.9925 9.33324 12.4318C9.27381 12.5846 9.24798 12.7484 9.25748 12.912C9.26699 13.0757 9.31161 13.2354 9.38833 13.3803C9.49883 13.5896 9.6751 13.7769 9.92716 13.9531C9.99393 13.9999 10.0984 14.0673 10.23 14.1535C10.3011 14.1995 10.4049 14.267 10.5067 14.3344C10.5423 14.3574 10.5726 14.3878 10.5955 14.4235C10.6169 14.4673 10.6176 14.5143 10.5858 14.6011C10.5184 14.7497 10.4378 14.8919 10.3451 15.0261C10.02 15.5019 9.55458 15.9052 8.96033 16.228C8.64551 16.3949 8.31834 16.5064 8.18013 16.882C8.07597 17.1654 8.14407 17.4879 8.40881 17.7597C8.50598 17.8611 8.61867 17.9464 8.74266 18.0124C9.00066 18.1542 9.275 18.264 9.55959 18.3393C9.61832 18.3544 9.67408 18.3793 9.72451 18.413C9.82099 18.4975 9.80731 18.6247 9.93584 18.811C10.0004 18.9073 10.0823 18.9906 10.1775 19.0567C10.4473 19.243 10.7504 19.2547 11.0716 19.267C11.3617 19.278 11.6905 19.2907 12.0661 19.4146C12.2217 19.466 12.3833 19.5655 12.5706 19.6817C13.0203 19.9581 13.6359 20.3363 14.6661 20.3363C15.6964 20.3363 16.3164 19.9561 16.7694 19.6787C16.9553 19.5645 17.1159 19.466 17.2672 19.4159C17.6427 19.2917 17.9716 19.2794 18.2617 19.2684C18.5829 19.256 18.886 19.2443 19.1557 19.058C19.2685 18.9794 19.3624 18.8768 19.4308 18.7576C19.5233 18.6003 19.521 18.4905 19.6078 18.4137C19.6551 18.3816 19.7075 18.3577 19.7627 18.3429C20.0512 18.2674 20.3292 18.1566 20.5906 18.0131C20.7224 17.9424 20.8409 17.8496 20.9412 17.7387L20.9445 17.7347C21.1929 17.4689 21.2553 17.1558 21.1535 16.8793ZM20.2377 17.3714C19.6792 17.6799 19.308 17.6468 19.0192 17.8328C18.7738 17.9907 18.919 18.3312 18.7408 18.4541C18.5218 18.6053 17.8744 18.4434 17.0381 18.7195C16.3484 18.9475 15.9084 19.6032 14.6678 19.6032C13.4272 19.6032 12.9976 18.9489 12.2965 18.7178C11.4619 18.4417 10.8132 18.6037 10.5939 18.4524C10.4159 18.3296 10.5605 17.989 10.3154 17.8311C10.0263 17.6452 9.65507 17.6782 9.09688 17.3714C8.74133 17.1751 8.94297 17.0536 9.06149 16.9962C11.0846 16.0167 11.4074 14.5043 11.4218 14.3922C11.4392 14.2563 11.4585 14.1494 11.309 14.0112C11.1644 13.8777 10.5231 13.4808 10.3451 13.3566C10.0507 13.1509 9.92115 12.9456 10.0166 12.6932C10.0834 12.5186 10.2463 12.4528 10.4172 12.4528C10.4713 12.453 10.5251 12.459 10.5778 12.4709C10.901 12.541 11.2148 12.7029 11.3961 12.7466C11.4179 12.7522 11.4403 12.7552 11.4629 12.7556C11.5597 12.7556 11.5937 12.7069 11.5871 12.5961C11.5664 12.2425 11.5163 11.5534 11.572 10.9094C11.6485 10.0234 11.9339 9.5844 12.2731 9.19613C12.436 9.00951 13.2015 8.2006 14.6655 8.2006C16.1294 8.2006 16.8969 9.00617 17.0598 9.19213C17.3994 9.58039 17.6851 10.0194 17.7609 10.9054C17.8167 11.5494 17.7686 12.2388 17.7459 12.592C17.7382 12.7086 17.7733 12.7516 17.8701 12.7516C17.8926 12.7513 17.915 12.7482 17.9369 12.7426C18.1185 12.6989 18.4323 12.537 18.7555 12.4669C18.8082 12.455 18.862 12.449 18.916 12.4488C19.088 12.4488 19.2499 12.5156 19.3167 12.6892C19.4121 12.9416 19.2833 13.1469 18.9885 13.3526C18.8105 13.4767 18.1692 13.8734 18.0247 14.0072C17.8748 14.1454 17.8945 14.2523 17.9118 14.3882C17.9262 14.502 18.2487 16.0143 20.2721 16.9922C20.3917 17.0519 20.5933 17.1735 20.2377 17.3714Z" fill="black"/>
</svg>
