<svg width="18" height="18" viewBox="0 0 18 18" fill="none" xmlns="http://www.w3.org/2000/svg">
<g clip-path="url(#clip0_314_2773)">
<path d="M7.57438 4.29844C8.12265 3.72718 8.88595 3.37287 9.73013 3.37287C10.8523 3.37287 11.8314 3.99862 12.3528 4.92756C12.8059 4.72512 13.3074 4.61251 13.8351 4.61251C15.8591 4.61251 17.5 6.26772 17.5 8.3094C17.5 10.3513 15.8591 12.0065 13.8351 12.0065C13.5927 12.0067 13.3508 11.9826 13.1132 11.9346C12.654 12.7536 11.7791 13.307 10.7748 13.307C10.3544 13.307 9.9568 13.2099 9.60276 13.0372C9.13731 14.132 8.0529 14.8997 6.78903 14.8997C5.47287 14.8997 4.35115 14.0669 3.92059 12.8989C3.73243 12.9389 3.53749 12.9597 3.33745 12.9597C1.77041 12.9597 0.5 11.6762 0.5 10.0927C0.5 9.03155 1.07078 8.10501 1.91884 7.6093C1.74425 7.20757 1.64713 6.76415 1.64713 6.29797C1.64713 4.4769 3.12556 3.00067 4.94906 3.00067C6.01967 3.00067 6.97115 3.5097 7.57438 4.29844Z" fill="white"/>
<path d="M2.96234 9.17108C2.95168 9.19893 2.96622 9.20475 2.9696 9.20959C3.00156 9.23283 3.03403 9.24956 3.06672 9.26819C3.24011 9.36021 3.40383 9.38708 3.57504 9.38708C3.92375 9.38708 4.14024 9.20159 4.14024 8.90299V8.89719C4.14024 8.6211 3.89591 8.52085 3.66657 8.44844L3.63679 8.43876C3.46388 8.38257 3.31471 8.33416 3.31471 8.22033V8.21429C3.31471 8.11693 3.40189 8.04524 3.53702 8.04524C3.68716 8.04524 3.8654 8.09513 3.98018 8.15857C3.98018 8.15857 4.01384 8.18037 4.0262 8.14768C4.03297 8.13024 4.0911 7.9738 4.09716 7.95685C4.10369 7.93844 4.09207 7.92488 4.08021 7.91761C3.94919 7.83794 3.76805 7.78345 3.58062 7.78345L3.54575 7.78369C3.22658 7.78369 3.00379 7.97646 3.00379 8.25276V8.25858C3.00379 8.5499 3.24959 8.64435 3.47989 8.71022L3.51694 8.7216C3.68476 8.77318 3.82934 8.81749 3.82934 8.93568V8.9415C3.82934 9.04951 3.73539 9.1299 3.58378 9.1299C3.52494 9.1299 3.33726 9.12869 3.13457 9.00056C3.1101 8.98627 3.09582 8.97587 3.07693 8.96449C3.06701 8.95819 3.04206 8.94728 3.03117 8.98023L2.96234 9.17108ZM8.06744 9.17108C8.05679 9.19893 8.07132 9.20475 8.0747 9.20959C8.10666 9.23283 8.13913 9.24956 8.1718 9.26819C8.34519 9.36021 8.50893 9.38708 8.68012 9.38708C9.02884 9.38708 9.24535 9.20159 9.24535 8.90299V8.89719C9.24535 8.6211 9.001 8.52085 8.77166 8.44844L8.74188 8.43876C8.56897 8.38257 8.41978 8.33416 8.41978 8.22033V8.21429C8.41978 8.11693 8.50696 8.04524 8.64209 8.04524C8.79223 8.04524 8.97047 8.09513 9.08527 8.15857C9.08527 8.15857 9.11893 8.18037 9.13126 8.14768C9.13804 8.13024 9.19617 7.9738 9.20223 7.95685C9.20878 7.93844 9.19714 7.92488 9.18528 7.91761C9.05426 7.83794 8.87311 7.78345 8.68569 7.78345L8.6508 7.78369C8.33163 7.78369 8.10884 7.97646 8.10884 8.25276V8.25858C8.10884 8.5499 8.35464 8.64435 8.58495 8.71022L8.62199 8.7216C8.78982 8.77318 8.93465 8.81749 8.93465 8.93568V8.9415C8.93465 9.04951 8.84044 9.1299 8.68884 9.1299C8.63001 9.1299 8.44233 9.12869 8.23963 9.00056C8.21516 8.98627 8.20065 8.97635 8.18225 8.96449C8.17594 8.96037 8.1464 8.94899 8.13622 8.98023L8.06744 9.17108ZM11.5526 8.5862C11.5526 8.75499 11.5211 8.88793 11.4591 8.9819C11.3978 9.0749 11.3051 9.12018 11.1758 9.12018C11.0462 9.12018 10.9539 9.07513 10.8936 8.9819C10.8326 8.88818 10.8016 8.75499 10.8016 8.5862C10.8016 8.41766 10.8326 8.28494 10.8936 8.19194C10.9539 8.09993 11.0462 8.05513 11.1758 8.05513C11.3051 8.05513 11.3978 8.09993 11.4593 8.19194C11.5211 8.28493 11.5526 8.41764 11.5526 8.5862ZM11.8437 8.27332C11.8151 8.17668 11.7705 8.09144 11.7112 8.0205C11.6519 7.9493 11.5768 7.89215 11.4877 7.85049C11.3988 7.80909 11.2937 7.78803 11.1758 7.78803C11.0576 7.78803 10.9525 7.80909 10.8636 7.85049C10.7745 7.89215 10.6994 7.94931 10.6398 8.0205C10.5808 8.0917 10.5362 8.17694 10.5074 8.27332C10.4791 8.36945 10.4648 8.47455 10.4648 8.5862C10.4648 8.69785 10.4791 8.80318 10.5074 8.89907C10.5362 8.99546 10.5805 9.08072 10.6401 9.1519C10.6994 9.2231 10.7747 9.28 10.8636 9.32044C10.9527 9.36089 11.0576 9.38146 11.1758 9.38146C11.2937 9.38146 11.3986 9.36089 11.4877 9.32044C11.5766 9.28 11.6519 9.22308 11.7112 9.1519C11.7705 9.08094 11.8151 8.9957 11.8437 8.89907C11.8723 8.80294 11.8865 8.69759 11.8865 8.5862C11.8865 8.4748 11.8722 8.36945 11.8437 8.27332ZM14.234 9.0751C14.2243 9.04677 14.197 9.05742 14.197 9.05742C14.1546 9.07365 14.1095 9.08866 14.0616 9.09617C14.0129 9.10365 13.9594 9.10755 13.902 9.10755C13.7611 9.10755 13.6492 9.06566 13.569 8.98283C13.4886 8.90001 13.4436 8.7661 13.444 8.58495C13.4445 8.42004 13.4842 8.29604 13.5557 8.20161C13.6267 8.10766 13.7347 8.05945 13.8788 8.05945C13.9989 8.05945 14.0904 8.07325 14.1863 8.10352C14.1863 8.10352 14.2093 8.11344 14.2202 8.08343C14.2456 8.0127 14.2645 7.96209 14.2916 7.88436C14.2994 7.86232 14.2805 7.85288 14.2737 7.85021C14.2359 7.83543 14.1468 7.81147 14.0795 7.8013C14.0165 7.79162 13.9429 7.78653 13.8611 7.78653C13.7387 7.78653 13.6298 7.80736 13.5366 7.84901C13.4436 7.89042 13.3646 7.94756 13.3021 8.01878C13.2397 8.08998 13.1922 8.1752 13.1605 8.27158C13.129 8.36771 13.113 8.47331 13.113 8.58495C13.113 8.82639 13.1782 9.02156 13.3068 9.16446C13.4356 9.30783 13.6291 9.38071 13.8814 9.38071C14.0306 9.38071 14.1836 9.35045 14.2936 9.30709C14.2936 9.30709 14.3147 9.29692 14.3055 9.27248L14.234 9.0751ZM14.7433 8.4245C14.7571 8.33079 14.783 8.2528 14.823 8.19203C14.8833 8.09976 14.9753 8.04915 15.1046 8.04915C15.234 8.04915 15.3194 8.1 15.3807 8.19203C15.4214 8.2528 15.4391 8.33419 15.4461 8.4245H14.7433ZM15.7234 8.21841C15.6987 8.12517 15.6374 8.03096 15.5972 7.98786C15.5337 7.91957 15.4718 7.87187 15.4102 7.84522C15.3298 7.81083 15.2334 7.78808 15.1279 7.78808C15.0049 7.78808 14.8932 7.80867 14.8026 7.85128C14.7118 7.89391 14.6356 7.95204 14.5757 8.02444C14.5159 8.0966 14.4709 8.18257 14.4423 8.28016C14.4135 8.37728 14.3989 8.48311 14.3989 8.59472C14.3989 8.70831 14.414 8.81414 14.4438 8.9093C14.4738 9.00521 14.5217 9.08972 14.5866 9.15969C14.6513 9.23018 14.7346 9.2854 14.8344 9.32387C14.9334 9.36215 15.0538 9.382 15.192 9.38175C15.4766 9.38078 15.6265 9.31734 15.6882 9.28319C15.6992 9.27714 15.7096 9.26649 15.6965 9.23598L15.6321 9.05555C15.6224 9.02868 15.595 9.0386 15.595 9.0386C15.5245 9.06475 15.4243 9.11174 15.1906 9.11126C15.0378 9.11102 14.9244 9.06598 14.8535 8.99549C14.7806 8.92334 14.745 8.81726 14.7387 8.66761L15.7241 8.66858C15.7241 8.66858 15.75 8.6681 15.7527 8.6429C15.7536 8.63228 15.7866 8.44048 15.7234 8.21841ZM6.85187 8.4245C6.86591 8.33079 6.89159 8.2528 6.93155 8.19203C6.99184 8.09976 7.08387 8.04915 7.21318 8.04915C7.34249 8.04915 7.42799 8.1 7.48949 8.19203C7.52992 8.2528 7.5476 8.33419 7.55463 8.4245H6.85187ZM7.83167 8.21841C7.80697 8.12517 7.74595 8.03096 7.70576 7.98786C7.6423 7.91957 7.58031 7.87187 7.51881 7.84522C7.4384 7.81083 7.34203 7.78808 7.23644 7.78808C7.11366 7.78808 7.00178 7.80867 6.91121 7.85128C6.82041 7.89391 6.74412 7.95204 6.6843 8.02444C6.62449 8.0966 6.57944 8.18257 6.55087 8.28016C6.5223 8.37728 6.50753 8.48311 6.50753 8.59472C6.50753 8.70831 6.52254 8.81414 6.55234 8.9093C6.58237 9.00521 6.63033 9.08972 6.69521 9.15969C6.75988 9.23018 6.84318 9.2854 6.94295 9.32387C7.042 9.36215 7.16235 9.382 7.30063 9.38175C7.58517 9.38078 7.73508 9.31734 7.79683 9.28319C7.80774 9.27714 7.81814 9.26649 7.80507 9.23598L7.7409 9.05555C7.73096 9.02868 7.70361 9.0386 7.70361 9.0386C7.63314 9.06475 7.53312 9.11174 7.29894 9.11126C7.14639 9.11102 7.03305 9.06598 6.96209 8.99549C6.88919 8.92334 6.85361 8.81726 6.84729 8.66761L7.83267 8.66858C7.83267 8.66858 7.85857 8.6681 7.86124 8.6429C7.86218 8.63228 7.89511 8.44048 7.83167 8.21841ZM4.72199 9.06971C4.68348 9.03894 4.67816 9.0312 4.66509 9.01134C4.6457 8.98106 4.63578 8.93796 4.63578 8.88323C4.63578 8.79653 4.66435 8.7343 4.72369 8.6924C4.72298 8.69266 4.80846 8.61855 5.00944 8.6212C5.15062 8.62314 5.27678 8.64397 5.27678 8.64397V9.09198H5.27702C5.27702 9.09198 5.15183 9.11885 5.01089 9.12733C4.81038 9.13944 4.72126 9.06947 4.72199 9.06971ZM5.11405 8.37735C5.07409 8.37444 5.02226 8.37273 4.96027 8.37273C4.87576 8.37273 4.79414 8.38339 4.71762 8.40398C4.64062 8.42455 4.57136 8.45678 4.51178 8.49938C4.45229 8.54183 4.4034 8.59744 4.3689 8.66187C4.33404 8.72678 4.31635 8.8033 4.31635 8.88903C4.31635 8.97621 4.33136 9.05201 4.3614 9.11402C4.39143 9.17625 4.43478 9.22807 4.48998 9.26804C4.54471 9.308 4.61228 9.33728 4.69073 9.35496C4.76799 9.37264 4.85564 9.3816 4.95155 9.3816C5.05253 9.3816 5.15327 9.37338 5.25087 9.35665C5.34749 9.34018 5.46615 9.3162 5.49908 9.30871C5.52217 9.30315 5.54518 9.29725 5.5681 9.29103C5.59257 9.28499 5.59063 9.25882 5.59063 9.25882L5.59014 8.35773C5.59014 8.1601 5.53735 8.01359 5.43346 7.92278C5.33005 7.83222 5.17773 7.78643 4.98086 7.78643C4.90698 7.78643 4.78809 7.79662 4.71689 7.8109C4.71689 7.8109 4.5016 7.85255 4.41296 7.92181C4.41296 7.92181 4.3936 7.93393 4.40425 7.96106L4.474 8.1485C4.48271 8.17271 4.50621 8.16448 4.50621 8.16448C4.50621 8.16448 4.51372 8.16157 4.52245 8.15648C4.71207 8.05332 4.95181 8.05647 4.95181 8.05647C5.05837 8.05647 5.14022 8.07778 5.19542 8.12015C5.24918 8.16131 5.27655 8.22354 5.27655 8.3548V8.39646C5.19178 8.38436 5.11405 8.37735 5.11405 8.37735ZM13.0615 7.86962C13.069 7.84733 13.0533 7.83668 13.0468 7.83426C13.0301 7.82773 12.9463 7.81005 12.8816 7.80593C12.7579 7.79842 12.6891 7.81925 12.6276 7.84685C12.5665 7.87446 12.4987 7.91901 12.461 7.96963V7.84976C12.461 7.83305 12.4491 7.81973 12.4326 7.81973H12.18C12.1636 7.81973 12.1517 7.83304 12.1517 7.84976V9.31947C12.1517 9.33594 12.1653 9.3495 12.1817 9.3495H12.4406C12.4485 9.34946 12.4561 9.34627 12.4617 9.34064C12.4673 9.33501 12.4704 9.32739 12.4704 9.31947V8.58523C12.4704 8.48666 12.4813 8.38836 12.5031 8.3266C12.5244 8.26556 12.5535 8.21665 12.5893 8.18153C12.6254 8.14666 12.6663 8.12221 12.7111 8.10841C12.7569 8.09435 12.8075 8.08976 12.8433 8.08976C12.8949 8.08976 12.9516 8.10306 12.9516 8.10306C12.9705 8.10524 12.9811 8.09362 12.9874 8.07643C13.0044 8.03139 13.0523 7.89649 13.0615 7.86962Z" fill="#00A1E0"/>
<path d="M10.6316 7.18851C10.6001 7.17883 10.5715 7.17228 10.5342 7.16527C10.4964 7.15849 10.4514 7.15509 10.4003 7.15509C10.222 7.15509 10.0816 7.20546 9.98303 7.30474C9.88495 7.40356 9.81834 7.55394 9.78492 7.7518L9.7728 7.81839H9.54906C9.54906 7.81839 9.52194 7.81742 9.51612 7.84698L9.47957 8.05209C9.47689 8.07147 9.48539 8.08381 9.51153 8.08381H9.72924L9.50838 9.31694C9.49117 9.41623 9.47131 9.49785 9.44928 9.55982C9.42772 9.62087 9.40667 9.66663 9.38051 9.70005C9.35533 9.73202 9.33159 9.75574 9.29041 9.76955C9.25651 9.78093 9.21728 9.78626 9.17442 9.78626C9.15068 9.78626 9.11898 9.78236 9.09548 9.77753C9.07223 9.77292 9.05988 9.76784 9.0422 9.76032C9.0422 9.76032 9.01677 9.75066 9.0066 9.77608C8.9986 9.79715 8.94048 9.95672 8.93346 9.97636C8.92668 9.99596 8.93637 10.0112 8.9487 10.0158C8.97777 10.026 8.99931 10.0328 9.03879 10.0422C9.09354 10.0551 9.13977 10.0558 9.18311 10.0558C9.27368 10.0558 9.3565 10.0429 9.42504 10.0183C9.49383 9.99331 9.55386 9.94995 9.60714 9.89136C9.66454 9.8279 9.70062 9.76155 9.73503 9.67074C9.76916 9.58113 9.79848 9.46973 9.82171 9.33994L10.0438 8.08381H10.3683C10.3683 8.08381 10.3956 8.08478 10.4012 8.055L10.438 7.85013C10.4404 7.83052 10.4322 7.81841 10.4058 7.81841H10.0907C10.0925 7.8114 10.1067 7.70046 10.1428 7.59611C10.1583 7.5518 10.1874 7.5157 10.2118 7.49099C10.2361 7.46678 10.2639 7.44959 10.2944 7.43965C10.3257 7.42948 10.3613 7.42464 10.4003 7.42464C10.4298 7.42464 10.4591 7.42803 10.4811 7.43263C10.5116 7.43918 10.5235 7.44256 10.5315 7.445C10.5637 7.45468 10.5681 7.44524 10.5744 7.42975L10.6497 7.22294C10.6575 7.20061 10.6383 7.19117 10.6316 7.18851ZM6.22959 9.31961C6.22959 9.33608 6.21773 9.34941 6.20126 9.34941H5.93996C5.92349 9.34941 5.91187 9.33608 5.91187 9.31961V7.21661C5.91187 7.20015 5.92349 7.18683 5.93996 7.18683H6.20126C6.21773 7.18683 6.22959 7.20015 6.22959 7.21661V9.31961Z" fill="#00A1E0"/>
</g>
<defs>
<clipPath id="clip0_314_2773">
<rect width="17" height="11.9" fill="white" transform="translate(0.5 3)"/>
</clipPath>
</defs>
</svg>
