<?xml version="1.0" encoding="UTF-8"?><svg id="design" xmlns="http://www.w3.org/2000/svg" viewBox="0 0 40 40"><defs><style>.cls-1{fill:#fff;}.cls-2{fill:#133153;}</style></defs><rect class="cls-2" width="40" height="40" rx="4" ry="4"/><path id="path4517" class="cls-1" d="M10.72,10c-.19,0-.36,.07-.49,.21-.13,.13-.21,.31-.21,.49v12.68h.1s3.01-.06,4.29-.73c1.1-.64,2.04-1.51,2.78-2.54l.75-1.06,.24-.34s.15-.21,.22-.32c.07-.1,.38-.54,.68-.98,1.17-1.61,2.66-2.96,4.39-3.95,2.78-1.43,6.47-1.29,6.47-1.29h.06v-1.43c.01-.19-.06-.38-.19-.52-.13-.14-.32-.22-.51-.22H10.72Zm19.27,6.62c-.06,.02-.12,.02-.18,.02,0,0-3,.06-4.29,.73-1.1,.64-2.04,1.51-2.78,2.54l-.74,1.07c-.11,.15-.21,.31-.24,.34l-.22,.32-.68,.98s-1.81,2.62-4.39,3.95c-2.67,1.39-6.16,1.3-6.44,1.29v1.43c0,.19,.07,.37,.2,.5,.13,.13,.31,.21,.5,.21H29.28c.19,0,.36-.07,.49-.21,.13-.13,.21-.31,.21-.49v-12.68Z"/></svg>