<svg width="40" height="41" viewBox="0 0 40 41" fill="none" xmlns="http://www.w3.org/2000/svg">
<rect y="0.178711" width="40" height="40" rx="4" fill="#112C40"/>
<path fill-rule="evenodd" clip-rule="evenodd" d="M20 11.1653C14.4 11.1653 10 15.5653 10 21.1653C10 24.0986 11.2 26.7653 13.0667 28.632C13.7333 29.2986 14.9333 29.2986 15.7333 28.7653C16.8 27.8319 18.4 27.2986 20 27.2986C21.7333 27.2986 23.0667 27.8319 24.2667 28.7653C25.0667 29.4319 26.1333 29.2986 26.9333 28.4986C28.8 26.6319 30 24.0986 30 21.1653C29.8667 15.6986 25.4667 11.1653 20 11.1653ZM19.8667 26.3653C16.8 26.3653 14.8 24.0986 14.8 21.2986C14.8 18.4986 16.8 16.232 19.8667 16.232C22.9333 16.232 24.9333 18.4986 24.9333 21.2986C24.9333 24.0986 22.9333 26.3653 19.8667 26.3653Z" fill="#82D562"/>
</svg>
