<svg id="design" xmlns="http://www.w3.org/2000/svg" viewBox="0 0 40 40"><defs><style>.cls-1{fill:#1ed760;}.cls-2{fill:#fff;}</style></defs><rect class="cls-1" y="0.01" width="40" height="40" rx="4"/><path class="cls-2" d="M20,8h0A12,12,0,1,0,32,20,12,12,0,0,0,20,8Zm5.5,17.31a.75.75,0,0,1-1,.25c-2.81-1.73-6.36-2.12-10.54-1.16a.75.75,0,0,1-.33-1.46c4.57-1,8.49-.59,11.66,1.34A.74.74,0,0,1,25.5,25.31ZM27,22h0a.93.93,0,0,1-1.28.31,15.77,15.77,0,0,0-12-1.4.94.94,0,0,1-.55-1.79,17.54,17.54,0,0,1,13.48,1.59A.94.94,0,0,1,27,22Zm.13-3.4h0c-3.87-2.3-10.25-2.51-13.94-1.39a1.12,1.12,0,0,1-.65-2.15c4.23-1.28,11.28-1,15.73,1.61a1.12,1.12,0,1,1-1.14,1.93Z"/></svg>