<svg id="design" xmlns="http://www.w3.org/2000/svg" viewBox="0 0 40 40"><defs><style>.cls-1{fill:#fff;}</style></defs><rect y="0.01" width="40" height="40" rx="4"/><path class="cls-1" d="M32,16.41c-.1.11-.22.21-.31.33L23.05,28.25a.94.94,0,0,1-.36.32c0-.15.09-.29.14-.43,1.43-3.81,2.87-7.63,4.28-11.44a.51.51,0,0,1,.58-.39c1.43,0,2.87,0,4.31,0Z"/><path class="cls-1" d="M19.93,31.19,14.32,16.34H25.65l-5.6,14.84Z"/><path class="cls-1" d="M20,8.81l5.14,6H14.85Z"/><path class="cls-1" d="M17.2,28.61,8,16.35l.37,0h4c.25,0,.39.05.48.31Q15,22.46,17.19,28.28c0,.09,0,.2.08.29Z"/><path class="cls-1" d="M27.42,14.78,27,10.69l5,4.09Z"/><path class="cls-1" d="M13.31,10.1l4.38-1.24.06.08-4,4.79Z"/><path class="cls-1" d="M11.92,11.18l.46,3.6H8Z"/><path class="cls-1" d="M25.62,13,22,8.81c1.11.21,2.11.38,3.11.58a.3.3,0,0,1,.2.21c.13,1.12.25,2.24.38,3.37Z"/></svg>