<svg width="24" height="24" viewBox="0 0 24 24" fill="none" xmlns="http://www.w3.org/2000/svg">
<path d="M20.009 16.2775C17.1184 14.8782 16.6576 12.7177 16.6371 12.5574C16.6123 12.3633 16.5842 12.2107 16.7983 12.0133C17.0048 11.8225 17.921 11.2554 18.1752 11.078C18.5954 10.7842 18.7804 10.4909 18.644 10.1304C18.5487 9.88092 18.3164 9.78696 18.0717 9.78696C17.9946 9.7872 17.9176 9.79584 17.8423 9.81272C17.3807 9.91287 16.9324 10.1442 16.6729 10.2067C16.6417 10.2147 16.6097 10.219 16.5775 10.2195C16.4392 10.2195 16.3868 10.158 16.4001 9.99157C16.4325 9.48698 16.5012 8.50212 16.4216 7.58213C16.3124 6.31637 15.9041 5.68921 15.42 5.13454C15.1858 4.86556 14.0985 3.70996 12 3.70996C9.9015 3.70996 8.81554 4.86556 8.5828 5.1312C8.09728 5.68587 7.68951 6.31303 7.58125 7.57879C7.5016 8.49879 7.57314 9.48316 7.60271 9.98823C7.61225 10.1466 7.5636 10.2162 7.42529 10.2162C7.3931 10.2156 7.36109 10.2113 7.32991 10.2033C7.07094 10.1408 6.62262 9.90953 6.16096 9.80938C6.08565 9.7925 6.00873 9.78386 5.93156 9.78363C5.68594 9.78363 5.45463 9.87901 5.35925 10.127C5.22284 10.4876 5.40694 10.7809 5.82854 11.0747C6.08274 11.2521 6.99892 11.8187 7.20543 12.0099C7.41909 12.2074 7.39143 12.36 7.36663 12.5541C7.34612 12.7167 6.88493 14.8772 3.99476 16.2741C3.82545 16.3562 3.53738 16.5298 4.04531 16.8102C4.84273 17.2509 5.37355 17.2037 5.78609 17.4693C6.13616 17.6949 5.92917 18.1814 6.18385 18.3569C6.49672 18.5729 7.42148 18.3416 8.61618 18.736C9.61773 19.0661 10.2263 19.9984 12.0024 19.9984C13.7784 19.9984 14.4046 19.0618 15.3885 18.736C16.5809 18.3416 17.5075 18.5729 17.8209 18.3569C18.0751 18.1814 17.8686 17.6949 18.2186 17.4693C18.6312 17.2037 19.1615 17.2509 19.9594 16.8102C20.4664 16.5331 20.1783 16.3595 20.009 16.2775Z" fill="white"/>
<path d="M21.2667 16.1131C21.137 15.7602 20.8899 15.5713 20.6085 15.4149C20.5556 15.3839 20.5069 15.3591 20.4654 15.34C20.3815 15.2966 20.2957 15.2547 20.2103 15.2103C19.3332 14.7453 18.6484 14.1587 18.1733 13.4633C18.0384 13.2676 17.9214 13.0601 17.8237 12.8433C17.7832 12.7274 17.7851 12.6616 17.8142 12.6015C17.8431 12.5552 17.8812 12.5154 17.9263 12.4847C18.077 12.385 18.2325 12.2839 18.3379 12.2157C18.5258 12.0941 18.6746 11.9977 18.7704 11.9295C19.1305 11.6777 19.3823 11.4102 19.5397 11.1111C19.6495 10.9045 19.7136 10.6767 19.7275 10.4431C19.7414 10.2096 19.7048 9.97578 19.6203 9.75761C19.3819 9.12997 18.789 8.74032 18.0708 8.74032C17.9193 8.74018 17.7682 8.75617 17.6201 8.78801C17.5805 8.7966 17.5409 8.80566 17.5023 8.81568C17.509 8.38644 17.4994 7.93336 17.4613 7.48743C17.3258 5.91978 16.7769 5.09803 16.2046 4.44273C15.8381 4.03209 15.4064 3.68468 14.9269 3.41448C14.0584 2.91847 13.0735 2.66666 12 2.66666C10.9264 2.66666 9.94634 2.91847 9.0769 3.41448C8.59621 3.68477 8.16366 4.03287 7.79683 4.44464C7.22452 5.09994 6.67557 5.92311 6.54013 7.48934C6.50197 7.93527 6.49243 8.39073 6.49863 8.81758C6.46 8.80757 6.4209 8.79851 6.38131 8.78992C6.2332 8.75807 6.08211 8.74209 5.93061 8.74223C5.21188 8.74223 4.61811 9.13188 4.3806 9.75951C4.29571 9.97778 4.25879 10.2118 4.27237 10.4456C4.28595 10.6794 4.3497 10.9075 4.45929 11.1145C4.61716 11.4135 4.86897 11.6811 5.22905 11.9329C5.32444 11.9996 5.47372 12.096 5.66163 12.219C5.76321 12.2848 5.91154 12.3812 6.057 12.4775C6.10789 12.5104 6.15115 12.5538 6.18386 12.6049C6.21439 12.6673 6.21534 12.7346 6.17003 12.8586C6.07366 13.0708 5.95859 13.2739 5.82617 13.4657C5.36164 14.1453 4.6968 14.7215 3.84787 15.1827C3.39813 15.4211 2.93074 15.5804 2.7333 16.117C2.58449 16.5219 2.68179 16.9826 3.05999 17.3708C3.19879 17.5157 3.35979 17.6376 3.53692 17.7318C3.90548 17.9344 4.29739 18.0912 4.70396 18.1987C4.78786 18.2204 4.86751 18.256 4.93956 18.3041C5.07739 18.4248 5.05784 18.6065 5.24145 18.8726C5.33363 19.0102 5.45074 19.1292 5.58675 19.2237C5.97211 19.4898 6.40516 19.5065 6.86396 19.5241C7.27841 19.5399 7.74818 19.558 8.28473 19.7349C8.50697 19.8084 8.73781 19.9505 9.00536 20.1165C9.64778 20.5114 10.5272 21.0517 11.999 21.0517C13.4708 21.0517 14.3565 20.5085 15.0037 20.1122C15.2693 19.9491 15.4987 19.8084 15.7148 19.7368C16.2513 19.5594 16.7211 19.5418 17.1355 19.526C17.5943 19.5084 18.0274 19.4917 18.4127 19.2256C18.5738 19.1132 18.708 18.9667 18.8057 18.7963C18.9378 18.5717 18.9345 18.4148 19.0585 18.3051C19.1261 18.2593 19.2009 18.2251 19.2798 18.204C19.6919 18.0961 20.0892 17.9378 20.4626 17.7328C20.6508 17.6318 20.8202 17.4992 20.9634 17.3407L20.9681 17.335C21.323 16.9554 21.4121 16.508 21.2667 16.1131ZM19.9585 16.8161C19.1606 17.2568 18.6302 17.2096 18.2177 17.4752C17.8671 17.7008 18.0746 18.1873 17.8199 18.3628C17.5071 18.5788 16.5823 18.3475 15.3876 18.742C14.4023 19.0677 13.7737 20.0044 12.0014 20.0044C10.2292 20.0044 9.61535 19.0696 8.61381 18.7396C7.42149 18.3452 6.49482 18.5765 6.18148 18.3604C5.92728 18.1849 6.13379 17.6984 5.78372 17.4729C5.3707 17.2072 4.84036 17.2544 4.04294 16.8161C3.53501 16.5357 3.82307 16.3621 3.99238 16.2801C6.88256 14.8808 7.34375 12.7203 7.36426 12.56C7.38906 12.3659 7.41672 12.2133 7.20306 12.0159C6.99655 11.8251 6.08037 11.258 5.82617 11.0806C5.40552 10.7868 5.22047 10.4935 5.35687 10.1329C5.45226 9.88351 5.685 9.78956 5.92918 9.78956C6.00636 9.7898 6.08328 9.79843 6.15859 9.81532C6.62025 9.91547 7.06856 10.1468 7.32753 10.2093C7.35872 10.2173 7.39073 10.2216 7.42292 10.2221C7.56123 10.2221 7.60987 10.1525 7.60034 9.99416C7.57077 9.4891 7.49923 8.50472 7.57887 7.58473C7.68809 6.31896 8.09586 5.6918 8.58042 5.13714C8.81316 4.87054 9.90675 3.71494 11.9981 3.71494C14.0894 3.71494 15.1859 4.86577 15.4186 5.13142C15.9036 5.68608 16.3119 6.31324 16.4201 7.579C16.4998 8.499 16.4311 9.48385 16.3987 9.98844C16.3877 10.1549 16.4378 10.2164 16.5761 10.2164C16.6083 10.2159 16.6403 10.2116 16.6715 10.2035C16.9309 10.1411 17.3792 9.90975 17.8409 9.80959C17.9162 9.79271 17.9931 9.78407 18.0703 9.78384C18.3159 9.78384 18.5472 9.87922 18.6426 10.1272C18.779 10.4878 18.5949 10.7811 18.1738 11.0749C17.9196 11.2523 17.0034 11.8189 16.7969 12.0101C16.5828 12.2076 16.6109 12.3602 16.6357 12.5543C16.6562 12.7169 17.1169 14.8774 20.0076 16.2743C20.1783 16.3597 20.4664 16.5333 19.9585 16.8161Z" fill="black"/>
</svg>
