<svg id="design" xmlns="http://www.w3.org/2000/svg" viewBox="0 0 40 40"><defs><style>.cls-1{fill:#0e2947;}.cls-2{fill:#fff;}</style></defs><rect class="cls-1" y="0.01" width="40" height="40" rx="4"/><path class="cls-2" d="M13.89,17.78a3.71,3.71,0,0,1,2.39-1.48c2.13,0,3.83,3.74,4.09,4.31A41.84,41.84,0,0,1,29.72,8H10.46V29.61A10.76,10.76,0,0,1,10.2,32a44.23,44.23,0,0,0,7.39-1.87c5.87-2.09,8.13-4.35,8.17-4.35l.13-.13.09.18a13.51,13.51,0,0,0,1.48,2.47c.82,1,1.26,1.05,1.52,1s.56-.65.65-1.52.17-2.82.17-5.21V9.7c-5.69,7-9.87,17.39-9.87,17.39S17.2,17.74,13.89,17.78Z"/></svg>