<svg id="design" xmlns="http://www.w3.org/2000/svg" viewBox="0 0 40 40"><defs><style>.cls-1{fill:#5d21d2;}.cls-2{fill:#fff;fill-rule:evenodd;}</style></defs><rect class="cls-1" y="0.01" width="40" height="40" rx="4"/><path class="cls-2" d="M17.94,22.08a.41.41,0,0,0,0-.58s-3-3-3-3a.4.4,0,0,1-.12-.29.53.53,0,0,1,.12-.29l6.15-6.15a.42.42,0,0,0,.13-.3.4.4,0,0,0-.4-.4h-6a.42.42,0,0,0-.28.12l-6.2,6.2a1.17,1.17,0,0,0,0,1.64l6,6a.41.41,0,0,0,.58,0Z"/><path class="cls-2" d="M22.06,17.92a.41.41,0,0,0,0,.58l3,3a.44.44,0,0,1,.11.29.39.39,0,0,1-.11.29l-6.15,6.15a.4.4,0,0,0,.27.7h6a.42.42,0,0,0,.28-.12l6.2-6.2a1.16,1.16,0,0,0,.34-.82,1.21,1.21,0,0,0-.33-.82l-6-6a.41.41,0,0,0-.58,0Z"/></svg>