<svg width="24" height="24" viewBox="0 0 24 24" fill="none" xmlns="http://www.w3.org/2000/svg">
<path fill-rule="evenodd" clip-rule="evenodd" d="M18.6406 6.37327C18.6406 7.8477 18.0467 9.18342 17.0852 10.1543C20.3478 10.4682 22.8988 13.2173 22.8988 16.5622C22.8988 20.1177 20.0165 23 16.461 23C12.9055 23 10.0232 20.1177 10.0232 16.5622C10.0232 15.7942 10.1577 15.0575 10.4044 14.3746C9.41724 15.1421 8.17674 15.5991 6.82949 15.5991C3.60995 15.5991 1 12.9891 1 9.76958C1 6.55004 3.60995 3.94009 6.82949 3.94009C7.3647 3.94009 7.88306 4.01221 8.37539 4.14727C9.2216 2.29059 11.0938 1 13.2673 1C16.2349 1 18.6406 3.4057 18.6406 6.37327ZM6.93093 13.0645C8.77866 13.0645 10.2765 11.5666 10.2765 9.71888C10.2765 7.87115 8.77866 6.37326 6.93093 6.37326C5.08319 6.37326 3.5853 7.87115 3.5853 9.71888C3.5853 11.5666 5.08319 13.0645 6.93093 13.0645ZM16.2073 6.37327C16.2073 7.99703 14.891 9.31336 13.2672 9.31336C11.6435 9.31336 10.3271 7.99703 10.3271 6.37327C10.3271 4.7495 11.6435 3.43317 13.2672 3.43317C14.891 3.43317 16.2073 4.7495 16.2073 6.37327ZM16.4609 20.5668C18.6726 20.5668 20.4655 18.7739 20.4655 16.5622C20.4655 14.3505 18.6726 12.5576 16.4609 12.5576C14.2492 12.5576 12.4563 14.3505 12.4563 16.5622C12.4563 18.7739 14.2492 20.5668 16.4609 20.5668Z" fill="#C83237"/>
<path opacity="0.8" fill-rule="evenodd" clip-rule="evenodd" d="M13.2673 11.0368C15.7869 11.0368 17.8295 8.99427 17.8295 6.47463C17.8295 3.95499 15.7869 1.91241 13.2673 1.91241C11.202 1.91241 9.45719 3.28481 8.89513 5.16741C8.27755 4.89959 7.59619 4.75113 6.88016 4.75113C4.08056 4.75113 1.81104 7.02065 1.81104 9.82025C1.81104 12.6199 4.08056 14.8894 6.88016 14.8894C9.33997 14.8894 11.3906 13.1373 11.8521 10.8131C12.2976 10.9583 12.7733 11.0368 13.2673 11.0368ZM10.2765 9.71887C10.2765 11.5666 8.77866 13.0645 6.93093 13.0645C5.08319 13.0645 3.5853 11.5666 3.5853 9.71887C3.5853 7.87113 5.08319 6.37325 6.93093 6.37325C8.77866 6.37325 10.2765 7.87113 10.2765 9.71887ZM13.2672 9.31334C14.891 9.31334 16.2073 7.99702 16.2073 6.37325C16.2073 4.74948 14.891 3.43316 13.2672 3.43316C11.6435 3.43316 10.3271 4.74948 10.3271 6.37325C10.3271 7.99702 11.6435 9.31334 13.2672 9.31334Z" fill="url(#paint0_linear_1930_7956)"/>
<path opacity="0.8" fill-rule="evenodd" clip-rule="evenodd" d="M16.5116 22.1889C19.5911 22.1889 22.0876 19.6925 22.0876 16.6129C22.0876 13.5333 19.5911 11.0369 16.5116 11.0369C13.432 11.0369 10.9355 13.5333 10.9355 16.6129C10.9355 19.6925 13.432 22.1889 16.5116 22.1889ZM16.4609 20.5668C18.6726 20.5668 20.4655 18.7739 20.4655 16.5622C20.4655 14.3505 18.6726 12.5576 16.4609 12.5576C14.2492 12.5576 12.4563 14.3505 12.4563 16.5622C12.4563 18.7739 14.2492 20.5668 16.4609 20.5668Z" fill="url(#paint1_linear_1930_7956)"/>
<defs>
<linearGradient id="paint0_linear_1930_7956" x1="11.4424" y1="5.96771" x2="13.3589" y2="11.2606" gradientUnits="userSpaceOnUse">
<stop stop-color="#E9ACAE"/>
<stop offset="1" stop-color="#D46063"/>
</linearGradient>
<linearGradient id="paint1_linear_1930_7956" x1="15.4978" y1="14.5853" x2="19.0461" y2="21.682" gradientUnits="userSpaceOnUse">
<stop stop-color="#E9ADAF"/>
<stop offset="1" stop-color="#D35C60"/>
</linearGradient>
</defs>
</svg>
