<?xml version="1.0" encoding="UTF-8"?><svg id="design" xmlns="http://www.w3.org/2000/svg" viewBox="0 0 40 40"><defs><style>.cls-1{fill:#f4f4f4;}.cls-2{fill:#f48023;}.cls-3{fill:#bcbbbc;}</style></defs><rect class="cls-1" width="40" height="40" rx="4" ry="4"/><g><path id="path24" class="cls-3" d="M25.82,28.22v-5.35h1.78v7.14H11.55v-7.14h1.78v5.35h12.48"/><path id="path26" class="cls-2" d="M15.12,26.43h8.92v-1.78H15.12v1.78Zm8-16.43l-1.43,1.06,5.32,7.16,1.43-1.06-5.32-7.16Zm-4.43,4.22l6.86,5.71,1.14-1.37-6.86-5.71-1.14,1.37Zm-2.24,3.97l8.09,3.77,.75-1.62-8.09-3.77-.75,1.62Zm-1.16,4.18l8.73,1.84,.37-1.75-8.73-1.84-.37,1.75"/></g></svg>