<svg id="design" xmlns="http://www.w3.org/2000/svg" viewBox="0 0 40 40"><defs><style>.cls-1{fill:#fff;}</style></defs><rect y="0.01" width="40" height="40" rx="4"/><path class="cls-1" d="M22.24,12.05H15.5a6.25,6.25,0,0,0-3.42.86,9.93,9.93,0,0,0-1.1.92A8,8,0,0,0,9.43,17l-.91,3A12.07,12.07,0,0,0,8,22.53H8A4.6,4.6,0,0,0,10,27h0a4.6,4.6,0,0,0,3,.77h.18a4.77,4.77,0,0,0,1.1-.22h0c.09-.05.18-.05.22-.1s0,0,0,0h0c0-.05.09-.05.18-.09a.14.14,0,0,0,.09-.05,1.17,1.17,0,0,1,.23-.13h.05c0-.05.09-.05.13-.1.69-.45,1.64-1.41,2.33-3.82h0L20,15.33C20.23,14.69,20.92,12.55,22.24,12.05Z"/><path class="cls-1" d="M31.58,15h0c-.14-.27-.27-.5-.41-.72A4.52,4.52,0,0,0,28,12.32h-.09a7.71,7.71,0,0,0-1,0H26.8a4.77,4.77,0,0,0-1.1.22h0c-.09.05-.18.05-.22.1s-.05,0-.05,0h0c-.05,0-.09,0-.18.09a.14.14,0,0,0-.09,0,1.17,1.17,0,0,1-.23.13h-.05c0,.05-.09.05-.13.1-.69.45-1.64,1.41-2.33,3.82h0L20,24.67c-.18.64-.91,2.78-2.19,3.28h6.75a6.28,6.28,0,0,0,3.42-.86A10.88,10.88,0,0,0,29,26.17,8,8,0,0,0,30.58,23l.91-3a11.45,11.45,0,0,0,.5-2.51h0A5.42,5.42,0,0,0,31.58,15Z"/></svg>