<svg id="design" xmlns="http://www.w3.org/2000/svg" viewBox="0 0 40 40"><defs><style>.cls-1{fill:#f4f4f4;}.cls-2{fill:#95bf47;}.cls-3{fill:#5e8e3e;}.cls-4{fill:#fff;}</style></defs><rect class="cls-1" width="40" height="40" rx="4"/><path class="cls-2" d="M27.6,13a.23.23,0,0,0-.21-.19l-1.86-.14-1.35-1.35c-.12-.14-.39-.1-.49-.07l-.69.22c-.41-1.18-1.14-2.27-2.41-2.27h-.11a1.57,1.57,0,0,0-1.19-.69c-3,0-4.38,3.72-4.83,5.61l-2.07.63c-.64.2-.66.22-.74.83L9.9,29.05,23,31.5,30.1,30s-2.49-16.85-2.5-17Zm-5.33-1.3L21.16,12v-.25A5.4,5.4,0,0,0,20.89,10c.66.1,1.11.84,1.38,1.7Zm-2.18-1.55a5.83,5.83,0,0,1,.3,2v.12l-2.3.71a4,4,0,0,1,2-2.82Zm-.88-.82a.66.66,0,0,1,.38.12c-1,.44-2,1.57-2.4,3.82l-1.82.55c.52-1.7,1.71-4.5,3.84-4.5Z"/><path class="cls-3" d="M27.39,12.8l-1.86-.14-1.35-1.35a.27.27,0,0,0-.19-.08L23,31.5,30.1,30,27.6,13a.26.26,0,0,0-.21-.2Z"/><path class="cls-4" d="M20.59,16.73l-.88,2.6A4.09,4.09,0,0,0,18,18.92c-1.38,0-1.45.87-1.45,1.09,0,1.18,3.1,1.64,3.1,4.43A3.28,3.28,0,0,1,16.38,28,4.55,4.55,0,0,1,13,26.65l.6-2a4.29,4.29,0,0,0,2.18,1,.88.88,0,0,0,.92-.85v0c0-1.56-2.54-1.63-2.54-4.18,0-2.14,1.54-4.23,4.64-4.23a4,4,0,0,1,1.81.36Z"/></svg>