<svg id="design" xmlns="http://www.w3.org/2000/svg" viewBox="0 0 40 40"><defs><style>.cls-1{fill:#f4f4f4;}.cls-2{fill:#99cfac;}.cls-3{fill:#49b881;}</style></defs><rect class="cls-1" y="0.01" width="40" height="40" rx="4"/><path class="cls-2" d="M23,24.08H9.15a1.16,1.16,0,0,1,0-2.31H23a1.16,1.16,0,1,1,0,2.31Z"/><path class="cls-3" d="M20,31.14a12,12,0,0,1-3.31-.49A1.15,1.15,0,0,1,16,29.21a1.13,1.13,0,0,1,1.44-.75,8.9,8.9,0,0,0,2.62.4,8.77,8.77,0,0,0,8.45-6.25,1.15,1.15,0,1,1,2.21.66A11.11,11.11,0,0,1,20,31.14Z"/><path class="cls-2" d="M30.85,18.23H17.05a1.16,1.16,0,1,1,0-2.31h13.8a1.16,1.16,0,0,1,0,2.31Z"/><path class="cls-3" d="M10.45,18.23a1.43,1.43,0,0,1-.35-.06,1.16,1.16,0,0,1-.77-1.44A11.12,11.12,0,0,1,20,8.86a12,12,0,0,1,3.32.49,1.15,1.15,0,0,1,.75,1.44,1.13,1.13,0,0,1-1.44.75,8.92,8.92,0,0,0-2.63-.4,8.76,8.76,0,0,0-8.44,6.25A1.19,1.19,0,0,1,10.45,18.23Z"/><circle class="cls-2" cx="26.84" cy="12.7" r="1.15"/><circle class="cls-2" cx="13.16" cy="27.33" r="1.15"/></svg>