<svg id="design" xmlns="http://www.w3.org/2000/svg" viewBox="0 0 40 40"><defs><style>.cls-1{fill:#f4f4f4;}.cls-2{fill:#595b7b;}.cls-3{fill:#424560;}.cls-4{fill:#313244;}</style></defs><rect class="cls-1" y="0.01" width="40" height="40" rx="4"/><path class="cls-2" d="M22.5,15.65,18.4,8.54a.36.36,0,0,1,.13-.49A.41.41,0,0,1,18.71,8h7.58a.36.36,0,0,1,.36.36.35.35,0,0,1,0,.18Z"/><path class="cls-3" d="M22.1,15.83H13.9a.36.36,0,0,1-.37-.36.35.35,0,0,1,.05-.18l3.79-6.57a.36.36,0,0,1,.49-.13.35.35,0,0,1,.14.13l4.1,7.11Z"/><path class="cls-4" d="M17.5,23.87l-4.1-7.1a.37.37,0,0,1,.13-.5.41.41,0,0,1,.18-.05h8.21Zm8.7,0H18l4.42-7.65,4.1,7.11a.36.36,0,0,1-.13.49.41.41,0,0,1-.18.05Z"/><path class="cls-3" d="M22.05,31.37,18,24.26h8.2a.36.36,0,0,1,.36.36.32.32,0,0,1-.05.19l-3.78,6.56a.37.37,0,0,1-.5.13.4.4,0,0,1-.13-.13Z"/><path class="cls-2" d="M21.29,32H13.71a.36.36,0,0,1-.36-.36.35.35,0,0,1,.05-.18l4.1-7.11,4.1,7.11a.36.36,0,0,1-.13.49.41.41,0,0,1-.18.05Z"/></svg>