<svg width="40" height="40" viewBox="0 0 40 40" fill="none" xmlns="http://www.w3.org/2000/svg">
<path d="M0 4C0 1.79086 1.79086 0 4 0H36C38.2091 0 40 1.79086 40 4V36C40 38.2091 38.2091 40 36 40H4C1.79086 40 0 38.2091 0 36V4Z" fill="#11243E"/>
<path d="M28.3851 15.1768C27.2954 13.5274 25.718 12.1495 23.9082 11.4496L23.3724 11.2733C22.781 11.0958 22.166 11.0038 21.5471 11C19.5865 11.0088 18 12.5833 18 14.5262C18 15.3355 18.2752 16.0795 18.7365 16.6719L18.5149 16.3898C18.6211 16.5432 18.7365 16.6948 18.87 16.8482C19.433 17.5094 20.2321 18.1961 21.2674 18.9754C23.8146 20.8884 25.4665 22.5862 25.6027 24.6905C25.6354 24.9744 25.6554 25.2644 25.6554 25.5579C25.6554 26.6273 25.4156 27.7592 25.007 28.5552H25.0106C25.0106 28.5552 24.8353 28.8664 24.9452 28.9572C25.0015 29.0039 25.1232 29.0392 25.3357 28.9131C26.4766 28.1925 27.4588 27.2591 28.2253 26.1671C29.3549 24.5507 29.9715 22.6483 29.9988 20.6953C30.0291 18.7421 29.468 16.8233 28.3851 15.1768Z" fill="white"/>
<path d="M20.4787 22.6495L18.9651 21.3526C15.7951 18.9511 14.1463 16.3608 15.05 13.1669C15.1318 12.8762 15.2326 12.5935 15.348 12.3172V12.3136C15.348 12.3136 15.572 11.8261 15.0844 12.0667C13.622 12.8912 12.3879 14.0916 11.5002 15.553C10.6124 17.0145 10.1007 18.688 10.0141 20.4134C9.90017 22.6148 10.4808 24.7947 11.668 26.6225C12.1474 27.3214 12.7337 27.9342 13.4038 28.4364H13.4012C16.7435 30.9908 19.6103 29.6465 19.6103 29.6465H19.6129C20.3239 29.335 20.93 28.8117 21.3549 28.1428C21.7797 27.474 22.0042 26.6894 21.9999 25.8882C22.0032 25.2633 21.8675 24.646 21.6035 24.0845C21.3395 23.5229 20.9543 23.0321 20.4778 22.6504L20.4787 22.6495Z" fill="white"/>
</svg>
