<svg width="40" height="41" viewBox="0 0 40 41" fill="none" xmlns="http://www.w3.org/2000/svg">
<rect y="0.826172" width="40" height="40" rx="4" fill="#F4F4F4"/>
<path d="M20.0001 10.8293C20.4199 11.071 20.7685 11.4191 21.011 11.8384C21.2534 12.2578 21.3811 12.7336 21.3811 13.218C21.3811 13.7024 21.2534 14.1783 21.011 14.5976C20.7685 15.017 20.4199 15.365 20.0001 15.6068C21.3852 15.6068 22.7136 16.157 23.693 17.1364C24.6724 18.1158 25.2226 19.4442 25.2226 20.8293C25.2226 22.2144 24.6724 23.5427 23.693 24.5221C22.7136 25.5015 21.3852 26.0518 20.0001 26.0518C19.5818 26.2939 19.2345 26.6418 18.9931 27.0605C18.7516 27.4792 18.6245 27.9541 18.6245 28.4374C18.6245 28.9208 18.7516 29.3956 18.9931 29.8143C19.2345 30.2331 19.5818 30.5809 20.0001 30.8231C21.3338 30.8562 22.6607 30.6222 23.9026 30.1347C25.1445 29.6472 26.2763 28.9162 27.2313 27.9846C28.1864 27.053 28.9453 25.9397 29.4635 24.7104C29.9817 23.481 30.2487 22.1603 30.2487 20.8262C30.2487 19.492 29.9817 18.1714 29.4635 16.942C28.9453 15.7126 28.1864 14.5993 27.2313 13.6678C26.2763 12.7362 25.1445 12.0051 23.9026 11.5176C22.6607 11.0302 21.3338 10.7961 20.0001 10.8293Z" fill="#50B2DD"/>
<path d="M20 30.8231C19.5802 30.5822 19.2313 30.2348 18.9886 29.8159C18.746 29.397 18.6183 28.9215 18.6183 28.4374C18.6183 27.9533 18.746 27.4778 18.9886 27.0589C19.2313 26.6401 19.5802 26.2926 20 26.0518C18.615 26.0518 17.2866 25.5015 16.3072 24.5221C15.3278 23.5427 14.7776 22.2144 14.7776 20.8293C14.7776 19.4442 15.3278 18.1158 16.3072 17.1364C17.2866 16.157 18.615 15.6068 20 15.6068C20.4198 15.365 20.7685 15.017 21.0109 14.5976C21.2534 14.1783 21.381 13.7024 21.381 13.218C21.381 12.7336 21.2534 12.2578 21.0109 11.8384C20.7685 11.4191 20.4198 11.071 20 10.8293C18.6663 10.7961 17.3394 11.0302 16.0976 11.5176C14.8557 12.0051 13.7239 12.7362 12.7688 13.6678C11.8138 14.5993 11.0548 15.7126 10.5366 16.942C10.0184 18.1714 9.75146 19.492 9.75146 20.8262C9.75146 22.1603 10.0184 23.481 10.5366 24.7104C11.0548 25.9397 11.8138 27.053 12.7688 27.9846C13.7239 28.9162 14.8557 29.6472 16.0976 30.1347C17.3394 30.6222 18.6663 30.8562 20 30.8231Z" fill="#1E1965"/>
</svg>
