<svg id="design" xmlns="http://www.w3.org/2000/svg" viewBox="0 0 40 40"><defs><style>.cls-1{fill:#15b69a;}.cls-2{fill:#fff;}</style></defs><rect class="cls-1" width="40" height="40" rx="4"/><path class="cls-2" d="M22.32,27.79a.93.93,0,0,1-.92-.93v-10h4.42V14.31H14.22v3.6a.92.92,0,1,1-1.84,0V12.46H27.66v6.26H23.25v8.14A.93.93,0,0,1,22.32,27.79Z"/><path class="cls-2" d="M17.83,31.34a.93.93,0,0,1-.92-.93V17.77a.92.92,0,1,1,1.84,0V30.41A.93.93,0,0,1,17.83,31.34Z"/><path class="cls-2" d="M27.2,8.66H12.8A4.31,4.31,0,0,0,8.5,13V27a4.31,4.31,0,0,0,4.3,4.3h.53a.92.92,0,0,0,.92-.92h0a.93.93,0,0,0-.92-.93H12.8A2.45,2.45,0,0,1,10.35,27V13a2.45,2.45,0,0,1,2.45-2.45H27.2A2.45,2.45,0,0,1,29.65,13V27a2.45,2.45,0,0,1-2.45,2.45H16.91v.81a1,1,0,0,0,1,1H27.2A4.31,4.31,0,0,0,31.5,27V13A4.31,4.31,0,0,0,27.2,8.66Z"/></svg>