<svg id="design" xmlns="http://www.w3.org/2000/svg" viewBox="0 0 40 40"><defs><style>.cls-1{fill:#0099e1;}.cls-2{fill:#fff;}</style></defs><rect class="cls-1" y="0.01" width="40" height="40" rx="4"/><path id="Path_4878" data-name="Path 4878" class="cls-2" d="M18,8.82,28,20.1a2.08,2.08,0,0,1-.4,2.91L14.89,31.58a2.07,2.07,0,0,1-3.31-1.94L14.29,9.79A2.08,2.08,0,0,1,16.63,8,2.05,2.05,0,0,1,18,8.82Zm.4,9-.62,4.49a.49.49,0,0,0,.41.53.47.47,0,0,0,.34-.1l2.88-1.93a.48.48,0,0,0,.1-.66h0l-2.27-2.55a.48.48,0,0,0-.66-.1.46.46,0,0,0-.18.32Z"/></svg>