<svg width="24" height="24" viewBox="0 0 24 24" fill="none" xmlns="http://www.w3.org/2000/svg">
<path fill-rule="evenodd" clip-rule="evenodd" d="M4.6087 7.21739C6.04944 7.21739 7.21739 6.04944 7.21739 4.6087C7.21739 3.16795 6.04944 2 4.6087 2C3.16795 2 2 3.16795 2 4.6087C2 6.04944 3.16795 7.21739 4.6087 7.21739ZM17.5268 2.74604C17.8577 2.42548 18.3084 2.18365 18.7649 2.07118C20.408 1.68313 21.9997 2.93162 21.9997 4.60752C21.9997 5.64793 21.4577 6.47463 20.4479 6.97515C17.7831 8.29649 16.2206 9.97835 16.0528 11.6994C16.0611 11.7295 16.0683 11.7646 16.0743 11.8047C16.1361 12.1585 16.4173 12.9971 16.6141 13.4022C17.109 14.3949 17.8626 15.3134 18.7456 15.9924C19.038 16.2149 19.561 16.5287 20.0953 16.7911C20.7983 17.1391 21.0176 17.276 21.2538 17.5271C21.5744 17.858 21.8162 18.3087 21.9287 18.7651C22.3167 20.4082 21.0682 22 19.3923 22C18.3519 22 17.5252 21.458 17.0247 20.4481C15.6244 17.6241 13.8191 16.038 11.9914 16.038C11.6823 16.038 11.568 16.0306 11.5651 15.9976C11.2155 16.118 10.8291 16.2723 10.5928 16.3938C9.61155 16.911 8.71029 17.6852 8.05152 18.5833C7.83569 18.8807 7.53382 19.4106 7.28354 19.9507C6.95151 20.6614 6.81959 20.8837 6.57396 21.1256C6.2504 21.4535 5.80527 21.7055 5.35152 21.8283C3.71761 22.2534 2.09801 21.0412 2.06009 19.3658C2.03655 18.3256 2.55971 17.4869 3.55795 16.9636C6.34962 15.4998 7.1897 13.9131 7.82573 11.8318C7.82572 11.6492 7.92793 11.2964 8.05423 10.9425C8.47154 9.41633 9.77001 8.25416 11.3689 8.03673C11.5591 7.97933 11.7229 7.93771 11.8045 7.92557C12.1582 7.86371 12.9969 7.58252 13.4019 7.38569C14.3947 6.89079 15.3132 6.1372 15.9921 5.25426C16.2146 4.96182 16.5284 4.43881 16.7908 3.90454C17.1389 3.20156 17.2758 2.98224 17.5268 2.74604ZM13.3479 11.913C13.3479 12.6814 12.725 13.3043 11.9566 13.3043C11.1882 13.3043 10.5653 12.6814 10.5653 11.913C10.5653 11.1446 11.1882 10.5217 11.9566 10.5217C12.725 10.5217 13.3479 11.1446 13.3479 11.913Z" fill="white"/>
</svg>
