<svg width="40" height="40" viewBox="0 0 40 40" fill="none" xmlns="http://www.w3.org/2000/svg">
<path d="M0 4C0 1.79086 1.79086 0 4 0H36C38.2091 0 40 1.79086 40 4V36C40 38.2091 38.2091 40 36 40H4C1.79086 40 0 38.2091 0 36V4Z" fill="#424243"/>
<path d="M27.999 12C28.2347 12 28.4608 12.0937 28.6275 12.2603C28.7942 12.427 28.8879 12.6531 28.8879 12.8889V27.1111C28.8879 27.3469 28.7942 27.573 28.6275 27.7397C28.4608 27.9064 28.2347 28 27.999 28H11.999C11.7632 28 11.5372 27.9064 11.3705 27.7397C11.2038 27.573 11.1101 27.3469 11.1101 27.1111V12.8889C11.1101 12.6531 11.2038 12.427 11.3705 12.2603C11.5372 12.0937 11.7632 12 11.999 12H27.999ZM27.1101 13.7778H12.8879V26.2222H27.1101V13.7778ZM17.687 16.4444L20.5306 23.5556H18.615L18.2594 22.6667H15.335L14.9794 23.5556H13.0648L15.9092 16.4444H17.687ZM26.2212 16.4444V23.5556H23.5546C22.8473 23.5556 22.169 23.2746 21.6689 22.7745C21.1688 22.2744 20.8879 21.5961 20.8879 20.8889C20.8879 20.1816 21.1688 19.5034 21.6689 19.0033C22.169 18.5032 22.8473 18.2222 23.5546 18.2222H24.4426L24.4434 16.4444H26.2212ZM24.4434 20H23.5546C23.328 20.0003 23.1101 20.087 22.9453 20.2425C22.7806 20.3981 22.6815 20.6106 22.6682 20.8368C22.6549 21.063 22.7285 21.2857 22.8739 21.4594C23.0193 21.6331 23.2256 21.7448 23.4506 21.7716L23.5546 21.7778H24.4434V20ZM16.7981 19.0089L16.0452 20.8889H17.5492L16.7981 19.0089Z" fill="white"/>
</svg>
