<svg width="24" height="24" viewBox="0 0 24 24" fill="none" xmlns="http://www.w3.org/2000/svg">
<path fill-rule="evenodd" clip-rule="evenodd" d="M16.2429 9.40515C17.4482 10.2663 18.9248 10.773 20.5194 10.773V7.70576C20.2176 7.70588 19.9166 7.67439 19.6213 7.61182V10.0262C18.0268 10.0262 16.5504 9.51947 15.3448 8.65837V14.9175C15.3448 18.0487 12.8052 20.5869 9.67262 20.5869C8.50382 20.5869 7.4174 20.2337 6.51489 19.628C7.54493 20.6806 8.98134 21.3337 10.5705 21.3337C13.7033 21.3337 16.243 18.7955 16.243 15.6642V9.40515H16.2429ZM17.3508 6.31075C16.7349 5.6382 16.3305 4.76895 16.2429 3.80796V3.41348H15.3918C15.606 4.63481 16.3367 5.67828 17.3508 6.31075ZM8.49622 17.2253C8.15212 16.7743 7.96611 16.2226 7.96694 15.6553C7.96694 14.2232 9.12858 13.0621 10.5617 13.0621C10.8287 13.0619 11.0942 13.1029 11.3488 13.1836V10.0479C11.0513 10.0071 10.7512 9.98986 10.451 9.99622V12.4369C10.1963 12.3562 9.93074 12.3152 9.66359 12.3154C8.23048 12.3154 7.06895 13.4765 7.06895 14.9087C7.06895 15.9214 7.64955 16.7982 8.49622 17.2253Z" fill="#EE1D52"/>
<path fill-rule="evenodd" clip-rule="evenodd" d="M15.3448 8.65837C16.5504 9.51947 18.0268 10.0262 19.6213 10.0262V7.61182C18.7313 7.42239 17.9433 6.95743 17.3508 6.31075C16.3367 5.67828 15.606 4.63481 15.3918 3.41348H13.1563V15.6641C13.1513 17.0923 11.9916 18.2486 10.5616 18.2486C9.71887 18.2486 8.97021 17.8472 8.4961 17.2253C7.64943 16.7982 7.06883 15.9214 7.06883 14.9087C7.06883 13.4765 8.23036 12.3154 9.66347 12.3154C9.93802 12.3154 10.2027 12.3582 10.4509 12.4369V9.99622C7.37334 10.0598 4.89819 12.5731 4.89819 15.6642C4.89819 17.2072 5.51458 18.6061 6.51489 19.6281C7.41739 20.2338 8.50381 20.587 9.67261 20.587C12.8052 20.587 15.3448 18.0487 15.3448 14.9177V8.65837Z" fill="white"/>
<path fill-rule="evenodd" clip-rule="evenodd" d="M19.6211 7.61166V6.95882C18.8184 6.96003 18.0316 6.73536 17.3506 6.31049C17.9534 6.97014 18.7472 7.42504 19.6211 7.61166ZM15.3916 3.41333C15.3711 3.29662 15.3554 3.17913 15.3446 3.06114V2.66666H12.2579V14.9174C12.2529 16.3454 11.0934 17.5018 9.66326 17.5018C9.24334 17.5018 8.84698 17.4022 8.49589 17.2251C8.97 17.847 9.71865 18.2485 10.5614 18.2485C11.9913 18.2485 13.151 17.0921 13.1561 15.664V3.41333H15.3916ZM10.4508 9.99606V9.30104C10.1929 9.26578 9.93283 9.24815 9.67251 9.24829C6.53957 9.24829 4 11.7865 4 14.9174C4 16.8803 4.9981 18.6102 6.51479 19.6278C5.51449 18.6058 4.8981 17.207 4.8981 15.664C4.8981 12.573 7.37313 10.0596 10.4508 9.99606Z" fill="#69C9D0"/>
</svg>
