<svg width="24" height="24" viewBox="0 0 24 24" fill="none" xmlns="http://www.w3.org/2000/svg">
<path d="M19.9479 8.40993C19.9597 8.58006 19.9597 8.75022 19.9597 8.92035C19.9597 14.1096 16.1103 20.0888 9.07476 20.0888C6.90723 20.0888 4.8937 19.4446 3.19995 18.3266C3.50792 18.3631 3.804 18.3752 4.12381 18.3752C5.91228 18.3752 7.55867 17.7554 8.8734 16.6982C7.1915 16.6617 5.78201 15.5315 5.29639 13.9759C5.53329 14.0123 5.77016 14.0367 6.01892 14.0367C6.3624 14.0367 6.70591 13.988 7.02568 13.903C5.27272 13.5384 3.95796 11.9585 3.95796 10.0506V10.002C4.46725 10.2936 5.05952 10.4759 5.68722 10.5002C4.65676 9.79532 3.98166 8.59221 3.98166 7.23109C3.98166 6.50194 4.17113 5.83354 4.50279 5.2502C6.38606 7.63214 9.21688 9.18767 12.3911 9.35784C12.3319 9.06617 12.2964 8.76238 12.2964 8.45856C12.2964 6.29534 14.002 4.5332 16.1221 4.5332C17.2236 4.5332 18.2185 5.00716 18.9174 5.77279C19.782 5.60266 20.6111 5.27451 21.3455 4.82487C21.0612 5.73635 20.4571 6.50198 19.6636 6.98805C20.4335 6.90303 21.1797 6.68423 21.8666 6.38044C21.3456 7.15818 20.6941 7.85087 19.9479 8.40993Z" fill="white"/>
</svg>
