<svg width="20" height="12" viewBox="0 0 20 12" fill="none" xmlns="http://www.w3.org/2000/svg">
<path d="M19.2236 1.10954C19.2236 0.665888 19.3345 0.523201 19.6513 0.44386L20 0.348729V0.063347H16.7189V0.348729L17.115 0.44386C17.432 0.523201 17.6066 0.63411 17.6066 1.09376V8.71835C17.6066 9.78034 17.5113 10.6363 16.7189 10.6363C16.2115 10.6363 15.8312 10.24 15.8472 9.9548C15.8943 9.46317 16.7189 9.49515 16.7823 8.70235C16.8298 8.13179 16.4651 7.89397 16.1324 7.84661C15.6409 7.78306 15.0388 8.19514 15.0226 9.01952C15.0066 10.0815 15.7043 11.0486 16.8932 11.0486C18.209 11.0486 19.2236 10.1608 19.2236 8.46453V1.10954ZM14.6296 8.14757C14.6296 4.89805 11.0631 4.04211 11.0631 1.68032C11.0631 1.17311 11.2534 0.412076 12.0458 0.412076C13.1871 0.412076 13.6152 1.88636 13.8054 3.67759H14.1066V0.063347H13.9163C13.837 0.412081 13.6943 0.570764 13.4885 0.570764C13.1237 0.570764 12.9335 0 12.0617 0C10.7144 0 9.79487 1.12554 9.79487 2.59961C9.79487 5.27857 13.3616 6.40391 13.3616 8.87683C13.3616 10.0022 12.8384 10.6363 12.1251 10.6363C11.0631 10.6363 10.3656 9.38424 10.1754 7.37097H9.87422V10.985H10.0645C10.223 10.462 10.429 10.4145 10.6033 10.4145C10.9046 10.4145 11.2216 11.0486 12.1409 11.0486C13.5518 11.0486 14.6296 9.8281 14.6296 8.14757ZM2.94834 11.0168H3.59824L5.07231 3.21795H4.85048L6.46725 11.0168H7.03801L8.97194 1.82301C9.17798 0.855944 9.2889 0.523196 9.66941 0.427863L9.97058 0.348729V0.063347H7.73548V0.348729L8.06843 0.412076C8.54386 0.507204 8.65478 0.792588 8.43295 1.96549L7.18071 8.13179H7.37096L6.10273 1.63275C5.97582 1.01442 5.89669 0.507204 6.41989 0.412076L6.76842 0.348729V0.063347H3.70915V0.348729L3.9152 0.396289C4.23236 0.475426 4.27992 0.665892 4.40662 1.26823L4.89805 3.63002L4.80292 2.20331L3.70915 7.97331H3.85185L2.56783 1.63275C2.42513 0.982844 2.37757 0.491417 2.88478 0.396289L3.12281 0.348729V0.063347H-1.25132e-05V0.348729L0.301156 0.427863C0.586335 0.507204 0.745019 0.649898 0.935275 1.52163L2.94834 11.0168Z" fill="#1C1C21"/>
</svg>
