<?xml version="1.0" encoding="UTF-8"?><svg id="design" xmlns="http://www.w3.org/2000/svg" viewBox="0 0 40 40"><defs><style>.cls-1{fill:#fff;}.cls-2{fill:#262627;}</style></defs><rect class="cls-2" width="40" height="40" rx="4" ry="4"/><path class="cls-1" d="M21.5,10.62c.5,0,.96,.05,1.42,.14,.94,.2,1.75,.65,2.5,1.38,.73,.71,1.35,1.6,1.9,2.75,.6,1.26,.98,2.5,1.16,3.78,.18,1.31,.09,2.61-.24,3.87-.1,.33-.2,.66-.29,.92-.06,.18-.11,.34-.15,.47-.7,1.64-1.42,2.78-2.35,3.68-1.05,1.04-2.29,1.61-3.79,1.74-.26,.02-.52,.03-.78,.03-.93,0-1.88-.15-2.83-.44-1.28-.39-2.34-.98-3.23-1.8-.75-.7-1.35-1.54-1.85-2.57-.75-1.56-1.24-3.19-1.46-4.86-.16-1.23-.13-2.25,.11-3.19,.23-.94,.7-1.75,1.43-2.49,.64-.65,1.42-1.21,2.4-1.72,1.44-.74,2.89-1.25,4.31-1.51,.62-.12,1.18-.17,1.72-.17m0-.5c-.61,0-1.21,.07-1.82,.18-1.56,.29-3.03,.83-4.45,1.56-.92,.48-1.78,1.06-2.52,1.81-.75,.76-1.3,1.66-1.56,2.72-.28,1.11-.28,2.24-.13,3.38,.23,1.76,.74,3.42,1.5,5.01,.49,1.03,1.13,1.95,1.96,2.72,1,.92,2.16,1.52,3.43,1.91,.98,.3,1.97,.47,2.98,.47,.27,0,.55-.01,.83-.04,1.57-.14,2.94-.74,4.1-1.88,1.04-1.02,1.78-2.25,2.47-3.87h0c.08-.29,.28-.84,.44-1.42,.36-1.34,.44-2.7,.26-4.07-.19-1.38-.61-2.69-1.2-3.93-.52-1.08-1.15-2.07-2.01-2.89-.79-.76-1.69-1.28-2.74-1.51-.51-.11-1.02-.16-1.53-.16h0Z"/></svg>