<?xml version="1.0" encoding="UTF-8"?><svg id="design" xmlns="http://www.w3.org/2000/svg" viewBox="0 0 40 40"><defs><style>.cls-1{fill:#fff;}.cls-2{fill:#315cfd;}</style></defs><rect class="cls-2" width="40" height="40" rx="4" ry="4"/><path class="cls-1" d="M15.34,10h9.38c1.75,0,3.12,1.38,3.06,3.06v10.25c0,1.69-1.37,3.06-3.06,3.06h-2.06l1.13,3.62-5.44-3.62h-3c-1.75,0-3.12-1.38-3.12-3.12V13.07c0-1.69,1.37-3.07,3.12-3.07Zm3.64,11.25c-.32-.18-.57-.43-.77-.77-.19-.34-.29-.74-.29-1.21v-5.46c0-.08-.02-.15-.06-.19-.04-.04-.1-.07-.19-.07h-1.4s-.06,0-.09,.02c-.03,.01-.06,.03-.07,.06-.04,.05-.07,.12-.07,.18v5.44c0,.87,.18,1.6,.54,2.19,.36,.59,.84,1.03,1.44,1.32,.6,.29,1.28,.43,2.02,.43s1.42-.14,2.02-.42c.6-.28,1.08-.72,1.44-1.3,.36-.59,.54-1.32,.54-2.19v-5.45s0-.07-.02-.1c-.01-.03-.03-.06-.06-.09-.05-.05-.12-.08-.2-.08h-1.33c-.08,0-.14,.02-.19,.07-.05,.05-.07,.11-.07,.19v5.46c0,.44-.09,.83-.28,1.17-.19,.34-.44,.6-.77,.79s-.68,.28-1.07,.28c-.4,0-.75-.08-1.07-.26Z"/></svg>