<svg width="24" height="24" viewBox="0 0 24 24" fill="none" xmlns="http://www.w3.org/2000/svg">
<path fill-rule="evenodd" clip-rule="evenodd" d="M11.9878 4.2734L17.6671 7.54679V4.2734L11.9878 1L6.32007 4.2734V7.54679L11.9878 4.2734ZM9.29273 10.2997H6.32007C6.32007 10.2997 6.32007 17.7718 6.33163 17.7718C6.33163 19.4606 6.87527 20.7329 7.92785 21.6467C8.98043 22.5605 10.3337 23 11.9762 23C13.6303 23 14.9836 22.5605 16.0593 21.6467C17.135 20.7329 17.6786 19.4143 17.6786 17.6909V10.2997H14.706V17.4942C14.706 19.3565 13.318 20.2934 11.9994 20.2934C10.6807 20.2934 9.29273 19.3796 9.29273 17.5174V10.2997Z" fill="white"/>
</svg>
