<svg width="18" height="18" viewBox="0 0 18 18" fill="none" xmlns="http://www.w3.org/2000/svg">
<path fill-rule="evenodd" clip-rule="evenodd" d="M15.6777 5.34003C15.7761 5.01177 15.6777 4.78198 15.2181 4.78198H13.6862C13.2923 4.78198 13.1172 4.98988 13.0187 5.21967C13.0187 5.21967 12.2418 7.12359 11.1367 8.3491C10.7756 8.71019 10.6224 8.81961 10.4254 8.81961C10.327 8.81961 10.1847 8.71019 10.1847 8.38193V5.34003C10.1847 4.94611 10.0753 4.78198 9.74703 4.78198H7.33976C7.09903 4.78198 6.94584 4.968 6.94584 5.13213C6.94584 5.50416 7.49295 5.5917 7.5586 6.62025V8.87432C7.5586 9.36672 7.47106 9.45425 7.27411 9.45425C6.75983 9.45425 5.49054 7.55033 4.74647 5.36191C4.59328 4.95706 4.45104 4.78198 4.05712 4.78198H2.52522C2.08754 4.78198 2 4.98988 2 5.21967C2 5.62452 2.51428 7.63787 4.41821 10.2968C5.6875 12.1132 7.47106 13.098 9.0905 13.098C10.0643 13.098 10.1847 12.8791 10.1847 12.5071V11.1284C10.1847 10.6907 10.2722 10.6032 10.5896 10.6032C10.8194 10.6032 11.2023 10.7126 12.1105 11.588C13.15 12.6275 13.3251 13.098 13.905 13.098H15.4369C15.8746 13.098 16.0935 12.8791 15.9622 12.4524C15.8199 12.0256 15.3275 11.4019 14.671 10.6579C14.3099 10.2311 13.7737 9.78252 13.6205 9.55273C13.3908 9.2573 13.4564 9.12599 13.6205 8.87432C13.6205 8.86338 15.4916 6.23728 15.6777 5.34003Z" fill="white"/>
</svg>
