<?xml version="1.0" encoding="UTF-8"?><svg id="design" xmlns="http://www.w3.org/2000/svg" viewBox="0 0 40 40"><defs><style>.cls-1{fill:#f4f4f4;}.cls-2{fill:#8759f2;}.cls-3{fill:#ff3e80;}.cls-4{fill:#00d4e6;}.cls-5{fill:#ffc300;}</style></defs><rect class="cls-1" width="40" height="40" rx="4" ry="4"/><g><path class="cls-2" d="M20.06,22.74l-3.73-6.48h-3.76c-1.54,0-2.5,1.68-1.74,3l5.61,9.74c.76,1.32,2.69,1.35,3.48,0l3.62-6.26c-.76,1.35-2.69,1.32-3.48,0Z"/><path class="cls-3" d="M23.82,16.26h-7.49l3.73,6.48c.76,1.32,2.69,1.35,3.48,0l2.02-3.48c.76-1.35-.22-3-1.74-3Z"/><path class="cls-5" d="M27.44,10h-11.25c-1.54,0-2.5,1.66-1.74,3l1.88,3.26h7.49c1.54,0,2.5,1.68,1.74,3l3.62-6.26c.76-1.32-.2-3-1.74-3Z"/><path class="cls-4" d="M14.44,13c-.36-.62-.36-1.38,0-1.99l-3.62,6.26c.36-.62,1.01-1.01,1.74-1.01h3.76l-1.88-3.26Z"/></g></svg>