<svg width="40" height="40" viewBox="0 0 40 40" fill="none" xmlns="http://www.w3.org/2000/svg">
<rect y="0.000488281" width="40" height="40" rx="4" fill="#1AB7EA"/>
<path d="M9 15.6318L10.0879 17.0189C10.0879 17.0189 11.4478 15.9582 11.9373 15.9582C12.2414 15.9582 12.8892 16.3118 13.2972 17.5357C13.7052 18.7596 15.4229 25.1038 15.5274 25.3958C15.9969 26.708 16.6153 29.1491 18.5192 29.5026C20.423 29.8562 22.8436 27.9252 24.1762 26.5109C25.5089 25.0966 30.7581 19.0587 30.9756 15.4414C31.1769 12.0968 30.0797 11.3207 29.5885 11.0082C28.691 10.437 27.1952 10.2467 25.7809 10.7362C24.3666 11.2257 22.218 12.8304 21.6469 15.6862C21.6469 15.6862 23.5779 14.979 24.2851 15.6589C24.9922 16.3389 24.8018 17.8348 24.2035 18.9499C23.6051 20.065 21.9189 22.6487 21.2933 22.7303C20.6678 22.8119 20.1782 21.588 20.0966 21.2616C20.015 20.9353 18.9815 16.4477 18.6008 13.8367C18.22 11.2258 16.561 10.7906 15.7722 10.7906C14.9835 10.7906 13.6236 11.389 9 15.6318Z" fill="white"/>
</svg>
