<svg id="design" xmlns="http://www.w3.org/2000/svg" viewBox="0 0 40 40"><defs><style>.cls-1{fill:#b228ee;}.cls-2{fill:#fff;}</style></defs><rect class="cls-1" y="0.01" width="40" height="40" rx="4"/><path class="cls-2" d="M16.19,11.47a.87.87,0,0,1,1.21.06L20,14.15l-1.28,1.34L17.1,13.84a.55.55,0,0,0-.67-.06l-.06.06c-2,1.89-3.84,3.84-5.78,5.79a.47.47,0,0,0-.06.67l.06.06,5.48,5.47a1.52,1.52,0,0,0,.48.43.59.59,0,0,0,.55-.12l1.58-1.58L20,25.9l-2.43,2.43a4.89,4.89,0,0,1-.55.43,1,1,0,0,1-1-.25L8.27,20.78a1,1,0,0,1,0-1.34h0c2.68-2.74,5.3-5.35,7.92-8Z"/><path class="cls-2" d="M22.64,11.47a1,1,0,0,1,1.34,0h0l7.73,7.73a1,1,0,0,1,.24,1,2.24,2.24,0,0,1-.48.61l-7.25,7.31a2.24,2.24,0,0,1-.61.48.93.93,0,0,1-1-.24L20,25.77,18.74,24.5l-3.89-3.9a.88.88,0,0,1,0-1.28h0l3.83-3.83L20,14.15c.85-.92,1.77-1.77,2.62-2.68Z"/></svg>