<?xml version="1.0" encoding="UTF-8"?><svg id="design" xmlns="http://www.w3.org/2000/svg" viewBox="0 0 40 40"><defs><style>.cls-1{fill:#fff;}.cls-2{fill:#1b182d;}</style></defs><rect class="cls-2" width="40" height="40" rx="4" ry="4"/><path class="cls-1" d="M12.17,28.49c-.21,0-.38-.04-.6-.09-.94-.3-1.57-1.15-1.57-2.13V13.69c0-1.19,.98-2.17,2.17-2.17s2.17,.94,2.17,2.17v5.02l3.83-6.17c.51-.81,1.49-1.19,2.42-.94,.94,.26,1.57,1.11,1.57,2.08v5.02l3.83-6.17c.64-1.02,1.96-1.32,2.98-.72,1.02,.64,1.32,1.96,.72,2.98l-7.91,12.68c-.51,.81-1.49,1.19-2.42,.94s-1.57-1.11-1.57-2.08v-5.02l-3.83,6.17c-.34,.64-1.06,1.02-1.79,1.02Z"/></svg>