<svg id="design" xmlns="http://www.w3.org/2000/svg" viewBox="0 0 40 40"><defs><style>.cls-1{fill:#3192e7;}.cls-2{fill:#fff;}</style></defs><rect class="cls-1" y="0.01" width="40" height="40" rx="4"/><path class="cls-2" d="M27.9,10.8A4,4,0,0,0,24,13.91a4.11,4.11,0,0,0-8,0A4,4,0,0,0,12.1,10.8,3.89,3.89,0,0,0,8,14.54,7.11,7.11,0,0,0,8.51,17l3.11,8.82A4.49,4.49,0,0,0,16,29.19a4.22,4.22,0,0,0,4-2.62,4.23,4.23,0,0,0,4,2.63,4.49,4.49,0,0,0,4.35-3.37L31.51,17l0-.07c0-.12.07-.22.1-.32A5.21,5.21,0,0,0,32,14.84a3.93,3.93,0,0,0-4.1-4Zm1.48,5.42-3.13,8.85c-.39,1.07-1,1.87-2.22,1.87a2.09,2.09,0,0,1-2.12-1.7L20,19.35H20l-1.88,5.89A2.08,2.08,0,0,1,16,26.93a2.34,2.34,0,0,1-2.22-1.86l-3.11-8.8a5.23,5.23,0,0,1-.38-1.73,1.65,1.65,0,0,1,1.84-1.48,1.75,1.75,0,0,1,1.73,1.46l2.12,7H16l2.14-6.86c.28-1,.79-1.61,1.86-1.61s1.58.62,1.86,1.61L24,21.53h.05l2.12-7a1.75,1.75,0,0,1,1.73-1.46,1.7,1.7,0,0,1,1.84,1.78,5,5,0,0,1-.36,1.38Z"/></svg>