<svg width="15" height="20" viewBox="0 0 15 20" fill="none" xmlns="http://www.w3.org/2000/svg">
<path d="M11.276 4.89652V15.8756C12.7594 15.0745 13.7981 13.6797 14.3024 12.1069L14.4212 12.1665C14.0945 16.0835 11.4242 20 7.27002 20C3.08603 20 0 16.8846 0 11.8991C0 8.16057 2.43313 5.81601 5.54898 3.70911C5.0937 3.58968 4.62485 3.52984 4.15417 3.53109C2.01745 3.53109 0.771288 4.98509 0.771288 6.46891H0.593265C0.563448 6.26107 0.563448 6.05367 0.563448 5.84583C0.563448 3.20486 1.95826 0 5.34114 0C7.50724 0 9.16908 1.98807 11.6912 1.98807C12.7002 1.98807 13.9463 1.5132 14.4506 0.415242H14.5396C14.5102 2.34456 13.917 4.33263 11.276 4.89652ZM12.8782 16.1427C11.3944 17.7151 9.79216 19.0507 7.71508 19.0507C3.85776 19.0507 0.890555 16.0239 0.890555 11.632C0.890555 9.05069 1.9587 7.65632 3.14566 6.02385H3.02684C2.28493 6.76576 0.326668 8.63501 0.326668 11.8101C0.326668 16.6768 3.38288 19.6738 7.38885 19.6738C10.178 19.6738 12.0771 17.7453 12.9378 16.1725L12.8782 16.1427ZM14.0647 1.75129C13.5605 2.70061 12.4923 3.91695 10.3262 3.91695C8.16013 3.91695 6.17206 2.43313 4.42121 2.43313C2.81856 2.43313 1.72104 3.50171 1.30536 4.30281L1.33518 4.36245C1.89906 3.79856 2.75936 3.23467 4.15417 3.23467C6.46847 3.23467 7.95229 4.6593 10.2964 4.6593C12.7892 4.6593 13.9165 3.02684 14.1244 1.78111L14.0647 1.75129ZM5.81558 3.79856C4.30238 5.37139 2.90757 7.09243 2.90757 10.4455C2.90757 12.2849 3.53065 14.184 4.92546 15.371L5.78576 14.9255V6.9736L4.98465 7.38884L4.83645 7.09199L8.99062 4.83645C7.86328 4.59967 6.85434 4.09541 5.81558 3.79856ZM10.9493 4.95571C10.7415 4.98509 10.5341 4.98509 10.2964 4.98509C9.88117 4.98509 9.49531 4.95571 9.10945 4.86626V13.5307L5.22231 15.6384C6.02342 16.2317 7.00254 16.5877 8.24871 16.5877C9.25765 16.5877 10.1478 16.3799 10.9489 16.0239L10.9493 4.95571ZM6.67631 6.46935L6.11243 6.79558V14.7483L6.67631 14.4515V6.46935Z" fill="white"/>
</svg>
