<svg id="design" xmlns="http://www.w3.org/2000/svg" xmlns:xlink="http://www.w3.org/1999/xlink" viewBox="0 0 40 40"><defs><style>.cls-1{fill:#f4f4f4;}.cls-2{fill:#b3b3b3;}.cls-3,.cls-6{fill:#fff;}.cls-4{fill:none;}.cls-5{fill:url(#linear-gradient);}.cls-6{fill-rule:evenodd;}</style><linearGradient id="linear-gradient" x1="19.94" y1="-869.18" x2="20.04" y2="-885.99" gradientTransform="matrix(1, 0, 0, -1, 0, -858)" gradientUnits="userSpaceOnUse"><stop offset="0" stop-color="#57d163"/><stop offset="1" stop-color="#23b33a"/></linearGradient></defs><rect class="cls-1" y="0.01" width="40" height="40" rx="4"/><path class="cls-2" d="M14.74,28.21l.36.22a9.87,9.87,0,0,0,5,1.37h0a9.85,9.85,0,1,0-8.33-4.61l.23.37-1,3.63ZM8.17,32l1.68-6.13A11.84,11.84,0,0,1,20.11,8.12a11.84,11.84,0,0,1,0,23.68h0a11.85,11.85,0,0,1-5.66-1.45Z"/><path class="cls-3" d="M8.05,31.88l1.68-6.13A11.84,11.84,0,0,1,20,8,11.85,11.85,0,0,1,31.83,19.84,11.86,11.86,0,0,1,20,31.67h0a11.72,11.72,0,0,1-5.65-1.44Z"/><path class="cls-4" d="M20,10a9.83,9.83,0,0,0-8.33,15.07l.23.37-1,3.63,3.72-1,.36.21a9.88,9.88,0,0,0,5,1.38h0A9.84,9.84,0,1,0,20,10Z"/><path class="cls-5" d="M20,10a9.83,9.83,0,0,0-8.33,15.07l.23.37-1,3.63,3.72-1,.36.21a9.78,9.78,0,0,0,5,1.37h0A9.84,9.84,0,1,0,20,10Z"/><path class="cls-6" d="M17,14.89c-.22-.5-.45-.51-.66-.52H15.8a1.07,1.07,0,0,0-.79.37,3.3,3.3,0,0,0-1,2.46,5.73,5.73,0,0,0,1.21,3.06,12.2,12.2,0,0,0,5.05,4.47c2.5,1,3,.79,3.55.74a3,3,0,0,0,2-1.41A2.38,2.38,0,0,0,26,22.65c-.07-.12-.27-.19-.57-.34s-1.75-.86-2-1-.46-.15-.66.15-.77,1-.94,1.15-.34.23-.64.08a8.17,8.17,0,0,1-2.38-1.47,8.58,8.58,0,0,1-1.64-2.05c-.18-.29,0-.45.13-.6s.29-.35.44-.52a1.9,1.9,0,0,0,.3-.49.53.53,0,0,0,0-.52c-.07-.15-.65-1.61-.91-2.19"/></svg>