<svg id="design" xmlns="http://www.w3.org/2000/svg" viewBox="0 0 40 40"><defs><style>.cls-1{fill:#08cf65;}.cls-2{fill:#fff;}</style></defs><rect class="cls-1" y="0.01" width="40" height="40" rx="4"/><path class="cls-2" d="M13.62,17.91A2.92,2.92,0,0,1,16.17,19l4.52,4.6a.57.57,0,0,1,.19.27.18.18,0,0,1,0,.09.23.23,0,0,1,0,.11c0,.08-.05.13-.19.27l-3.08,3.16a.78.78,0,0,1-.27.19.18.18,0,0,1-.09,0,.23.23,0,0,1-.11,0,.73.73,0,0,1-.27-.19L8.15,18.58c-.27-.26-.17-.64.27-.64h5.22v0ZM26.36,12.3a2.93,2.93,0,0,0-2.55,1.09L19.3,18a.73.73,0,0,0-.2.28.25.25,0,0,0,0,.09.31.31,0,0,0,0,.09c0,.08,0,.13.2.28l3.07,3.13a.59.59,0,0,0,.27.2h.2a.64.64,0,0,0,.28-.18L31.86,13c.25-.26.16-.65-.27-.65Z"/></svg>