<svg id="design" xmlns="http://www.w3.org/2000/svg" viewBox="0 0 40 40"><defs><style>.cls-1{fill:#0f407e;}.cls-2{fill:#fff;}</style></defs><rect class="cls-1" y="0.01" width="40" height="40" rx="4"/><rect class="cls-2" x="8" y="8" width="24" height="24" rx="3.95"/><path class="cls-1" d="M32,16.78v2a11,11,0,0,0-3.16.36,6.39,6.39,0,0,0-4.92,4.45c-.75,2.36-1.32,4.78-2,7.17-.11.4-.23.79-.37,1.28H19l-1.12-3.81a26.34,26.34,0,0,0-1.35-3.84c-.74,2.54-1.47,5.07-2.21,7.64H11.73c-1-3.67-1.91-7.33-2.87-11.06l2-.53C11.55,23.23,12.27,26,13,29l2.45-8.37H17.9c.78,2.72,1.56,5.44,2.39,8.35.47-1.81.88-3.45,1.33-5.08.72-2.56,2-4.79,4.49-6A12.23,12.23,0,0,1,32,16.78Z"/></svg>