<svg id="design" xmlns="http://www.w3.org/2000/svg" viewBox="0 0 40 40"><defs><style>.cls-1{fill:#fff;fill-rule:evenodd;}</style></defs><rect y="0.01" width="40" height="40" rx="4"/><path class="cls-1" d="M15.35,22.82c-.23-.36-.42-.55-.75-.55s-.53.19-.76.55l-1,1.61c-.38.62-.69,1.05-1.43,1.05s-1.06-.3-1.42-1.14A25.26,25.26,0,0,1,8.67,20.4a17.29,17.29,0,0,1-.67-4c0-.94.29-1.49,1.3-1.69a31.13,31.13,0,0,1,5.3-.4,31.3,31.3,0,0,1,5.3.4c1,.2,1.29.75,1.29,1.69a17.29,17.29,0,0,1-.67,4,25.26,25.26,0,0,1-1.32,3.94c-.35.84-.69,1.14-1.42,1.14s-1.05-.43-1.42-1.05Zm15.94,1.51a5.17,5.17,0,0,1-3.81,1.32A5.37,5.37,0,0,1,21.84,20a5.24,5.24,0,0,1,5.53-5.52c2.79,0,4.63,1.47,4.63,3.46A3.17,3.17,0,0,1,28.65,21a3.37,3.37,0,0,1-2.16-.58c-.19-.15-.29-.13-.29,0a2.47,2.47,0,0,0,.71,1.78,2.59,2.59,0,0,0,1.76.64,3.93,3.93,0,0,0,1.84-.43.89.89,0,0,1,1.28.26C32.1,23.23,31.66,23.9,31.29,24.33Z"/></svg>