<?xml version="1.0" encoding="UTF-8"?><svg id="design" xmlns="http://www.w3.org/2000/svg" viewBox="0 0 40 40"><defs><style>.cls-1{fill:#fff;}.cls-2{fill:#4353ff;}</style></defs><rect class="cls-2" width="40" height="40" rx="4" ry="4"/><path class="cls-1" d="M24.82,17.12l-1.75,5.52c0-.42-1.21-9.58-1.21-9.58-2.78,0-4.25,1.97-5.03,4.06l-2.14,5.53c0-.4-.3-5.49-.3-5.49-.21-2.28-2.1-4.04-4.39-4.1l2.27,13.87c2.9,0,4.47-1.97,5.28-4.06l1.81-4.71c0,.19,1.21,8.77,1.21,8.77,2.43,0,4.59-1.58,5.32-3.9l4.11-9.98c-2.9,0-4.42,1.97-5.2,4.06h.01Z"/></svg>