<?xml version="1.0" encoding="UTF-8"?><svg id="design" xmlns="http://www.w3.org/2000/svg" viewBox="0 0 40 40"><defs><style>.cls-1{fill:#4526ce;}.cls-2{fill:#fff;}</style></defs><rect class="cls-1" width="40" height="40" rx="4" ry="4"/><path class="cls-2" d="M29.39,18.78c0-4.85-3.94-8.78-8.78-8.78-1.34,0-2.66,.26-3.89,.79-1.2,.51-2.26,1.23-3.18,2.14-.92,.91-1.64,1.98-2.14,3.17-.52,1.23-.79,2.54-.79,3.89s.26,2.66,.79,3.89c.51,1.19,1.23,2.25,2.14,3.17,.92,.92,1.99,1.64,3.18,2.14,1.23,.52,2.54,.79,3.89,.79s2.54-.25,3.68-.7l-.76-1.91c-.9,.36-1.89,.56-2.92,.56-2.12,0-4.12-.83-5.62-2.33-1.5-1.5-2.33-3.5-2.33-5.62s.83-4.12,2.33-5.62c1.51-1.5,3.5-2.33,5.62-2.33,3.72,0,6.73,3.01,6.73,6.73,0,1.37-.41,2.64-1.12,3.71l-1.75-4.3c-.26-.63-.57-1.58-1.73-1.58s-1.47,.95-1.72,1.58l-1.61,3.97-2.16-5.45h-2.27l2.69,6.63c.27,.67,.57,1.58,1.74,1.58s1.46-.91,1.73-1.58l1.59-3.94,1.6,3.94c.32,.82,.67,1.58,1.73,1.58,.76,0,1.23-.48,1.5-.8,1.13-1.48,1.81-3.33,1.81-5.33Z"/></svg>