<?xml version="1.0" encoding="UTF-8"?><svg id="design" xmlns="http://www.w3.org/2000/svg" viewBox="0 0 40 40"><defs><style>.cls-1{fill:#fff;}.cls-2{fill:#1e64f0;}</style></defs><rect class="cls-2" width="40" height="40" rx="4" ry="4"/><path id="Wistia_Flags_Brand_Blue" class="cls-1" d="M22.05,25.4c-2.71,.74-8.8,.39-9.78,.39s-2.27,0-2.27,0l3.73-4.2c1.01-1.14,1.53-1.38,2.66-1.38s3.74,.11,5.16-.03c2.63-.25,4.68-.91,5.66-1.53,2.31-1.46,2.77-2.38,2.77-2.38,0,0,.86,6.72-7.93,9.13Zm7.7-11.8c.42-2.58-1.03-3.29-1.03-3.29,0,0,.06,2.1-3.8,2.54-3.42,.39-14.91,.1-14.91,.1l3.69,4.23c1,1.15,1.53,1.28,2.66,1.36,1.12,.08,3.61,.05,5.29-.08,1.84-.14,4.46-.74,6.23-2.11,.91-.7,1.7-1.68,1.88-2.76Z"/></svg>