<?xml version="1.0" encoding="UTF-8"?><svg id="design" xmlns="http://www.w3.org/2000/svg" xmlns:xlink="http://www.w3.org/1999/xlink" viewBox="0 0 40 40"><defs><style>.cls-1{fill:url(#linear-gradient-2);}.cls-2{fill:#f4f4f4;}.cls-3{opacity:.85;}.cls-4{fill:url(#linear-gradient-3);}.cls-5{fill:url(#linear-gradient);}</style><linearGradient id="linear-gradient" x1="-732.6" y1="694.11" x2="-731.46" y2="694.11" gradientTransform="translate(20850.48 33255.07) scale(28.47 -47.88)" gradientUnits="userSpaceOnUse"><stop offset="0" stop-color="#00eaff"/><stop offset="1" stop-color="#0027ff"/></linearGradient><linearGradient id="linear-gradient-2" x1="-731.09" y1="694.06" x2="-732.82" y2="694.06" gradientTransform="translate(20807.41 33153.68) scale(28.39 -47.74)" gradientUnits="userSpaceOnUse"><stop offset=".34" stop-color="#00eaff"/><stop offset="1" stop-color="#2fff5d"/></linearGradient><linearGradient id="linear-gradient-3" x1="-688.48" y1="651.94" x2="-685.35" y2="651.94" gradientTransform="translate(7161.66 8830.65) scale(10.41 -13.52)" xlink:href="#linear-gradient"/></defs><rect class="cls-2" width="40" height="40" rx="4" ry="4"/><g><path class="cls-5" d="M14.11,11.63c.49,0,.95,.19,1.29,.54l3.81,3.8c2.22,2.22,2.22,5.82,0,8.04l-3.81,3.8c-.46,.48-1.14,.67-1.78,.51-.64-.17-1.14-.67-1.31-1.31-.17-.64,.03-1.32,.51-1.78l3.23-3.22c.54-.54,.84-1.26,.84-2.02s-.3-1.49-.84-2.02l-3.23-3.22c-.52-.52-.68-1.31-.4-1.99s.95-1.13,1.69-1.13m0-1.63c-1.4,0-2.66,.84-3.2,2.13-.54,1.29-.24,2.78,.75,3.77l3.23,3.22c.48,.48,.48,1.26,0,1.74l-3.23,3.22c-1.37,1.33-1.4,3.52-.06,4.89,1.34,1.37,3.53,1.39,4.9,.06l.06-.06,3.81-3.8c2.86-2.86,2.86-7.49,0-10.35l-3.81-3.8c-.65-.65-1.53-1.01-2.45-1.01Z"/><g class="cls-3"><path class="cls-1" d="M25.92,11.63c.74,0,1.41,.44,1.69,1.13,.28,.68,.13,1.47-.4,1.99l-3.22,3.22c-1.12,1.12-1.12,2.93,0,4.04l3.22,3.22c.5,.45,.71,1.13,.55,1.78-.16,.65-.66,1.16-1.3,1.34-.65,.17-1.34-.02-1.8-.51l-.04-.04-3.8-3.8c-2.22-2.22-2.22-5.82,0-8.04l3.81-3.8c.34-.34,.81-.53,1.29-.53m0-1.63c-.92,0-1.8,.36-2.45,1.01l-3.81,3.8c-2.86,2.86-2.86,7.49,0,10.35l3.81,3.8c1.36,1.32,3.53,1.31,4.87-.03,1.34-1.34,1.35-3.5,.03-4.86l-3.23-3.22c-.48-.48-.48-1.26,0-1.74l3.22-3.22c.99-.99,1.29-2.47,.75-3.77-.54-1.29-1.8-2.13-3.2-2.13h0Z"/></g><path class="cls-4" d="M20.37,14.81l-2.57-2.56v2.31l1.41,1.41c.55,.55,.98,1.21,1.27,1.93h1.67v-.18c-.35-1.1-.97-2.1-1.78-2.91h0Z"/></g></svg>