<?xml version="1.0" encoding="UTF-8"?><svg id="design" xmlns="http://www.w3.org/2000/svg" viewBox="0 0 40 40"><defs><style>.cls-1{fill:#ff1a1a;}.cls-2{fill:#fff;}</style></defs><rect class="cls-1" width="40" height="40" rx="4" ry="4"/><path id="path817" class="cls-2" d="M17.2,22.62l.94-.21s.05-.01,.09-.02c.54-.14,.87-.68,.74-1.21v-.02c-.03-.12-.09-.24-.16-.34-.11-.13-.24-.24-.38-.32-.17-.1-.36-.18-.54-.25l-1.03-.37c-.58-.21-1.15-.42-1.74-.62-.38-.13-.7-.25-.98-.33-.05-.01-.11-.03-.16-.05-.34-.1-.57-.14-.77-.14-.13,0-.27,.02-.39,.07-.13,.05-.24,.14-.34,.24-.05,.05-.09,.11-.13,.16-.08,.12-.15,.25-.2,.39-.19,.55-.29,1.14-.28,1.72,0,.53,.02,1.21,.31,1.67,.07,.12,.17,.22,.28,.3,.21,.14,.42,.16,.65,.18,.33,.02,.65-.06,.97-.13l3.12-.71h0Zm10.47-4.89c-.26-.53-.6-1.01-1.02-1.43-.05-.05-.11-.1-.17-.15-.06-.04-.12-.08-.18-.12-.06-.03-.13-.06-.19-.09-.13-.05-.27-.07-.41-.07-.13,0-.26,.04-.38,.11-.18,.09-.37,.23-.63,.46-.04,.03-.08,.07-.12,.11-.21,.2-.45,.44-.73,.72-.43,.43-.86,.86-1.29,1.3l-.76,.78c-.14,.14-.27,.29-.38,.46-.1,.14-.16,.29-.2,.45-.02,.13-.02,.25,0,.38v.02c.13,.53,.66,.87,1.21,.77,.03,0,.06-.01,.09-.02l4.06-.92c.32-.07,.64-.14,.93-.3,.19-.11,.38-.22,.5-.44,.07-.12,.11-.25,.12-.39,.06-.54-.23-1.16-.46-1.64h0Zm-7.26,1.67c.29-.36,.29-.9,.32-1.34,.09-1.48,.18-2.95,.26-4.43,.03-.56,.09-1.11,.06-1.67-.03-.46-.03-1-.33-1.38-.53-.67-1.65-.62-2.42-.51-.24,.03-.47,.08-.7,.13-.23,.05-.47,.11-.69,.19-.74,.24-1.77,.67-1.95,1.51-.1,.47,.14,.95,.32,1.38,.22,.52,.52,.99,.8,1.48,.73,1.3,1.46,2.58,2.2,3.87,.22,.38,.46,.87,.89,1.07,.03,.01,.06,.02,.09,.03,.19,.07,.4,.08,.6,.04h.04c.18-.06,.35-.16,.48-.29,.02-.02,.05-.04,.07-.07h0Zm-.35,3.95c-.24-.32-.66-.46-1.04-.35-.04,.01-.09,.03-.13,.05-.06,.03-.13,.07-.18,.11-.17,.13-.31,.28-.44,.44-.03,.04-.06,.09-.1,.13l-.65,.88c-.37,.49-.73,.99-1.1,1.49-.24,.32-.44,.6-.6,.84-.03,.05-.06,.1-.09,.14-.19,.29-.3,.51-.36,.7-.04,.13-.06,.26-.04,.39,.02,.14,.07,.27,.14,.39,.04,.06,.08,.12,.13,.17,.1,.11,.21,.21,.33,.3,.45,.31,.94,.53,1.46,.7,.43,.14,.88,.22,1.33,.25,.08,0,.16,0,.23,0,.07,0,.14-.02,.21-.03,.07-.02,.14-.04,.21-.06,.13-.05,.25-.12,.35-.22,.1-.09,.17-.21,.22-.33,.08-.18,.13-.42,.16-.77,0-.05,0-.11,.02-.16,.03-.29,.04-.63,.06-1.03,.03-.61,.06-1.22,.08-1.84l.04-1.09c0-.25,0-.53-.07-.78-.03-.12-.08-.23-.15-.34h0Zm7.37,1.7c-.14-.15-.33-.29-.63-.47-.04-.02-.1-.06-.14-.08-.25-.15-.56-.31-.91-.5-.55-.3-1.1-.58-1.65-.87l-.98-.51c-.05-.01-.1-.05-.15-.07-.19-.09-.39-.16-.59-.21-.07-.01-.14-.02-.22-.02-.05,0-.09,0-.14,0-.4,.06-.72,.37-.78,.76-.01,.12,0,.25,.01,.37,.05,.26,.16,.51,.28,.73l.52,.96c.29,.54,.58,1.08,.89,1.62,.19,.35,.36,.65,.51,.9,.03,.05,.06,.1,.09,.14,.18,.3,.33,.49,.48,.62,.2,.19,.48,.28,.76,.25,.07,0,.14-.02,.21-.04,.14-.04,.28-.09,.42-.16,.4-.22,.76-.49,1.09-.8,.39-.38,.74-.79,1-1.26,.04-.07,.07-.14,.1-.21,.03-.07,.05-.13,.07-.2,.02-.07,.03-.14,.04-.21,.01-.14,0-.28-.05-.41-.04-.13-.12-.24-.21-.34h0Z"/></svg>