<svg id="design" xmlns="http://www.w3.org/2000/svg" viewBox="0 0 40 40"><defs><style>.cls-1{fill:red;}.cls-2{fill:#fff;}</style></defs><rect class="cls-1" y="0.01" width="40" height="40" rx="4"/><path id="path4257" class="cls-2" d="M31.49,14.23a3.05,3.05,0,0,0-2.12-2.13c-1.87-.5-9.38-.5-9.38-.5s-7.51,0-9.38.5a3,3,0,0,0-2.12,2.13A31.94,31.94,0,0,0,8,20a31.82,31.82,0,0,0,.49,5.77,3,3,0,0,0,2.14,2.13c1.85.5,9.36.5,9.36.5s7.51,0,9.38-.5a3.09,3.09,0,0,0,2.14-2.11A31.94,31.94,0,0,0,32,20,32.79,32.79,0,0,0,31.49,14.23Z"/><path id="path4259" class="cls-1" d="M17.6,23.6,23.84,20,17.6,16.4Z"/></svg>