<?xml version="1.0" encoding="UTF-8"?><svg id="design" xmlns="http://www.w3.org/2000/svg" xmlns:xlink="http://www.w3.org/1999/xlink" viewBox="0 0 40 40"><defs><style>.cls-1{fill:url(#linear-gradient-2);}.cls-2{fill:#f4f4f4;}.cls-3{fill:#fff;}.cls-4{fill:#91c9ed;}.cls-5{fill:#98d0a0;}.cls-6{fill:#761116;}.cls-7{fill:#fef26f;}.cls-8{fill:#0b9ad6;}.cls-9{fill:#e79224;}.cls-10{fill:#68bf6b;}.cls-11{clip-path:url(#clippath);}.cls-12{fill:#ef463d;}.cls-13{fill:none;}.cls-14{fill:url(#linear-gradient-3);}.cls-15{fill:url(#linear-gradient);}.cls-16{fill:url(#linear-gradient-4);}</style><linearGradient id="linear-gradient" x1="-625.1" y1="597.48" x2="-625.03" y2="597.48" gradientTransform="translate(-38424.06 40247.43) rotate(90) scale(64.36 -64.36)" gradientUnits="userSpaceOnUse"><stop offset="0" stop-color="#ffe500"/><stop offset="1" stop-color="#fcb822"/></linearGradient><linearGradient id="linear-gradient-2" x1="-627.21" y1="586.39" x2="-627.14" y2="586.39" gradientTransform="translate(9881.36 68797.82) rotate(38.77) scale(80.92 -80.92)" gradientUnits="userSpaceOnUse"><stop offset="0" stop-color="#168ccc"/><stop offset="1" stop-color="#00649e"/></linearGradient><clipPath id="clippath"><polyline class="cls-13" points="16.72 17.88 20.5 19.58 18.79 23.45 15.02 21.74 16.72 17.88"/></clipPath><linearGradient id="linear-gradient-3" x1="-623.27" y1="600.69" x2="-623.2" y2="600.69" gradientTransform="translate(-33847.59 35160.01) rotate(90) scale(56.38 -56.38)" gradientUnits="userSpaceOnUse"><stop offset="0" stop-color="#25a149"/><stop offset="1" stop-color="#008a52"/></linearGradient><linearGradient id="linear-gradient-4" x1="-622.46" y1="598.86" x2="-622.39" y2="598.86" gradientTransform="translate(-29006.8 42261.49) rotate(80.59) scale(59.33 -59.33)" gradientUnits="userSpaceOnUse"><stop offset="0" stop-color="#d92231"/><stop offset="1" stop-color="#ba2234"/></linearGradient></defs><rect class="cls-2" width="40" height="40" rx="4" ry="4"/><g><path class="cls-9" d="M30,18.02v4.74l-.66,.64v-4.64l.66-.74"/><path class="cls-15" d="M29.36,18.77h-4.34v4.64h4.34v-4.64Z"/><path class="cls-7" d="M25.7,18.03l-.68,.74h4.34l.64-.74h-4.3"/><path class="cls-4" d="M20.33,18.23l4.27-.59-.36,1.02-4.04,.64,.02-.73,.12-.34"/><path class="cls-1" d="M24.23,18.66l.59,4.16-4.21,.59-.57-4.02,.25-.19,3.94-.54"/><path class="cls-8" d="M24.59,17.64v.03s.56,4.26,.56,4.26l-.32,.9-.59-4.16"/><g class="cls-11"><path class="cls-14" d="M10,16.55H30v6.9H10v-6.9Z"/></g><path class="cls-5" d="M16.33,16.55l.39,1.32,3.78,1.7-.32-1.27-3.85-1.76"/><path class="cls-10" d="M16.33,16.55l-1.52,3.61,.21,1.59,1.7-3.87-.39-1.32"/><path class="cls-16" d="M14.22,18.65l.62,4.09-4.17,.65-.67-4.1,4.22-.65"/><path class="cls-12" d="M10,19.3l.29-1.46,4.21-.68-.29,1.49-4.22,.65"/><path class="cls-6" d="M14.51,17.16l.62,4.13-.28,1.45-.62-4.09,.29-1.49"/><path class="cls-3" d="M23.52,19.46c-.02-.13-.06-.23-.13-.29-.06-.05-.13-.08-.21-.08-.02,0-.04,0-.06,0-.11,.02-.19,.07-.24,.15-.04,.06-.06,.13-.06,.22,0,.03,0,.07,0,.1l.15,1.08-1.21,.18-.15-1.08c-.02-.13-.06-.22-.13-.29-.06-.05-.13-.08-.21-.08-.02,0-.04,0-.06,0-.11,.02-.2,.07-.25,.15-.04,.06-.06,.13-.06,.22,0,.03,0,.07,0,.1l.41,2.82c.02,.13,.06,.23,.14,.29,.06,.05,.13,.07,.21,.07,.02,0,.05,0,.07,0,.1-.02,.18-.07,.23-.15,.03-.06,.05-.13,.05-.21,0-.03,0-.07,0-.1l-.17-1.11,1.21-.18,.17,1.11c.02,.13,.06,.23,.14,.29,.06,.05,.13,.08,.21,.08,.02,0,.04,0,.06,0,.11-.02,.19-.07,.24-.15,.04-.06,.05-.13,.05-.21,0-.03,0-.07,0-.1l-.41-2.82Zm-4.92,1.56c-.14,.34-.33,.57-.56,.69-.12,.07-.25,.1-.38,.1-.11,0-.23-.03-.36-.08-.26-.11-.43-.29-.5-.55-.02-.09-.04-.18-.04-.27,0-.19,.05-.39,.14-.62,.15-.34,.34-.58,.57-.71,.12-.07,.25-.1,.38-.1,.12,0,.24,.03,.36,.08,.26,.11,.43,.29,.5,.55,.02,.08,.03,.17,.03,.27,0,.19-.05,.4-.15,.63Zm.41-1.69c-.15-.16-.33-.28-.54-.37-.21-.09-.42-.13-.64-.13h0c-.22,0-.43,.05-.64,.14h0c-.22,.1-.41,.23-.58,.4-.16,.17-.3,.38-.4,.62-.1,.24-.16,.48-.17,.72,0,.03,0,.05,0,.08,0,.21,.04,.42,.11,.62,.08,.21,.19,.4,.34,.55,.15,.16,.33,.28,.55,.37h0c.21,.09,.42,.13,.63,.13h0c.22,0,.43-.05,.64-.14h0s0,0,0,0c.22-.1,.42-.24,.58-.41,.17-.17,.3-.38,.4-.62,.1-.24,.16-.48,.17-.72,0-.02,0-.05,0-.07,0-.21-.04-.43-.11-.63-.08-.22-.19-.41-.34-.56Zm-5.24,2.77s-.08-.07-.13-.09c-.06-.02-.12-.03-.2-.03-.07,0-.16,0-.26,.02l-1.1,.19c.01-.08,.05-.2,.13-.33,.08-.15,.21-.34,.37-.55h0c.06-.07,.1-.13,.13-.17,.02-.03,.05-.06,.09-.12,.25-.33,.41-.6,.47-.81,.03-.12,.06-.24,.06-.36,0-.03,0-.07,0-.1,0-.09,0-.17-.02-.26-.01-.08-.03-.14-.06-.19-.03-.05-.06-.09-.1-.11-.04-.03-.11-.04-.19-.04-.07,0-.15,0-.25,.02l-1.27,.22c-.15,.03-.27,.07-.34,.14-.06,.05-.09,.12-.09,.2,0,.02,0,.04,0,.07,.02,.11,.07,.19,.17,.23,.05,.02,.12,.04,.19,.04,.05,0,.11,0,.17-.02l1.07-.18s0,.04,0,.06c0,.07-.01,.13-.03,.2-.03,.09-.11,.21-.24,.37-.04,.04-.09,.11-.16,.2-.29,.35-.49,.64-.62,.89t0,0s0,0,0,0c-.09,.17-.15,.34-.18,.5-.02,.1-.03,.19-.03,.28,0,.06,0,.12,.02,.18,.01,.09,.04,.16,.06,.21,.03,.06,.06,.1,.11,.12,.04,.02,.1,.03,.19,.03,.11,0,.25-.02,.43-.05l1.16-.2c.2-.04,.35-.08,.43-.15,.07-.05,.1-.13,.1-.22,0-.02,0-.05,0-.07,0-.06-.03-.11-.06-.15h0Zm-.98-1.07h0s0,0,0,0h0Zm15.01,.94c-.17,.2-.39,.3-.68,.3-.29,0-.52-.1-.68-.3-.17-.2-.25-.47-.25-.83,0-.36,.08-.64,.25-.84,.17-.2,.39-.3,.68-.3,.29,0,.51,.1,.68,.3,.17,.2,.25,.48,.25,.84s-.08,.63-.25,.83Zm.89-1.53c-.09-.22-.21-.41-.38-.58-.16-.16-.34-.29-.54-.37-.2-.08-.42-.12-.65-.12-.23,0-.45,.04-.65,.12-.2,.08-.38,.21-.54,.37-.17,.17-.29,.36-.38,.58-.08,.22-.13,.45-.13,.71s.04,.49,.13,.7c.08,.22,.21,.41,.38,.58,.16,.16,.33,.28,.54,.37,.2,.08,.42,.12,.66,.12s.45-.04,.65-.12c.2-.08,.38-.2,.54-.36,.17-.17,.3-.37,.38-.58,.09-.22,.13-.45,.13-.7s-.04-.49-.13-.7"/></g></svg>