<?xml version="1.0" encoding="UTF-8"?><svg id="design" xmlns="http://www.w3.org/2000/svg" viewBox="0 0 40 40"><defs><style>.cls-1{fill:#fff;}.cls-2{fill:#f44238;}</style></defs><rect class="cls-2" width="40" height="40" rx="4" ry="4"/><path class="cls-1" d="M24.74,10h4.91c.19,0,.35,.16,.35,.35v4.74c0,.2-.15,.35-.35,.36h-1.39c-.19,0-.35-.16-.35-.35v-1.46l-14.8,14.26h3.04c.19,0,.35,.16,.35,.35v1.4c0,.2-.16,.35-.35,.35h-5.8c-.19,0-.35-.16-.35-.35v-1.75L26.4,12.1h-1.66c-.19,0-.35-.16-.35-.35v-1.4c0-.2,.16-.35,.35-.35Zm-12.65,2.05h9.33c.19,0,.35-.16,.35-.35v-1.34c0-.19-.16-.35-.35-.35H10.35c-.19,0-.35,.16-.35,.35v4.8c0,.2,.16,.35,.35,.35h1.39c.19,0,.35-.16,.35-.35v-3.1Zm15.82,15.84h-8.44c-.19,0-.35,.16-.35,.35v1.4c0,.2,.16,.35,.35,.35h10.18c.19,0,.35-.16,.35-.35v-4.95c0-.2-.16-.35-.35-.35h-1.39c-.19,0-.35,.16-.35,.35v3.2Z"/></svg>