<svg width="18" height="18" viewBox="0 0 18 18" fill="none" xmlns="http://www.w3.org/2000/svg">
<path fill-rule="evenodd" clip-rule="evenodd" d="M3.02941 5C2.46088 5 2 5.46088 2 6.02941V10.5882C2 12.0502 3.18513 13.2353 4.64706 13.2353H11.8529C12.3403 13.2353 12.7353 12.8403 12.7353 12.3529V7.64706C12.7353 6.18513 11.5502 5 10.0882 5H3.02941ZM14.1162 6.6612C13.616 7.05133 13.3236 7.65025 13.3236 8.28458V10.06C13.3236 10.5813 13.5541 11.076 13.9533 11.4113L16.0335 13.1587C16.4162 13.4801 17.0001 13.2081 17.0001 12.7082V5.6166C17.0001 5.12673 16.4363 4.85149 16.0501 5.15278L14.1162 6.6612Z" fill="white"/>
</svg>
