<svg id="design" xmlns="http://www.w3.org/2000/svg" viewBox="0 0 40 40"><defs><style>.cls-1{fill:#f4f4f4;}.cls-2{fill:#fdbd39;}.cls-2,.cls-3,.cls-4,.cls-5{fill-rule:evenodd;}.cls-3{fill:#f69833;}.cls-4{fill:#fecf33;}.cls-5{fill:#ee6723;}</style></defs><rect class="cls-1" y="0.01" width="40" height="40" rx="4"/><path class="cls-2" d="M11.7,23.63l-1.26.46-.06,3.74,4.34-1.59a4.52,4.52,0,0,1-3-2.6"/><path class="cls-3" d="M12.36,19.68,8,21.28l2.44,2.81,1.26-.46a4.56,4.56,0,0,1,.66-3.95"/><path class="cls-4" d="M19.69,14.3c-5.55,2-9.13,6.2-8,9.33L31.79,16.3c-1.14-3.14-6.56-4-12.1-2"/><path class="cls-5" d="M23.8,25.64c5.55-2,9.13-6.19,8-9.34L11.7,23.63c1.14,3.16,6.55,4,12.1,2"/><path class="cls-3" d="M31.79,16.3,11.7,23.63c.39,1.09,1.89,1.62,4,1.62a22.54,22.54,0,0,0,7.41-1.5c5.55-2,9.45-5.31,8.68-7.45"/><path class="cls-2" d="M27.79,14.68a22.68,22.68,0,0,0-7.42,1.51c-5.54,2-9.45,5.3-8.67,7.44L31.79,16.3c-.4-1.09-1.9-1.62-4-1.62"/><path class="cls-5" d="M26.68,28c-.59,0-1.46-.54-2.59-1.59a33.2,33.2,0,0,1-4.31-5.14,33.32,33.32,0,0,1-3.34-5.82c-.77-1.83-.88-3-.32-3.35a.71.71,0,0,1,.43-.13c.46,0,1.34.33,3,1.94l0,0v0a2.07,2.07,0,0,0,0,.35l0,.22-.16-.16c-1.76-1.76-2.53-2-2.78-2a.29.29,0,0,0-.17,0c-.24.17-.26,1,.49,2.78A33.7,33.7,0,0,0,20.17,21a32.72,32.72,0,0,0,4.24,5.06c1.42,1.32,2.05,1.46,2.26,1.46a.34.34,0,0,0,.18,0c.25-.18.25-1.07-.59-3l0-.09.08,0,.24-.14.1-.05.05.1c.59,1.36,1.15,3.09.42,3.6A.79.79,0,0,1,26.68,28Z"/><path class="cls-5" d="M23.93,25.58v.1c-.14,1.74-.51,3.82-1.48,3.91h-.06c-.65,0-1.27-.94-1.83-2.78a33.39,33.39,0,0,1-1.18-6.61,34.79,34.79,0,0,1,0-6.72c.25-2,.72-3,1.39-3.07h.06c.48,0,1.19.54,1.92,3l-.47.09a9.45,9.45,0,0,0-.78-2c-.24-.44-.48-.67-.67-.67h0c-.29,0-.72.73-.95,2.65a32.17,32.17,0,0,0,0,6.61A32.43,32.43,0,0,0,21,26.67a8.75,8.75,0,0,0,.75,1.83c.23.4.46.61.63.61h0c.28,0,.81-.76,1-3.36Z"/></svg>