<?xml version="1.0" encoding="UTF-8"?><svg id="design" xmlns="http://www.w3.org/2000/svg" viewBox="0 0 40 40"><defs><style>.cls-1{fill:#fff;}.cls-2{fill:#00d2b9;}</style></defs><rect class="cls-2" width="40" height="40" rx="4" ry="4"/><path class="cls-1" d="M26.66,29.88H14.7c-.62,0-1.15-.38-1.37-.95-.22-.57-.03-1.21,.46-1.59l2.67-2.16h-4.99c-.62,0-1.15-.38-1.37-.95-.22-.57-.05-1.18,.43-1.59l5.16-4.24c.43-.36,1.06-.29,1.42,.12,.36,.43,.29,1.04-.12,1.4l-3.98,3.29h5.93l8.07-6.49H13.36c-.89,0-1.73-.36-2.38-.97-.62-.62-.96-1.45-.96-2.32s.34-1.71,.99-2.34c.62-.62,1.47-.97,2.35-.97h11.62c.62,0,1.15,.38,1.37,.95s.03,1.18-.46,1.59l-2.59,2.11h5.24c.62,0,1.15,.38,1.37,.95,.21,.57,.03,1.21-.45,1.59l-7.37,5.92h4.59c.89,0,1.73,.36,2.35,.97,.62,.62,.99,1.45,.99,2.34v.05c0,.88-.34,1.71-.99,2.34-.62,.62-1.47,.95-2.35,.95h0Zm-10.4-1.97h10.4c.36,0,.7-.14,.96-.38,.26-.26,.38-.59,.38-.95v-.05c0-.36-.14-.69-.38-.95-.27-.26-.6-.38-.96-.38h-7.04l-3.36,2.7h0Zm-2.91-15.83c-.36,0-.7,.14-.96,.38-.27,.26-.38,.59-.38,.95s.14,.69,.38,.95c.27,.26,.6,.38,.96,.38h6.79l3.29-2.65H13.36Z"/></svg>