<?xml version="1.0" encoding="UTF-8"?><svg id="design" xmlns="http://www.w3.org/2000/svg" viewBox="0 0 40 40"><defs><style>.cls-1{fill:#fff;fill-rule:evenodd;}.cls-2{fill:#b2e522;}</style></defs><rect class="cls-2" width="40" height="40" rx="4" ry="4"/><path class="cls-1" d="M25.15,15.5c-.12-.04-.27-.02-.42,.02l-.56,.19v-5.21c0-.27-.23-.5-.5-.5h-7.37c-.27,0-.5,.23-.5,.5v5.23l-.56-.19c-.15-.04-.29-.06-.42-.02-.21,.04-.66,.25-.66,1.06v4.36c.06,.37,.31,.81,.87,.81h1.87c.19,.23,.64,.6,1.52,.66,.02,.64,.39,1.18,.96,1.41v1.23s-.02,.04-.04,.04c-2.62,.08-4.28,.91-4.76,1.18-.29,.17-.35,.52-.35,.75v.96c.02,.33,.29,.6,.64,.6,.31,0,.58-.27,.6-.58,.02-.31-.19-.56-.48-.64-.02,0-.04-.02-.04-.04v-.35c0-.08,.04-.17,.12-.21,.71-.39,2.51-.58,3.88-.66h.39s.04,.02,.04,.04c.06,1.1,.19,2.04,.23,2.62h-.04c-.23,0-.44,.27-.44,.62s.21,.62,.44,.62h.83c.23,0,.44-.27,.44-.62s-.21-.62-.44-.62h-.04s.15-1.52,.23-2.62c0-.02,.02-.04,.04-.04h.39c1.37,.06,3.18,.27,3.88,.66,.08,.04,.12,.12,.12,.21v.35s-.02,.04-.04,.04c-.29,.06-.5,.33-.48,.64,.02,.31,.29,.58,.6,.58,.33,0,.62-.25,.64-.6v-.96c0-.23-.06-.56-.35-.75-.48-.27-2.16-1.1-4.76-1.2-.02,0-.04-.02-.04-.04v-1.23c.56-.23,.93-.77,.96-1.41,.85-.06,1.31-.46,1.52-.66h1.87c.56,0,.81-.44,.87-.81v-4.36c-.02-.81-.48-1-.69-1.06Zm-9.35,4.53l-.85,.64s-.04,0-.04-.02v-4.09c0-.17,.02-.37,.1-.35l.75,.25s.04,.04,.04,.06v3.51Zm9.24,.64l-.85-.64v-3.49s.02-.04,.04-.06l.75-.25c.1-.02,.1,.19,.1,.35v4.09s-.02,.02-.04,0Z"/></svg>